/* XPM */
static char *xpm_[] = {
/* columns rows colors chars-per-pixel */
"64 64 256 2 ",
"   c #170A29",
".  c #1B0A2D",
"X  c #0F0D35",
"o  c #150B33",
"O  c #1C0B33",
"+  c #1D0739",
"@  c #150D3C",
"#  c #1C0B3B",
"$  c #29072D",
"%  c #220B2D",
"&  c #2C0634",
"*  c #240B33",
"=  c #2A0B34",
"-  c #230B3B",
";  c #2B0B3B",
":  c #320B3C",
">  c #0E0D4E",
",  c #140D43",
"<  c #1B0C43",
"1  c #140D4B",
"2  c #1B0D4B",
"3  c #17114C",
"4  c #190D53",
"5  c #0E135A",
"6  c #131154",
"7  c #1A1257",
"8  c #13135B",
"9  c #230B44",
"0  c #2C0C46",
"q  c #230B48",
"w  c #330A43",
"e  c #390A46",
"r  c #340A4B",
"t  c #3B0C4C",
"y  c #33104C",
"u  c #270751",
"i  c #230C53",
"p  c #2C0C54",
"a  c #230C5B",
"s  c #2C0C5C",
"d  c #380C55",
"f  c #27105B",
"g  c #190D68",
"h  c #0D1467",
"j  c #161668",
"k  c #0C1778",
"l  c #161A78",
"z  c #2C0D63",
"x  c #260C68",
"c  c #360D67",
"v  c #291268",
"b  c #35116A",
"n  c #290C73",
"m  c #350D75",
"M  c #281477",
"N  c #381378",
"B  c #18217C",
"V  c #430C53",
"C  c #460C52",
"Z  c #460C59",
"A  c #4B0D5B",
"S  c #4B1159",
"D  c #4C0D64",
"F  c #470C6A",
"G  c #530C63",
"H  c #580C6A",
"J  c #541369",
"K  c #450E77",
"L  c #590D75",
"P  c #431279",
"I  c #571274",
"U  c #680D78",
"Y  c #691377",
"T  c #6C1076",
"R  c #81137E",
"E  c #0F1B8E",
"W  c #141C85",
"Q  c #1B1E82",
"!  c #2B1988",
"~  c #32138A",
"^  c #371788",
"/  c #381A97",
"(  c #16248A",
")  c #0E2893",
"_  c #152997",
"`  c #23298F",
"'  c #262599",
"]  c #352298",
"[  c #131EA5",
"{  c #381AAB",
"}  c #152BA7",
"|  c #102FAE",
" . c #1633AA",
".. c #1737B8",
"X. c #2928A7",
"o. c #3A25A6",
"O. c #2833AA",
"+. c #392BB8",
"@. c #2C32B6",
"#. c #510F8A",
"$. c #471288",
"%. c #57138B",
"&. c #451799",
"*. c #571697",
"=. c #6C0981",
"-. c #760E85",
";. c #651585",
":. c #791388",
">. c #69189B",
",. c #791699",
"<. c #4A209E",
"1. c #4918A5",
"2. c #581AA9",
"3. c #4D1AB8",
"4. c #591BB8",
"5. c #681AA7",
"6. c #7819A6",
"7. c #651AB6",
"8. c #741BB7",
"9. c #4526A7",
"0. c #4729B6",
"q. c #4F2AB3",
"w. c #5524B7",
"e. c #6823B5",
"r. c #1146B9",
"t. c #2643BB",
"y. c #183AC8",
"u. c #1B34D0",
"i. c #273BCA",
"p. c #3737C5",
"a. c #2C37D4",
"s. c #1F39E1",
"d. c #2A3AE7",
"f. c #701CCA",
"g. c #5132CE",
"h. c #6625C7",
"j. c #7625C8",
"k. c #6828D4",
"l. c #7625DA",
"z. c #6F33D4",
"x. c #791FEB",
"c. c #523AE6",
"v. c #7728E7",
"b. c #6833E5",
"n. c #7834E5",
"m. c #7432F4",
"M. c #1646CB",
"N. c #1649D7",
"B. c #1755D8",
"V. c #3149CE",
"C. c #2648D9",
"Z. c #186DDD",
"A. c #2066DB",
"S. c #1C4DE8",
"D. c #1A58E6",
"F. c #2449E7",
"G. c #3150EE",
"H. c #2755F5",
"J. c #196EE8",
"K. c #2677E9",
"L. c #2B6CF0",
"P. c #4841D7",
"I. c #7A46D2",
"U. c #474CE8",
"Y. c #704CEB",
"T. c #536FEB",
"R. c #726EEF",
"E. c #84158B",
"W. c #8A108E",
"Q. c #891498",
"!. c #971698",
"~. c #A7179A",
"^. c #9F2397",
"/. c #881AA5",
"(. c #9818A5",
"). c #8C17B5",
"_. c #971AB8",
"`. c #A717AA",
"'. c #B516AD",
"]. c #A91AB5",
"[. c #B51ABB",
"{. c #8E24B5",
"}. c #AF25AE",
"|. c #B624B9",
" X c #CC1ABA",
".X c #CE24B7",
"XX c #EC2BBB",
"oX c #921CC9",
"OX c #A81DC6",
"+X c #BB1CC4",
"@X c #AD1ADA",
"#X c #8D27CF",
"$X c #B224D2",
"%X c #931CE7",
"&X c #AA1DE7",
"*X c #8324E6",
"=X c #9229EF",
"-X c #8A34E8",
";X c #B02AEA",
":X c #C619C6",
">X c #D81AC9",
",X c #CA18D5",
"<X c #D81BD7",
"1X c #E51AD4",
"2X c #D127CF",
"3X c #EC27CB",
"4X c #E826D7",
"5X c #F430D4",
"6X c #D61AE2",
"7X c #EE13EB",
"8X c #D029EC",
"9X c #F632EB",
"0X c #9F48DA",
"qX c #B96ED9",
"wX c #9550EF",
"eX c #AE4CF1",
"rX c #8B6EEB",
"tX c #B16EE9",
"yX c #D64AD5",
"uX c #E945D7",
"iX c #F14ED8",
"pX c #D56ADB",
"aX c #EB70DB",
"sX c #CB52E9",
"dX c #F44CEA",
"fX c #D07BE7",
"gX c #F073EC",
"hX c #1C8EE4",
"jX c #2D8DF0",
"kX c #2997F6",
"lX c #31AFF1",
"zX c #4C92F9",
"xX c #6890EE",
"cX c #50B6F1",
"vX c #71B1F1",
"bX c #35CBF2",
"nX c #34E4F6",
"mX c #49D2F3",
"MX c #6FD2F0",
"NX c #50EDF7",
"BX c #B593DB",
"VX c #9193EB",
"CX c #BA8BEF",
"ZX c #93B7ED",
"AX c #ADA5E9",
"SX c #D58EDB",
"DX c #ED90DA",
"FX c #EAABDC",
"GX c #D28CF0",
"HX c #EC89EB",
"JX c #F387E8",
"KX c #E995E8",
"LX c #F699E9",
"PX c #D3AAEC",
"IX c #E8A6EB",
"UX c #EDADEB",
/* pixels */
"q q q q q q q q q q q q q q q q q q q q q q q q q q q q q q q 9 q q q q q q q q q q q q q q q q q q q q q q q q q q q q q q q q ",
"q q q q q q q q q q q q q q q q q q q q q q q q q q q q q q q q q q q q q q q q q q q q q q 2 2 q q q q < 2 q q q q q q q q q q ",
"q q       o + < 4 a x x n g x M n n ! ! ! ' [ [ } X.@.X...i.y.i.u.u.u.s.C.F.N.C.D.D.B.B.N.B.M...| [ _ W h h h 5 > > , X X , q q ",
"q <     o o < 4 i x g n M x x l W ! ~ ' X.X.+.p.p.a.a.s.a.s.u.F.F.F.F.F.H.H.J.L.K.K.jXK.J.Z.B.B.M...| _ E k h 5 > > @ o X @ q q ",
"q q     o @ 2 u 7 4 a M M g g n l / o.{ +.@.p.p.a.a.p.d.s.d.G.L.H.H.H.H.H.H.L.jXkXkXkXlXkXkXK.D.B.y.y.| E k h > > > @ X X , < < ",
"q q   @ @ @ 2 a n x n M n n M ! ' +.0.p.g.g.p.c.c.U.xXxXvXvXvXvXvXvXcXcXlXkXjXkXlXbXlXbXbXbXlXhXJ.N.N.y.| E k 5 > > , X X , q q ",
"q q   2 < + 2 4 N ~ m m ~ n / o.9.g.g.g.U.c.T.VXZXZXZXxXT.T.A.L.L.L.K.jXlXcXmXmXmXmXnXnXnXnXbXlXjXZ.N.N.y.| E h > 4 @ , , 1 q < ",
"q 9   < 2 < i x M ! ! ! ! ~ { g.g.g.c.c.R.AXAXVXT.U.U.V.a.a.a.F.C.N.N.N.M.F.L.jXcXmXNXnXnXnXnXbXkXK.A.N.u.| [ k 5 g > > > > q q ",
"q q . q 2 u a x ^ ~ ~ ~ ] ~ 3.c.b.b.rXAXAXR.P.U.c.V.a.i.@.V.i.i.i.i.N.u.N.S.S.D.J.J.kXmXNXNXnXbXlXhXJ.D.u.y.[ E h k > > 5 > < u ",
"q q o 4 4 a x m ^ &.{ ~ { { h.v.Y.CXPXR.b.c.P.P.p.p.p.O. ... ...........M.N.N.B.B.N.J.J.kXmXNXbXlXkXK.D.S.u.u.E h W 5 5 g 5 q q ",
"q q # a x n ~ ~ / &./ / 0.0.m.wXPXCXb.g.g.g.@.+.X.] X.}  .O.}  .} | ....| ......r.r.B.A.D.J.lXNXbXkXL.L.S.M.u.[ k E g h h 5 q q ",
"q q q s n m $./ &.1.{ 2.b.n.tXUXwXY.b.0.0.+.o.o.X.X.! ` ( ( ! _ _ _ } }  .| | ..r.y.N.B.B.Z.Z.hXnXlXK.L.H.N.s.[ E E h h h g q q ",
"q q s z x ^ &.*.&.3.2.k.=XfXPXwXz.z.g.9.+.o.o.] ! ` ! Q B ! B ( Q E ) ) _ }  . ...| r.M.N.N.B.D.hXbXzXL.H.S.N.@.[ _ k k W l 9 q ",
"q q z z m $.&.1.2.4.h.x.GXPXwXn.h.h.q./ ] ] ] ! ! M M l l l l l l W ) E W _ ) _ | | | r.y.N.B.N.H.L.bXlXD.H.d...| } k k W j q q ",
"q q z b m &.1.2.4.l.x.tXFX0Xb.z.w.q.9./ ^ ] ^ ! M M v j j j j j l l l k l ( ( ( ) ) }  .| y.N.r.C.H.Z.bXhXH.d.y.| | k W ( l 9 q ",
"q q z m ^ 1.4.h.h.*XeXFXtXv.q.2.1.<./ M M M M v v v f 7 8 7 v 7 a j j j l B B l ( ( ) _ ) ..y.| r.N.S.K.mXjXS.u.u.u.W E E k q q ",
"q q z m ^ 1.4.l.v.-XIXpX-Xk.^ &.&.&.^ M M M b v f 7 2 2 3 7 7 7 7 7 j 8 j 8 h B ( k B ) )  . . .r.y.N.D.jXmXZ.s.u.y.) ) ) B 2 q ",
"q q c m $.2.f.l.x.GXGX*Xv.0./ &.<.^ ^ v v v v f f q i 2 < 2 7 3 3 7 7 7 6 6 5 j l h h k ) ) ) | y...M.B.C.lXmXF.u.r._ _ } k q q ",
"q q b ^ *.e.v.*XeXIX0X*Xk.&.~ ^ ^ N N v a v v f f i f 2 3 2 2 3 3 3 3 7 3 3 6 8 5 8 8 l B ) ) )  . .r.C.i.K.NXjXa.N.|  ._ ( q q ",
"q q b &.3.j.l.=XKXqXv.v.7.$.^ / ^ N M v 7 v z f i q i q , 2 2 < < 3 3 2 3 3 3 5 5 5 5 h B ( B ) _  . .r. .N.lXcXH.M. . .} ( q q ",
"q q m 1.4.j.-XeXFX-X*Xf.2.P ^ $.N N z a a a a q 2 q i 2 < 3 < < @ , , 9 3 < 3 6 3 3 5 5 B B B B )  . . .) B.L.MXjXC...O. .( < 9 ",
"q u m *.5.j.=XHXqX=Xl.7.*.$.N N N m z a i q 2 q 9 9 q 2 # < < < # @ @ < < < , , 3 3 3 5 h B h B B ( )  .( t.G.lXcXC... . .) q 9 ",
"q q c *.8.x.eXIX0X*Xj.4.&.$.P P N c s u q 9 9 < - < 9 3 - < # # # @ @ - @ @ @ , , , 3 3 8 j j j B ( ) _ ( r.V.K.MXzX..}  ._ q q ",
"q q z 5.l.%XSXgX%X8.e.2.1.$.P P b s s q 2 9 # # # 9 9 - # # # O # o o # @ @ X @ @ @ @ 1 8 j j j B B B ( B r.V.A.cXcXi. .O._ q q ",
"q q c 8.#X;XPXsXv.l.e.*.*.$.N P P s 0 q 2 - # - - - - O # # O O . O o O o o o @ , @ @ , 8 8 5 h j B Q l B ) t.B.zXMXM.O.y.` 3 9 ",
"q q N 8.=X;XIX2X#Xz.5.%.#.$.P N m d 0 9 q # O # - - - - - O O O . O o O o O o o @ @ @ 3 7 8 8 5 j B l l j _ t.V.jXMXT.t.i.` q 9 ",
"q q #.8.%XsXKX$XoXj.5.%.$.$.F N b p 0 9 9 # O O O - - * # O O . . o   o o O O O @ @ , , 3 3 6 6 j B B l B ( O.@.L.MXT.a.y.O.q q ",
"q q >.{.@XfXSX&X#X8.%.P P P F c d p q 9 # # O O * - * O O O . . . . O . . . . o o < , < 3 , 3 7 8 j B ( ` ` ( ( G.vXxXC.V.O.q q ",
"q q 5.oX;XDXpX&X{.6.%.F m K c d p p q 9 - O . * O * * O O O o . . . . . . . . O @ < < , , @ , 3 8 M B ( ( X.Q ( G.cXvXd.V.O., q ",
"2 q 6.oX8XDXpX&X{.6.;.c N P F d r p q - # O O O * O * O O % . . . . . . . O O   O # < , @ # < 2 7 j B B _ O.( M V.xXZXG.V.O.q q ",
"q q ,.oX8XLXsX;X{.6.%.c c F D y y 0 0 9 ; * O . . * * % % * % . . . .       . O @ @ < @ < @ @ 2 7 j M B ` ' Q Q P.xXZXG.V.@.q q ",
"q q 5.OX8XIX8X&X{.8.;.c F K d d y 0 q 0 - * * * * * * % % * O % + .   .   . . . o O @ < < < < 3 7 M Q Q ( ' ' ' V.T.ZXG.V.O.q q ",
"q q 5.OX8XLXyX@X).6.;.F K F S d y 0 0 0 ; * * * % % % % % % * % % . . . . . . . O o @ < < < , 2 7 j ! Q B ' O.] V.T.ZXU.a.@.q q ",
"q 9 6.OX8XLXyX&X/.6.;.J J D Z y r w ; ; ; = * % = = = %   % . . . % . . . . . . . o O # < < 2 7 7 v ! ] M ` O.O.g.T.ZXU.V.+.q q ",
"q q /.OX8XLXuX@X/./.;.I H F V y r 0 ; ; = * = * = = $ % % % % % % . . % . . . . O O O # - < 3 4 3 v ] ] M ' +.@.p.R.ZXU.p.@.q q ",
"q q Q.OX<XJXgX$X/./.;.Y H H S t w w w ; = = * = = = $ %   % % % . % . . . .   . . O O O # q 7 3 7 j ^ ] v ] @.t.P.R.ZXd.g.+.q q ",
"q q /.{.6XgXaX:X]./.;.Y U D S C r w 0 ; ; = = = = = = % % % % % % % % . . . O . . O O # < 2 a i f v ! ] v o.p.+.g.VXVXd.p.+.2 q ",
"q q Q.oX,XpXHX,X]./.I Y Y J C S t r r w : = = ; : = = * % * * $ = $ % % % . O O . # @ # 9 2 i f v M ] ] ` o.0.+.U.VXrXg.i.X.q q ",
"q 9 ,.oX+XdXLX4X+X/.;.Y T F V S V r r w : ; = ; : : ; * % % % = = $ * * O O O O % o # < 9 i 7 v M N ] ] ] o.0.0.b.AXR.c.p.W q q ",
"q 0 ,._.|.8XLXuX$X}.>.Y -.H V A Z t r t t w = : : ; = * % % * * * = * * * * - O . # 9 < 9 i i b M ^ ] ] 9.9.q.g.Y.PXY.c.+.l q q ",
"q q ,._.|.$XJXaX2X[.,.T :.L A G Z V t t V w ; : : : : * % % % * = = = * * - - * O * q q q p a M ^ ^ / o.o.9.g.g.rXAXb.g.+.j u q ",
"q q :.(.[.OXdXJX8X:X/.E.W.U A J A V t V C e : w e : : = % % % * = = = = - - - - + + 9 q q f s N ^ / / ] 9.0.k.c.AXtXb.g.+.8 q 9 ",
"q q :.!.].OX9XIXuX6X(.).,.J U Y G d Z C C C : e e : w ; * & * ; = = ; ; ; ; 9 - - 9 0 q q p f N ^ ^ ] 9.9.h.k.I.PXY.k.0.o.x q q ",
"q q Y /.`.[.+XaXaX4X].(.!.E.:.Y H Z Z G A V e e e C e : ; ; ; ; - ; 0 ; 9 ; 0 9 q q q i i p z ^ ^ ^ ~ &.3.b.z.tXCXb.g.0./ M q q ",
"q q ;.Q.(.'.+X9XLXuX:XE.`.+XE.-.T G G H G A e C C C e e w w ; ; 0 ; w 0 0 0 q u q u p i u z z ^ <.^ ^ w.k.b.0XPXwXb.0.0./ M q q ",
"q q =.(.(.'.+X6XgXDX<X~.'.'.Q.W.T H H H H A C C C V C e e r w 0 0 0 w r r 0 r r p p d s s b m &.<.&.1.h.n.z.CXCXm.k.0.9.~ M q q ",
"q q Y ).(.`.OX,XyXKXuX+X[.`._.(.T U T T L D C C S A Z V t t t t w t r t r r u p d z c c c b N &.2.1.2.z.n.wXPXwXb.k.9./ ~ x q q ",
"q q U Q.(.].+X].2XdXHX<X>X X'.(.W.-.E.T L D C C S A S V t t t y y t t d d d d d c d c c c P $.2.w.2.7.n.-XGXtXv.k.w.1./ ~ n q q ",
"q q J :.Q.).OX].,X4XaXgX7X>X}.(.W.-.W.-.U H G G G G G G V d V Z Z d Z Z Z d V c c F P P P #.&.1.5.2.k.-XBXGX*Xk.h.0.1.~ N x q q ",
"q q d I =.Q.]. X[.3X9XJXiX>X,X:X`.(.(.W.E.=.L U H T T H D Z D A G A F D F D D F b K #.#.$.&.1.w.h.l.#XtXKX-Xv.k.q.1./ ~ n 4 q q ",
"9 9 V H -.(.].[.:X2X8X9XFXiX7X>X[.`.'.~.W.-.T T T T T T G D D G G F F F F H G F K #.%.*.#.*.5.j.m.x.0XFXwXx.v.e.1.1./ m z 4 q q ",
"u u d H =.Q.].+X:X6X3X3X5XJXiX3X:X X X'.~.W.W.:.T T E.T L H I I L H L K L L L #.#.%.>.5.1.7.f.v.=XqXUXsXx.k.h.2.1.1.^ m s 2 q q ",
"9 9 e G U W.`.+X[.2X4X3X9XdXJXiX2X X>X>X X`.W.Q.E.E.W.W.U U ;.;.=.L ;.;.;.;.;.%.>.5.8.8.7.j.=X%XqXIXeX-Xh.7.4.2.1.1.^ x i < q q ",
"q q w C H -.(.].'. X<X4X4X4XdXJXaX3X>X>X:X[.!.-.:.!.~.!.W.E.:.:.:.:.;.;.;.>.>.>.5.6.8.).f.#XeXSXIXeX*Xl.w.2.2.&.~ m n z q < q q ",
"q 9 ; V G U :.(.`.+X:X<X3X5X9XuXJXJXyX>X1X>X'.(.!.(.'.`.(.(.Q.Q.Q.,.-.;.,.6.e.{.oX{.#X%X#XsXLXGX=X=Xl.h.3.&.&.^ c z x z 2 + q q ",
"q q ; Z D H =.:.(.]. X>X3X5X9XdXdXgXLXgX5X1X1X1X.X X+X].].'.`._.`.(._._._.oX{.OX#X%X&X;XSXUXpX*Xx.*Xh.3.&.^ m m m n x z q + q q ",
"q q = C A G U -.W.(.`. X>X3X5X5XdXdXdXgXLXaX5X5X1X>X>X+X+X+X[.[.[._.].OXOX@X@X@X;XsXSXUXgXsX=Xl.f.8.2.3.$.m m z n n z i 2 # q q ",
"q 9 = t V Z H U -.E.W.'. XXX5XiXiX9XdXdXiXaXJXJXpXyX4X>X<X<X:X<X,X:X<X<X2XsXsXpXLXLXgX;X%X=Xx.f.7.5.2.&.~ x s s z c s u < + q q ",
"q q $ : t V A L U T :.!..X.X3X5XiXiXiXiX9X9X9X9XdXgXHXgXgXaXpXpXpXpXaXJXKXLXLXHXsX;X%X%X%XoX7.2.4.4.&.N n s p u s x p q + O q q ",
"q q % & : t Z G U Y T E.!.~. XXXXXXX5XXX9X9X5X5X9X9X9XdXgXdXgXgXgXgXgXdXdX8X;X@X$XoXoXoX8.7.%.#.&.2.$.c s u q q u s q < + O q q ",
"q 9 % $ & w V A G H H T R ~.~.~.}.XXXXXXXXXX3X5X3X4X5X4X4X<X4X4X2X6X8X,XOX$XoX_.OX).f.8.>.#.#.m K #.m c s q q 9 q a + # O O q q ",
"q q   % $ ; e V C S A G T R ^.^.~.}.~..X.X.X X.X>X X>X>X:X2X+X+X+X].OX_.).{./.6.8.6.>.%.#.#.$.c c c c c u q 9 < 2 q O O + + q q ",
"q q q 9 9 9 q q w w q q q q = - q q q q : 9 q q q q 2 q q q q q 2 9 q q q q 2 q q q q q q q q q q q q q q q q q q q q q q q q q ",
"q q 9 0 0 q q q q q q q q q q q q q q q q 0 q q q q q q q q q q q q q q q q q q q q q q q q q q q q q q q q q q q q q q q q q q "
};
