/* XPM */
static char *_5fae054d8cb469784e7956de5f0cf54VGPD0dzvlwVPWfZe[] = {
/* columns rows colors chars-per-pixel */
"64 64 82 1 ",
"  c #1A0F04",
". c #1E1202",
"X c #241401",
"o c #281701",
"O c #2C1901",
"+ c #341D02",
"@ c #3A1F06",
"# c #3C2101",
"$ c #442601",
"% c #482707",
"& c #4C2A01",
"* c #532E01",
"= c #573001",
"- c #5C3301",
"; c #633602",
": c #663801",
"> c #6C3B02",
", c #723E02",
"< c #754001",
"1 c #7B4301",
"2 c #230B48",
"3 c #804601",
"4 c #844801",
"5 c #8B4C01",
"6 c #904F01",
"7 c #955101",
"8 c #9B5501",
"9 c #A05702",
"0 c #A45902",
"q c #AB5D01",
"w c #B46201",
"e c #BB6601",
"r c #BF6801",
"t c #C36A01",
"y c #CA6E01",
"u c #CE7001",
"i c #D37301",
"p c #D97601",
"a c #DD7801",
"s c #E47C01",
"d c #EA7F01",
"f c #ED8101",
"g c #F18301",
"h c #F28401",
"j c #F68601",
"k c #F98701",
"l c #FA8801",
"z c #FE8A02",
"x c #FF8B03",
"c c #FF8D07",
"v c #FF8E09",
"b c #FF910E",
"n c #FF9211",
"m c #FF9314",
"M c #FF9416",
"N c #FF9619",
"B c #FF981E",
"V c #FF9921",
"C c #FF9C26",
"Z c #FF9D29",
"A c #FF9F2E",
"S c #FFA233",
"D c #FFA438",
"F c #FFA53B",
"G c #FFA840",
"H c #FFAA46",
"J c #FFAB48",
"K c #FFAE4C",
"L c #FFAE4D",
"P c #FFAF50",
"I c #FFB053",
"U c #FFB155",
"Y c #FFB358",
"T c #FFB45B",
"R c #FFB55D",
"E c #FFB660",
"W c #FFB965",
"Q c #FFBB6A",
"! c #FFBC6C",
"~ c #FFBE70",
"^ c #FFC075",
"/ c #FFC682",
/* pixels */
"2222222222222222222222222222222222222222222222222222222222222222",
"2222222222222222222222222222222222222222222222222222222222222222",
"22....XXXOoO++@@##$%%%%*=--;;;;;-;;;;*#++OO@@++OOoXXXX ..X...X22",
"22......ooO+##$#$&&**=-;;>:,33311111<>:::-=*&$$$#++Ooooooo..XX22",
"22.....XXooO++#+$*==-=&*;>><14777754414541,:;=**&$$#+++OOOooXX22",
"22......ooOOO+##$&*=-;::18ydcCDDSGDZzayq6531,:;=**&&$#+++++oXX22",
"22XX.Xoo+###&&*-;:,115izDUDNjdpyqwtudcZLZdq554<::-*&&#++#++OoX22",
"22XoXXooOO+#$&*--:<5yvGvar087554<134457qpAJct851<>;*&$+##+OOoX22",
"22XoooO++#&**-;;>5enZd0844>$&$$$=;:>::>1<10hLvq511>:;*$#+OOooX22",
"22OOoO#$&=-:,1440zHfq853<,-#$$$&-;::>:,13456qzTd744<:-*$#+OooX22",
"22OO+#&*;>,1146tVj051,:-*&&***==*&**==-;:><567rGC03<:=*$#+Oooo22",
"22O+#*;:<14565yBt1>=*$$#++#&&&&$#++##&=*=--:1578vYr3<>-&$##+OO22",
"22@$*:>157809sMq64<:=*&$###$$$$$$&***=**=--=>1578f~i84,:*&$##@22",
"22$*->168qqwfn831,:-*&&$###$$$$$$&&*&&&&**&$&*;>14yQi54<;=&&$@22",
"22%->18wryyhM051::-=*&$$###++++++++++#&&$&&$$&*:;15pEe651>;*$#22",
"22*>47tadfcZw51<:-=*&$###++OOooO+OOOO#$$$&&*=-;>:468fE041:-*&#22",
"22;18wdlmNHt51:;*&##++++OooOooooooooo+###$$&&*=-->158NC51;-*$@22",
"22>5wsvCSRd851>;=&&$#+++OooooXXXXoooOOoooOO+###$*=;18rTj03>-&%22",
"22<8ukZDUA073>;-*&&$#++++OOooXXXXooooooOO++++#$$&*-:47i^y73:*%22",
"2210izSIQu51>-*&&$$#++++OOoooXXXXXooooooooooO++#$&**:<5VN64<;*22",
"224wpzSQVq71,-=*$++OoooooooooXoXoXX..XXooOooO++#$*=;<15rWw74>*22",
"224wpzZRi85<:=*&#+OoooooXXXXXoXXo....XXoOOOOO++#$*=;,157Vz741-22",
"224qijSV84>:-*&$+OOooooXXXXXXXXXX....XXXXXoooO++#$&*;>15iT051>22",
"225wudDf75::-*&$#+OoooooXXX.....X.....X..XoooO++##$&-:57wHs85,22",
"2249eiSe41;-*&$##+OoooXX..X...XXX....XXoooooOO++#$$&=:356zB73>22",
"2218quN84<;=*&&$+ooooXX.......XXX....XooooooOOO+#$$&=:<47aLq5,22",
"22178az63,;=*&$$OooXXX...............XXoooooOOO+#$$&=:<48tTy9422",
"22<57di1<:=&&$##OoooXoXXX............XXooooOOO++#$$&*;:160Da7122",
"22,45lt1,;*&$#++OOoooooXXX.........XXXooooooOO++##$&==-470Ak8422",
"22>15cq1>:=&$$#++OooXoXXX........XXXooooooooOOO+##$&==-470bmq722",
"22;15v8>:;*&$#+++OooXXX..........X.XooooooooOOO+##$$*;:157gNq522",
"22;30Vq4>;*&$#+OOoooXXX.............XoooooooOOO+#$&*=:<478fBw822",
"22;18Vq4,;*&$#+OOoooooX.........XXXXoooooooooO++#$&&-:<478fBe922",
"22-,4b8,:-*$#++OOooooooX.......XXoooooooXooooO++##$&*;<367gmq822",
"22-,1Nw1<:=&$#+OoooooooXXXX...XXXXXXooooXXXoOO+++#$&*;3680zcw022",
"22;,,vr,>;*&$#+OoooXoooooooXXXXXX..XXXXX..Xo+++##$$&=:4580njw022",
"22-,>fd1>-*$$#+OoooooooooooXXXoXXX.XX.XXoooO++##$*=-:<557qVdw022",
"22-,:iS81:=&$##+oOOOooooooXXXXooooooooooooO++##$&==;,1580tSurq22",
"22*>:qH93>-&$$#+oOoooooooooXXooooooooOOoOO++###$&**->>179iZtr022",
"22*:,4Se3,;*&$#+OOOOoooooooXXXoooooooOOO++++##$$&**;>;190jvtr022",
"22*:14jj51>-*&$#+++OOooXXXXXXXXXooooooOoOO+++##$$*-:,-4qtSdtrq22",
"22%-><wS53>;=*$##+++OooXXXXXXXXXoooooooooOOO++##$&=;:>7qpAuye022",
"22%=:15Zy41>;=&$$#++OoooXXXXXXoooooooooO++##$$$$&=:>480qbzyue022",
"22%*;15iZ64>;*&##++OoOoooXXXXXoooooooOO+####$&&&*;>370quLdiytq22",
"22@$=:16Sy1:-*$##++OooooooooooooooooOO++###$&*=-;,3589qMZdaur822",
"22$&-:14yL871>;*&&$###+O+OOooooOOOOOOO++###$&&*->35800iRjdsir822",
"22#$*;136Ml851:-*&$$$#++++++++OOOOOOOO+++###$&*-:1578eSBddsye822",
"22@##&:<3qYi41>=&=&$$#$$$$#+O++++++OO++###$&&*=::158qzAsddie0422",
"22@#+$;>17i!y85>&*&&$$$&$$$++++++####$$$&&*-;>1418qwgDaappuq7122",
"22++O#&=:35fQw5:&&$$#$$&&$$########$$$#+#$&;><3550qdGsipuye95122",
"22OOOO+#$&;7zIw4<:=*&$&&&&$&$$&$$#$$$$&&&*=>345880sGstytewq73;22",
"22@#+#$$&&=58c/p851>;====**$$$#$$$&&*=--;:>14580qjGattrwq073>-22",
"22++##$$&$&:35a!h855,:::-=*$##+#$**=-=**-:,>157wbSitrwq0741;*%22",
"22++O+#$&*&&-,3tLNq75311>>:=**==-=-;-=;:>1478qaGBtwrwq074,:=&#22",
"22OOo+#$&**=:<459MTf0655331<,>>>>,<11,4578qwiATjewwqq0851>-=&#22",
"22OOO+#$$&&&*;:<56tDPfq545155445111353780wpBLBtq08887531:--&$#22",
"22XooooO+#$&*=;>1458iZRVae08888758880qeplGUny087888775<:-*&$$@22",
"22XooooOO+$&&*=;:<4687tvIEHmhsiyypdgzCUESjy88877555543:*&$###@22",
"22.....XXo#$$&*==:,134558eazSLUYYPLGCkiw855555441>,>::=&&$#+OO22",
"22  .XooXXO++##$$&=-;><157670qwwrrwq088085543311>;-*&$$$$##oXX22",
"22   XooooOO++#++$$&**-;,,>4555657655454311<<<,,;&$$$####+OoXX22",
"22 .... XXXO+@@+@@#$%#@@#%*;>>::;,,,,>::>>;-;---*@O+OOOOooXXXX22",
"2222222222222222222222222222222222222222222222222222222222222222",
"2222222222222222222222222222222222222222222222222222222222222222"
};
