/* XPM */
static char *xpm_[] = {
/* columns rows colors chars-per-pixel */
"64 64 256 2 ",
"   c #170A29",
".  c #1B0A2D",
"X  c #0F0D35",
"o  c #150B33",
"O  c #1C0B33",
"+  c #1D0739",
"@  c #150D3C",
"#  c #1C0B3B",
"$  c #29072D",
"%  c #220B2D",
"&  c #2C0634",
"*  c #240B33",
"=  c #2A0B34",
"-  c #230B3B",
";  c #2B0B3B",
":  c #320B3C",
">  c #0E0D4E",
",  c #140D43",
"<  c #1B0C43",
"1  c #140D4B",
"2  c #1B0D4B",
"3  c #17114C",
"4  c #190D53",
"5  c #0E135A",
"6  c #131154",
"7  c #1A1257",
"8  c #13135B",
"9  c #230B44",
"0  c #2C0C46",
"q  c #230B48",
"w  c #330A43",
"e  c #390A46",
"r  c #340A4B",
"t  c #3B0C4C",
"y  c #33104C",
"u  c #270751",
"i  c #230C53",
"p  c #2C0C54",
"a  c #230C5B",
"s  c #2C0C5C",
"d  c #380C55",
"f  c #27105B",
"g  c #190D68",
"h  c #0D1467",
"j  c #161668",
"k  c #0C1778",
"l  c #161A78",
"z  c #2C0D63",
"x  c #260C68",
"c  c #360D67",
"v  c #291268",
"b  c #35116A",
"n  c #290C73",
"m  c #350D75",
"M  c #281477",
"N  c #381378",
"B  c #18217C",
"V  c #430C53",
"C  c #460C52",
"Z  c #460C59",
"A  c #4B0D5B",
"S  c #4B1159",
"D  c #4C0D64",
"F  c #470C6A",
"G  c #530C63",
"H  c #580C6A",
"J  c #541369",
"K  c #450E77",
"L  c #590D75",
"P  c #431279",
"I  c #571274",
"U  c #680D78",
"Y  c #691377",
"T  c #6C1076",
"R  c #81137E",
"E  c #0F1B8E",
"W  c #141C85",
"Q  c #1B1E82",
"!  c #2B1988",
"~  c #32138A",
"^  c #371788",
"/  c #381A97",
"(  c #16248A",
")  c #0E2893",
"_  c #152997",
"`  c #23298F",
"'  c #262599",
"]  c #352298",
"[  c #131EA5",
"{  c #381AAB",
"}  c #152BA7",
"|  c #102FAE",
" . c #1633AA",
".. c #1737B8",
"X. c #2928A7",
"o. c #3A25A6",
"O. c #2833AA",
"+. c #392BB8",
"@. c #2C32B6",
"#. c #510F8A",
"$. c #471288",
"%. c #57138B",
"&. c #451799",
"*. c #571697",
"=. c #6C0981",
"-. c #760E85",
";. c #651585",
":. c #791388",
">. c #69189B",
",. c #791699",
"<. c #4A209E",
"1. c #4918A5",
"2. c #581AA9",
"3. c #4D1AB8",
"4. c #591BB8",
"5. c #681AA7",
"6. c #7819A6",
"7. c #651AB6",
"8. c #741BB7",
"9. c #4526A7",
"0. c #4729B6",
"q. c #4F2AB3",
"w. c #5524B7",
"e. c #6823B5",
"r. c #1146B9",
"t. c #2643BB",
"y. c #183AC8",
"u. c #1B34D0",
"i. c #273BCA",
"p. c #3737C5",
"a. c #2C37D4",
"s. c #1F39E1",
"d. c #2A3AE7",
"f. c #701CCA",
"g. c #5132CE",
"h. c #6625C7",
"j. c #7625C8",
"k. c #6828D4",
"l. c #7625DA",
"z. c #6F33D4",
"x. c #791FEB",
"c. c #523AE6",
"v. c #7728E7",
"b. c #6833E5",
"n. c #7834E5",
"m. c #7432F4",
"M. c #1646CB",
"N. c #1649D7",
"B. c #1755D8",
"V. c #3149CE",
"C. c #2648D9",
"Z. c #186DDD",
"A. c #2066DB",
"S. c #1C4DE8",
"D. c #1A58E6",
"F. c #2449E7",
"G. c #3150EE",
"H. c #2755F5",
"J. c #196EE8",
"K. c #2677E9",
"L. c #2B6CF0",
"P. c #4841D7",
"I. c #7A46D2",
"U. c #474CE8",
"Y. c #704CEB",
"T. c #536FEB",
"R. c #726EEF",
"E. c #84158B",
"W. c #8A108E",
"Q. c #891498",
"!. c #971698",
"~. c #A7179A",
"^. c #9F2397",
"/. c #881AA5",
"(. c #9818A5",
"). c #8C17B5",
"_. c #971AB8",
"`. c #A717AA",
"'. c #B516AD",
"]. c #A91AB5",
"[. c #B51ABB",
"{. c #8E24B5",
"}. c #AF25AE",
"|. c #B624B9",
" X c #CC1ABA",
".X c #CE24B7",
"XX c #EC2BBB",
"oX c #921CC9",
"OX c #A81DC6",
"+X c #BB1CC4",
"@X c #AD1ADA",
"#X c #8D27CF",
"$X c #B224D2",
"%X c #931CE7",
"&X c #AA1DE7",
"*X c #8324E6",
"=X c #9229EF",
"-X c #8A34E8",
";X c #B02AEA",
":X c #C619C6",
">X c #D81AC9",
",X c #CA18D5",
"<X c #D81BD7",
"1X c #E51AD4",
"2X c #D127CF",
"3X c #EC27CB",
"4X c #E826D7",
"5X c #F430D4",
"6X c #D61AE2",
"7X c #EE13EB",
"8X c #D029EC",
"9X c #F632EB",
"0X c #9F48DA",
"qX c #B96ED9",
"wX c #9550EF",
"eX c #AE4CF1",
"rX c #8B6EEB",
"tX c #B16EE9",
"yX c #D64AD5",
"uX c #E945D7",
"iX c #F14ED8",
"pX c #D56ADB",
"aX c #EB70DB",
"sX c #CB52E9",
"dX c #F44CEA",
"fX c #D07BE7",
"gX c #F073EC",
"hX c #1C8EE4",
"jX c #2D8DF0",
"kX c #2997F6",
"lX c #31AFF1",
"zX c #4C92F9",
"xX c #6890EE",
"cX c #50B6F1",
"vX c #71B1F1",
"bX c #35CBF2",
"nX c #34E4F6",
"mX c #49D2F3",
"MX c #6FD2F0",
"NX c #50EDF7",
"BX c #B593DB",
"VX c #9193EB",
"CX c #BA8BEF",
"ZX c #93B7ED",
"AX c #ADA5E9",
"SX c #D58EDB",
"DX c #ED90DA",
"FX c #EAABDC",
"GX c #D28CF0",
"HX c #EC89EB",
"JX c #F387E8",
"KX c #E995E8",
"LX c #F699E9",
"PX c #D3AAEC",
"IX c #E8A6EB",
"UX c #EDADEB",
/* pixels */
"q q q q q q q q q q q q q q q q q q q q q q q q q 9 q q 9 q q q q q q q q q q q q q q q q q q q q q q q q q q q q q q q q q q q ",
"q q q q q q q q q q q q q q q q q q q q q q q q q q q q 9 9 q q q q 9 9 q q q q q q q q q q q q q q q q q q q q q q q < q q q q ",
"9 9   $ $ $ * = = ; w e V t d J T Y Y ;.U :.:.,.,.,.,.,./.6./.5.6.6.5.5.>.%.P b c z m m m c c z z z z s i # o .             q q ",
"q 9 % $ : : e V V V C G H L I :./.(.(././.!.(._._.OX_.oXOXOXOXOXoXOX#X{.8.8.8.8.5.*.*.1.&.N N m n b z z z 4 u < < 2 ,       q q ",
"q q % & : t V A D G H U =.-.-.Q.(.!.(.`.].].[.|.|.+X,X6X6X8X8X8X8X8X8X&X;X#X%X%Xl.8.5.4.3.*.#.^ ^ m m n x z 4 u 2 1 + o     < u ",
"q 9 : : e C A H H U -.E.Q.Q.Q.).].`.`.'.[.].OX,X8XdXgXgXDXHXJXLXLXLXLXHXfXsXeX;X%Xv.j.oXf.w.4.1.&.&.$.^ m m a 2 < + @ @ X   q < ",
"q q t V S A H L U E.`.`.].].].OX@XOX|.|.+X8XdXJXLXLXKXaXdXiXyXyX8XsXpXpXSXIXIXFXfXeX=X-Xj.*Xf.4.4.1.&.&./ ~ x s u 2 q 2 < + q q ",
"q q C S G I U -.-.(.].[.[.:X[.[.].,X7X9XgXLXJXaXuX2X2X+X$X@X;X@X@X;X&X&X&X$X$XsXHXIXHXeX=X*Xl.l.f.2.1.&./ ^ m x a x a 4 2 < q q ",
"q ; C G U =.-.W.(.`.'.[.:X:X|.2X2X2XJXJXaXiX8X,X:X+X]._.{./././.{.{.{.oX#X{.l.l.%X-XpXFXKXwX*Xv.k.4.2.&.&./ ~ ! m ~ v 7 a 7 q q ",
"q : G H U =.W.(.].+X.X2X6X<X4X4XdXIXDXuX4X<X+X[.].{.Q.(././.6.6.6.6.6.6.8.j.j.l.j.#X*X-XqXIXGX-Xv.j.h.3.1.1./ ~ ~ ! x 4 a x q q ",
"q q A H T -.!.`.[.:X<X1X5X6X4XaXJXdX1X:X].(.Q.,.>.;.I ;.;.;.;.;.;.%.%.%.%.5.5.e.8.j.l.*X*X0XGXKXeXx.h.3./ / { ~ ~ ! n x x x q q ",
"q q G T R !.~. X>X<X4X3X5X9XJXgX<X+X(.E.(.).:.-.Y I Y Y Y I I F F c F b K %.*.*.2.2.7.k.v.v.*XfXFXtX*Xf.2.{ ~ ! M m n v v x q q ",
"q q T W.~.'..X3X3X3X9X7XuXFXiX7X>X|.`.'.(.:.W.:.Y Y T T H H I F b F N P P $.%.*.1.*.*.2.7.k.v.-XeXFXGX-Xb.1./ / ~ ! n n M n 2 q ",
"q q T ~.~..XXX3X5X5X9XdXJXiX>X:X X}.[.[.E.J U L I J D G G D F F F K N P P P P $.$.$.N P $.&.w.h.v.0XFXtXn.g.{ / ~ M n g g n q q ",
"0 9 ^.~. XXX5X9X9X9XiXDXiX7X:X].].(.!.E.:.L A A t C S S S Z Z d Z Z c F F F P P $.P ^ ^ ^ ~ / / w.v.wXPXtXn.k.0.{ ~ M x x g q q ",
"9 : ^.~.XX5XiX5X9XiXJXiX3X>X:X(.(.(.E.:.T T H J S S S V y d d d d p d d c N P ^ N P N $.^ $.&./ 2.z.Y.wXUXwXb.k.g.o.! l M M q q ",
"9 q ^..XXX5XiXiXdXJXaX.X:X[.(.W.W.=.T U H G A A V d t e r r r r r p r p s b N N N b N N ^ ^ &.&.1.w.h.l.wXPXY.c.g.0.{ l M g q q ",
"q q ^.XXXXiXdXdXgXJX2X>X X'.!.E.-.U H G Z d V V t t r w w w w 0 0 r p p y p d f s b b N N N ^ <.<.q.g.z.n.BXCXm.q.g.+./ ! ! q q ",
"q q }.XX5XiX9XdXLX5X1X>X:X'.!.E.-.T U G A V V d t y w 0 : w 9 0 0 9 q 0 0 0 0 0 p z z b N N ^ ^ &.9.q.g.b.Y.PXrXg.g.0.o.~ ! q q ",
"q q .XXX5X9XdXJXaX>X>X X'.~.!.:.T T H G A C V t t w 0 ; ; ; ; ; ; 9 - 9 q < 9 q q u a 7 v v v M M ~ / 9.9.g.R.AXU.c.p.{ ' ! q q ",
"9 9 .XXX5X9XiXLX4X1X:X[.`.W.T T U L H G G C C C t : : ; = ; = - - - + # # q < q q q u 4 7 x v M M ! ] 0.9.P.b.AXR.c.p.+.{ ! q q ",
"q : .XXX9X9XaXaX1X>X|.'.!.E.T H A D A C C e e w w ; ; = = = * * - * O O O # # 9 < q i a x v v M N / ] o.9.g.c.R.AXU.g.p.X.[ q q ",
"q q .X3X9X9XJX5X1X'.!.W.-.T T G Z V C w e : : ; = = * = * * * = * % * O O O # O < < q a f v v v M ] ] o.@.p.P.U.AXY.p.p.X.[ q q ",
"q q >X3X5XdXJX5X1X`.-.E.E.T H G A Z C C e e : : : : = = = * * % * % O O O - O - + # q q f z f v M M ! ] o.+.q.U.xXVXc.p.p.X.q q ",
"q q  X5X4XdXaX1X X/.E.:.:.T H G S A C C C : e : : : : & = = = = * . O - % - - - # 9 9 2 i i f f v M ! ` X.o.@.c.R.ZXU.p.a.[ q q ",
"q q >X4X9XgXuX<X X(.W.W.T T T G A A C C e e : : : : : & = = = % * * O % O - - - - < q q q i i i j M M ! ' X.p.d.U.ZXU.a.a.X.q q ",
"q q >X3X9XHX2X>X[.'.!.!.E.T T J S C C e e e ; ; ; ; = = $ = % % * % O * O * - - 9 q q i i f q i f v M ! ` X.p.V.U.ZXxXa.a.X.q q ",
"q q 2X4XdXJX1X:X'.'.W.W.T Y H G V C t : w ; * * * % % % % % % % % % - * - - - O < < q < 3 q 3 3 7 j l M ( X.O.i.V.xXxXi.s.@.q q ",
"q q :X<XaXgX<X|.].(.W.=.I J A d C t e w ; = . % % . % %   % % % % % % O O O - # # - < < 2 3 3 2 8 j B Q ( X. .@.u.T.vXd.a.@.2 u ",
"q q 2X4XdXgX<X+X|.!.:.=.L D A V t e w w ; = % % % % * % % %   % O % O O O O # O # # < 3 2 2 3 2 7 j l Q ( O...V.C.T.vXF.C.y.9 9 ",
"q q +X<XgXiX,X].`./.:.U L D A d t r w ; ; * = % * % * % % % % % % % . . . O O O # # < < < 3 7 7 7 j l ( ` _  .i.C.A.vXF.s...u < ",
"q q +X4XgXaX,X].(.Q.:.;.I D D Z t r w 0 ; * * = $ = = % %   % % O O . . . O O % # # # < 2 2 3 i j j l ! _ } ..p.G.L.vXG.F.u.u 9 ",
"0 q OX4XgXpX:X+X(.Q.:.=.L H D Z t w 0 : ; = = * % = * % % % . O O O   . . . . . @ O # # 2 2 3 f 8 j l ` _ } ..i.G.L.vXL.S.u.4 q ",
"q 2 ].<XgXpX,X{.(.,.:.L H G A V t r w 9 ; = = = = = * % . . . % . . . . . . o + O @ @ 3 , 3 7 8 j l W W _ | ..u.M.L.vXG.s.u.q q ",
"q q OX8XgXaX<X}._.:.Y ;.L F F Z d r w : 9 ; = = * = * % % % % . . . . . . o o o o @ @ , 3 3 7 8 l l ( ) } | ..y.N.L.cXH.F.u.q q ",
"q q _.,XdXJX<X{.oX-.;.%.L F F d t t y 0 ; ; - = * % % . . . %       . . . . o O # # 9 < 3 2 7 j h k E ) } | y.N.N.jXcXH.H.s.q q ",
"q q {.OXdXDX$XOX).,.;.;.L F F Z d r r 0 0 ; - - * % O . .   .     o . . . + o o @ # < < 3 3 7 8 l B ) _ } ..y.N.N.jXcXH.H.F.< q ",
"q q {.$X8XIX2X;XoX6.>.;.L K D d d r p 0 9 ; - = * % O . . . .     . . . . o O o X @ , 3 2 6 6 h B ( ) _ | ..M.S.A.mXkXH.H.C.q q ",
"q q /.oX8XKXsX&X{.8.>.;.L F D V d r 0 0 9 - - - - O O . . . . . . . . . . O o o @ , , , 6 6 5 j B ( )  .| ..N.S.L.mXjXL.H.C.q q ",
"q q 6.oX;XaXaX@XoX).>.;.L F F c s d p q 9 - - - O O . o . . . . . . . O o o O @ X @ 3 6 6 8 h B B ( )  .....B.D.K.mXkXjXJ.B.q q ",
"q q 6.OX@XsXKX;X%XoX5.>.#.N b F d s r q q - O O O O .   . O O o # o # @ @ @ @ @ @ @ 3 6 5 5 B B ( _ | ..M.r.B.J.lXmXlXkXL.D.2 q ",
"q q 6.oXoX;XLXsX%X{.6.>.#.#.K F c d p u q 9 - + # O O O . O O @ O @ < # , @ @ @ @ 3 3 6 5 8 h B ) ) } | y.r.B.Z.mXNXlXkXK.D.q q ",
"q q >.f.oX&XgXSX;X#X).8.>.%.%.K c c s p p q 9 9 - # # O @ O # # @ # , < , @ @ X @ 3 3 6 8 j k k ) _ | r.N.B.J.kXNXmXbXlXhXD.q q ",
"q q %.8.oX=X;XFX$X*XoX8.2.*.#.K c c s p q q 0 9 q < # # O O # # < < , , @ 3 3 3 3 6 6 5 h h k B _  ...M.N.Z.K.mXNXmXbXkXK.B.q q ",
"q q #.5.8.#X%XgXSX#X8.5.*.*.#.K b c s f u q q q q q < < # - # < < < @ , , 3 7 7 8 8 h B B B ) )  .| ..N.B.D.kXNXnXnXbXkXJ.B.< q ",
"q q #.#.7.oX=XsXUXsX-Xj.7.&.&.$.P b b s s i f s i 2 2 q < q 2 9 , < @ < , 7 8 8 j j h B B ) )  ...y.M.B.Z.J.mXNXnXnXbXkXJ.M.q q ",
"q q $.#.*.5.x.=XpXIXeX=Xf.2.&.&.$.m b b z s s a a i a a 7 3 7 , @ , # , 3 6 5 h j j B B ) ) )  .y.y.N.Z.J.lXNXnXnXbXlXJ.Z.M.q q ",
"q q c m $.2.f.x.%XGXSX=Xv.f.e.9.2.&.&.^ ^ M N b v z f i 7 3 3 3 2 2 2 2 7 6 5 5 h j B k ) ) |  .r.y.S.D.hXNXbXbXlXlXhXJ.N...q q ",
"q q c K 1.4.7.f.x.=XIXpX=Xm.k.2.w.2.1.&.^ ^ ^ ^ M M v 7 3 7 7 7 j 7 7 7 8 j j j B B B ) _  ...r.r.S.H.hXmXbXlXlXkXkXZ.N.M.| 4 2 ",
"q q b $.2.4.5.8.*X%XwXFXqXx.k.5.4.&.&.^ ^ ^ / ^ ^ N M v v v v j j j j j j l B B B ( ) _ |  .i.y.N.D.J.bXlXkXkXkXK.J.N.M.y.) q 2 ",
"q q c K $.&.*.7.f.l.*XeXFXeX#Xh.7.2.&.&.^ ! ] / ] ] ` ^ ] ^ ! Q ! B M B B B l B B ) _  .| r.M.C.N.Z.mXlXK.K.J.J.D.M.M.y.} E q q ",
"q q b b c ~ &.3.3.e.l.=XeXFXtX*Xn.z.h.q.9.<.9.o.] ] ] ] ] ] ` ! ! B ( l ( Q l B ( _  ._ r.N.B.D.K.mXlXH.G.A.L.D.B.N.y.| } W q q ",
"q q a s z c m ~ &.3.h.h.*XwXIXSX-Xn.l.k.w.9.9.o.9.o.! v M B M B ( ` ` _ ` l j l B l ( _ ..a.C.jXmXhXD.H.H.S.N.s.y.y.| E W k < u ",
"q q q q u s x m ^ 1.1.4.l.v.-XGXPXwXn.b.b.w.q.9.9.o.o.+.] ] ' ` ' ' O.' ` _ _ _ r.r.t.C.B.K.lXmXjXH.H.S.N.N.u.u.| [ E k k h 9 9 ",
"q q + q q u z m m &.1.4.h.v.v.m.tXIXCX0Xz.b.z.g.q.0.0.0.@.o.O.] ` ! ( Q ( O.t.t.V.G.H.L.cXmXbXJ.S.G.d.s.u.u.u.[ [ [ k h h h u 9 ",
"q q 9 9 q u s z c ^ &.2.2.w.k.h.b.-XCXPXtXI.b.g.g.0.+.@.t.@.O.O.( ( B ( ( O.V.A.A.Z.lXMXmXK.F.s.u.y.y.[ } } E W k h h > > > u 9 ",
"q q 2 q i s z v m c ~ 1.1.*.4.h.k.z.m.wXCXPXAXrXY.U.c.c.d.g.V.p.V.V.U.G.G.T.K.zXcXMXmXL.H.V.u.u.u.| ) [ E k h h 6 > > > > > u 9 ",
"q q q a s z v m n z m 1.1.&.1.3.3.k.b.b.b.Y.tXCXPXAXVXVXR.R.T.T.R.xXzXxXvXMXMXMXcXzXB.C.N.N.r...u.| } [ E E W k g 5 > > > > q q ",
"q q O - q s s z x x n ^ ^ / { / 1.9.0.g.g.k.b.c.Y.R.rXVXZXZXZXZXZXZXvXvXxXzXL.V.i.@... . . ._ ) W W k k g h 5 > > , @ , @ @ q q ",
"q q + + < q i i s z z x m ^ ~ ^ / / 1.o.+.0.g.g.c.c.d.c.c.U.U.U.G.G.G.G.a.i.t.O.}  . . . . .} ) E W W k h h 5 > > , X X X X q q ",
"q q + + + + < 2 q 2 q u a x x m ~ ~ ~ / { o.o.+.+.p.p.p.P.V.@.V.V.V.V.V.i.M.i.....O. . . .) ) ) E ( W k k h 5 6 > X X X X X < < ",
"q q O O o + + + + + < < q 4 a x x x n M M x 7 g l E X.+.+.@.+.O.O.O.O.O.O.' ` ` _ _ ( ( ( ( W B h k l j g 8 4 6 > > , , @ , 9 u ",
"q q q q q q q q q q q q q q q q q q q q q q q q u 9 2 u q q q q 9 q q q q q q q q q q q < q q q q q q q q q q q < q q q q q 9 u ",
"q 9 q q q q q q q q q q q q q q q q q q q q q q 9 < u 9 q 9 q q q q q q q q q i q < q q q q q q q q q q q q q q q q 9 q q u 9 < "
};
