/* XPM */
static char *xpm_[] = {
/* columns rows colors chars-per-pixel */
"64 64 254 2 ",
"   c #170A29",
".  c #1B0A2D",
"X  c #0F0D35",
"o  c #150B33",
"O  c #1C0B33",
"+  c #1D0739",
"@  c #150D3C",
"#  c #1C0B3B",
"$  c #29072D",
"%  c #220B2D",
"&  c #2C0634",
"*  c #240B33",
"=  c #2A0B34",
"-  c #230B3B",
";  c #2B0B3B",
":  c #320B3C",
">  c #0E0D4E",
",  c #140D43",
"<  c #1B0C43",
"1  c #140D4B",
"2  c #1B0D4B",
"3  c #17114C",
"4  c #190D53",
"5  c #0E135A",
"6  c #131154",
"7  c #1A1257",
"8  c #13135B",
"9  c #230B44",
"0  c #2C0C46",
"q  c #230B48",
"w  c #330A43",
"e  c #390A46",
"r  c #340A4B",
"t  c #3B0C4C",
"y  c #33104C",
"u  c #270751",
"i  c #230C53",
"p  c #2C0C54",
"a  c #230C5B",
"s  c #2C0C5C",
"d  c #380C55",
"f  c #27105B",
"g  c #190D68",
"h  c #0D1467",
"j  c #161668",
"k  c #0C1778",
"l  c #161A78",
"z  c #2C0D63",
"x  c #260C68",
"c  c #360D67",
"v  c #291268",
"b  c #35116A",
"n  c #290C73",
"m  c #350D75",
"M  c #281477",
"N  c #381378",
"B  c #18217C",
"V  c #430C53",
"C  c #460C52",
"Z  c #460C59",
"A  c #4B0D5B",
"S  c #4B1159",
"D  c #4C0D64",
"F  c #470C6A",
"G  c #530C63",
"H  c #580C6A",
"J  c #541369",
"K  c #450E77",
"L  c #590D75",
"P  c #431279",
"I  c #571274",
"U  c #680D78",
"Y  c #691377",
"T  c #6C1076",
"R  c #81137E",
"E  c #0F1B8E",
"W  c #141C85",
"Q  c #1B1E82",
"!  c #2B1988",
"~  c #32138A",
"^  c #371788",
"/  c #381A97",
"(  c #16248A",
")  c #0E2893",
"_  c #152997",
"`  c #23298F",
"'  c #262599",
"]  c #352298",
"[  c #131EA5",
"{  c #381AAB",
"}  c #152BA7",
"|  c #102FAE",
" . c #1633AA",
".. c #1737B8",
"X. c #2928A7",
"o. c #3A25A6",
"O. c #2833AA",
"+. c #392BB8",
"@. c #2C32B6",
"#. c #510F8A",
"$. c #471288",
"%. c #57138B",
"&. c #451799",
"*. c #571697",
"=. c #6C0981",
"-. c #760E85",
";. c #651585",
":. c #791388",
">. c #69189B",
",. c #791699",
"<. c #4A209E",
"1. c #4918A5",
"2. c #581AA9",
"3. c #4D1AB8",
"4. c #591BB8",
"5. c #681AA7",
"6. c #7819A6",
"7. c #651AB6",
"8. c #741BB7",
"9. c #4526A7",
"0. c #4729B6",
"q. c #4F2AB3",
"w. c #5524B7",
"e. c #6823B5",
"r. c #1146B9",
"t. c #2643BB",
"y. c #183AC8",
"u. c #1B34D0",
"i. c #273BCA",
"p. c #3737C5",
"a. c #2C37D4",
"s. c #1F39E1",
"d. c #2A3AE7",
"f. c #701CCA",
"g. c #5132CE",
"h. c #6625C7",
"j. c #7625C8",
"k. c #6828D4",
"l. c #7625DA",
"z. c #6F33D4",
"x. c #791FEB",
"c. c #523AE6",
"v. c #7728E7",
"b. c #6833E5",
"n. c #7834E5",
"m. c #7432F4",
"M. c #1646CB",
"N. c #1649D7",
"B. c #1755D8",
"V. c #3149CE",
"C. c #2648D9",
"Z. c #186DDD",
"A. c #2066DB",
"S. c #1C4DE8",
"D. c #1A58E6",
"F. c #2449E7",
"G. c #3150EE",
"H. c #2755F5",
"J. c #196EE8",
"K. c #2677E9",
"L. c #2B6CF0",
"P. c #4841D7",
"I. c #474CE8",
"U. c #704CEB",
"Y. c #536FEB",
"T. c #726EEF",
"R. c #84158B",
"E. c #8A108E",
"W. c #891498",
"Q. c #971698",
"!. c #A7179A",
"~. c #9F2397",
"^. c #881AA5",
"/. c #9818A5",
"(. c #8C17B5",
"). c #971AB8",
"_. c #A717AA",
"`. c #B516AD",
"'. c #A91AB5",
"]. c #B51ABB",
"[. c #8E24B5",
"{. c #AF25AE",
"}. c #B624B9",
"|. c #CC1ABA",
" X c #CE24B7",
".X c #EC2BBB",
"XX c #921CC9",
"oX c #A81DC6",
"OX c #BB1CC4",
"+X c #AD1ADA",
"@X c #8D27CF",
"#X c #B224D2",
"$X c #931CE7",
"%X c #AA1DE7",
"&X c #8324E6",
"*X c #9229EF",
"=X c #8A34E8",
"-X c #B02AEA",
";X c #C619C6",
":X c #D81AC9",
">X c #CA18D5",
",X c #D81BD7",
"<X c #E51AD4",
"1X c #D127CF",
"2X c #EC27CB",
"3X c #E826D7",
"4X c #F430D4",
"5X c #D61AE2",
"6X c #EE13EB",
"7X c #D029EC",
"8X c #F632EB",
"9X c #9F48DA",
"0X c #B96ED9",
"qX c #9550EF",
"wX c #AE4CF1",
"eX c #8B6EEB",
"rX c #B16EE9",
"tX c #D64AD5",
"yX c #E945D7",
"uX c #F14ED8",
"iX c #D56ADB",
"pX c #EB70DB",
"aX c #CB52E9",
"sX c #F44CEA",
"dX c #D07BE7",
"fX c #F073EC",
"gX c #1C8EE4",
"hX c #2D8DF0",
"jX c #2997F6",
"kX c #31AFF1",
"lX c #4C92F9",
"zX c #6890EE",
"xX c #50B6F1",
"cX c #71B1F1",
"vX c #35CBF2",
"bX c #34E4F6",
"nX c #49D2F3",
"mX c #6FD2F0",
"MX c #50EDF7",
"NX c #B593DB",
"BX c #9193EB",
"VX c #BA8BEF",
"CX c #93B7ED",
"ZX c #ADA5E9",
"AX c #D58EDB",
"SX c #ED90DA",
"DX c #EAABDC",
"FX c #D28CF0",
"GX c #F387E8",
"HX c #E995E8",
"JX c #F699E9",
"KX c #D3AAEC",
"LX c #E8A6EB",
"PX c #EDADEB",
/* pixels */
"q q q q q 9 9 q q q q q q q q q q q 9 9 u q 9 9 u q q q 9 q q q q q q q q q q q q q q q q q 0 9 q q q q 9 9 q q q q q q q q q 9 ",
"q q q q q q q q q q q 9 q q q q q q q q q q u u < 9 q q 9 0 q q q q q < q q q q w & q q q q ; = q q q q w : q q q q q 9 q q q q ",
"q q O + + O q 2 9 < q i c b m c c ^ #.#.;.>.6.6.6.6.(.(.).oX'.OX;XOX1X1X;X1X:X X:X X X X|.!.{.~.~.~.R T G A A A C e : * %   q q ",
"q q O O - < i q 9 9 u s b P K P $.#.#.>.8.f.(.XXXX@X#XOX+X7X5X3X3X,X,X3X3X3X3X3X2X2X.X.X.X.X.X{.!.!.~.R.T H H G A V : & $ $ q q ",
"q q O + < u a i 0 u u z b $.1.1.#.*.7.f.XXXXoX+X+X7X7XsXfXfXfXfXfXfXfXuXsX8X8X3X8X4X8X8X4X4X.X2X.X X`.~.R T U H G S y : & $ 0 q ",
"q q O + q p z s u u s m N &.4.4.2.5.XXXX*X*X-XaXpXHXJXHXfXpXiXiXsXiXpXfXfXSXGXsXsX4X8X8X8XuXuX4X2X.X X`.!.R -.=.L A V t : $ q q ",
"q q O 9 i s v z s s c m &.1.5.7.f.x.*X$X-XfXDXHXdXaX1X1X>X5X>XOX>X;X,X,X:X3XyXpXfXGXpXuXuXsXsXuXyX4X.X|.!.Q.E.-.U H A V e = q q ",
"q q # 2 i z m n x c ~ ~ 1.5.8.f.x.*XaXfXDXAXaX-X+X+X-XoX{.[.'.}.].].;XOX].,X,X<X4XuXfXJXfXsXsXsX4X4X2X2X|._.Q.E.-.U G S V = q q ",
"q q + 2 s z m c m N ^ &.4.f.l.&X@XiXPXAX-X%X$X+XXX).XX).).)./._./._.'.'.`.OX|.:X<X<X<X4XpXJXGXsX8X8X4X2X:X].'./.:.U L D V & q q ",
"q q + q x x x n ^ &.&.3.f.k.*X*XFXHX0X$X&X@X(.XX[.6.6.,.-.-.,.^.W.^.Q._.!._./.W./.`.:X<X:X2XGXfXuX8X4X4X5X|.OX_./.:.U G C ; q q ",
"q q + i z m m ~ &.1.2.w.z.$XwXKXAXwX@Xf.(.[.5.6.5.>.>.;.;.;.;.:.,.:.:.R.Q.!.R.R.-.Q.}.;X<X<X1XpXGXsX8X3X3X,X X`.'./.:.H Z w q q ",
"q q < u z ~ 1.1.2.4.4.f.*XwXLX0X*X*X@X7.8.8.5.*.%.;.;.L %.;.U =.;.U U -.R.Q.R.R.R.E._.|.|.:X;X;XuXSXsX6X2X3X1X].]._.E.U G r q q ",
"q q 2 x n ^ 1.1.2.h.f.x.wXPX0X*Xv.f.7.1.2.>.*.#.L L L L L L H L I H H L T E.T T :.:.E.!.|.|.|.;X2XuXGXsX4X3X5X;XOX'.W.=.H t u 9 ",
"q q 2 x ^ / 1.*.4.v.x.9XDXwX&Xn.j.2.*.*.*.%.$.K K F F F D F F G D F F J T T T T T U R.E.!._.'.].:X6XtXSX8X5X1X;X].].^.-.L t 9 u ",
"q q a x ^ / 1.q.k.v.=XKXrX@Xl.k.e.1.&.#.#.%.K K F F D F F F D G D A Z A H T T H U L T -.E.Q.Q._.|.>X XuXGX4X1X|.;X'.W.;.L d 9 u ",
"q < x m / / 3.h.k.m.FXAX=Xk.5.2.&.&.$.N K F F b d Z d Z Z d V V S d d Z G J G G G H L U R.E.:.E./.{.:X6XfXpX3X>X}.'./.W.:.H 9 < ",
"q q x ~ / &.3.k.v.rXFX=Xn.e.w.e.2.^ P b b c d c d d p d d t r t t t t t C A S S A A G H -.T =.E./.'.|.:X1XHXsX,X{.+X_./.W.U q q ",
"q q n ~ / 0.k.z.qXKXqXn.z.2.&.2.&.m b c c c s d d p r r r t r r r r t t V Z C S C Z A U T U U -./._._.}.OXyXPXtX>X]._././.Y q q ",
"q q n ~ { 0.b.m.VXrXn.n.h.&.&.&.&.m z s s s d p y 0 y y r w w w w w w t C C V C C C A H U H H U E.W.]._.~.3XSXfX6X}.`././.;.q q ",
"q q n / 9.g.b.qXKX9Xb.k.q./ ^ &.$.b s f p p u q q 0 0 0 w w 9 ; ; w : : e e C C e e S G G G D U -.E.]._.R.;X4XJX7X;X`././.;.q q ",
"q q ! / 0.g.b.VXNXz.b.3.9.^ N ] ^ z f i u 0 q q 9 9 0 9 0 ; ; - ; ; ; ; w e C e e e C A A A Z H T :.R.Q.^.'.3XfXfX;X].).^.Y q q ",
"q q g o.0.c.z.KX=Xb.w.9.<.^ ] ^ N s p q q q 9 - - - - ; ; ; = = - = * * ; w : e e : C C Z V d G U U I :.).^.5XyXJX7X'.'.W.:.q q ",
"q q 7 o.g.b.rXZXk.g.q.9.] ] ^ ^ N f p q q 0 + + - - - = = - = = * * % % * : : : w ; e C V V V A H A U E.:.Q.OX3XSXsXoX]./.:.q q ",
"q q j +.g.b.KXeXg.g.9.{ 9.] ] ^ b a i q q 9 - . - - - - = = = = * $ % . = : : e : & : C t t V A G Z L :.-.,.oX>XpXGX>X}.).,.q q ",
"q q l +.c.U.KXU.g.g.9.o.] ] ^ N v 4 i q 9 - # O O # * * * = = % * $ % % * = ; : : = : t e t d V G d J -.Y :.'.#XyXJX7XoX).,.2 q ",
"q 9 ! p.c.T.ZXI.0.0.] o.] ] N M v f q q < # # . O * * O * = % = = * * % * ; : : : ; ; w w y r V S d J T I ;.).oX3XJX8X;XoX,.q q ",
"< u X.p.d.eXNXI.+.0.o.! ] ^ M v f a 2 9 @ # O o O O . O % % % = $ * % % * = = : = = ; : w y w t S C J Y Y I Q.'.1XSXiX>X[.,.q q ",
"u < +.a.I.BXeXa.+.+.o.v ] ! j f 4 f 2 < # O O . . . . . % % % % % % % % % = = = & * = ; ; 0 w r C S D Y Y ;.^.'.#XpXfX5XXX^.q q ",
"9 9 +.p.I.CXT.c.V.@.] M ] ^ v 7 3 7 2 - # O . . .   . . . . . % %   % % % & = = = * = = ; ; w w t S J H Y ;.^./.#XuXJX7XoX^.9 9 ",
"q q @.p.c.CXT.V.@.@.' M ] ` j f 3 2 < 9 # O O . . . . . . % . %   % %   % * = = * * * = ; w 0 w y S G H I ;.6.^.+XuXJX7XoX^.2 9 ",
"q q @.p.G.CXY.g.O.O.] l ] ! v 7 4 2 < # # O o O . . .   . . % O % % . % . = = = * * * - ; w 0 r d d F H I ;.6.^.-XyXJX7XoX6.q q ",
"q q X.p.I.CXY.a.] O.` M M Q j 7 3 2 < < # # # o . .   . . . . % % % % % % % * * * = * ; ; 0 y y d Z F F F ;.6.6.+XtXJX7XoX,.q q ",
"q q X.V.H.CXzXP.( ` ' ( Q ( l 7 3 @ < < < # @ O . . .   . . . O % % . % % % * % * * * - ; 0 0 y d Z F F F ;.6.[.%XtXJX7X$X,.2 q ",
"q q O.V.G.CXzXV.Q ` ' ` B M g 7 3 @ < < , # o O . . . .   . . . . % * % * * % - % % # - - 0 0 p y c F m c %.6.[.%XtXHX7X+X5.q q ",
"q q O.V.G.CXlXV.Q Q O.( ( M j 7 2 < @ @ < 2 , # . . . . . . .     . . O % - % O . O * # 9 0 y y t c P N c %.6.[.%XaXJX7XXX6.q q ",
"q q O.V.d.cXcXG.` Q ' ` ( B j 8 2 2 @ @ , , , O + . . . . . . . . . O * - % - O O O O # 9 q p p d F P P F %.6.XX%XiXSX-X[.>.q q ",
"q q O.i.a.zXcXI.E ( ' ( B B j 8 6 3 , , , , , @ o . . o . o . . . O O O % % O - O O O # 9 q p d c c P P P *.8.@X#XdXdX+X@X;.2 2 ",
"q q O.y.p.Y.mXL.@.O._ l B l B j 6 6 7 3 , , # @ o . + . O o . . . O O O - - - - O O - < 9 0 p c F K P $.%.5.e.XX#XLXaX+X7.%.q q ",
"q q ` M.t.L.mXL.V.t._ j B B B j 5 8 8 7 , @ @ @ @ . o o O o O . O O # - - - - O - # # q 9 0 d N N P $.%.%.e.j.&X-XPX-X=X8.P q q ",
"q 9 ` y.O.A.mXlXA.r.` l B B B j h 8 8 7 , @ @ @ @ o o o O o o . O O O - O - - - # # # q 2 0 s P $.N P *.*.e.j.&XaXDX-X&X8.b q q ",
"q q ` .. ...xXnXA.V. .M ( ( B B j j 5 5 3 X @ 3 X X @ @ # O o # @ - # # < 9 9 # # # 9 q q s z b P P $.2.2.e.[.$XAXAX$Xl.5.z 9 q ",
"q q _  .} @.lXmXZ.G.r.( _ ( ( B j j B 5 3 3 3 @ , @ , # # @ @ # # # < # < q < - - < q 2 q s c N P $.^ &.5.j.&X=XLXwX&X8.*.c q q ",
"q q (  .| @.F.xXxXG.t.) } ) ) B B k h h 5 3 3 3 , , , < # @ @ # @ < < - 9 q 9 9 2 q i i 4 z b N N $.N *.w.l.&X0XFX*Xj.5.*.m q q ",
"q q (  . . .C.hXnXK.C._  . ._ ) k B B B 5 5 3 3 3 3 3 < 3 , < < 3 < < 3 < i q i q p a 4 v b N N ^ m $.2.f.&X=XDXwX*XXX4.1.N q q ",
"q q ) }  . .M.H.xXxXB...r.| | ) E ( ( B h 5 5 5 6 3 3 2 2 3 1 < 3 9 9 2 2 i i 3 f z a 7 x M N ^ ^ ~ $.7.v.&X0XHX*Xj.f.3.&.c u 9 ",
"q # ( }  .| N.a.L.MXZ.i.M.r...} ) ) ) B B 5 8 8 5 6 6 3 3 2 3 2 3 3 2 3 q i q i f v v v v N N ^ &.~ &.k.m.@XPXwX&Xv.e.*.^ c q q ",
"q q B ) } _ r.y.H.vXkXF.B.M...y.) ) ) ) k h h B j 5 6 7 7 8 7 3 3 3 3 2 3 i i f z b v v v ^ / &./ ^ w.&X=XFXFX&Xv.f.2.$.m c q q ",
"q q B E ) _ y.u.s.Z.nXhXA.C.M.r.| .. .) ) B B B B j 8 j 8 j 7 4 f 7 3 3 2 4 i f v v M M M ^ &.&.&./ k.=XdXHX=Xv.l.4.2.^ n z q q ",
"q q l ) E W u.u.u.F.hXnXK.S.N.M.r.| ..) | ) ) ( k B B j k j j j j 7 7 7 7 f v v M M ! M M / 9.1.q.q.l.rXDXwXv.f.h.4.1.^ c s q q ",
"q q h ( W E } | u.G.H.gXnXZ.H.N.y.M.y.|  .) _ ) ) ( ( B l l l j j j j j j j M M ! ^ ^ ^ ~ 1.q.w.z.l.9XDXrXx.j.4.4.1.&.m n c q q ",
"q q l B k k } } ..d.H.D.kXkXJ.H.S.B.M.y.r.| | | _ _ _ ( E ( W Q l l M B l M M ! ^ ] ] ] / q.h.h.m.qXKXdX&Xh.h.2.1.&.$.c c s q q ",
"q < l k k k ) [ [ s.S.H.L.xXvXgXD.D.B.u.M.r.| .. .} } _ E ) E W ! Q B ( B ! ! ' ] o.+.9.9.g.z.b.qXKXdX=Xk.1.3.&.&.&.~ n z s q q ",
"q q j h h h E E | u.B.H.L.K.kXnXgXZ.A.B.B.N.y.r.| | | | } _ _ ' _ ( ` ( ( ! X.X.X.@.q.9.0.b.m.qXPXrXm.b.w.&.1.&.&.^ m x a i q q ",
"q q 8 h h h E k } u.u.S.A.L.jXvXMXkXJ.J.Z.B.r.M...r...| | ..|  . .}  .X.} X.' o.+.0.P.P.g.b.NXKXeXm.3.{ { / &./ ~ ~ m x a + q q ",
"q q 6 h 5 5 W h E u.u.N.J.K.jXkXvXMXnXhXJ.J.S.B.B.N.N.y.y.y.........O. .O.p.p.p.p.g.P.U.eXKXVXU.n.k.{ / ~ { / ^ m n z 4 4 O q q ",
"q q 6 6 > > k g E [ y.S.D.J.gXkXvXMXMXMXnXhXJ.L.D.S.S.N.M.y.y.i.V...i.V.p.d.V.P.P.c.T.ZXZXT.b.b.k.0./ / ~ ~ ~ ^ x a < 2 < . q q ",
"< u > > , > g 6 k [ | y.N.D.K.jXvXbXbXbXMXMXnXkXhXA.A.S.B.N.C.C.C.i.C.a.p.I.Y.Y.BXZXZXeXc.c.q.g.g.{ ~ ~ ! ~ ~ ^ z i , 2 <   9 u ",
"u < X > , , h > g E | u.N.N.Z.jXjXbXbXbXbXbXnXnXnXvXxXhXhXL.L.L.L.A.L.Y.zXCXCXCXzXU.I.c.g.g.g.+.{ ~ ! M N M ~ M a 2 + 1 2 o 9 9 ",
"9 9 > X X , 4 > h k E [ y.M.M.J.gXjXvXvXvXkXkXkXjXhXjXxXxXxXxXcXcXcXcXcXzXT.I.I.c.p.g.p.p.+.+.{ ! M n n m v x v 4 2 < + @   q q ",
"< u X X X , 1 > > h W E | y.M.B.J.J.gXkXjXkXkXjXhXL.H.H.H.G.H.L.Y.H.d.d.a.a.a.p.a.p.p.+.X.o./ M l a g M v g 4 f i 2 + o     q q ",
"9 q , X o X > > > h k W ) | | N.N.D.Z.Z.K.gXK.K.L.H.H.H.F.F.S.F.F.u.s.a.a.a.a.p.i.X.X.X.! / ~ l M g n M n g x 4 4 < o       < < ",
"q q @ X X , > > 5 5 h k E E [ | ..M.M.B.D.D.D.D.F.N.C.F.s.u.u.u.u.u.@...@.| @.[ X.' ' ~ ! ! ! M n x g n x x x 2 < + o       u 9 ",
"q q < q q q q q q < q q q q 2 q q q q q 2 q q q q q q q q q q q 9 q q q q q u 9 q q q 9 2 < q q q q q q q q q q q q q q q q < 9 ",
"q 9 9 u q q q q q u q q q u q q q q q q q q q q q q q q q q q q q q q q q 9 9 u q q q q q u q q q q q q q q q q q q q q q 9 9 u "
};
