/* XPM */
static char *xpm_[] = {
/* columns rows colors chars-per-pixel */
"64 64 256 2 ",
"   c #170A29",
".  c #1B0A2D",
"X  c #0F0D35",
"o  c #150B33",
"O  c #1C0B33",
"+  c #1D0739",
"@  c #150D3C",
"#  c #1C0B3B",
"$  c #29072D",
"%  c #220B2D",
"&  c #2C0634",
"*  c #240B33",
"=  c #2A0B34",
"-  c #230B3B",
";  c #2B0B3B",
":  c #320B3C",
">  c #0E0D4E",
",  c #140D43",
"<  c #1B0C43",
"1  c #140D4B",
"2  c #1B0D4B",
"3  c #17114C",
"4  c #190D53",
"5  c #0E135A",
"6  c #131154",
"7  c #1A1257",
"8  c #13135B",
"9  c #230B44",
"0  c #2C0C46",
"q  c #230B48",
"w  c #330A43",
"e  c #390A46",
"r  c #340A4B",
"t  c #3B0C4C",
"y  c #33104C",
"u  c #270751",
"i  c #230C53",
"p  c #2C0C54",
"a  c #230C5B",
"s  c #2C0C5C",
"d  c #380C55",
"f  c #27105B",
"g  c #190D68",
"h  c #0D1467",
"j  c #161668",
"k  c #0C1778",
"l  c #161A78",
"z  c #2C0D63",
"x  c #260C68",
"c  c #360D67",
"v  c #291268",
"b  c #35116A",
"n  c #290C73",
"m  c #350D75",
"M  c #281477",
"N  c #381378",
"B  c #18217C",
"V  c #430C53",
"C  c #460C52",
"Z  c #460C59",
"A  c #4B0D5B",
"S  c #4B1159",
"D  c #4C0D64",
"F  c #470C6A",
"G  c #530C63",
"H  c #580C6A",
"J  c #541369",
"K  c #450E77",
"L  c #590D75",
"P  c #431279",
"I  c #571274",
"U  c #680D78",
"Y  c #691377",
"T  c #6C1076",
"R  c #81137E",
"E  c #0F1B8E",
"W  c #141C85",
"Q  c #1B1E82",
"!  c #2B1988",
"~  c #32138A",
"^  c #371788",
"/  c #381A97",
"(  c #16248A",
")  c #0E2893",
"_  c #152997",
"`  c #23298F",
"'  c #262599",
"]  c #352298",
"[  c #131EA5",
"{  c #381AAB",
"}  c #152BA7",
"|  c #102FAE",
" . c #1633AA",
".. c #1737B8",
"X. c #2928A7",
"o. c #3A25A6",
"O. c #2833AA",
"+. c #392BB8",
"@. c #2C32B6",
"#. c #510F8A",
"$. c #471288",
"%. c #57138B",
"&. c #451799",
"*. c #571697",
"=. c #6C0981",
"-. c #760E85",
";. c #651585",
":. c #791388",
">. c #69189B",
",. c #791699",
"<. c #4A209E",
"1. c #4918A5",
"2. c #581AA9",
"3. c #4D1AB8",
"4. c #591BB8",
"5. c #681AA7",
"6. c #7819A6",
"7. c #651AB6",
"8. c #741BB7",
"9. c #4526A7",
"0. c #4729B6",
"q. c #4F2AB3",
"w. c #5524B7",
"e. c #6823B5",
"r. c #1146B9",
"t. c #2643BB",
"y. c #183AC8",
"u. c #1B34D0",
"i. c #273BCA",
"p. c #3737C5",
"a. c #2C37D4",
"s. c #1F39E1",
"d. c #2A3AE7",
"f. c #701CCA",
"g. c #5132CE",
"h. c #6625C7",
"j. c #7625C8",
"k. c #6828D4",
"l. c #7625DA",
"z. c #6F33D4",
"x. c #791FEB",
"c. c #523AE6",
"v. c #7728E7",
"b. c #6833E5",
"n. c #7834E5",
"m. c #7432F4",
"M. c #1646CB",
"N. c #1649D7",
"B. c #1755D8",
"V. c #3149CE",
"C. c #2648D9",
"Z. c #186DDD",
"A. c #2066DB",
"S. c #1C4DE8",
"D. c #1A58E6",
"F. c #2449E7",
"G. c #3150EE",
"H. c #2755F5",
"J. c #196EE8",
"K. c #2677E9",
"L. c #2B6CF0",
"P. c #4841D7",
"I. c #7A46D2",
"U. c #474CE8",
"Y. c #704CEB",
"T. c #536FEB",
"R. c #726EEF",
"E. c #84158B",
"W. c #8A108E",
"Q. c #891498",
"!. c #971698",
"~. c #A7179A",
"^. c #9F2397",
"/. c #881AA5",
"(. c #9818A5",
"). c #8C17B5",
"_. c #971AB8",
"`. c #A717AA",
"'. c #B516AD",
"]. c #A91AB5",
"[. c #B51ABB",
"{. c #8E24B5",
"}. c #AF25AE",
"|. c #B624B9",
" X c #CC1ABA",
".X c #CE24B7",
"XX c #EC2BBB",
"oX c #921CC9",
"OX c #A81DC6",
"+X c #BB1CC4",
"@X c #AD1ADA",
"#X c #8D27CF",
"$X c #B224D2",
"%X c #931CE7",
"&X c #AA1DE7",
"*X c #8324E6",
"=X c #9229EF",
"-X c #8A34E8",
";X c #B02AEA",
":X c #C619C6",
">X c #D81AC9",
",X c #CA18D5",
"<X c #D81BD7",
"1X c #E51AD4",
"2X c #D127CF",
"3X c #EC27CB",
"4X c #E826D7",
"5X c #F430D4",
"6X c #D61AE2",
"7X c #EE13EB",
"8X c #D029EC",
"9X c #F632EB",
"0X c #9F48DA",
"qX c #B96ED9",
"wX c #9550EF",
"eX c #AE4CF1",
"rX c #8B6EEB",
"tX c #B16EE9",
"yX c #D64AD5",
"uX c #E945D7",
"iX c #F14ED8",
"pX c #D56ADB",
"aX c #EB70DB",
"sX c #CB52E9",
"dX c #F44CEA",
"fX c #D07BE7",
"gX c #F073EC",
"hX c #1C8EE4",
"jX c #2D8DF0",
"kX c #2997F6",
"lX c #31AFF1",
"zX c #4C92F9",
"xX c #6890EE",
"cX c #50B6F1",
"vX c #71B1F1",
"bX c #35CBF2",
"nX c #34E4F6",
"mX c #49D2F3",
"MX c #6FD2F0",
"NX c #50EDF7",
"BX c #B593DB",
"VX c #9193EB",
"CX c #BA8BEF",
"ZX c #93B7ED",
"AX c #ADA5E9",
"SX c #D58EDB",
"DX c #ED90DA",
"FX c #EAABDC",
"GX c #D28CF0",
"HX c #EC89EB",
"JX c #F387E8",
"KX c #E995E8",
"LX c #F699E9",
"PX c #D3AAEC",
"IX c #E8A6EB",
"UX c #EDADEB",
/* pixels */
"q q q q q q q q q q q q q q q q 9 q q q q q q q q q q q q q q q q q q q q q 9 q q q q q q q q q q q q q q q q q q q q q q q q q ",
"q q q q < < q q q q q < q q q q 2 < q 9 q q q q q q q q q 0 q q q q q 9 q q q q q q q q q q q q q q q q q q q q q q q q q q q q ",
"q q @ , , , X > > 6 5 g j k k l B ( ( ( ( ( _ ` ` ` O.O.O.O.O.@.O.+.O.o.+.{ W l g f n M M M n x x u 4 < < + + + + + O O O O q q ",
"q < X X X X > > 4 h g k l B ( E ) _ ) }  . . ...t.y.i.M.V.V.V.V.V.V.g.V.p.p.p.p.+.o.o.] / ~ ! ~ n n x a u u 4 q 2 < + + + + q q ",
"q q X X X X , > > 5 h h k k E E E }  . ... .} }  .t.i.a.d.G.G.G.U.U.U.d.d.c.P.c.g.g.g.0.o.1.] / ~ ^ N n x v s s a i q q + O q q ",
"q q @ , , @ , > > 5 h h k l W W ) _ |  . .@.@.i.V.L.zXxXvXZXZXZXZXZXZXZXVXrXR.Y.b.b.g.g.g.0.q.1./ &./ ^ ^ m n z z s p q + O q q ",
"q q 1 > > > g g k W W E ) } | u.y.r.N.M.C.D.jXcXMXMXMXvXxXxXxXT.T.T.R.R.rXVXAXAXPXrXY.b.b.k.k.3.w.1.1.1.&.m z n m v z a i q q q ",
"q q > > > , > 5 h h k [ [ ) } u.u.u.V.G.jXcXMXcXzXK.T.G.G.G.V.V.p.a.P.U.P.P.Y.Y.rXBXPXCXwXm.k.k.k.w.1.1.1.~ n m b z a i i q q q ",
"q 2 > > > 5 h k W E [ | ....u.u.s.F.K.cXmXlXK.A.B.V.@.( ( l ( ( X.O.@.@.@.g.+.q.g.c.I.tXPXCXwXl.k.k.7.3.2.&.^ b x s u q q 9 q 9 ",
"q 2 h h h E E [ [ u.u.s.u.d.G.S.Z.mXNXcXL.G.D.V.t.t.O.E Q ! ` ` X.+.@.+.0.+.0.g.P.z.z.z.-XCXPXtXn.v.v.f.4.1.&.N c z u u 9 < 9 q ",
"q q h k k E | | y.y.N.N.F.H.H.jXmXlXK.B.V.t.r.| _ _ ` ' X.' ' ' ' ' ] ] o.o.] 9.9.9.w.b.b.n.0XPXGX-Xx.f.7.1.&.^ m c s u u q q q ",
"q q k E E | y.y.u.S.S.S.H.D.hXmXjXS.i. ._ ) Q ! B j l ` ( _ ` ` l l v M v ^ o.9.9.9.q.w.k.l.n.-XSXPXwXl.h.h.3.&.~ ~ c z s u q q ",
"q q W [ | y.N.B.D.H.L.H.H.lXbXL.D.B.C...r._ _ ( B l B B ` B B Q ` ! ] ] ] ] ] ] o.9.9./ w.h.z.n.*XtXFXeX=Xl.e.4.1.&.~ c b z q q ",
"q q E } ..M.B.B.J.K.K.K.cXbXZ.S.C.r.r..._ ) ) ( B B l B Q B M Q ` ^ ] ! ! ^ ] ] / / ] ^ / &.2.7.k.#XeXUXeX*Xl.h.4.*.&.#.N c q q ",
"q 2 } ..N.N.A.jXhXkXkXlXmXK.D.S.M... .r._ ) B B B B l j j j j j j g v v v M N ` ~ / ^ ^ ^ &.*.4.2.f.v.qXIXwX*X*X8.5.7.1.$.b q q ",
"q u | y.B.D.jXkXlXlXbXbXhXH.N.r.r... ._ ) ( B B j j j j 7 7 g 7 f 7 7 3 7 v M N ^ ^ ^ ^ &.9.2.w.7.z.v.=XpXUX=Xx.f.7.4.1.P c q q ",
"q q y.B.J.hXkXbXbXbXNXhXJ.F.y.r.| ) ) E k B h h h 5 8 6 3 2 3 3 2 3 3 3 i f v b M N N ^ ^ &.&.1.&.e.j.n.=XSXGX#Xf.f.2.$.P c q q ",
"q q y.Z.J.lXbXnXmXNXlXJ.B.B.N.y.| ) ) ( k k j 8 8 8 6 3 < # @ < 3 2 7 4 7 4 f 7 p s f s b m N $.&.1.2.f.=XeXLXpX=Xx.8.*.#.^ q q ",
"q q M.Z.kXbXnXnXNXmXJ.Z.B.M.y.| | _ ( ( B B j j 8 8 3 , @ @ # @ < 2 2 9 9 2 q f i p p f z b b K $.&.*.7.j.*XpXUX8X=XoX7.%.#.9 q ",
"q q B.Z.kXbXnXnXNXkXD.B.N.y.| ) ) ) ( B h j j 8 8 7 3 3 , @ 3 < < - < - - 2 q < q q q u p s c c K $.#.2.7.8.#XSXGX%X%X8.>.#.q q ",
"q q S.hXkXbXnXNXmXJ.A.B.M.r. ._ ) B B j 5 5 3 3 3 3 , , , , < < # # O + # # < 9 q q q i u s c c K #.*.*.8.oX*X;XUX;X#XoX8.#.u 9 ",
"q 2 B.K.kXbXnXNXkXJ.B.N... . .( B h 5 5 5 3 3 X @ @ @ , < < @ # # # O o o # # 9 q 0 q 0 p s c c K %.*.>.8.8.#X&XDXgX%X%XoX*.q q ",
"q q D.jXkXlXmXmXJ.N.r.M.| | _ ) k h 5 5 6 3 @ @ @ @ @ < < , # o O o O O O O O O - - 9 q 0 p s c c K #.%.>.8.).%XsXLX;XoXoX6.q q ",
"q q H.K.kXlXmXlXJ.B.r.r...| _ ( B B 5 5 6 3 3 @ @ @ @ o # o @ o o . O . . O O . O O # q u p d c c K K #.*.6.oX@X;XKXsX@XoX6.q q ",
"q q N.L.L.kXmXjXS.B...|  ._ ) k k j 5 6 3 , , , @ o O o O O . . O . . .   . O - - - - 9 0 r p d d F K #.;.>.{.oX$XaXDX@XoX6.q 9 ",
"q q B.H.L.kXmXL.S.N...| } _ ( B h 5 6 3 3 , X X X o . O . . . . . . . . . O - O O - 9 9 q r r d d A F L ;.>.6.oX@XsXIX;XoX/.q q ",
"q q C.H.H.lXmXD.S.M...| } ( ( B j 6 6 3 2 @ @ # o o o O . .       . . . . O O * * ; ; 0 q r p r D F J L %.,.6._.@X8XIX8X$X).q q ",
"q q F.H.H.cXjXN.N.M...| _ ( B l 8 7 3 3 2 < # o o o . . . .   . .   . . . . O * - - ; 9 w r r d d D F L I >.>._.OX2XDXdXOX_.q q ",
"q q s.F.H.cXjXC.M...| } E E k j j 7 3 2 < < # # O o o . . . . . . . . . % % * = - = ; 9 w r e d Z D F L I ;.-._.OX<XJXdX$X_.q q ",
"q q s.F.H.cXL.B.u.....} ) ( B j 8 7 3 3 < @ # o o o   . O . .   . % . . % % * * = = ; ; w w r d d F F I ;.;.-.oX{.<XaXgX6XOXq q ",
"q q u.N.G.cXL.M.y...| _ E W k j 8 7 3 3 < @ # o O o O .     . . . % . % % % % = = = ; ; ; 0 r t Z A G L U ;.:.(.}.,XpXgX6X].q q ",
"q q u.F.H.vXL.G.C...} _ Q Q j g 7 3 3 < , @ # # O O % . . . O * * O . % $ = $ * = = = - ; 0 r r V G G L =.:./._.|.:XpXgX4X+Xq q ",
"q q u.C.L.vXL.C.i... .' ( l v j 7 i 3 < < # # o O O . . . . . . . % % % % $ % % = % = ; 0 w e d Z F J I ;.:.Q.`.|.,XpXgX4X+Xq q ",
"u q ..s.G.vXL.V.i. .} ( Q B j 7 7 3 3 3 3 < 9 # O O O . . . % O O % % % % % = $ * $ = - : w r t V Z D H =.:./.(.[.:XiXgX<X:Xq q ",
"q q ..s.d.vXL.V.V. .O.( ( j j 7 3 2 3 < 3 - < - O # O O O . % * % % % % % % % % % % & ; ; w e t d Z D L U :.(.}.+X,XaXgX<X2Xq q ",
"q q i.a.d.vXT.p.i.O.} ` Q l j 8 3 3 3 < < < # # - # - # O % % O % %     % % % % % . * ; w r t V Z A G I -.E.(.'.+X<XgXdX4X2Xq q ",
"q q X.a.d.xXxXV.i.O.} ( B M j 8 2 3 2 q 2 9 3 # - O - * O - % * % % % % % % * % = = ; w e t C C G I T T W.!.`.].:X2XgX9X4X2X2 9 ",
"q q @.a.a.R.ZXU.V.+.X.' ! M v f i i i i i q q 9 - - O * % - % * * * = = = = = ; : : w e C C C S G T T E.W.~.'.+X>X4XHX9X4X>Xq q ",
"q q | a.a.U.ZXU.V.p.X.] ! B M v f i i q q 2 < - - - - - % % - % * = = = = = : : : : e e t C A A G T T T W.W.!. X<XyXgX9X4X>Xq q ",
"q u [ p.p.U.ZXT.c.+.X.X.] Q M v f i f i q 9 - O - - - O - O % % * * = = = : : : : : e e C C A A G H T T E.:.(..X>XaXgX5X4X.Xq q ",
"q q X.p.p.c.VXVXc.g.@.o.] ` M M v f f i i q < # O # - O O . * * * % = = = = ; : : w e e t C V A G H T :.W.-.(.1X3XgXdX5X3X>X0 9 ",
"q q [ +.p.p.Y.ZXU.p.+.o.o.] ! N b v v a i q 9 # # - O O O % . % * * = * = = ; = ; : : e e C C C G U -.:.W.!.'.1X5XJX9X9X3X X9 0 ",
"q 9 ' X.p.g.c.AXR.c.P.0.o.o.^ ! M v v x a i 9 < < # # O O O * - * * * = = ; ; : : e t V S A A D H =.E.W.`.|.>X6XgXaX9X9XXX.X9 q ",
"q q ! X.@.p.c.R.AXY.g.9.9.] ! M M v v 7 4 i q q q < 9 # # # - ; ; ; = = ; : w t C C C G H H L U U E.W.~.'.>X4X5XLXiX9X5XXX.Xq q ",
"q q W ' X.p.g.c.AXrXg.0.9./ / M M v x x a i u q q q 9 9 9 9 9 - ; ; ; ; ; w w e t C V A H T T T T !.~. X X1X>XaXgXdX5X5XXX.X* - ",
"q < ~ / o.0.c.g.R.PXb.b.g.q.9./ ^ ^ M m b z s s 0 0 0 9 q 0 0 0 0 0 w ; 0 0 r t t t Z Z G H U -.W.!.`. X>X>X5XLXdXdXiXiXXX'.q 9 ",
"q q ! ! ! +.g.g.b.CXCXY.z.h.q.&.<.^ ^ N N b b s p s p p p r y 0 y 0 w w w w t d d C Z Z A H U -.E.(.`. X X2XgXgXdXdXiXXXXX}.q 9 ",
"q q n M Q { 0.0.b.Y.PXwXk.h.w.1.&.<.^ $.N N b m K N c s p y p r y 0 w r e d V V A A G H U U T W.W.(.[.:X3XaXJXdXdXiX5XXX}.^.q q ",
"q q n n g ! +.0.k.b.tXPXwXm.z.q.&./ ^ ^ $.N N K $.P b c d d r y d y d t C C S S G H U T :.W.(.(.(.:X>X1XiXHXiX9XiXiX5XXX~.!.; q ",
"q q n g x M / 9.0.k.v.tXUXwXl.q./ ^ ^ ^ ^ ^ K $.N P K F c D Z c S d Z Z S S V d A D U -.E.Q._.`.].,X7XiXDXdX9X9X5X5XXX.X~.^.q q ",
"q q g n g n n ! / { 3.v.tXPX0Xv.k.w.&.$.K K ^ $.$.$.P P P P P F F F G H D D J I L U J E.[.'.}. X>X>XuXDXdX9X5X4X3XXX.X~.!.R q q ",
"q 2 x M n n ! ~ / { { b.-XfXFXtX-Xv.k.e.2.*.*.1.*.%.$.P N K b F F J H H T T T :.-.E.E./.`.'.|.>X7XiXDXuX7X5X3X3X1X X X~.E.T q q ",
"q q g M v M N ! ~ ~ / 3.l.*XtXUXpX-Xm.v.h.4.e.5.*.%.#.K c F c F K I I I Y Y I Y -.:._.Q.E.^.|.<XgXJX9X5X3X4X6X>X X'.!.E.T H : 0 ",
"q q x x x n ~ ! / { / 1.q.7.x.eXKXGX-X#X*Xl.j.e.e.e.5.*.%.%.%.;.;.;.;.;.;.U ;.;.,.Q.(.].:X<XdXKXaX5X<X3X1X2X.X[.~.!.R T H C q 9 ",
"q q x a 4 n ~ ~ ~ / &.1.0.h.k.v.-XGXIXqX-X=X*Xj.j.l.f.7.6.6.6.6.,./././././.(.].|.:X6X4X5XDXIXdX4X2X<X8X2X X:X].(.W.T T H C q q ",
"q q 4 i 2 v M N ^ ^ ^ / &.2.7.f.l.m.eXHXFXqX#X%Xv.#XoX{.oX{.{.{.{./.{./.].].$X$X,X6XuXgXLXgXyX<X<X.X:X+X X].`.!.W.-.T T G A q q ",
"q q 2 2 i 4 4 x x N ^ &.&.1.4.f.l.l.x.=XeXGXIXHXsX$X$X;X;X;X;X&XOX&X;X$X2X,X2XuXaXJXLXgX8X7X,X}.]. X:X+X[.].(.:.=.U L G A C q q ",
"q q + < 2 2 u i a x ~ ^ $.&.1.4.7.f.l.#X=X=XeXfXPXIXIXaXpXyXyXsXyXyXiXiXaXSXLXLXJXdX4X:X+X+X+XOXOX].].OX`.(.W.U L H A Z C e q q ",
"q q o o @ + # < 4 4 m ~ ~ $.&.&.1.2.e.f.j.j.*X%X;XeXsXfXHXKXLXLXLXLXLXJXgXgXdX8X@XOXOX[.}.`.`.].(.Q.Q.Q.Q.-.T I H A d w : : q q ",
"q q     o , < 2 2 u x x c m m ~ ^ &.*.3.4.6.8.l.#X%X%X&X&X8X8X8X8X8X8X6X6X,X+X|.[.[.].`.`.^.(.(.,.-.=.U U H G G D V C : & $ q q ",
"q q       @ 1 2 q 4 a a z c x m m N ^ &.1.*.*.5.8.8.8.{.oXoXoX#XOXOXOXOXoX{.oX]._.(.!./.).(.(.Q.-.L L H G V V V C t : & $ % 9 0 ",
"q q             . O # u s z s z z z c b N m c z b P %.*.>.6.>.,.5.,././.Q.,.,.,.,.-.-.Y U ;.U T J d t V e : ; ; = = $ % %   9 9 ",
"q q < q q q q q q q q q 9 q q q q q q q 9 q q q q q q q q q q q q q q q q q q q q q q q q q q q q q q q q q q q q q q q q q q q ",
"q q q q q q 9 q q q q q q q q q q q q q q q q q q q q q q q q q q q q 2 q q q q q q q q q q q q q q q q q q q q q q q q q q q q "
};
