/* XPM */
static char *xpm_[] = {
/* columns rows colors chars-per-pixel */
"64 64 213 2 ",
"   c #000004",
".  c #01000C",
"X  c #030113",
"o  c #090216",
"O  c #070910",
"+  c #06001B",
"@  c #0A011C",
"#  c #0B091A",
"$  c #12041E",
"%  c #130B1E",
"&  c #0C0123",
"*  c #0E0821",
"=  c #0F012A",
"-  c #120324",
";  c #130B23",
":  c #14022B",
">  c #1B052D",
",  c #160B2A",
"<  c #1C0D2D",
"1  c #1E102B",
"2  c #150132",
"3  c #1B0334",
"4  c #1D0A33",
"5  c #1D023B",
"6  c #1E0B38",
"7  c #220535",
"8  c #230A34",
"9  c #2B0E37",
"0  c #24043C",
"q  c #29063E",
"w  c #250C3C",
"e  c #2B0B3D",
"r  c #300B3F",
"t  c #251235",
"y  c #1F0044",
"u  c #250342",
"i  c #2B0544",
"p  c #260942",
"a  c #2D0A43",
"s  c #250248",
"d  c #2D044A",
"f  c #2D0B4A",
"g  c #330B44",
"h  c #380E44",
"j  c #32064C",
"k  c #340A4B",
"l  c #3C0C4D",
"z  c #321244",
"x  c #3B114D",
"c  c #2D0351",
"v  c #340553",
"b  c #390656",
"n  c #370D57",
"m  c #3C0A53",
"M  c #36045A",
"N  c #3C065C",
"B  c #3C0C5A",
"V  c #3F1253",
"C  c #3D0562",
"Z  c #3F0A62",
"A  c #420D55",
"S  c #41075E",
"D  c #440A5C",
"F  c #4B0E5E",
"G  c #451054",
"H  c #43125B",
"J  c #4D135C",
"K  c #4F195E",
"L  c #430665",
"P  c #450A63",
"I  c #4C0C64",
"U  c #460669",
"Y  c #4A066D",
"T  c #4C096C",
"R  c #500E65",
"E  c #520C6C",
"W  c #580E6E",
"Q  c #4D1364",
"!  c #48126A",
"~  c #561466",
"^  c #581467",
"/  c #52136D",
"(  c #59136C",
")  c #5B1968",
"_  c #4D0672",
"`  c #4E0872",
"'  c #520776",
"]  c #540B74",
"[  c #590D75",
"{  c #56077A",
"}  c #58077C",
"|  c #560A79",
" . c #5B0A7C",
".. c #5D1275",
"X. c #5C127B",
"o. c #5F1879",
"O. c #610F7D",
"+. c #641778",
"@. c #63137C",
"#. c #69147D",
"$. c #711F7B",
"%. c #5E0A81",
"&. c #5F1283",
"*. c #630C84",
"=. c #680E87",
"-. c #660C88",
";. c #6B0D8B",
":. c #700F8F",
">. c #651283",
",. c #6A1285",
"<. c #6E1A83",
"1. c #6C138B",
"2. c #691888",
"3. c #721A86",
"4. c #71128E",
"5. c #741B8C",
"6. c #7A1C8E",
"7. c #6F0E90",
"8. c #720E92",
"9. c #790F98",
"0. c #751293",
"q. c #791396",
"w. c #751893",
"e. c #7B1B94",
"r. c #7D149A",
"t. c #7D1B99",
"y. c #7F248F",
"u. c #7E2491",
"i. c #811E94",
"p. c #82159D",
"a. c #821B9C",
"s. c #8A1D9D",
"d. c #852597",
"f. c #84219D",
"g. c #8C289C",
"h. c #8516A1",
"j. c #8A17A5",
"k. c #861BA1",
"l. c #8B1AA5",
"z. c #8C17A9",
"x. c #8F19A9",
"c. c #901DA6",
"v. c #9216AE",
"b. c #931CAC",
"n. c #981DAF",
"m. c #971CB0",
"M. c #9B1DB3",
"N. c #9F1FB8",
"B. c #A11FB7",
"V. c #A21FBA",
"C. c #8722A0",
"Z. c #8C21A5",
"A. c #8A2AA0",
"S. c #9223A3",
"D. c #9228A5",
"F. c #9422AB",
"G. c #9922AE",
"H. c #9928AE",
"J. c #9B34AC",
"K. c #9D22B3",
"L. c #9C29B2",
"P. c #9F21B8",
"I. c #A122B6",
"U. c #A22AB5",
"Y. c #A522BA",
"T. c #AA24BD",
"R. c #A62ABA",
"E. c #AA2ABD",
"W. c #A235B5",
"Q. c #AC31BF",
"!. c #AD24C1",
"~. c #AF2CC1",
"^. c #B226C5",
"/. c #B32AC5",
"(. c #B526C8",
"). c #B927CB",
"_. c #B72AC9",
"`. c #BB2BCB",
"'. c #AF34C0",
"]. c #B532C5",
"[. c #BD33CB",
"{. c #BA36CB",
"}. c #BF2BD0",
"|. c #C02FCF",
" X c #C133CF",
".X c #C139CE",
"XX c #C42ED3",
"oX c #C82FD6",
"OX c #C432D2",
"+X c #CA33D6",
"@X c #C53AD2",
"#X c #CA3CD6",
"$X c #CD33D9",
"%X c #CE3ADA",
"&X c #D135DD",
"*X c #D43BDE",
"=X c #D534E1",
"-X c #D937E5",
";X c #DC3BE5",
":X c #E13BE9",
">X c #E23BEA",
",X c #EA3DF2",
"<X c #CE45D8",
"1X c #D442DD",
"2X c #D741E2",
"3X c #DA42E2",
"4X c #E345EA",
"5X c #E248E8",
"6X c #E052E7",
"7X c #EB42F2",
"8X c #F547FA",
"9X c #F548F8",
"0X c #FF5DFF",
/* pixels */
"L %.*.X.X.&.f + C 7.9.} ' -.u . b { ' p.-. .0 o @ - 2 2 - ; ; w _ -.` %.9.;.` X + 0 l A j d 7 X j ;.;.8.-.8.i.% - 5.q.r.h.%.-.i ",
"C -.*. .1.2.v & ' 7. .{ %.7.0 . N *.n.V.*.v.A . 3 M L | ;.T k - / r.-.' 0.8.Y . d x.x.).;.-.R + M %.%.8.*.p.c.@ - i.k.,.;.q.r.N ",
"U ;.-.*.| ' k * ] 9.9.8.9.p.d . L _ T.Y.;.M.D . d %.n.j.V.I.D # / F.k.' *.-.E X T T.b.=.-.8.O.X M q.p.' 8.v.p.o - 6.G.a.p.v.v.=.",
"U ;.9.} -.-.k ; n P Z N N N 3 & Y _ c.I.-.9.m . c ;.V.j.z.N.B . o./.w.-.9.p.=.o [ =XG.' =.-.R X M h.b.:.:.9.s.X ; G.Y.a.e.p.p.O.",
"C ' %.-.-.7.j @ < 6 6 + @ @ @ & ' 8.n.).:.9.D . v -.p.z.9.M.I . >.$XZ.G.:.b.O.X R v.r.,.-.8.@.. b V.Y.p.n.=.O.. > I.l.t.k.C.p.E ",
"_ %.%.} { %.j X 6 Z X.] U M 7 X O.!./.T.r.!.R . d *.h.r.l.j.j X U l.2.>.,.r.E X =._.M.c.8.p.#.. b z.T.p.j.0.s.o @ 1.l.b.t.R.P.~ ",
"_ -.8.*.-._ 5 @ n -.w.1.*.7.s @ [ r.|.(.r.T.[   v -.9.9.0.!.j . T `.x.>.l.Y.i..  .oXc.0.l.0.=.  j v._.l.p.n.e.  X ,.).h.l.C.t.< ",
"_ %.%.9.%._ 5 & C *.0.1.2.k.0 X T }  .h.v.h.I . v 7.h.h.p.T.j . [ _.n.w.R.Y.@.X  .XX4.4.n.r.5.  u j.B.Y.c.T.3.  o ' Y.XX_.a.l.z ",
"Y _ -.9.} L : & C %.%.2.t.C.6 + E -. .*.(.^.R . b 0.j.p.T.b.0 X | ).R.T.OX[.d.# O.T.p.r.h.n.+.  . $ - 7 > > - . @ U p.oXb.(.V.m ",
" .-.;.%.{ L 3 & C 0.r.t.| 2.w + | ;.-.} 0.l.P . P 0.-.n.n.b.d . ] OX>X&X&X9XL.# <.+XT.l.b.!.<.  . > q 7 r 0 q - . L z.(.M.).M.h ",
"| ' %.' } %.d X U ;.z.0.U 2.z # ] 8.-. .%.9.D X b 7.l.^.I.M.d X Y &X8X,X&X,XD.* >.F.l.l.I.V.6.. o 4.p.9.^.XX$Xq   7 d k a k 0 o ",
"Y } *.*.{ ' i + _ ;.;.*._ 1.a . O.9.r.p.h.p.i X C ;.j.V.B.n.d + j O.e.5.5.] P , o.`.S.5.b.V.[ X 3 p.:.} -.^.>Xq   o 7 - > 7 - . ",
"Y 7.-.%.} Y 3 @ _ 8.;.;.' -.i X P r.l.,.Z S & & U 9.M.T.~.T.d . X @ X + & : : 3 y.}.].e.F.`.+.X 0  .Y =.0.s.a.3   W B.B.B.XXc.- ",
"_  .Y M b s - & L ;.-.;.8.8.0 . & : & @ X X & y  .q.b.(.(.!.d . 3 *.4.[ ;.l.v & >.R.L.C.t.T.S.. i ;.r.0.,.p.l.l + O.V.+XT.|.).G ",
"u 3 - = + X @ : U 8.%.-.;.r.e X 3 L ' E >.N & 3 ] v.Y.^.`.n.d . N V.^.b.M.`.P @ %.t.1.k.a.[.U.. i l.4.#.=.p.-XJ . ,.z.p.Y.T.V.( ",
"v b U U ] U 2 @ Y %._ q.z.z.r . v ;.8.9.q.;.- - | M.B.Y.$XT.v X S T.k.x.I.T.I + | !.k.] 5.L.6.X s c.r.a.:.r.$Xk . >.B.c.>X+XT.$.",
"Y Y U { 9.8.5 X 0 i s D #.] > X T q.;.0. .-.: - Y h.`.`.$XY.b X U n.c.R.`._.T &  .!.r...6.T.6.. 7 r.1.b.0.l.c.> X #.T.T.`.&XT.J ",
"_ _ Y _ } r.5 . @ @ $ - - $ X @ *.h.*.:.r.p.: - U r.!./.>XXXd X N m.b.^.[.XXE +  .^.a.b.c.B.K.X d q.4.b.=.*X&X7 . =.T.I.E.T.Y.F ",
"_ _ Y ' | -.7 . S 7.-.r.9.9.A o ;.:.|  .h.M.: 3 P l._._.^.Y.d + D ).R.T./.!.k & ] p.4.^.a.T.... i 9.;.R.b.G.F.: X [ /.^.4X/.n.~ ",
"' ' U ' | 1.0 X } j.8.;.*.h.R o  .r.;.=.;.b.: 4 ! l.T.m.Y.Y.d X P ^.$XF._.!.j @ E l.b.=.p.!.@.. i p.;.T.T.T.;Xe .  .XX>X`.>Xn.~ ",
"_  .' _ } q.0 @ *.r.0.*.8.r.I X { j.0.:.*.p.- , ! t.~.(.}.~.d @ T n.`.l./.T.v + ] (.^.0.p.h.n.X i T.k.0.n.I.+Xe   ] `.+XOX/.^.F ",
"' %.' _ *.*.3 & *.=.9.=.;.z.J & ;.p.4.:. .l.< 2 P k.@X/.n.M.i + ` ~..X!.@XF.d & L 0.a.q.p.n.s.o i a. .r.Y.I.T.7 . ] XX*XK.l.l.a ",
" .-.Y } *.q.0 - -.9.;.9.8.z.F 2 *.:.h.;.;.h.> & L c.{.w.E.K.v & *.+X#X|.+X/.j & L q.z.^.4.4.r.X i P.4.;.r.&X8Xe   O.=Xb.s M M - ",
" .;.' ' _ ;.: 2 r.v.7.q.r.(.~ : ;.;.j.q.1.j.> & _  X*Xf.R.P.c & *.|.5X*X*XI.d @ Y h.1.:.q.n.S.@ d !.k.0.b.G.4Xh . i ( D & & - X ",
" .*.' _  .=.2 3 r.m.1.8.j.(.) &  .4.h.} q.n.: @ v r.!.%X%XH.B = *.&XQ./. XV.d @ L  .1._  .p.S X b ).l.q.v.[.2Xz o a h h 7 - & X ",
"8.-._ _ | 4.4 : 9.z.;.z.p.(.J @ Y b.T.*.n.n.: X 5 L P >./ H a 3 =.|.I.^.&XY.j & : y 3 3 3 2 @ @ N M.5.=.q.L.L.9 # G.).oXT.Y.a.: ",
"-. .{ ' >.w.4 > r.z.;.r.M.0.0 o L p.l.O.l.G.& X 5 c 3 3 6 4 4 5 1.#X X=X$Xb.d & - u q q X & - @ S ^.T.p.q.|.1X9 ; L.^.4X;XoXoXk ",
"} ' } *.e.0.4 4 h.9.;.r.O.s 7 X U 9.p. .;.l.2 + L M.N.!.R.I [ a >.{.].XX`.!.v X S M.!.K. .w.D + T -Xl.p.l.K.T.e * C.].1X].B.V.A ",
"*.} -.'  .p.8 4 q.h.p.;.c M q o r.b.n.p.l.b.2 & O.$XXX^.+Xe.N 4 3.{.Q.I.I.T.j + N k.p.l.l.N.I & U /.0.0.B._.7Xe o D. X[.E.T.).G ",
"-. .%.Y *.h.e ; p k A i 3 0 : - a.l.0.p.:.b.3 + q.>X_.q.c.`.<.& X.].1X].^.a.s + / 0.1.:.h.M.k @ P `.0.} 4.b.9Xh $ c.Q.3X*X+X).r ",
";. .O.*.q.h.7 # , < 3 7 7 @ o 3 r.j.q.p.0.n.0 & s.>X!.*.p.(.S.+ L H.1X{.[.;.j X 5.T.;.8.p.r.b . D ^.;.%.c.4X0XG $ R.1X*X].|.T.r ",
"*.' -.-.-.B.7 & @.w.w.p.' M : 5 b.p.h.0.4.Y.0 3 O.!.M.-.q.T.i.& L k..XR.[.t.p X 5.Y.*.1.0.j.j X B l.p.b.Y.I.R.7 - T.Q. XOXV.T.7 ",
"-.-.{ *.0.m.: & a.].F.M.' L 3 5 h.0.h.p.;.P.3 u 0.V.M.0.x.}.A.+ &.%X.X<X#XL.6 & 6.l.=.q.4.v.b @ I Y.Y.[.x.[.@X: : /.~.|.$X+XE.8 ",
"-.9.*.0.h.z.- : a.`.!.M.e.1.5 3 l.!.q.s.;.r.3 y q.).l.0.l.^.g.X =.$X<X6X2XU.8 & ,.r.1.0.p.M.j   D x.m.E.n._.1.& p l.Y.$X^.+X@Xt ",
"|  .*.;.p.h.- = r.!.P.F.f.1.4 = 0.b.r.x.q.k.0 3 k.XXK.0.x.`.5.X ] /.P.].;XP.w , i.n.4.1.l.l.j . & 0 0 3 7 3 2 & g c.p.XX&XM.b.< ",
"9.:.*.q.h.l.: - 8.N.x.m.1.2.e # 4.l.h.K.r.9.u 2 r.^.M.1.r.!.6.. T b.`.K.~.u.p & ,._.p.0.l.k.j @ : - 2 2 - @ o @ f b.m.).`.T.b.; ",
";.-.;.q.x.r.: 2 q.M.v.v.8.2.w O e.`.n.^.l.r.0 = 0.h.p.8.h.T.t.X b -.h._.`.1.0 2 ,.&XE.p.p.P.i = | 1.` *.q.w.I X - ..W I [ 5.k . ",
"*.-.-.8.0.h.- - q.V.h.p.0.,.w @ ,.!.!.T.Y.!.p : ,.p.p. .n.!.3.. - b N T X.U y d r.;X|./.T.M.D 2 ,.p.8.r.p.M.R . X @ & - & & @ o ",
"Y %.;.8.!.V.: : :.z.9.q.q.;.3 * n ) ~ I I m 3 3 w.x.p.{ x.%Xd.. - : 3 p 3 3 & s 0.&X+X X`.l.b 3 0.l.' 1.c.k.T . :  .-.:.0.p.,.7 ",
"u 5 7 i F m : 0 0.B.q.q.r.0.7 - w f H k 5 b 3 3 4.;.;.;.r.`.y.X >.x.r.x.h.1.5 5 0._.+XI._.l.b 2 X.r.0.F.0.%.N . > 4.s.).n.^.n.i ",
"5 5 3 : & = 2 5 0.V.z.0.b.p.3 3 &.t.t.C.r.7.p 2  .;.-.*.b.OXy.X y.b.r.0.b.x.0 2 r.^.XX`.T.a.i 3 1.b.r.0.*.| N   : w.p.I.(.n.6.@ ",
"N } 8.z.I = : = U j.0.8.p.;.: M r.*.e.Z.G.r.5 2 0.7.r.r.l.!.6.. >.l.r.1.l.n.k - r.T.!.~.!.M.d 3 ,.M.c.*.*.0.T . 3 k.b.r.b.b.4.X ",
"_ 0.8.h.h.L & : c s 2 > @ @ > *.x.r.e.0.k.r.0 : K.j.0.q.q._.g.. ,.n.r.q.c.P.d & 4.M.+X^.(.m.i = 1.p.l.r.0.N.[ . : l.w.r.T._.M.3 ",
"0.V.B.M.m.7.- & M E D d m F :  .x.0.0.7.l.Y.g = G.M.8.r.r.Y.3.X ,.l.a.1.l.T.m = q./.^.!./.!.i = o.F.M.r.l.Y.#.. 2 4.l.B.T.T.q.q ",
"8.v.T.x.M.h.: &  .Y.M.;.9.x.3 d ;.;.0.1.p.m.g = l.p.l.0.;.M./ & 1.n.l.r.c.oX~ & 1.T.T./.`.`.i 3 &.Z.R.q.p.^.e.@ v D.4.Y.+X_.:.0 ",
";.h.h.p.v.=.2 : *.h.%.-.r.p.- & | %.-.7.h.m.a - l.V.I.=.r.=.S & w.c.a.l.l.m.l & 4.^.OX`. X_.i 4 2.f.H.k.F.v.[ . : W.l.K.oX+X8.7 ",
"1.q.h.v.x.p.7 : ;.r.;.v.M.m.3 -  .] *.0.j.P.k - k.(.!.%.1.1.I & e.c.r.r.k.v.l & 1.T.+XG.(.Y.a 3 ,.l.a.f.{.F.I . & g.l.c.Y.T.r.3 ",
"1.F.l.q.p.9.: 2 ;.M.k.w.4.r.> 3 0. . .r.h.M.k & l.V.E. .0.N./ + f.m.p.l.F.I.G & 0.^.5XT._.^.q 3 ,.p.H.f.'.E.E . = t.T./.I.T.0.3 ",
"X.Z.Z.h.V.b.: 3 ;.;.0.M.K.!.: : ;.=.;.0.x.T.l & U./.G.;.l.Y.o.X 5.c.k.p.l.n.l & p./.@X`.=X].i : >.n.p.k.{.{.( X & J.Q./.E.`.n.3 ",
"1.k.P.a.n.M.3 3 ;.P.0.n.q.T.- $  . .;.8.l.M.k + I.Y.^.k.x./.o.+ w.b.h.n.G.0.d + 0.I.T.T.R.Y.i &  .^.v.H.'.'.o.O & o.4.1. .[ E 7 ",
"*.w.Z.C.P.G.6 =  .Y.;.r.l.I.$ o  .;.*.-.b.Y.k X p.T.M.F.Z.{./ & t.b.r.L.s.-.d @ >.V.(.^.Y.r.F + X._.l.k.l.Z.Q   X + + . . @ : . ",
";.k.G.Z.k.a.5 2 } r.;.q.c.^.$ @ *. .*.;.j.N.A X j #. .v V B f 5 q.b.r.k.1.r.g X 3 i a g g j e = >.P.c.0.4.r.I # < u.l.0.I y : @ ",
";.l.l.l.c.Y.a 2 :.p.p.q.:.c.@ - 4.] *.8.r.K.l X : d 3 5 f a 6 p e.x.w.n.0.h.F . - > - - & - = : ,.M.t.r.0.l.I . t [.;X;Xv.0.e.J ",
"*.z.9.p.q.&.w 6 -.z.8.;.p.p.o : r.*.-.0.z.K.G X C | |  .r.0.f 6 a.k.0.h.8.m.m X i._.XXT.T.Y.N + X.T.0.k.p.m.F   8 '.1X*X_.$X8X$.",
" .b.n.V.b.d 4 ; I q.4.c.q.>.o - l.,.;.p.x.Z.> + T 4.;.p.0.r.S * e.S.a.x.q.p.j + e.l.l.p.M.Y.U X ] !.F.r.r.m.J   > U.1X.XR.Y.&XA ",
"{ ;.n.m.1.y 6 , 4 f 0 : @ . . $ l.4.;.r.b.K.> +  .0.r.q.7.h.D X A.L.t.Z.q.M.F o p.q.4.b.c.b.D X ] l.p.r.a.v.I . > E.*XR.5XE.&XA ",
"' ' j.9.b.P : 4 a n B d k 3 X - l.q. .q.b.m.g + X.;.0.q.r.8.d + C.L.f.k.q.q.j @ 5.;.r.z.a.M.E X ] Y.l.r.r.l.b . 7 l._.[.'.{.U.l ",
"*.9.h.z.M.0.4 - ] t.t.a.m.~.7 & |  .*.r.b.m.g + *.q.0.1.7.;.0 & e.L.a.a.k.K.b @ 0.4.l.b.j.h.I X  .T.x.0.q.n.l . 0 n.|.`.T.].X.q ",
"-.n.m.j.M.M.7 &  .k.k.k.L.n.9 @ *.*.;.0.p.b.a + [ 0.0.0.0.8.s & a.K.t.r.f.F.m @ 4.0.h.j.b.B.I X ,.R.k.r.q.j.k X 0 p.T.`.~.Y./.K ",
"%.8.q.r.0.0.0 & 4.w.k.F.R.I.r @ *.%.%.;.M.n.a @ ,.;.0.q.0.0.i & a.m.r.0.w.Z.Q ; 0.r.x.h.q.N.R . e.V.!.N.m.r.d . i I.!.$X/.Y.R.x ",
"} 8.-.p.p.M.3 - 8.h.0.l.R.P.t @ *.*.;.;.h.x.a + 0.q.8.1.0.;.0 & D.Y.:.*.;.t.G , t.k.m.M.z.p.R   q R ..#.5.*.7 + j XX`.+XY.T.!.k ",
" .-.;.b.M.p.3 : ;.-.q.r.a.k.9 X *.p. .0.0.h.a + 1.1.*.;.*.;.i @ J.Y.0.;.p.k.x ; u.F.m.k.n.j.A         . X X o @ j `.&XY.U.;X,XA ",
"} *.-.p.h.v.q & 0.:.q.;.=.b.7 . b 8.r.;.r.h.7 &  .0.0.*.;.-.q @ J.N.b.M.M.r.p ; 5.Z.U.M.n.m.R   0 E m i b d - X i T.`.G.S.n.^.0 ",
"} -. .p.p.=.3 3 9.p.r.:.*.c.- X 2  .M.0.;.*.i & *.q.*.0.9.-.p @ K ,.@.[ T m : 6 0.e.Z.k.h.j.B   R m.9.;.I.n.u X - 8 > $ $ $ o X "
};
