/* XPM */
static char *xpm_[] = {
/* columns rows colors chars-per-pixel */
"64 64 26 1 ",
"  c #030303",
". c #040404",
"X c #080808",
"o c gray6",
"O c #131313",
"+ c #151515",
"@ c #181818",
"# c gray11",
"$ c #232323",
"% c #252525",
"& c #282828",
"* c #2E2E2E",
"= c #303030",
"- c #343434",
"; c #3A3A3A",
": c #3C3C3C",
"> c gray25",
", c #464646",
"< c #494949",
"1 c gray31",
"2 c #515151",
"3 c #565656",
"4 c gray35",
"5 c #5D5D5D",
"6 c #646464",
"7 c gray44",
/* pixels */
"  ..XX.X.X@OX++OO@+X#*%$+$-=$@&$$+@oO$@@#OOOO+++OOXXXoO@##$@##@o",
" . XXXoXo@&#O$$$$%#+$-=;&=,;%=;*&%*$$&#+@+++$**&@@@###@*;-**;;-%",
"...XXoO#%%&&O@@##+$+o@*;@%;-%@&=#+$+@O+O++#&#$##+@%%@##%$%&&&%@%",
".X.X++@=%*&@oOOOoOoO@O&:%+*%#Oo@+@o++++#O+$&@O#%+o+O+@+O####@#++",
"X..O+@oO#-#o+###@@@O#$$*#++@OO@@ooo++@$$O+@+@+#&@oO++%#@%&&@@@#@",
"X.o%*&%@%@O+@#@@%%$+##+@+@#$#@%&@+++#$%$OO@+@Ooo+o@###@+@%=$*%#%",
"XXo-::-$@@@&@@@#&$@++++@@@@#@@##@@$@$##@+++$##++#@@O#$@#$$&**-%#",
"X.O-%$%+O+%&#O+@@@+#%@@O#&$%#@@++#@@+o@%$%$%#@@#%$$@#$$$%#+#&%&&",
"XXO&##@@@+$@+@$++@+$@+#+O$$%%@@##@#@+@+@%*%@@%$@#%%#%$##@##@**$#",
"XX@;#@#$&@%$@@$@%&##%##$%@####&##@@#@%%O+#@@#%#@#@@@$$#@##@@%-=&",
"Oo+$+$$%%+$#@$&$$%$---$&==*$*=&$$*#@$##$O$#+&-%##$#+@$@#%%@*&=--",
"ooO@@%$##+@#@&=%@#$%&=#$%=;&%=&@%=%%#+$#%=%=&=*$===&%@@==&&&@%*&",
"Xo+$#@$@#&&&*-==%*=%*:=#%$&&%*$*$#%%-*;&&-;-#@@%*=%=%#%%>%$$*&=;",
"XoO@#*%=$#$$=>-=%==#%;*%:&**@**=&@=-=-;;#*%****@%##$$-;#$#&==%--",
".ooO@&@$$%&$$$$%$$$&$&&#*;;;%*=#*-&&=%$&&%$%%&**;&*&&$&@*=-&$#-=",
".Xo+@$**#%*$&&-=$;;-=$%%-:;;&$%%%*&%%&;=&;;--=$%;===**=$>;%#@$&$",
"Xooo@#**#%%%&-==%*&*;%>;=#O$@>1:<=*2;;::%;->;;;&:-*=*&:%:-%##%OX",
"X.X@o..oOOooOoooOooOOo@O... .@%+@O@$+++++++O+O+o+OOOoo@oO+XOOooX",
"X.XX........ . . ..  .  .X..X. .  . .   . .   ....  .. .  .... .",
"X.X.X.X..... ......X......XXX..........X..X..........X... ......",
"XX..X.X.X..XXX..X.X.XX.X.X...X.....X.X..X.XXX..XXXX..X.X...XXX.X",
"XXX.XX.XX.......XX.....X...X......X.X..........XX.....X..XX.XXXX",
"+oOoXO@oX+$@+$$Ooo+OXOoX+OOXooo...XX.o+%&****%%%%&&=*%#$-&**&#$+",
"%&&$$$#$&==*$*=*#+&%%*$*&@$##++OX...+:==:,1,2,:--,:;;-&,:*>,:>*@",
"=-#*%##%&$*&-$+#%@%%$&@@$#+%$o#+oX+X--=;;,,=-*%#$%&&%&&;;;*-*%@O",
"@#@%#O+#$O@@#@o@%+&*+$+$%%$++@+ooo+o-**;-$#%&&*&*=*&$#$&=-&&%#+@",
"o@#$@$##$+###@$@@@##+$##@#%$@%+X.XOX%==&#*&;,**-><>=*&#$**$$$%$#",
"@#@$&%%$+O$&%$%@#+$$#@$@%#@+$#@o.XOo#;*$;1><2;;-:<,;:*$$%%@#$%#+",
"$&##%$*@@$O$%&$$&#&&#@$&%%@+#@#o..oo$>$*,,::;<4,;>><%%&#%$@$$&$+",
"%*$o+O&@@$$OO#@+$@&*$&&=&&$@@&+XX.oO@=$*=*%OX%*-&###%=-%#+#%$&&%",
"%&+%$OOo@#&#&&%%$#@O$#%%%#%=$$@XXXo.+-%<;#@@%+o@%#++=*&%*$##@;*#",
"#@@&&$@$$O@#$&%&%$@%$#@@%@-=@+@oX...o*<>$*$&&++O#@+@%$+@$%$%$%*@",
"O$$&@#&++O%#@@%&@$%##%*%@#$##$&%XOXX+$#@$%$%$%$o$+O@+++$$&%&#+#$",
"$@@%$%$#&%@%$#+%$@%@#%&&$$+@%$%#OOO.$*$&%$&$%$O+$+##$###%&&$#&%#",
"@+@#@$+O@@+#%#@$@@$$#@&%@%$O%*$#oXOo+;=$*%-=@#%#@+&&&*$+$&%#$-=&",
"$$O#$@@#@@O$&&@%#$#@###$#%&@&$+$oXoO+-31:;*%*;*%;$$$%%$@#=$$$;*>",
"%*%@#O###&@O$%@###%@#%$@%$&#%&#%OOXO$&<<;=%;:-%%%+&%@-:=%*$=;:&;",
"*#$$+@#$%$#+++%##%$@@&$@$&@%@##$+ooX%%->;***%%*%OoXoO#-<==><:*%$",
"OOO+O+@@@++o#$@#@OOoo@#+%*%&#%OOO..X%&%-::,,-;;,$o#@+@->1:462,:,",
".oX.X.XXX.X.XXXXXX..X.ooX@@+.O.o+XXX##%$@+&%@@+&&%$@##+#&%=;;:=-",
"..........X.........X.......Xo.XOOooOXXX.. ...  .XXXXX..        ",
"..X......X.....X..X......X.XOoOOXOOOo. ......X............X. ...",
"X.XXXXXXX..XXXX.XXXXXX.....Oo.O+OXXXXX.XXX.X.XX.XXXXXXXX.....XX.",
".XX............XXX.XXXXoX.XOoXXOOXXoXXX...X.....X..XX...XX.. .X.",
"X.. &31<::---&&=&*#%*$&=*-&%*%$&%###$%%#$&%%&==*$$&%#&%$$$%%##**",
"X..O55,376312<,=<1;;1:;541:-:>>>:>;--,;<--=;;<1<**>-*;*==&=;=&==",
"XX.#;$$%*%>;-;*$&=&#*;%*:-*#%**&&*-*$&$&===%%$$;=%=*=&#%*%$&&%%$",
"XX.O&*%==$-=%==&%&-=;-*%--=&-&$%$&=%#*%#$%&&*%#*%%%$#*-%&#**=%&*",
"XX.O==#&-&$&$;&$&=;-=%**$&-*;%#+#$%*%%=%=&@&:&&*&@%-*&=%*%=&$$$&",
"XXXO;:#-&%#$%#$&&%*-;=->=*$*&&$$$*&*%#%-&;%**&:%=$%=%*=;;*#$;**@",
"XX.+-&#*$#$@%%@$%%%$*&%&&=&$#%$@@%#%%@+$&&#&$+$$*&#%=*&+@#$%&&@$",
"X..X%=&##$++$#*%$#%%&$%+##%%%$###%$$$&;%%=&=-=####%%%@%%*=*#@$&@",
"XX.o*:*$+@&%O#*%&@$#%&==:;==-*$*--%%*#$#$$@+%%#$@@*%=*&&+++#*%$#",
"XX.o$$;-$@+@#@@$*&%&*%***;*&$%&&=-*&*=;4>$&%&$&$%#%&$#@@@@$=:@O%",
".XXX#=;=%#@+##@%&=-=**&%&%&*&*%$*;*=&-33,:*#-1<>;=;*&=--&%+$%+@%",
"..XO#@$&&##$$#*%&%%@&=$#$@$@#%@$&#+@@@$*;;-*::-%*%&-*=:;=%*&%*&-",
"X..o#%$==#%&$#**&&=*%#@+=$$$%#@@@@@#++@@##@#%@+O$&$#%#$$&%-:;:;#",
"...o&--=&$@##$*:&&==%%++-*$@%*%$@$$%+%##&@+#$$%;&%#**%&-,#@*>%&+",
"X..X+@@$#*=@*#@-%--**;@@&;&+$**%@$&$#&#+*$%;-#=;;@@;;-:11$#*,%&#",
". ..o@#%-==$;=--$;%=&=$$-:-@&;:-*=:&@*#o%*=>,=,12%O:,2332&#->-;%",
"...XOOoO@$$o&=;&@%+$O#+O&%$o@$@%$$#+o@@Oo+@@$@$%%#O+O*&%&@X+++OX",
"X.X......Xoo..oo.XX......   ...   ......X...  .. .. .    ...  .X",
"X.X.X..XX.ooXXO..............X..  ..X....... ...... ............",
"XXXXX.oOoo.oOOo..X...X.X...X....  .........X....X..X.X.XXX.XX.XX"
};
