/* XPM */
static char *out[] = {
/* columns rows colors chars-per-pixel */
"64 64 231 2 ",
"   c #36074E",
".  c #3B064E",
"X  c #370A4F",
"o  c #39084F",
"O  c #3D0753",
"+  c #3D0953",
"@  c #3F0658",
"#  c #3D0958",
"$  c #420655",
"%  c #4A0356",
"&  c #420955",
"*  c #490856",
"=  c #45065A",
"-  c #4B055B",
";  c #45095A",
":  c #4A095B",
">  c #52025C",
",  c #5B025E",
"<  c #50085D",
"1  c #461A5C",
"2  c #4A1A5E",
"3  c #62035F",
"4  c #4E0662",
"5  c #4C0962",
"6  c #4F0968",
"7  c #530363",
"8  c #5B0263",
"9  c #520964",
"0  c #54066A",
"q  c #5B046C",
"w  c #54096B",
"e  c #59086A",
"r  c #4D1662",
"t  c #4D1A61",
"y  c #541564",
"u  c #5D1567",
"i  c #521A64",
"p  c #5E1569",
"a  c #541A6A",
"s  c #5B1A6D",
"d  c #5D0271",
"f  c #5D0973",
"g  c #620465",
"h  c #680366",
"j  c #64046B",
"k  c #6B036C",
"l  c #74036E",
"z  c #63146C",
"x  c #69146E",
"c  c #650372",
"v  c #6C0374",
"b  c #630578",
"n  c #6F067D",
"m  c #640A78",
"M  c #6A0B7C",
"N  c #730375",
"B  c #7B0475",
"V  c #760974",
"C  c #7B0874",
"Z  c #74047C",
"A  c #7B037B",
"S  c #7E0C7B",
"D  c #6A1575",
"F  c #721474",
"G  c #78167C",
"H  c #722679",
"J  c #810375",
"K  c #84037C",
"L  c #840A7C",
"P  c #8B087F",
"I  c #92077E",
"U  c #7B0584",
"Y  c #750983",
"T  c #7D0388",
"R  c #7C1582",
"E  c #792680",
"W  c #840987",
"Q  c #8C0C83",
"!  c #8A048D",
"~  c #83098F",
"^  c #8E0E8D",
"/  c #930985",
"(  c #94048A",
")  c #900D8D",
"_  c #9C0A8B",
"`  c #841383",
"'  c #891183",
"]  c #8B138A",
"[  c #881988",
"{  c #93148C",
"}  c #971A89",
"|  c #8A0693",
" . c #8B0D90",
".. c #940494",
"X. c #9E0B92",
"o. c #990997",
"O. c #9B049A",
"+. c #931294",
"@. c #9C1394",
"#. c #951E93",
"$. c #9E1E94",
"%. c #9D139B",
"&. c #A60F8E",
"*. c #A6108E",
"=. c #A40A95",
"-. c #A3019C",
";. c #A40A9C",
":. c #A31293",
">. c #A91294",
",. c #A11D96",
"<. c #AC129B",
"1. c #A61998",
"2. c #AA1C99",
"3. c #B6139B",
"4. c #B2129D",
"5. c #B11D9B",
"6. c #BC1F9E",
"7. c #8C218B",
"8. c #9C2296",
"9. c #A12195",
"0. c #A5229A",
"q. c #AA229B",
"w. c #AE2D9F",
"e. c #B5219D",
"r. c #B9219E",
"t. c #9E04A4",
"y. c #A206A4",
"u. c #AC03A7",
"i. c #B405A5",
"p. c #AF19AC",
"a. c #B411A2",
"s. c #BB14A3",
"d. c #BF1EA1",
"f. c #BC16AB",
"g. c #B11BAE",
"h. c #B406B1",
"j. c #BB06B5",
"k. c #B708B5",
"l. c #BC09BB",
"z. c #B619B3",
"x. c #BD1CB8",
"c. c #AB21A2",
"v. c #AF21A9",
"b. c #B324A1",
"n. c #B926A6",
"m. c #B624AB",
"M. c #BA24AE",
"N. c #B628AC",
"B. c #BC29AB",
"V. c #AD30A5",
"C. c #B835A7",
"Z. c #BE3BAE",
"A. c #BC23B3",
"S. c #C216A5",
"D. c #C21DA6",
"F. c #C815AA",
"G. c #C31EAB",
"H. c #C91FAF",
"J. c #C305BD",
"K. c #C509BB",
"L. c #C61DB4",
"P. c #CC1DB2",
"I. c #C21DBB",
"U. c #C81BBA",
"Y. c #D21AB5",
"T. c #DA1BB5",
"R. c #D31BBB",
"E. c #D518B8",
"W. c #E31CBB",
"Q. c #C322AC",
"!. c #CA21AE",
"~. c #C129AC",
"^. c #C13AAF",
"/. c #C721B2",
"(. c #CA22B2",
"). c #CB2BB5",
"_. c #C822B8",
"`. c #CD2CBB",
"'. c #D225B3",
"]. c #D823B5",
"[. c #D22CB7",
"{. c #D424B9",
"}. c #DB26BE",
"|. c #D42DBC",
" X c #DA2BBC",
".X c #C43BB2",
"XX c #CC3CB5",
"oX c #CC34BB",
"OX c #D43BB6",
"+X c #D134B9",
"@X c #DA36BC",
"#X c #D539BA",
"$X c #DB38BC",
"%X c #E025BF",
"&X c #E134BD",
"*X c #CD49B9",
"=X c #CA1EC3",
"-X c #D51CC5",
";X c #DB1EC3",
":X c #DE18D0",
">X c #E51EC7",
",X c #EB1FD3",
"<X c #F31CDC",
"1X c #CF2FC4",
"2X c #D926C5",
"3X c #D52DC1",
"4X c #DC2CC2",
"5X c #C831C2",
"6X c #DA37C2",
"7X c #E225C3",
"8X c #E22CC6",
"9X c #EF25CE",
"0X c #E32CCC",
"qX c #EC2BCC",
"wX c #E431C9",
"eX c #EA32CD",
"rX c #E73CCC",
"tX c #E725D4",
"yX c #E52BD3",
"uX c #E92CD4",
"iX c #F62ADA",
"pX c #F62BDE",
"aX c #EC31D4",
"sX c #F031D9",
"dX c #EE23E5",
"fX c #ED25EA",
"gX c #EC28EB",
"hX c #FB22E5",
"jX c #F225EB",
"kX c #FF31F6",
"lX c #FF35FD",
/* pixels */
"*Xw.u 1 1 1 1 1 1 2 t t t t i z } OX).D s s a a a a a a s s s F V.rX8.p r r t t 2 2 2 2 2 t y u 1.XX9.z 2 2 t t t t t t i a s E ",
"C.2.>   X X O + + + + + & ; < < Q (.L.d 4 6 5 5 5 5 5 6 4 4 4 c c.0X) 4 = $ O   O O O & + @ = > @.).@.> @ + + + + & & ; 5 5 w D ",
"Z.2.>   X O + + + X + & & * : > Q `.L.b 0 6 6 6 6 6 6 6 6 6 w v c.0X+.4 = & # + + @ + # + $ = - :.`.:.> @ + + # & + & # = 5 4 G ",
"Z.1.>   X X X X + + + + ; * : 8 / `.U.Y d 6 6 w 6 6 w 6 w w q N v.yX+.5 = @ + + + & # + @ $ = - :.`.:.> @ ; # + ; & ; & 5 5 6 G ",
"Z.2.> .     + + + O + & * * - 8 / 3XR.U b f f f f f f f f f b A A.uX+.7 - = O + O O O + # @ - > :.`.:.7 $ $ ; ; ; ; ; ; 5 5 0 R ",
"Z.1.>   o . + X + O + + & ; 4 8 _ 4X-X! Y m f m Y f f Y m M N W A.uX%.7 - = & & @ O O & @ @ $ - <.|.>.7 @ = @ = ; ; ; ; 5 5 0 R ",
"Z.0.>   o o + + + + + & * = - 8 =.4X;X..U Y n n Y Y Y Y Y U U ( _.sX%.0 4 = = & & $ $ @ @ & = 7 <.|.<.7 $ @ = = ; ; ; 5 9 w q R ",
"^.1.,   o o o + + + + & & * 4 q o.0X>Xy.| T ~ | T T T ~  .! ( -.=XsX%.8 - * = ; & & & & & = * 7 <.1X<.8 - 4 = 5 5 5 4 5 9 e q [ ",
"^.5.>   o X X + + X + & & * 5 e =.yX,Xi.O...........O.O.O.-.-.u.-XsXt.7 - : ; ; $ ; & & ; ; ; 4 <.3X4.q $ 5 4 5 : 5 4 4 0 q c [ ",
".X2.>   X X + + + + + + & * 4 q ;.tX9XK.h.h.h.h.k.h.k.k.j.j.J.=X,XpX%.q 4 : ; ; ; $ * & $ ; ; 7 <.4Xa.8 - - = 4 9 4 4 7 8 f c ` ",
".X5.,   . O . + + + + & ; - 7 d ;.tXhXdXdXdXdXfXgXgXgXgXfXfXfXjXdXpX%.8 : : ; & & & $ O & = : > <.4Xi.k 7 7 8 8 q q q c c v N ] ",
".X5., o o . O + + X + & & * 4 d ;.tXhXkXkXkXkXlXlXlXlXlXlXlXkXkXkXpX%.q : : & & & O $ $ & ; ; 7 a.7XE.f.p.p.g.g.g.z.z.z.x.I.U.2X",
"+X5.,   o O O + + + + O ; * 4 d ;.tXhXdXdXfXjXgXfXfXfXfXfXfXfXdXjXpX%.8 5 $ & & & + & & ; & ; > <.0XW.U.x.x.x.I.I.x.I.=X=X-X-X4X",
"@X5., . . . O o + + + & * = 4 c ;.tX<Xl.l.l.l.l.k.l.l.l.l.l.l.=X>XpX%.8 4 $ ; + + & # & # ; - > <.8XF.Z j c c c c v v N Z B S +.",
"XX5., . . . + . + X + & = * 7 q ;.yX,Xu.O.y.t.t.t.t.t.t.u.u.u.i.:XpX:.7 = ; ; # & + & # + ; ; 7 <.0Xf.k > 4 4 - 4 9 9 8 8 8 8 S ",
"^.5., . . & . + + + O + * % 4 q o.yX,Xt.! | | | | | | | | ..| -.=XiX%.8 - ; ; + & & # & & ; : < 4.4Xs.g - 5 5 5 5 - 9 9 9 9 e G ",
".X5., . . . $ . & o & & * * < q =.0X,XO.U Y Y Y Y Y Y Y Y Y T ! L.iX%.7 * = ; & + + + & & = - 7 4.%X3.g - 4 ; 4 ; 4 : : 5 : < F ",
".X5.,   . $ $ . o & o & ; ; 9 8 _ 8X7X..Z n M M f Y Y Y f Y n T A.aX+., % & + & # + ; + + = = - <. X4.8 * ; : * : ; = & = : % D ",
"XX5., . . . . . o o . o & * : 8 _ 8X;X! v f m f f Y f f f f d Y m.eX{ > $ & O + & + ; + & & * , 3. X<., * * : * * * = * * * - x ",
"XX6.8 . . . $ . & o & & & * 9 8 _ 4X;XT d f f d w w d 0 w w d Z m.aX{ - = $ $ @ + + + + + = = , <. X&.> * ; * ; * * * * * * - x ",
"XXe., . & . & . & . o & & : < 8 / 4X;XZ d w w 0 4 6 0 0 6 q 8 N n.eX{ - % @ @ O & & @ + + = * 7 5.|.>., $ & ; & * & & & * & * x ",
"XX5., . . . . . & o o & & : < 8 /  X;XA q w w 9 5 5 4 4 4 7 4 k b.eX{ - $ $ $ O + + & & O * * , <.|.>.> & & & + & & & & * * % x ",
"XXe., . & . & . & o o + $ * < 8 _ 3X-XZ 7 5 4 4 4 4 4 - - 4 4 k c.wX] - = & & + + O O @ O $ * > <.|.&.> & $ # ; & & & & & * * x ",
"XXe.3 . . . . . & o & & & ; : 8 / {.R.n 4 5 5 ; = @ = = = - - h q.eXQ % & @ @ + & O O O @ & % > 2.|.&.> @ & ; # X & & & & * * z ",
"XXe., . . . * . * . . * & ; : 7 / {.R.v 4 = 4 5 @ = 4 @ = - - 8 q.wXQ = & O @ O + @ O O O * * - >.|.*.> # + # + X & 1 + & & * z ",
"XXe., . . . . . . o . 1 * 1 : , Q {.R.v - 5 @ = @ = 4 @ = - - q 0.wXW = $ @ O O   + + O O & * % >.[.*.> & # # # X & + + 1 & * u ",
"XXe., . . * . * * o . . & & * > Q (.Y.k - = = = = $ @ = - = % g 0.wXW % & O O O O + + O O & * - <.+X*.- # + # + + + + + & 1 ; u ",
"XX5., . . . . . o o o * & * * > L ).(.v - ; # ; @ @ @ @ & = % g 8.6X' % @ + O + + o O . O & $ * >.[.*.7 + # # # + # + + O & & z ",
"XXe., . o . o o . . & & & & * > K (.P.k * $ $ $ O O $ $ O $ % g 1.6X' $ & @ O + o + O + O $ * - <.|.*., & @ @ + + + + & & & * s ",
"OXe., . . o & o . . X & & & * % L ~.!.j $ # + & O @ O & $ $ * g 9.4XL % & + O + + + + O O & = - <.|.*.> & + + # + + + + & & & z ",
"OXe., . & X o o o o & & & 1 & % J ~.!.g & O O + O O O + $ $ * , 8. X' * & + + + + o + + O + = > <.|.@.> & @ # + # + + + & & * u ",
"XX5., . & X X o o & X & . * & % C ~.!.g $ @ O O + + O & $ $ - g $. XL % & & . X o + O O @ ; = 9 <.3X:.> & ; & + 1 # & o & & 1 u ",
"*Xe., o & X X o o O X & * + * > C ~.!.3 * + & + O + + + # $ : g $. XL * * & X X & o & & & & ; 7 4.|.:.7 $ @ & @ + + + & & & ; z ",
"OXe., o 1 X X o o o + + O & * % C ~.!.g & + . + + + + # # # - 8 $. XL % & & X & o o o o + + : 7 4.3X:.> $ & $ @ + + + + + 1 ; u ",
"OXe., o o X & o o . + O & & = - C ~.H.g $ O + + + + + + + $ : j $. XP % & & & o o & o + + & : 7 a.3X:.> $ @ & & & + # # & & ; u ",
"OXr., X & X X o . o + O O & = - C ~.Q.g $ & O & + + + + + # ; g $. XP * & & & X o & & O + ; 5 9 4.|.@.> $ & & + + # + & & & ; u ",
"OXr.,   + X + o X X + + O & ; * C B.Q.3 $ O O O O + + + + # = g 9. XP % & & o o + O O O @ & : 7 <.3X:.> $ & O & & + + + & & * u ",
"OX6.3 . + X X X . + X # O & * * C ~.!.g $ O O O O + O + + O ; 8 9.&XL % & & . o + O O O O * - 8 4.|.@., $ & & & + + & & & & * s ",
"OX6.3 . X + o X X X + + + * * - C B.Q.g * . O & + O + O + # : e $. XP % & & . . + O O & O = - 8 a.|.:.> $ & O O & + & o & & * z ",
"OXr.3   + + o +   + + + O @ * - C ~.Q.g * + + O + + & + # + ; g ,. XL % & & o o + O + + + $ - 7 4.|.:.> $ $ & & & + & & & & & s ",
"OXd.3   o X X X X + + + + + * - C n.Q.g $ O O O O O O + # + ; j ,.}.' % $ $   O O O $ O & = - 8 4.|.*.> $ & $ & # & O & & $ = u ",
"$Xd.3 . & X X o X + + + + & * < C B.Q.g $ $ O O O + O + + + ; 8 ,.].Q % $ $ . . O O $ $ & * > 8 3. X:., $ & & o & # @ @ $ $ = p ",
"OXd.h & + X + X + + + + + & ; < V C.Q.g & + + & O + + + # # ; g ,. X' % $ O O   O $ $ @ & = - 3 3.|.*.% $ o & & & & & & $ ; = u ",
"OXD.h $ + + + X X # + O + + ; < V r.D.g $ O O + + + O + # # ; 8 ,.2XQ % $ @ O O @ O $ $ ; * % 8 4. X*.% $ & & & & & & * $ $ - u ",
"$XD.h * 1 O O O O @ O O + & : > V n.M.j $ O + + + O O # # ; ; 8 $.2XQ % $ $ O O O O @ = = = % , 3.@X:.> $ o & $ $ $ & & ; ; = u ",
"#XD.k % & & O * & * * & * * * > V n.Q.g $ . + + # X O # # # ; j ,.}.Q % $ $ O @ @ $ @ @ = - - 8 s.4X*.> $ & & $ & & $ & ; ; = u ",
"#XF.l % $ * * & = = ; ; ; ; : < V B.!.8 & & + + + O O # # # ; j ,.}.Q % = $ $ @ $ $ = = ; : > h D. X*.% $ . & $ . $ & & ; = * u ",
"$XD.N - % $ * * & & * * ; * % > C B.!.j & + + + + + O # # @ = g 1.2X] > % - $ $ $ $ = = - - 7 h S.%X:.> $ & O O & & @ * ; = - z ",
"&XF.J 3 8 , 3 , , , 8 , , , 3 g L ~.(.g $ + + + # + O # + @ - j 2.}.Q > - % = $ $ % = = % > , k S.8X:.> $ . & & & & & $ ; ; = p ",
"&XT.S.r.e.e.w.e.b.b.e.e.b.w.n.n.d.{.(.k $ + + + + + O + # @ = j 1.7X>.A B N N N N N v v N N N K Y.8X*.> & O & & . & * ; = 4 5 z ",
"&XW.T.!.Q.Q.Q.~.~.Q.B.Q.~.!.!.!.T.].(.j $ & O + + # O O O @ - g 2.7XP.~./.B.B.B.m.m.N.N.m.m.m.G.>X0X:., * & & & & & ; : - 5 = z ",
"&XW.I 3 g , , , g 3 3 g g g h k _ [.(.g $ O @ O + # O # @ @ - g 2.}.2.} [ 7.7.[ 7.7.7.7.7.#.$.a.R.4X:.> * ; * * & * ; : : 4 4 z ",
"&X].J > * * * * * * * * * * : > P ).(.h * + + + +   O # # @ - g 2.}.P > - - > > > 7 - 7 > 8 j K R.0X:., * = * * : : - - - : < x ",
"&X].C - ; * ; ; & ; ; ; ; ; : < P ).!.j $ & & + # # O # @ & % g 0.}.P - - = % = * - 4 - 4 4 8 Z R.qX<.8 % - * < * - : < - 5 4 x ",
"&X].C * * & O O + ; & & & & * < P ).!.j $ @ + + + # + O + $ - g 2.}.L % 5 = = = = = $ 5 = 7 8 N R.0X<.8 < < < * < < - < < > > D ",
"$X XC * & $ $ O + + $ O & @ * > Q )./.j $ O + + + + # + & & = h 0.[.L > = = = @ ; = = = 4 4 8 N Y.uXa.h > > > > > > > > , 7 8 F ",
"@X].B $ . $ * . + O O & & & * - Q `.P.j & @ + + + O + O @ $ = k q.[.Q - = = = $ ; = 5 = 5 4 8 v R.9XY.) ` ` ` ` L ` ` [ [ ] ] $.",
"@X].V $ $ $ $ & O O + + o + ; - Q `.L.g $ & + + # + O @ @ $ = g 9.[.L > - $ = $ # # # 5 5 4 q N E.9X>X|.5X`.oX`.5XoX5X5X5X1X1X1X",
"OX'.V % . * $ . O + + + + O ; - Q `.(.j % $ O + + + O O O & % h q.[.L - 5 $ ; @ ; 5 ; ; = 4 8 N E.9XE.X.) ) ^ ^ ] ]  . .) ) %.2.",
"#X'.V $ O . & O O + + + + O ; 7 Q [.L.j $ @ O O + O O @ & $ % h q.[.L - = ; ; $ ; # ; ; = 4 q N R.qXi.g - 4 4 4 - - 4 4 9 7 7 F ",
"@X'.N $ + & O + # X X + + + ; < Q |.L.j * o O O O . O O + = % h 0.|.S = = ; ; # ; ; ; ; = 9 8 N Y.qXa.j 4 5 5 5 r 5 5 5 5 : 9 F ",
"OX'.V $ + + O + + + + + + + ; < / |.G.j * & & O O + O + & & = h q.|.S = = @ & & & & + ; = < 8 N Y.qX3.q = 5 5 ; ; ; ; : : : : x ",
"OX!.V O + + + + + + + + + # ; < / |.P.j * O $ & O O O & * * % h e.[.S % = = & & & * * ; : < , N T.qX4.8 = = 5 @ ; $ = ; ; ; : z ",
"*X+XR r 2 2 2 1 1 1 2 2 t t i p } 6X).F y 2 2 2 2 2 2 t 2 i y F C.#X[ y a i i r t i t i i p x G  XrXr.z r a r a i i i i i i y H "
};
