/* XPM */
static char *xpm_[] = {
/* columns rows colors chars-per-pixel */
"64 64 25 1 ",
"  c #010101",
". c #060606",
"X c gray4",
"o c #0F0F0F",
"O c #111111",
"+ c #171717",
"@ c #191919",
"# c #1C1C1C",
"$ c #232323",
"% c #272727",
"& c #282828",
"* c #2D2D2D",
"= c gray19",
"- c #343434",
"; c #393939",
": c #3F3F3F",
"> c gray26",
", c gray27",
"< c gray29",
"1 c gray30",
"2 c #535353",
"3 c gray33",
"4 c #5B5B5B",
"5 c #5D5D5D",
"6 c #646464",
/* pixels */
"O+O++O@+O+O+++@@@$@@@+oX.XO+#@+@#@@++++++OOOOOoOoXooo+OOOoooooXX",
"+@+@##&#O#%%%$$%*&$%&*+O.o#@####++++++#@@#@@+O+Oo.O@+O@O@@+O+@++",
"O+@#@%*$%&*$**==*&$*-*#+.O@@@@@@+@+@++O++Oo+OoOOO.O#++@@+#@+$@@+",
"#$$%$$%%%**$=**&$%%$=&%# +#%#$##+@O++@OOO+OOO+OOOXX+@++$#@@@@@@@",
"$&%=$$*=&&*$*&-**%&**&%O %%$&#$$@#@O$#@+O+@OO+O#@.X+++++##+@+@#@",
"#$*&*$=%@XO%=*=-&&$%&$O..&-%&=*=**%$%$$#@$@$#+$$@..oO+OOOO+#@+$#",
".X+oOO+X.Xo+@O+OoooXoX..XXOoOoXoO+++OOOoXOoOOOooo..XoOo.XoOOOOO+",
"..     .oooX. .  . . ....         XXX.. .  .     . .   ..  .oX .",
"+@#@@@OOXoO++oo+@+O+oX.O@@+#@@###OX@$@#@#@+@Oo..oooOOooXXoXXO+oX",
"#$$#%$%$OO%&%$-&$&&&%XO*=*&**=;>=+o#%%&**%##%$X.O@@#@@@++@+XO#@@",
"#$$##&*%Oo$$%#%#$%+$*Xo*&$%&&=-;*+.%####$@$#$#X.O@@##$$@@$@oO#@$",
"#$#%%*&&.o%#%#%*%$$@#.O#$#%&&*=*&+.@$#%$#$#@@$oX@@@##%&#$%@.O#++",
"@@@&-;=&.X%$#&$%&%*##.o%&$%$$%*$#+ X+&%%%#@#@$oO*##@OO+%##O.O#+O",
"-&&&;---..%&=>=;-%=%&Xo&%###$$%@oX.oX#=--&$$#$oO&$$@@#@**#o o$#@",
"@+@@##@+ .XXOoO+OOOOOX.XOOO++OooX..XXX$*=%#$#$.X#@OO++++OOo.XOOo",
"                 .  XOo.. X... . ..  .  . . .  .     ..  .  ..  ",
"..X+++++%$$$@@+O@@+O$&&@Oo+@#+@#$$@%+oOO+++OO@OoX..oOO+OO++OOoXX",
".o#&+@++%%##+@@@##+#@%#$#o&;;&;*$*%*##$$@#$%%#%$+O.#%$@@+#=#OO++",
"X&$@#@@@+@##+@##@@@##%&$%O==&%$$$$$%&&-=%%$#$@+$$# %%@@++-:*$&%O",
"o$###@#$#$$#@@##$#####&&&o*;-=%*$%%&$@###$#$@+@$@@ #&+++#>;;-:-$",
"o#$#%*%&&*&&%&%&&%%$%%&=@.&=%%$@+$@%#@&##@+@##$@#$.o$+@==$$%####",
"X@%%&=***-***==*******&&@X&-$%%&==*=**:=*%%%&=*#$@ o%#%;$**$#*%@",
".O++@@@##O+%#$#$$@#@#@OoO.OOoOOOO+OoooXoOOOoOoXoXX..o@#$$%$#@#@o",
"..                     . .. . ...    . .  .XX. . ...  .   .    .",
"+OO@@@OO+OOo o$*&$$$$%%+@#@@#@#@+@$OoX..oXoO+OoXooOooXXoXXXX.X..",
"$$#$%#$$#$#OX$--;*-&*-&##%%$*::-&:<>=+X+*%$#%$#$%%$$@@$#++O++OX.",
"#$$@$##$$##OX$=;;>:=$#$#@$%%&;==-:,,:+.$1<>;=;=;=-&&%%@%%#%$*&o.",
"$#@##$$$$%$+.+-%@#@$%#%$+@+##$$$##$*:+X;;%>>=;;:-=;-==&%$$$%*&+.",
"@$##$###$#$#o@&&%@@##%$%$$$%#$%&#$$;,@o>;*&-=-,>,::=-===%#&&%*#X",
"%@@##$$##%%#o#,-=&#$**--;;>=*:-;==-;&+o*::;:>=<::=:;-*=---*&=-+X",
"OoOOOOOo+#@OX+&*&%++&;:=;>==-==:;-;@OOX#+OOO+++++++++++O+@@#@@+X",
".      .  XXoX   .... .. .X.X.XXXXX.+O.. ...   .             X.o",
".@=&%$$#$%$$###@#$@@@@@@#O .oooOoXo+@@+OOOOoXoXooo. XXooOooOO++O",
".&;:;==--;**=***==***&*&=#.O@=-,&$=:;>;;;-=%&**%*&@.O-;-=-%,:&$@",
".#&$$%%**&&#%$%&&&%&&&%%&@X+=;:1<,31:<:;311>1>=&=;&.@32:--%=&*#+",
".#*@@$%%**&%&%*%%%$&#$$$%$.$:*14:;,-->:*<,;&=---*&$ @2<=%#@=#+O+",
".+*##$&&%%$%%$;**=&*&%%&%@.=;:21<,,=:,<>1<,;;-::=*#X#<,,=*#$#@@$",
".+&&$&=*$&$%$$@%%*%=:*-&*+.$&;::-&%=:=-:->-::;:>;:*XO<2,-*%%%@##",
" X+#$%##@#+$#@O@$&@$=@#+O.XXO+++OOo+#OO++@@++@$$#$@.O:<;&-#$$@@+",
"..XXX..      .          ..X. X..   . . .       . . .XXoXX.. ....",
"###%%#@$#$#@.X+@@+@@+@@#@@@@+@@@#@+XXX.oooooOOOOOO+#+@@+oo+ooo. ",
"***=%$$##%*= +-=;*=*--*--::,-:&&=>&$*+ O#$+&*#==*&*:;*:=:;;&:&$X",
"%*-=*&%%#$=; #;=11,>;;:->,<<-%###$##=# +#&%=;@=&=$-<;=;*%=-%:;&o",
"&*=&*%&%&%*= #;:>:-;;;>;>;,*&#$$###%-$.O#*&%%**#+%*&$&%%##=#+@-+",
"&$***$&&&&=* #=;>-;:;--;-::*$%%$$$%$&X.o#&%$$&-%#&&**=***%$@@@&o",
"*&*&$**%**;* +&>,:;,>:=-&-*-***&%%*=&X +*#%%=*&=--=-===&%$$@@@+o",
"%@$@#$$#$@#@ @++++++++++O+@@OO@@++@#$o o=*&-*%;==:>=%&-&%$%$@$@X",
"   .   . .  ... . ... . ......     . .. Xooo. XXXXX. X. ...... .",
"Oo. o#+OOO+O@+OO++@#@@@+O+++o XoXXoXXXXX. ....... ...    X..XXXX",
"#*+ @==**%==*=;=&%&&&*&=&&&%+ @*%*;=::&=**%*%$##$%#+#@X.#$$%##+@",
"&$O #-==&&=$&*=*&=&--*&&%+@@o @-&%&%=;*&-*@&$##$&$$+$&o.*;;:=&+#",
"&@X $*%#%$%%%&&&&***%&%#&%#$o.#,=#O+$&$#$#@$%=*%%@%@@@o.==&$#@##",
"#*X &=%$%%%&##=>;;>&%%#+$&&%+ #-;&$%*%$$&$&==:#%&#@$@=+ &%%=$#@#",
";-o.$$&&%&&&$%=><;=&=*&++#*&+ #:=>-&-=*;*-;=-&:&##%$&:O.*&$$@%##",
"-O. O+@#@%$$$#$*%$@*=%$+O+#$O O1:4621>,>25<;2-<;:,*%11O.&=&#&*=*",
" ...        .X X. ... .....  ..oO%*$#@$$%%@@$O+O@*%o##o X.o.oXoO",
"..XXX..X....oX.     ..     ..X..     . .                      ..",
".X**=%#&$**--# #%$&-%@$$@@o.$*&&=&&%%%&+XOOoOOO+++OO..XooO+*&$%#",
".o,<>;-;;<11<#.=,=-=$*&*$$OX&%&;:<>:::;&.-:=;=-=***=O.$#&;&*-=*%",
".X=;>:;,>:<11#.%--&&=&#%-=o.%;;:;,3,,2,%o=<,2:-;*$;;XX=>>**&*&$#",
".X-=;,;;>1->*O &:*-::=-=;&+.*<:><><>:2,#..%<:<:->=:;XX*=:&%&%%@&",
"..*,==-,::-;#X.$:=>,>=;%--+X*=;,:-<:-;:+ .@;<1;<2>=:+.--**=*%&$#",
"..:2=>;%>><4+..#-&&%%=;%==O.*-><;-:-=;:O o#:=*=--*>;OX=;&*-&$&$@",
"..@&#$%O@%%:+ .ooXooooX.OO...O@@@+#$$$O. .o$$%$$=&%O .+@#O$#$%+o"
};
