/* XPM */
static char *xpm_[] = {
/* columns rows colors chars-per-pixel */
"64 64 206 2 ",
"   c #000006",
".  c #03010D",
"X  c #050113",
"o  c #090115",
"O  c #06011A",
"+  c #0A011C",
"@  c #090918",
"#  c #110B1D",
"$  c #0F101A",
"%  c #14111F",
"&  c #0D0123",
"*  c #0E0129",
"=  c #110225",
"-  c #130C22",
";  c #13022B",
":  c #15092A",
">  c #180C29",
",  c #161122",
"<  c #1B112C",
"1  c #150232",
"2  c #1A0335",
"3  c #1D0A35",
"4  c #170139",
"5  c #1C023B",
"6  c #1D0A39",
"7  c #1C1131",
"8  c #22043C",
"9  c #230A3B",
"0  c #250A3A",
"q  c #23113B",
"w  c #291338",
"e  c #301439",
"r  c #1E0241",
"t  c #230343",
"y  c #2A0545",
"u  c #250942",
"i  c #2B0947",
"p  c #26044A",
"a  c #2B044C",
"s  c #27094B",
"d  c #2E0A4E",
"f  c #33064F",
"g  c #350A4D",
"h  c #3B0D4E",
"j  c #251041",
"k  c #291144",
"l  c #32124E",
"z  c #2C0452",
"x  c #2F0D51",
"c  c #320455",
"v  c #340953",
"b  c #370957",
"n  c #3A0A54",
"m  c #35045B",
"M  c #3A055D",
"N  c #3D095B",
"B  c #2F1150",
"V  c #331251",
"C  c #3B1259",
"Z  c #3D0462",
"A  c #3C0A61",
"S  c #410A5B",
"D  c #430B5C",
"F  c #49115D",
"G  c #420565",
"H  c #450A64",
"J  c #490C66",
"K  c #45056A",
"L  c #49066D",
"P  c #450C6B",
"I  c #4C096D",
"U  c #520C6D",
"Y  c #451263",
"T  c #4F1466",
"R  c #58136D",
"E  c #4D0672",
"W  c #4E0971",
"Q  c #510775",
"!  c #530975",
"~  c #580C77",
"^  c #56077A",
"/  c #5A077B",
"(  c #560979",
")  c #5B0A7C",
"_  c #561573",
"`  c #5B1471",
"'  c #5A1079",
"]  c #600C7E",
"[  c #62127C",
"{  c #622178",
"}  c #5E0A81",
"|  c #630C84",
" . c #690E87",
".. c #670C89",
"X. c #6B0E8B",
"o. c #710F8E",
"O. c #651284",
"+. c #6A1187",
"@. c #641A83",
"#. c #691884",
"$. c #6D118C",
"%. c #6E1B8C",
"&. c #71128E",
"*. c #711C8E",
"=. c #6F0E90",
"-. c #730F92",
";. c #790E95",
":. c #7D0F9A",
">. c #751293",
",. c #791396",
"<. c #751B92",
"1. c #7B1A96",
"2. c #771198",
"3. c #7D139A",
"4. c #7D1B9A",
"5. c #7B2395",
"6. c #82159D",
"7. c #831A9D",
"8. c #88199F",
"9. c #83219E",
"0. c #88239E",
"q. c #8515A1",
"w. c #8615A2",
"e. c #8916A4",
"r. c #8619A1",
"t. c #8B1AA5",
"y. c #8D17A9",
"u. c #8E1BA9",
"i. c #901DA6",
"p. c #9117AC",
"a. c #931BAC",
"s. c #981DAE",
"d. c #971CB1",
"f. c #9B1DB3",
"g. c #A11EB6",
"h. c #A31FB9",
"j. c #8622A1",
"k. c #8A22A4",
"l. c #8E24A9",
"z. c #9422AB",
"x. c #9922AF",
"c. c #9429AA",
"v. c #992AAF",
"b. c #9623B0",
"n. c #9C22B3",
"m. c #9B24B4",
"M. c #9B29B2",
"N. c #A223B6",
"B. c #A22BB5",
"V. c #A523BA",
"C. c #AA24BD",
"Z. c #A62CBA",
"A. c #AA2BBD",
"S. c #B02BBF",
"D. c #A632BC",
"F. c #AB32BE",
"G. c #B53BBF",
"H. c #A720C1",
"J. c #AD24C1",
"K. c #AE2AC1",
"L. c #B226C4",
"P. c #B32AC5",
"I. c #B82EC7",
"U. c #B627C9",
"Y. c #B827CB",
"T. c #B52AC9",
"R. c #BB2ACC",
"E. c #AF31C1",
"W. c #B433C4",
"Q. c #B63CC5",
"!. c #B634C8",
"~. c #BC34CB",
"^. c #BD3CCA",
"/. c #C12CCF",
"(. c #C53CCE",
"). c #C42ED2",
"_. c #C82CD8",
"`. c #C432D3",
"'. c #CA31D7",
"]. c #CA3FD5",
"[. c #CC32DA",
"{. c #D234DD",
"}. c #D23DDD",
"|. c #D536E1",
" X c #D935E4",
".X c #DC3AE6",
"XX c #DE38E8",
"oX c #E23DE7",
"OX c #E33CEC",
"+X c #E63EF0",
"@X c #C443D2",
"#X c #CA40D3",
"$X c #D143DB",
"%X c #DD4DDF",
"&X c #C654D2",
"*X c #DE4BE5",
"=X c #E446EA",
"-X c #E849ED",
";X c #E25DE7",
":X c #E054E8",
">X c #E744F0",
",X c #ED42F3",
"<X c #FF54FF",
"1X c #DE61E1",
"2X c #EE68F3",
"3X c #F176F0",
/* pixels */
"X X . + 4 5 4 t 5 a -./ Z ..../ ..;.} G ;.J.d.p.&.7.~.C.6.e.f.3.e.,.,.Q  .a.-.} ../ / Q } ;.,.X.Q ^ m M L K ~ -.p.6.7.;.u.e.7.~ ",
"X o o 8 z m G E ^ 2.y.:.Q 3.w.w.w.6.:.^ ~ a.h.Y.6.a._.L.,.r.L.C.7.>.f.-.&.o...Q ) / } X.w.f.a.3.-.| 3.w.X.-.=.f.V.V.a.f.L.V.f.a.",
"o & + r K K / p.s.y.p.6.E ) Q K ~ K X.) L Q a.U.+.$.L.C.3.I +.w.~ / ^ ~ | E L K Q | ;.d.} ) -.X.E / X.X.| ] | | | -.3.6.>.=.Q ;.",
"O & & z ^ ..~ 1.| h.e.Q L ~ Q Q L / G G ../ 7.Y.6.E O...| Z m ~ Q } Z / / / X.,.K ( X.3.| K -.p.X.m E Q Q -.) E 1.>.X...| ..) K ",
"+ & y | X.| m K 3.e.| G | -.-.| ..X.$.Q ,.,.$.&.) ~ | ..Q W ;.>.L G Z ^ | =.:.3.Q ~ | W / ~ ) [ G v E X.} w...) o.y.d.$.-.| >.&.",
"& 4 M d.L.H.J.o.:.} K ] | o./ | p.w.&.^ ) ..| } E ..X.;.,.X.3.3.-./ ..} 6.:.w.=.L E / | ..! m a ' N } X.-.X.X.) | 3.n.e.t.j.O.,.",
"5 t Z J.L.C.d...} ^ X.f.X.Q } ..3.-.| Q | } Q Q X. .X.>.Q Q X.X.~ | X.....) | X.X.| ..,.$.=.| X.>.;.} K ) >.X.>.w.>.>.4.j.c.<.%.",
"r t L f.X.=.2./ G Q w.6.| E ) Q ^ / L >.w.} o.L | p.3.e.6.X.I Q / ..} ..) Z ( w.6.s.3.-.X.] | ..>.w.3.>.>.,.,.>.-.-.~ } 1.%.>.%.",
"a a K f.-.| | | ,.} 3...Q | w.| | o.| ..) ~ ..| Q ) $. .o.) >.o.3.| | =.^ X...^ =.w.:.| / w.3.| =.;.-.} 6.3.X.| } >.=.) r.M.$.$.",
"M m ] U.| | -.w.e.X.6.,.X.} o...p.a.X.7.s.e.$.w.n.,.6.6.,.3.w.,./ X.} | >.w.6.~ / ..} Q 3.e...| | ..~ ) ;.>...~ >.=.) &.3.v.B.l.",
"Z K K ~ ^ e.3.e.3.Q X...| r.f.6.X.o.,.V.f.N.X.a.a.C.h.o.u.L.e.o.u.N.3.o.-.} X.3.) 6.:...a.J.f.>.3.e.w...X.>.} 3.w.w.X.d.3.k.l.c.",
"Z K E -...-.o.| } ..>.3.o.6.n.p. .6.,.-.a.N.3.X.X.i.C.s.7.a.7.o.;.e.3.3.3.o.p.X.u.H.a.C.,.e.6.>.C.V.f.N.e.) X.n.R.w.p.7.| 1.k.7.",
"a Z Q 2.X.-.3.3.,.r.y.y.N./.C.V.7.n.T.6.a.R.f.6.V.,.>.1.o.p.1.V.3.} e.a.V.J.).C.7.V.J.V.,.X.+.3.e.r.-.u.>.p.n.>.A.>.X.6.J.a.c.Z.",
"5 K L / ;.f.3.s.o.X.X.,.y.N.a.r.,.a.7.-.3.C.s.>.C.s.C.L.o.N.C.p.a.7.s.V.N.n.d.u.X.7.X.u.a.N.f.>.e.>.3.,.6.f.V.| X.w.V.x.e.>.V.b.",
"* m L Q | :...,.>.p.s.:.6.o.6.u.,.e.y.N.7.3.,.o.f.R.P.L.u.>.e.| r.C.w.>.w.2.w.n.p.z.p.e.w.w.r.a.U.d.s.a.f.>.e.X.L.J.a.>.$.>.V.b.",
"; Z z L ..e.J.N.X.w.f.3.s.h.Y.C.3.T.U.n.J.e.V.a.R.C.0.L.y.a.V.x.h.f.w.L.d.C.R.C.6.L.T./.R.L.u.w.U.J.C.C.f.f.K.6.`.J.w.-...>.>.Q ",
"2 z f Q ) G _ $.o.&.&.;.3.r.7.*.,.,.&.r.s.-.K.z._ 8 O 9 y F.}.V.!.z.x.}.N.N.N.C.7.n.z.N.x.b.N.,.N.a.,.u.6.,.V.>.z.z.|  .| ;.Z m ",
"5 r 2 S 8 & O & : ; = ; ; & + o & + = = = # & O O + & + X = 3 ; = = = = = = = = = : & & = = = & + + = = & + = & = & & 0 2 ; ; 8 ",
"4 ; O . o @ o X . . . . . . . X X X . . . . . X o o o @ + + o . X . . X . . . X O X . . . X . X o o X . X X X o X X . . . . . . ",
"1 1 ; ; & + + + + O O + & + + + & + + + # = + + & + & + + = & o O o + = + = O O + + & & + & & & & & O # & + + & & O + + + & = = ",
"t t 4 1 1 1 ; 1 ; & & ; 1 & & ; ; * ; = ; ; * & & & & & & + & = = & = ; ; & & & ; & * ; = ; * 1 4 1 1 1 1 1 2 1 ; ; 2 4 r t t t ",
"r p r 5 5 5 t 4 1 1 1 2 5 4 ; ; 1 1 1 ; ; * * * * ; * & & & & & = & 1 4 4 & ; 5 2 0 4 8 y 2 4 a z a z v a z c z m d b z z z m z ",
"O.) +.} L ] O.Q E &.z.6.} z.z.&.I G &.) H $.G U >.) ~ M M U m 2 O o O ; 5 O.&.u.L.~.`.T.[.L.V.g.V.R.T.R.T.N.3.n.`.l.S.~.L.x.r.X.",
"d.h.e.w.y.3.X.e.f.f.H.f.a.w.3.6.3.) u.w.u.f.2.s.3...;.y.3.L X.Q y ; ; O &.'.V.C.L.|.oX_.}.L.V.s.a.J.N.g.f.f.a.'.C.f.T.R.V.T.6.^ ",
"p.s.} d.3.} X.-.2.X.w.3.f.X.L >.w.} 7.r.| w.~ ^ 3.2.Q ..] K X.^ m g | 5 C.f.h.R.Y.L.C.a.a.p.7...,.w.u.6.>.w.w.C.T.L.a.f.p.-.Q E ",
"K ) | 3.>.E / -.,.E ) } / ~ Q ) -.) ,.u./ >.~ w.w.w.7.+.| $.U m t 8 E y f.f.f.J.p.;...p.V.p.g.h.L.U.C.f.w.;.$.6.s.V.y.e.7.;.| X.",
"K | | 3.+.3.-.2.&.^ >.3.3.X.3.) ) | X...~ >.$.) W ) 3.X.X.-.^ m 4 5 ! m -.J.h.3.6.Y.L.).XXg.h.V.'. X[.f.H.f.;.>.u.e.-.o.3.3.,.X.",
">.>.| >.e.6.w.=.) ^ | e.y.3.w.3.w.) 3.3.>.] &.X.r.>.) ~ ;.| ..Z & 5 L m =._.e.w.[.oX).OX+X/.|.Y.U. X|.[.V.u.,.$.y.3.| o.3.6.X.E ",
"3.d.7.I X.-.a.X.X.3.Q | &.u. . .e.+.z.f.) ..,.f.3.3.>./ } X.| Z 1 = Z L ,.U.-.f.R.[.L.4.@.'.=X{.J.x.x.K.X.u.f.-.;.| ..6.w.e.3.-.",
"e.p.| L Q G 4.~ ) >.u.K ~ ) O.| X.~ ,.>.1.e.p.y.u.e.+.3.X.u.| m r ; Z Z ) f.;.C.C.+...m m ~ ! 6.6...| E f.f.h.u.6.| o.3.X.N.w.w.",
"w.>.^ e.p.) b W X...>.>.i.n.3.w.6.w.~ H $.) O.3.6.~ a.N.>.) ^ t 2 * t 4 S J.C.-XB.6.O.>.s.^ K ^ 6.o./ ) f.s.3.;.y.6.X.X. .J.d.X.",
"| | ..a.7.>.6.=.+.M $.| X.3.w.a.3.O.X.6.,.7.*.~ >.$.f.a.X...&.W t ; t 4 M 1.F.1.X.a.$.u.>... .Z | | L | | | K ..-.u.w.a.>.| 7.X.",
"W $.>.y.) >.e.~ ) ) 2.6.) ) -.6.| >.w.} X.3.p.u.| &...| 2.3.w.q.v 9 u r ~ <.) >.,.,.e.6.,.p. .L e.) Q | | ) ) >.w.a.6.3.X.| ..;.",
"w.} ) ;.;.w.| | p.>.} >.3.>.^ 6.,.( w.>.$.>.a.6.X.-.} | w.3.3.| H 7 < 6 +.M.,.7.y.1.f.7.3. .H ~ | ) 6.6.w.3.-.+.3.w.u.3.-.n.p.X.",
"Q ~ | =...-.Q ~ ) ~ ^ 3.u.>...-.) >.[ ..o.} 6.3.X.y.3.( q.a.>.2.n = , u G Z.~.l.x.a.N.z.| 7.x.6.1.| 6.6.e.s.>.~ >.d.3.>.X.A.x.V.",
"r.r.~ ) w.} } X.} >.E ) w.p.| 3.3. .>.) ..;.X.X.&.>.a.+.e.3.~ 6.c 6 6 V _ c.-X=X!.W.7.7.L.T.3.6.L.,.e.3.3.p.a.X.X.m.>.>.u.R.u.[.",
"p.a.e.O.~ K ..&.>.a.X.Q  .>.o.~ | 6.w.| &.w.3.X.6.6.6.$.+.7.,.3.C q s i %.<.W.`.N.7.8.T.V.d.u.u.| K ] ~ I u.R.I.r.u.u.R.R.K.w.u.",
"w.^ | >.Q O.+.:.>...X.E ( | 3.w.X.X.X.Q L 6.X.| 3.e...e.+.$.~ ) V : ; + >.4.j.`./.C.V.n.6.a.m.y.E m m Z I ) A.[.U.C..X=X'.f.s.r.",
"M L K K c A G K K G M c ) | G K E Z c z c K ~ ~  .r.e.3.W >.P s k ; 2 = 1.7.1.b.N.V.{.[.C.C.n.].s. .w.-.X.+.p.C.XXR.-X<X,X>X[..X",
"& ; = + + + + O o O & + O O o O & = = & = + & ; + 2 y 9 & & 1 3 q 6 2 5 l Y ` N y 2 g u 5 t 0 i F ` U S J U 8 t n n F T _ ` F R ",
"o o . X o + o o + O + o O o & + o o & & & O o X X o O X # , - = q q 7 j 9 . . X X X . X X . . . . . . X X X X X . . . .         ",
"& & & = ; 2 ; ; ; ; ; = & & = = & * * & O O + o @ + & > < - q k 9 9 6 u r O O & ; * + & o * * & & * & * * & & + + + + X X & = O ",
"; ; 2 1 * 2 1 1 1 1 4 1 4 4 4 1 r r 4 ; 1 4 2 ; ; & & < 6 t A Y b a a m t 5 5 1 4 4 * 1 = 4 4 4 6 4 1 4 1 ; ; & * ; & O X + & + ",
"2 ; O . = w w u t 9 i d t t z z z z z m Z Z A N z x u V P K m v B m z K K z z z p p r 1 r t t t p a z z p p z t r r 1 1 = : 4 6 ",
"4 O o = G.3X1X;X;X%X(.#X#XW.A.~.I.(.t.Z.~.z.D.@XQ.@XB.c.B.M.n.M.c.z.a.a.z.B.V.N.z.K.b.B.B.(.@X^.l.l.W.a.e.B.s.z.n.7.n.C.8.r.Z.B.",
"5 * * h *XF.x.D.:X}..X`.'.`.K.6.L.`.N.e.W.!.x.@X$X!.V.a.M.W.W.Z.V.T.J.h.f.~.V.).C.a.a.d.h.Z.A.).s.6.J.N.f.h.r.y.s.3.u.N.s.3.u.w.",
"t 5 5 H h.w.e.p.w.X.I.V.z.C.i.r.r.u.7.<.k.v.7.1.M.c.9.O.3.7.4.r.6.u.K.s.=.e.&.&.t.V.V.3.,.,.>.N.n.e.f.3.7.e.>.e.N.w.3.r.f.u.7.,.",
"a 5 5 n p.s.3.s.C.7.z.n.>.N.a.6.6.s.W.v.F.V.t.6.a.M.B.k.F.r.>.X.$.3.r.,.X.a.y.3.>.>.O.4.V.u.3.u.>.,.w.7.,.n.P.;.,.) n.s.8.&.1.n.",
"t 1 & N H.L.| a.f.u.&.3.3.z.6.6.u.u.n.c.9.1.b.B.1.>.9.5.z.7.$.O.>.e.e.V.7.3.s.s.n.V.>.a.C.i.f.u.n.| r.C.r.7.e.z.Z.N.a.>.0.r.r.>.",
"2 1 1 n R.J.-.V.3.o.,.>.7.X.X.e.7.7.8.0.F.M.j.D.c.c.r.4.3.r.&.,.>.s.1.r.6. .) N.w.C.>.u.6.&.C.w.a.6.,.f.a.C.C.z.r.>.~ &.n.a.7.&.",
"2 + + g y.6.>.,.>.3.o.Q e.6.X.3.r.3.>.+.@.#.%.+.+.<.4.3.X.-.3./ } o.>.6.:.-.,.X.7.w.$.a.t.&.| X.r.6.) O.7.&.,.! $.7.a.6.r.7.| >.",
"1 + & t u.R.d.$.) o.X...| $.V.6.$.| r.3.i.r.w.&.*.*.u.7.x.6.+.7.e.k.3.6.6.6.Y.6.,.V.r.3.N.C.6.,.| +.z.t.a.+.u.a.u.t.1.~ ~ $.p.| ",
"1 & ; m p.H.n.3./ } 3.,.) | 3.3.s.$.$.$.>.7.n.v.F.!.a.n.a.r.,.a.J.n.6.6.r.X.X.r.7.) | ) &.] X.>.| ~ w.,.t.t.-.X.K G ( 7.L.3.~ 3.",
": * ; c 3.,.R.R.3.| Q ^ =...) &.4.l.z.s.M.8.8.4.7.n.a.a.6.u.u.a.s.Z.m.x.n.F.&X2X}.f.s.r.x.A.V.a.a.3.s.e.2.>.&.&.,.,.>.f.C.I E ,.",
"; & 1 c -.h.h.p.y.>. .| -.| <.<.5.j.r.7.u.n.r. .6.>.6.4.3.u.,.-.a.l.3.w. .1.F.I._./.g.>.L. X'.~.K.n.L.Z.b.K.U.R.z.6.| X.X.X.-.n.",
"& & & Z | H | a.p.| 6.e.,.$.j.1.8.<.<.O.8.u.-.] u.| o.] +.>.) X.,.) Q )  .|  .8.h.i.s.a.U.s.1.U 4.&.+.4.4.7.J.l.r.w.C.J.f.C.f.a.",
"= & O d 7.s.p.L.C. .&.w.>.&.z.M.4.j.V.c.3.X.} W J.w.2.>.6.3.o.X.| X.>.>.Q ) ) ) ) ! H ) ] I ~ ,.w.f.3.6.p.&. .6.N.,.y.L.R.T.S.] ",
"; & O y w.p.z.9.[ 7.>.! O.+.<.Z.1.u.z.j.e.a.) | f.C.w.) :.f.e.3.} X.2.6.| y...[ f.;...e.a.>.s.Y.f.X.X.h.s.y.C./..X&.~ p.[./ &.) ",
"+ X X ; b G Q *.<.z.V.@.v.@.#.b.*.Z.M.f.f.J.X.X.a.Y.f./ 6.h.J.a.>.w.h.3.X.f.&.m a.e.a.)./.,.L.)._...^ R.{._.{.+XoX6.-.N.{.g.V.,.",
"& o o = L ) [ &.0.r.0.Y J.P.I.C.O.n.} f.,.f.;.X.Y.U.h.| e.T.V.L.N.J.U.3.^ a.X.G X.w.f.J._.g./.}..Xy.Q N.N.OXOXoX Xu.Q a.h.f.f.+.",
"; O + = y a a a d C Y 5 ! T { T v J D J 2 n y t H S M ; y v 2 N n g y ; 2 y g z 2 t y 8 y 2 0 y y g a a 2 S n v S 8 8 3 1 8 a 2 ",
"1 ; = + + o X . X % , # X X $ @ X . X . O X . O X . o o o O O . . X . o O O o o o X . . . . o .     . . .   . . . O o X . . X . ",
"8 4 ; ; 8 X @ - $ X - , - # , * = ; = o + + O + + o & 1 ; = O X . o o o + + O o O O o o X o X X o X = = X o + & = & X X o + & O ",
"a t 2 2 = - < < < < - > < 7 - O + = O X + = + & & O o ; ; O o o o o X X o O & = = = = ; 5 t 2 ; 5 4 ; 2 2 4 2 5 t 4 ; ; 4 ; 1 t "
};
