/* XPM */
static char *out[] = {
/* columns rows colors chars-per-pixel */
"64 64 203 2 ",
"   c #3B064E",
".  c #370A4F",
"X  c #3A084F",
"o  c #3D0653",
"O  c #370B50",
"+  c #3D0953",
"@  c #3E0759",
"#  c #3E0A59",
"$  c #420655",
"%  c #4A0256",
"&  c #420955",
"*  c #490857",
"=  c #45065A",
"-  c #4B045B",
";  c #44095A",
":  c #4A095C",
">  c #52025C",
",  c #5B015E",
"<  c #50085B",
"1  c #4B195C",
"2  c #52195F",
"3  c #60035F",
"4  c #4D0662",
"5  c #470962",
"6  c #4C0962",
"7  c #4F0768",
"8  c #4E0868",
"9  c #540463",
"0  c #5B0263",
"q  c #510963",
"w  c #520568",
"e  c #5D036B",
"r  c #530A6A",
"t  c #5B0A6A",
"y  c #4E1A62",
"u  c #531665",
"i  c #5C1566",
"p  c #531964",
"a  c #5A1863",
"s  c #5E1569",
"d  c #561A6A",
"f  c #5A196D",
"g  c #5D1770",
"h  c #5E1972",
"j  c #620465",
"k  c #6A0366",
"l  c #64046A",
"z  c #6C036B",
"x  c #610F68",
"c  c #6D096F",
"v  c #72026D",
"b  c #7B006E",
"n  c #62146B",
"m  c #6A156D",
"M  c #60196D",
"N  c #6C0573",
"B  c #6B0974",
"V  c #740574",
"C  c #7A0573",
"Z  c #750873",
"A  c #7B0874",
"S  c #76067A",
"D  c #7B057A",
"F  c #740879",
"G  c #7C0B7A",
"H  c #621675",
"J  c #6C1472",
"K  c #631A75",
"L  c #6B1A76",
"P  c #6E147D",
"I  c #641A7A",
"U  c #6C1A7B",
"Y  c #721475",
"T  c #751479",
"R  c #78167A",
"E  c #722579",
"W  c #810776",
"Q  c #82047E",
"!  c #830B7D",
"~  c #8C087F",
"^  c #7B0780",
"/  c #8A0681",
"(  c #840C84",
")  c #8C0B83",
"_  c #940985",
"`  c #980886",
"'  c #9C0A8B",
"]  c #871082",
"[  c #891183",
"{  c #831883",
"}  c #8E1389",
"|  c #8C1B89",
" . c #9B1B8D",
".. c #8E1A92",
"X. c #9E1D94",
"o. c #A40D8C",
"O. c #A6118E",
"+. c #A20994",
"@. c #A90C97",
"#. c #A90A9E",
"$. c #A31293",
"%. c #AB1393",
"&. c #A11D95",
"*. c #AB139B",
"=. c #A61C98",
"-. c #A91F99",
";. c #B21394",
":. c #B2139E",
">. c #BD1F9E",
",. c #852686",
"<. c #992593",
"1. c #A02196",
"2. c #A5229A",
"3. c #AC239B",
"4. c #A12B9D",
"5. c #B5219D",
"6. c #B9209F",
"7. c #AC0CA1",
"8. c #AF12A1",
"9. c #AD1BA3",
"0. c #AD1BA9",
"q. c #B513A2",
"w. c #BC13A3",
"e. c #B31CA6",
"r. c #BD1DA3",
"t. c #BB15A9",
"y. c #B51CAA",
"u. c #BA1CA9",
"i. c #A828A1",
"p. c #A828A2",
"a. c #B322A2",
"s. c #B829A7",
"d. c #B524A8",
"f. c #BC24AB",
"g. c #BB29A9",
"h. c #B932A7",
"j. c #BF26B0",
"k. c #BC2EB4",
"l. c #BB30B9",
"z. c #C116A7",
"x. c #C41DA7",
"c. c #C919A7",
"v. c #C915AE",
"b. c #C41EAB",
"n. c #CB1EAF",
"m. c #D518AD",
"M. c #C71DB1",
"N. c #CA1CB1",
"B. c #D31CB6",
"V. c #D41CBA",
"C. c #DC1BBA",
"Z. c #E51DBA",
"A. c #C421AC",
"S. c #C920AD",
"D. c #C129AB",
"F. c #C523B2",
"G. c #CB23B1",
"H. c #C02CB5",
"J. c #CD2AB5",
"K. c #CD27B8",
"L. c #C42CBB",
"P. c #CD2CB9",
"I. c #D125B4",
"U. c #D924B5",
"Y. c #D32DB7",
"T. c #D422BB",
"R. c #DB25BE",
"E. c #D42CBB",
"W. c #DA2ABC",
"Q. c #CD3DB5",
"!. c #CD35BD",
"~. c #D43BB6",
"^. c #DB37BB",
"/. c #D53ABA",
"(. c #DB38BC",
"). c #E024BF",
"_. c #E133BD",
"`. c #CF4AB9",
"'. c #D61FC2",
"]. c #DC1EC3",
"[. c #E31FC2",
"{. c #DE24C2",
"}. c #DB2CC2",
"|. c #DE2EC8",
" X c #DD32C4",
".X c #D73DC0",
"XX c #DB3AC1",
"oX c #E222C5",
"OX c #E32DC6",
"+X c #E92EC7",
"@X c #EF25CE",
"#X c #E32CCB",
"$X c #EB2CCD",
"%X c #E134C2",
"&X c #E631CA",
"*X c #E830C8",
"=X c #E43ECF",
"-X c #EB3FCF",
";X c #E72BD0",
":X c #E731D1",
">X c #EA31D3",
",X c #EC3BD7",
"<X c #DF4DC9",
/* pixels */
"`.h.x 1 2 1 2 2 1 1 2 2 2 2 a m X.XX}.{ H I h h g f g g g g t T h.-X<.i u u y 1 y 1 y 1 y u a n 5.<X=.s y y y y y y y p 2 2 a E ",
"Q.>.,           &   X X & 1 < , _ R.V.S w 7 4 5 = 5 5 - 4 4 4 k a.&X} - $ @ o o o + + & & & $ > *.E.o.> + = ; # & ; & & & * * n ",
"Q.6.,         $       * & 1 < , _ }.'.S 9 5 5 5 @ = - = - - - j i.&X} - $ + @ o & o o & o $ * , *.E.o., + = ; # + & & & & * * n ",
"Q.-.,               * X & : : 0 / T.V.V 4 - - = = = 5 = = - - j 2.#X] - $ o @ $ + + o + & & $ - =.E.o.> = O # ; O # # & & * * n ",
"Q.5.,   $       & & X & & ; : , ) Y.B.N - 5 = = = 5 = = 5 - - j 2.&X( % $ o o @ + +   + & & * - *.Y.o.> + + # O O + O & & & * M ",
"Q.5.,     $ &   X X X & & & : > / K.N.N - 5 = = @ @ = - = = - j 2.OX( - $ @ o o o o + o $ $ & % *.Y.O.> & # # # O + 1 + & & * M ",
"Q.5.,     &   & & X X & & ; : - ~ G.N.N - @ = = $ @ $ o @ = - j <.&X) $ = + o . o O o o   & - - *.Y.O.- + @ # O # O O & & & * a ",
"Q.5.,         & X & + + & ; : > Q G.N.z - + $ & o o @ $ o $ - 3 1.}.( $ & O o @ + X + +   & $ - *.Y.O.> @ + + @ # # + + & & * M ",
"`.5., X & X & X X X O & $ * ; > ! D.S.l : & & + o o o o $ $ * j 1.}.[ % & & X & X X X & o & & > *.E.+., + ; + # + + O & 1 & ; s ",
"Q.5., X & X . & X X O & $ & & - W D.S.l & + + + + o & & & $ - , <.W.[ % & & . . . & + X + # = - *.E. .- $ + = + # + ; O + & : a ",
"Q.5., X O O O X X   O + & & & > W D.S.3 & & o + + + & & & & - j <.W.[ % & & & X + X + + + = ; > :.E.$.9 $ = + # + # + ; & & & M ",
"Q.>., O & O X X   o + & $ & * - A D.S.j & o o o o + o O o % - j X.W.] % & & . & X + & X + @ : 9 *.}.+.> $ + = + # + + O & & * M ",
"Q.5., X O . + X X o X & & & & % A D.S.j $ + + + + + + O @ = = 0 X.W.! * 1 & X X & X X & X ; : 9 8.}.X.- & & @ = # + & O & & & a ",
"~.5., X + . O X   o O & & & & > A D.S.3 $ o + + + + + + O + : l X.W.~ % & & X X X & & X + & ; 9 q.E.+.> & & & + + + & + O 1 * M ",
"~.6., X + O O   X X O & & & * - A D.S.j % + o + + + + + + = : l &.W.~ % & & X X X & & & + ; = 0 *.E.$.> & & & & & + & # & * & M ",
"~.6., X + . o   X . X + & & & - A D.A.j $ + o o & + + + + + = 0 X.W.! % & X & X X & X X + = : 9 8.}.$.> & & + & + # + + & & & x ",
"~.6.3   & X X X O O + + + & ; - A D.A.j & o & o + & o + + + : 0 &.W.! % $ o   .   o + o & $ - 9 q. XX.> $ o & & o + + = & & = n ",
"~.>.3   X X X X X + + + & & * - A D.A.j $ & + + o + + o + + : 0 &.W.[ % $ o o   o & + o & ; - 0 *.E.+.> $ & & o + & + + + = ; i ",
"~.>.3   & . . X O O + + + & ; > A D.x.j $ o o + o + + + O @ = j &.}.) % $ + o   o + + + + = * 0 q.E.$.> $ $ & + @ = + + & & * i ",
"~.>.3 $ & . O . + + O + + & ; - A g.A.j % & X $ o & o + + @ ; j &.R.) % $ $ o o o o & + & = > 0 :.E.$.> $ & & & & + + $ & ; $ i ",
"~.>.3   O O O & + + + + + & ; > A g.A.j & &   & o & + + O @ ; j X.R.[ % $ $ o     $ o & = = - 0 :.W.O.> & + & & = & & $ $ & = n ",
"^.x.3 & O O O O O + + + + & & > Z s.f.j $   o o o o o + + O : j &.R.( - $ o o o o + $ $ & & - , :.E.O.> $ & o & & & $ $ = ; = i ",
"^.x.3 & + O O O O + + + + + & > Z s.u.j $ + o + + o + O # # ; e =.R.) % $ @ o o o @ + $ $ - % 0 :.W.$.> o   & & & + $ = $ = $ n ",
"~.x.m & & & & & + + + + + & : > A s.x.j $ & + + O o @ @ # @ : j &.R.( - $ o o o o $ + $ : * - , :.^.$.> $ $ & & & & & & & & = s ",
"/.x.z % & & $ $ $ & & & & & : > Z g.f.j $ + + + + + o @ # @ = 0 &.}.( - % $ $ o + $ = = = - % , w.W.O.> $   o & $ o & $ & ; - i ",
"(.x.v % * $ $ & & * * $ * & * > Z g.A.j $ + + + + + o + O @ 5 l &.R.) - $ $ $ o $ $ @ = = = > j w.W.O.> $ $ & & $ & & & ; & & n ",
"(.x.v % * * * & * & * & * * * > A D.F.j $ + + + O o o @ # @ - j &.R.) % - - $ o & = = = = 4 , l z.}.O.> $   & & o o & $ * ; - n ",
"^.c.b , > > > % > > > > % > , , W D.F.l $ @ + + O o o @ @ @ = j =.{.} > % - $ $ = = = = : - , l z.%XO.% $ & & X & & $ = ; ; - i ",
"_.m.%.O. . . . . . . . . . . .&.%.Y.F.k $ & + + @ + o O @ + - l =.oX' z l j j j j 0 0 0 0 l k C v.}.$.> & & & & & & = = : = : M ",
"_.Z.).U.Y.Y.J.G.G.Y.J.J.Y.Y.U.W.C.R.F.k $ + + + + + o @ @ = = l =.).n.r.e.e.e.9.9.-.9.9.9.9.8.q.Z.#X$., $ & & & & & ; = : : 5 n ",
"_.).o.W C v A A A A v A Z A A ! O.U.F.l $ + + + + @ @ o + + - j -.R.a.3.4.4.i.<.4.4.4.p.4.p.a.y.{.}.$., & : * & & ; = - = 4 4 m ",
"_.U.W % % $ $ $ $ % * % % * % > ~ J.F.k % + + + + + o @ + = - j -.)._ , , t q 0 t 0 q 0 0 l V / C.#X+.9 : ; * * & - : : : 4 - m ",
"_.B.A > : * * & ; 1 : * : : * > ~ J.F.l $ & + + o o + @ + = - j 2.W.! - - - $ - - 4 : - 4 9 e S V.#X@.0 % * < * * % * 9 : : > J ",
"XXW.W $ * & & & + & ; & & ; ; > ~ J.F.l $ & @ + O @ @ + & $ - j -.R.! % - - = = = = = 5 - 9 9 V V.#X#.0 < * < < < < < < < > - J ",
"_.U.A % & & $   + + & + & + ; > ) J.F.l $ o + + + + @ + + $ = j -.W.! > = = $ = ; = = ; 5 4 0 V V.$Xq.j > > < > > > > > > > 9 Y ",
"(.U.C $ $ & $ $ o o & + & & : - / P.M.z $ + + + O @ o @ @ $ - k -.Y.! > : = = $ @ = 5 5 = 9 0 V V.@Xv.D c c c N c c B B F F V | ",
"^.U.A $   & $   o o O o & + ; > ) P.F.l $ & + + + + o @ + = = j 2.Y.! > - = = @ = ; ; ; 5 4 w V B.@X[.K.k.j.k.k.k.k.l.l.l.L.L.!.",
"^.Y.v $ $ & $ $ & o + + + + & - ) P.F.l $ & + + + + o o + = - j 2.Y.! > = = & = ; # ; 5 5 9 0 V V.@XC.t.0.0.9.e.0.0.0.y.0.y.t.F.",
"(.I.A $ & & & o o + + + + & ; - ) P.F.l $ & + o o o + o & $ - k 3.Y.( - = = = + ; = ; : - 9 0 V V.@Xw.z 0 9 0 9 > 9 q w 0 0 e R ",
"(.I.V $ o   & X + O + + + + ; > _ Y.M.l $ & & o o o o $ + & % k 3.Y.^ - = = & & ; ; @ = = 4 9 F V.$Xq.e 4 4 6 : 6 : : : q q < J ",
"~.G.F $ + O o o & + O + + + ; - _ P.M.l $ & + o X $ X o & & % j 3.Y.G : = ; & & ; ; & ; ; > 0 V B.$Xq.j : 6 5 5 : : : : : : 6 L ",
"/.G.V $ # @ o o O + + + + # ; > _ E.M.l - o + o &   & & & $ % k 3.E.G - = : = + & & & ; ; > 0 Z B.$X:.0 - : = = ; ; ; ; ; ; * m ",
"/.G.Z o O o o O + O + O O + ; 9 _ E.M.z % + &   &     & & $ - k 3.E.G - = = & & ; & & ; : > 0 V B.+X;.0 = = ; ; ; ; ; ; ; ; ; m ",
"~.G.Z + + o & + + O + + 1 + & - _ E.M.l * & & + X   &   & = % k 3.E.G = : & & $ & & & * ; > 0 C m.+X%.9 - = = # # ; ; & ; & ; m ",
"/.G.V $ + + o + O + + + + + ; 9 _ E.M.l $ & & o &   & $ & * > k 5.Y.G $ - = & & * * & & ; : 0 V C.+X;.0 - ; ; ; ; ; $ ; * : * m ",
"/.G.V $ + & o + + O + + + + ; - _ E.N.l % &   & &   $ & & * % k 3.E.G - 5 = & & & & 1 & : > 0 V B.OX%., = $ ; = & & ; & & : = m ",
"~.G.V $ o   & + + + + + + # : > _ E.n.k % X & $   & & $ & $ * k 3.Y.R $ = = + & & & ; ; : < 0 v N.+Xo., - ; & & = & * & & * - m ",
"/.G.V $ & & &   + + + + O ; = - _ E.b.k $ & & & & $ & & & * * k 5.Y.W - = = = & ; ; # ; : 6 0 V B.+X%., $ & * & : & & & & & : m ",
"/.I.V $ + & $ & X X + + O # : : _ E.M.l $ $ & X & &   $ & $ - k 3.E.D = ; $ & & ; # @ ; : 9 0 V B.*X%.> $ & * * & & ; & & * - m ",
"`.U.V $ +   & $ + + + + O ; : < ` E.M.l $ & & & & & & & & * > k 5.E.G $ = & & $ & ; @ 5 : - 0 V B.*XO., $ & $ & & : & & & & % m ",
"/.I.V $ + & $ o + + + + + ; : - ` E.N.l % & & &   &   $ & * > z 3.Y.G = = = $ & + & = # ; 8 0 V B.*X%.> & = ; ; & ; * & & ; > m ",
"/.G.V $ & & $ o + + + + + ; : 9 ` E.N.l $ % X & &   & & & $ > z 5.E.G $ = = $ o & # @ @ : 6 0 V T.*XO., = ; = ; ; & & + & * - J ",
"<XG.V @ o $ $ o + + # O # ; : > ` E.N.z % $ & $ & & $ & & & > v 5.E.G $ $ $ % & & @ = @ ; 6 9 S V.*XO., - ; ; @ ; ; # ; & = - m ",
"/.T.V o o o & & + + O + O 1 : 9 ` E.N.k % $ & & $ $ $ + = - - v a.E.S $ = $ $ o & $ = = = 6 9 C T.*X$.9 - = = ; # # # # = = - J ",
".XT.V $ o $ $   + + + O + ; : 0 ` }.B.k % & & & $ $ $ & = : > v e.W.G - = = $ $ @ = = = : 6 0 S R.&X$., = - ; ; @ ; # # = : > J ",
".XK.V o o & $ $ O + 1 O ; ; : 9 ` }.V.z $ % & ; $ $ & & # = 9 v 5.W.D $ = = = $ $ @ = = ; 6 9 S V.&X$., = = ; @ # # @ # ; : 6 J ",
"/.K.V o o & & + & + + O & ; : 0 ' {.V.c - = = = = = = ; ; = 9 V a.W.G % - = $ = = & = = 5 5 9 S {.&X$., - 5 @ 5 # 5 # 5 5 : 6 J ",
"XXT.V o + & & + + + + & 1 ; q 0 +.}.V.N - - 5 = : = = : ; - 9 V d.}.G % - $ & = = = = = : 5 9 S '.&X$.9 - = = = # 5 # # 5 5 q Y ",
".XK.B & + + + & & + & & & : q 0 +.|.'.F 4 = = = : ; = 5 5 : 9 C f.}.^ % * $ $ = - = 5 = : 4 0 S V.>X*.0 = = = = # # # 5 : 6 q Y ",
".XI.Z = + + & + & & & & : : q e 7.#X'.^ 9 4 5 = = 5 : 5 5 5 q D A.|.! - - - - = = = = = 5 9 e S '.>X#.9 - 5 5 = 5 5 5 5 6 8 w T ",
".XK.V = # + + & & & & $ * : q l 7.|.'.^ w 6 6 6 6 6 5 5 5 8 8 D F.|.! % - - = $ = = = : : q e D '.>X*.e 4 - 5 5 4 5 5 5 6 r w T ",
".XT.V & + + & + & & * * * : q e 7.;X].^ r 8 8 8 8 8 8 6 8 8 r ^ j.|.! % - $ = = = = = 5 : q 0 S '.>X*.e 4 7 4 4 4 5 5 6 8 q r T ",
".XT.S $ # + & & & & $ $ : - q l 7.;X|.^ e r r r 8 u r r y r t Q H.#X( % - = $ = = = : : 5 9 l S '.>X8.l 7 w 7 w 7 7 8 q r t t T ",
"<X X{ u y y y 2 p 2 p u d d h P y.,X:X..^ I I I I I I I I ^ R } !.=X| u i d u a d d d d f M J { |.,Xd.P H h H I h h h K L L U ,."
};
