/* XPM */
static char *out[] = {
/* columns rows colors chars-per-pixel */
"64 64 123 2 ",
"   c #060606",
".  c #070707",
"X  c gray3",
"o  c #090909",
"O  c gray4",
"+  c #0B0B0B",
"@  c #0C0C0C",
"#  c gray5",
"$  c #0E0E0E",
"%  c gray6",
"&  c #101010",
"*  c #111111",
"=  c gray7",
"-  c #131313",
";  c gray8",
":  c #151515",
">  c #161616",
",  c gray9",
"<  c #181818",
"1  c #191919",
"2  c gray10",
"3  c #1B1B1B",
"4  c gray11",
"5  c #1D1D1D",
"6  c #1E1E1E",
"7  c gray12",
"8  c #202020",
"9  c gray13",
"0  c #222222",
"q  c #232323",
"w  c gray14",
"e  c #252525",
"r  c gray15",
"t  c #272727",
"y  c #282828",
"u  c gray16",
"i  c #2A2A2A",
"p  c gray17",
"a  c #2C2C2C",
"s  c #2D2D2D",
"d  c gray18",
"f  c #2F2F2F",
"g  c gray19",
"h  c #313131",
"j  c #323232",
"k  c gray20",
"l  c #343434",
"z  c #353535",
"x  c gray21",
"c  c #373737",
"v  c gray22",
"b  c #393939",
"n  c #3A3A3A",
"m  c gray23",
"M  c #3C3C3C",
"N  c gray24",
"B  c #3E3E3E",
"V  c #3F3F3F",
"C  c gray25",
"Z  c #414141",
"A  c gray26",
"S  c #434343",
"D  c #444444",
"F  c gray27",
"G  c #464646",
"H  c gray28",
"J  c #484848",
"K  c #494949",
"L  c gray29",
"P  c #4B4B4B",
"I  c #4C4C4C",
"U  c gray30",
"Y  c #4E4E4E",
"T  c gray31",
"R  c #505050",
"E  c #515151",
"W  c gray32",
"Q  c #535353",
"!  c gray33",
"~  c #555555",
"^  c #565656",
"/  c gray34",
"(  c #585858",
")  c gray35",
"_  c #5A5A5A",
"`  c #5B5B5B",
"'  c gray36",
"]  c #5D5D5D",
"[  c gray37",
"{  c #5F5F5F",
"}  c #606060",
"|  c gray38",
" . c #626262",
".. c gray39",
"X. c #646464",
"o. c #656565",
"O. c gray40",
"+. c #676767",
"@. c #686868",
"#. c DimGray",
"$. c #6A6A6A",
"%. c gray42",
"&. c #6C6C6C",
"*. c #6D6D6D",
"=. c gray43",
"-. c #6F6F6F",
";. c gray44",
":. c #717171",
">. c #727272",
",. c gray45",
"<. c #747474",
"1. c gray46",
"2. c #767676",
"3. c #777777",
"4. c gray47",
"5. c #797979",
"6. c gray48",
"7. c #7B7B7B",
"8. c gray49",
"9. c #7E7E7E",
"0. c #808080",
"q. c #818181",
"w. c gray52",
/* pixels */
"[ P Y D D { ' X.<.6.9. .I <.4.4.5.7.:.&.;.*.*.8.q.0.w...{ 9.0.0.6.R ) <.5.>.@.| | {  .@.;.1.O.U H Y W R W ^ _ ' '  .| ^ I l g ) ",
"E G L F f n I ! | $.-.! j Q E ( | { ) ] .._ I W X.>.*.A G =.;.#.! M ^ | o.O./ Q ! Q / ` { [ =.o.B u 9 u v S K T T G B f 0 t b Y ",
"$._ ^ ` S r v ( o.O.X.B 6 f c m Z N k D W L F k q r y S N K ! / c Z ` ' ' _ [ ` ^ ^ ( ) H B K Y T F y E ,.3.2.>.&.%.o.K s ^ ) -.",
";.[ Q ` K y q z Z S j p d 4 5 6 5 u d d e y a 2 = y [ { U v Z L i D ! ^ ~ E / [ _ P K I m M V J U j b | =.2.6.3.-.o. ._ A  .( =.",
"=.] ) W P h 0 d l u S } O.| m c ' ( ` } ' S W N M Z  .U E E v n e v S I T Y I E K V b k j n V A v t K _ ) O.>.<.=.{ ] ! G $.} %.",
"*./ I R L x p ^ X.S &.;.+.:.[ U #.~ R ] =.[ j j Z b  .[ [ ` S t , 9 r f M F K H H Z l f s j g y 9 h ) / ..#.%.-.{ T R U B &. .#.",
"=.P I E A g i F W T _ #.+.O.A R O.Q E  .=.2.` n g d M S R Y v e e h 0 0 w t u l n s 8 q r t q q 2 h [ ( W { +.' S S U ^ Y Q *.>.",
"} J I I v i q v R / } o. .! Y ' ] R ! { ;.*.%.X.L 6 e M c j p r s C s t a p w 6 : 1 5 1 4 r p t 7 g Y J D U R R U ! ^ ' ( z ....",
"( L D F v 7 2 y f x ` O.J ^ ' W ' Q ! _ { [ ) W m , g K J ! R f u 2 : ; - 2 7 9 7 e e 6 < > 1 4 > y m I U H C D J L T / L i L [ ",
") Y D N d > : 4 8 9 y j p G j C ) Q G T Y F m z i 8 a C n b Z h p n a x P U U L B m M k w 4 v ! _ M 0 a S H V N N B I R m b c O.",
"G d s r 3 6 4 1 w 0 0 7 8 9 : 0 9 e w r r q w w q 6 r v B V z j  .&.....1.:.,...H I T I N b Y P { +.~ a 9 j A Z Z L P F k u 2 P ",
"x d a 2 p L A y e h z z k z 0 j D z < 2 l A m x b x C F m a e ^ *.o.#.[ ;.#.@.%._ E L A n S E W L H U ( l 3 d H V V l y i y 9 x ",
"I K M 5 9 f s g 9 9 p g c v u g z u S O.:.=.` U I I ! o.-.3.Z C ( o.#./ ` } ] } ..' L F N L ! ~ W H Z F J 4 7 s 1 2 4 3 2 0 a l ",
"j q 1 0 n h p 9 1 4 8 w 9 < , $ r J >.@.` } .._ +.=.;.<.:.>.! j G ) X.' L ^ { [ O.#..._ m Y / ^ Q G C n d 9 : : , 8 t d h a p x ",
"N t g E ] { | ` S u q w r 7 q y x n ) ( P R `  .O.#.:.$.+.@.` y f M E  .` U ^ Q ^ O. .T r h D N n z g t 6 3 , 4 t x m H A m v A ",
"l G D G H J I ! ( W B 0 : > q Z b a h B V K E ^ Y P ( ..*.$.A 0 w v b J E T A M n V b w 1 4 0 9 8 4 5 8 y s 4 r Z K B x k z k x ",
"D ( L B C D S J H K P A 8 % 4 s d i k N A N A J L K U [ } T f 9 9 i y r h b d h l s r 3 5 s i 0 > 3 w y e 0 5 m J C k y y a y g ",
"V D x V C V N v V H M n s < , 7 8 9 8 t 0 u n M D G I L b p 5 i Z C l w > 1 e e 8 8 6 v s d g 6 1 u p a 7 1 u m M V N s u 6 1 M ",
"h t r r q e p t d l g y 0 < 4 h q 9 5 ; - ; 7 a f k f t x J z 7 t i w 0 6 7 d y 4 i j a r A I z k N M v 8 q k M m x a 0 2 , 9 n ",
"R A V j q 4 7 0 y 0 2 3 0 g 1 d v b p h z f s x q u a 4 g b J K F A c b l V Z d 4 j b i w m N a s h k b q z N b a 9 p A m h c I ",
"[ P F F x i f n V c x b u 3 w ! R R D Q R Z N n z c Y y m f { ~ Y L G P P Q ~ W M 0 i h 4 1 6 ; > 7 9 7 < f d 9 7 i H ~ H G Y [ ",
"W h x n b b v B A A D K S y i / P A H R I A l i d a 9 f O.Y G / E L L U U Y E _ R m p 9 9 0 4 < w a a 5 5 1 1 0 M S G S H L Y _ ",
"E z M C Z N m D H D H P K l f S F b A T U V l g g u 5 f } I J H D L I T G M M B L m 0 q Z M c t 8 t e 3 A t 1 C H D D D J E R / ",
"E n N H J A A K T L P U Z t s v p A A J K b j x d e 7 i W F Z V h v J ! L S Z k h p t I Q J b b g r 7 ; 8 r 0 b I I Y Y Q Q P ( ",
"Y A L T J G G D Y I E P g 5 4 3 6 r g v n x h g e 7 5 , q z B C V g j L L S S C q 3 c ) ~ T V g k k f p : 1 x r n L T K P Y J ~ ",
"n w r c m z z c s D G x q u 5 s y 0 9 w w 0 9 q w 4 , r 3 6 f n B N s s S D F n 7 d m L ~ ~ W x d c s s 0 w 4 , 6 p s i t r i m ",
"V 4 0 w d f f w 2 > 5 6 : 0 6 8 u 7 % 6 5 = ; r M c 7 i f 7 4 u u f d 9 p B v q i m m S U K ^ H z k u 8 < 9 > 9 = = 5 5 2 p v P ",
"v 8 p h h z C y < t h a - 4 d j u 0 0 t p d r 9 q q 7 < q 5 7 v p > 2 1 w p 2 t k Z Z L R K H M d w 7 e r % 1 a 4 y 4 < 3 7 9 h ",
"Z u i i d g i 9 < 0 h 4 i N C n h x c b c v m v u 6 : 7 , 1 < 4 0 t y 6 u v w 3 8 i k x v k h u 0 3 , w 6 * < , 2 u q 9 9 6 8 B ",
"/ D c j n V n l p 3 , u H S S M C ! ~ S n M N M s t 3 ; 4 7 e d g f a u 3 , 5 r : : 1 3 3 6 0 5 - - : = : 2 : 5 e 6 k N m g a Y ",
"L S S h v Z A x d 9 ; C J P E / ` ( Q Q L A F l d w 1 x A j z z j c l f 2 t v x 9 > 4 0 t i i r 2 1 8 6 4 3 4 c N z D U P C v H ",
"F B S H H J Z c s 0 : g B S K ! ^ W E H F J Z u 0 3 d T K N n C V n h q l b M S M < 0 u p g z c y , 2 7 > < p s f z Z F A A S G ",
"D b c b v x c p y 2 & 6 q u h M J U H V N g 3 2 8 a S J G K I P v u , j b i h v m 3 5 q i g z h 8 > 1 : - u l j h z D K H G F H ",
"A g a i p y r t 7 > 6 ; 5 2 3 5 t a V l 9 > % 9 V A B m J ! Y B t < * s s y p b C w : 4 r u r 9 9 ; : % ; y j k d s l b C V h V ",
"h 3 2 1 1 2 , - ; 6 d , < - * = - > r 7 > < , u c g i z M Z v w 6 t 2 u r u u i j a > = ; > , > ; ; * % % 3 6 6 6 2 2 6 5 6 9 l ",
"z 9 - 6 z j s w q ; & - & - : : ; = = * t 4 5 : > ; ; < , 1 q 3 : < 0 t q e e y d d 4 = , q v c j N C B e 2 e : 2 q q < 5 e 3 i ",
"M a n U W R I H a , 6 8 2 8 9 5 7 : : 9 t y a x m n d t g t i C 9 2 i r a u u i g g 5 1 u m S C n N N K W p = = q j j 6 4 i i l ",
"Y P Q G V C Z Z 9 : 8 8 7 u r 4 < 2 p v A B b m Z S m u m M p w 2 8 s y h x f a h j 6 0 g l j k v M b x A f = 3 4 6 8 ; w b m U ",
"Q P H N n x j k y & 2 8 9 8 2 > 6 a a s M n l x j s f d N M j * ; > 2 8 p v x x x j 0 w s f h l v v k s a q - 0 u r p 6 t m m / ",
"Q K P A v h g M a # * 2 2 < : > 9 e q 8 9 0 y y e q 9 i y e 5 > k v 0 - 2 t b b M x 0 7 i d h j h d a s u q = 6 q w e 9 0 z l Y ",
"L Z A b j g q e 6 & > = % 0 s = > 5 2 3 < 7 7 : , 1 > > > : = t j v H m u > 1 r f a 2 < 0 e w 0 e p e w 5 > = 1 7 0 y y 1 i n G ",
"M k f d t 9 7 , = $ > 1 1 1 1 4 a r f v l t 2 9 t h i 0 7 u < 9 a j b U F z i 2 , 1 ; % > 2 2 > , 4 3 , - ; : > : , 6 q 3 s g m ",
"z 7 r q 9 6 4 - = 2 7 8 q 5 * s i 7 d n C Z m s u f t 6 4 e 8 3 t d j c A M B n 6 & 2 r 1 % , 2 < 2 2 2 > 2 u 3 5 5 ; % > i e v ",
"a & = < 2 * % : 6 p f f z p , p p w s B A F F M d e 6 4 7 6 9 < w a k j v C M F s 1 4 8 3 1 > 2 3 3 1 > - 1 0 < 8 9 4 * = = > i ",
"y * + 7 y & = q f s f s j j > r i t v K N x c x l g z a e d p - , 4 6 q y y i 7 - 5 > 8 t u w , : 3 6 6 3 ; < 2 ; 2 < * q 3 , a ",
"I c q ; : % 4 d i q e y f t * 6 i w g b f a h k h s z v e s y @ $ ; : * = , 4 - & 3 2 4 7 6 3 * r h l x r ; , 2 ; s a 6 v k y P ",
"H k g 9 # @ 4 q 0 7 6 4 < = w 5 2 w y r w e a d a 9 h v j 2 - 6 z n s 3 6 t h w , & ; - 3 3 & 0 k p w 3 7 h S k 4 l t u z k h J ",
"N u q 9 * + - ; 6 6 6 = $ 2 q < % > 3 2 , < 1 2 2 , t i 1 ; h N c d r q r y j p 8 2 : > > % & 5 0 y s c Z D U v , h r f l k c H ",
"x w 0 6 & < 1 r v f s t 6 k y : , 5 1 * 3 7 - % % $ % # 7 V h 0 w w e q y d z a y q , 2 1 $ > f M n c x h l z p 1 7 q k j g z Z ",
"h 6 8 4 $ : > > 4 7 q 3 : 5 1 < 6 , 3 6 9 7 - 1 = ; 6 > x k 9 e r r t r p c f i d w q 5 < = s C c k h f d i q c e r 9 x z s w j ",
"z 8 7 ; $ $ 1 - 1 5 , , , 1 1 8 4 $ 7 u y y 8 8 t f f 4 t i 9 e r t y y u k r k h a f z 1 & p c g f s s f 8 p g 9 d a j l s t z ",
"f 7 4 = = & y 6 q y w y r p g y 0 > j m v x l h g s p q 1 0 0 8 q r t 0 u s 8 h l h a r : % 8 y i r 6 t y 5 f w , e i u p y q j ",
"a 1 : - = # < : 2 3 9 e 7 5 5 1 > & s z k h a i s i e w 8 > q 9 7 e t q w 7 6 i j h u > - = 2 w q 0 9 8 5 0 i 2 = 4 5 < 1 < 2 d ",
"i > - * $ # & 2 8 < , 1 4 9 0 5 6 < > f k f a r e w 0 w 0 : & 6 6 8 9 0 6 5 q r a i , = 8 , > 6 0 w 0 5 7 8 , 7 1 < 9 1 = * & y ",
"y > $ O @ # 0 p a i i u s a a q 9 8 - < r a d y 9 8 0 6 2 & & = > 1 4 2 < 4 4 4 2 : $ $ : * $ = , 2 2 ; , 9 a p w > - ; 1 > & 0 ",
"r & o % 2 & > 5 9 q e u p u u 9 0 8 w , * > < > ; ; = & $ % 9 4 + $ & * = * = $ @ @ + o = > * & $ * = # : t t 7 2 , = 3 6 < ; r ",
"9 % = $ 2 ; $ , 8 w q q u h k p 0 q t 9 - # - 5 , : < 2 = # = ; , 1 , < > ; : $ @ % - * * % % $ = ; - % & = * & % # + $ % - = 0 ",
"8 $ & * i 1 ; < = 1 1 , < 3 4 1 > 1 3 2 = # ; e a t e w 9 : ; , 3 5 2 < 2 1 * - * 1 2 1 2 1 > - & $ # # * # . O + O # # # 7 5 u ",
"0 # @ + % $ : = 3 w u 9 : - r u 0 0 t w 2 - * * 6 t w 5 5 1 : ; 3 6 4 , 2 1 % # < 4 3 2 3 1 , = = = = % - % O # @ # $ O $ & - 8 ",
"u : = $ X - q ; , 6 0 q q > 5 a a i y e 6 5 4 > * > 5 4 3 1 < > 4 4 2 < > & + o : 3 2 4 1 ; ; = = - = * * # < - = = $ @ * * - r ",
"f 4 > = @ & 1 > + % % = ; - * ; 2 < , : ; ; : = $ + + $ # @ # & - & $ # $ - 4 > # , , < > ; - - - ; ; = @ : 5 2 < 1 ; : : : , i ",
"i : > : * @ # # +   + * ; - * $ # % = & & * > # # $ $ ; > ; > - > 4 < # > 7 9 2 + # % * = * - ; - = ; % + 3 5 2 > < < > < > > y ",
"0 * & & # $ # @ o * 2 1 < > < , < , > * 1 = > 4 5 4 2 2 , : : = - 2 < % , 3 6 < # @ o X * < * * * % $ o # , < 3 , 1 3 > < > - 0 ",
"v w q q 9 0 0 9 7 9 w q w 9 e r r r t e 7 e i y y y i y w e r e r r e 7 8 u y 9 9 7 8 0 r h k y 4 4 4 4 5 0 q t y i i t r r q c "
};
