/* XPM */
static char *out[] = {
/* columns rows colors chars-per-pixel */
"64 64 89 1 ",
"  c black",
". c #010101",
"X c #020202",
"o c gray1",
"O c #040404",
"+ c gray2",
"@ c #060606",
"# c #070707",
"$ c gray3",
"% c #090909",
"& c gray4",
"* c #0B0B0B",
"= c #0C0C0C",
"- c gray5",
"; c #0E0E0E",
": c gray6",
"> c #101010",
", c #111111",
"< c gray7",
"1 c #131313",
"2 c gray8",
"3 c #151515",
"4 c #161616",
"5 c gray9",
"6 c #181818",
"7 c #191919",
"8 c gray10",
"9 c #1B1B1B",
"0 c gray11",
"q c #1D1D1D",
"w c #1E1E1E",
"e c gray12",
"r c #202020",
"t c gray13",
"y c #222222",
"u c #232323",
"i c gray14",
"p c #252525",
"a c gray15",
"s c #272727",
"d c #282828",
"f c gray16",
"g c #2A2A2A",
"h c gray17",
"j c #2C2C2C",
"k c #2D2D2D",
"l c gray18",
"z c #2F2F2F",
"x c gray19",
"c c #313131",
"v c #323232",
"b c gray20",
"n c #343434",
"m c #353535",
"M c gray21",
"N c #373737",
"B c gray22",
"V c #393939",
"C c #3A3A3A",
"Z c gray23",
"A c #3C3C3C",
"S c gray24",
"D c #3E3E3E",
"F c #3F3F3F",
"G c gray25",
"H c #414141",
"J c gray26",
"K c #434343",
"L c #444444",
"P c gray27",
"I c gray28",
"U c #484848",
"Y c #494949",
"T c #4B4B4B",
"R c gray30",
"E c #4E4E4E",
"W c gray31",
"Q c #515151",
"! c gray32",
"~ c #535353",
"^ c #555555",
"/ c #565656",
"( c #585858",
") c #5B5B5B",
"_ c gray37",
"` c #5F5F5F",
"' c gray40",
"] c #676767",
"[ c #717171",
/* pixels */
"h889888766uadfdaiipjfy0ee9888788573236qw755465558e865656889w088a",
"319,tmzkhupair0qwq0udt,0u9ydaz#Oo+B^Jy8tknVCZCSPmgtuk7vDVxgaau41",
"qtwl')TYGZGKJSNFPCjhhhzmMsuask9$ p[](TJHPJLPJSZZVmVV!DRncbZYWEQy",
"7-S`Jkkjhsyiiaadgaassapkvxdkm9A+ SRcjaghauuutuyaiipeBigtyiadjxUl",
"9T`DfkhgfditypiapdpddpypiuweB5j$ e^nhsddaiaassaasisize7tyyuyacKj",
"a_Acgsadfditiipiupaapyruyrtrzi-%X*YBjsddfuisffssssdsijr7qtryakCs",
"d/Zbgpuasputissiupdaiutttrutpp%@O+NCguaguyiuassfssdjsyfd87tuysbp",
"dENlhirypputupyutuiippitrrerrN0oO>umhuiswqruiapafsfhaiipa06uupca",
"uLMzfaiyuyrrryyrqwiigsiytytuinbO.ewhdiyt878ippuuipsdaiitrjs1yivs",
"tHbjlgdytyteertrqwyiiuputyytyzmO tagaair890rutytyuapsauitev02axg",
"eVndfcgurreetrrtqqydiiyyutiytgcOX5wkutrtepirteeyyypfsaiiursa,pjb",
"9cnhdjfutreetrrewweyiyerrtiyrslOo;4zurrtsgatrweeruiiiauupuuZ1qkN",
"7avfdfgpreewwrrrrerreeereetresdoo%0lrrttisutewwqetuyyyippyynM>jN",
"qqjsdgjsytwqwetrwwrwwewwwqwerseXO#fdrtttrrtyre0qwrruuyyipyytcF3w",
"u8fsfdljpyeqwereqwqqqwwqe00weu9@o&littrettttte0qwwryuytyuyteenN9",
"i0dsfagzitwwwewew0qwreeqqwwewwh8 2hutttytrtyuwqqwwtttyuytyteywcl",
"u8dfdsgcaterreeeeq0wrettwweqqqzw 6gttyttrttyr0qqeqrrrupuuyretecs",
"t8dgfadxfueetewwqqqwqweye000qqd7 7styytrttyyrq0qwqwrtyyruutrtrzp",
"q2asdaifgurrtrewew0qq090eq000wq:X6ptrrtuyeereqq00qweerttuiutetzi",
"8<fppiidkitrrttreqq009q98wq00w5$X8pyqeytrrewqqqqqwwwwrytiuuteezs",
"86kpauuugpyrqeewqwqwwq000erwqe5@o0auteyyrwew9qwewrttrrteyyytrelh",
"6wnusiitspiyqrtrerqqeteeetwwwt7ooqsytrtttree0qerrrrrytrretyrrtgk",
"65miuyytuitittyyrtrerpiuueqqqt0ooqarertteeeewwwrryttyyq9ereryydx",
"5gNapyuyusapuyyttreqwtiae9000ttOowdutertewewrrqeettttw34qwetetac",
"6bNaiuuutupadspuytw0ww09890qeip#.efutrtyyrrryreeryryye9qrqereypk",
"7hVhiyttrrtetdfpirtterw00et98ta&X2tpytrttttyyreyuyypiystywwrrtah",
"w0u0tpurwtuyytrudyrurryrr8440ps-.074qrttrtttttttuyypiytrewweupga",
"tvgKyrseetyuyiiyugsadpyq558eiuw&o&e4<wtrtyytyyytyuyupteqwrewui9q",
"6jZZMrhgtttiyupayuireq9qqwuie61@o+>w-0suuuyyewtuyiuaauyyrtt5>2>y",
"6,9rbx4darerraiwrrryq0tapiy5=3<-o:7yd4pddssittuaaaadgdaurq,4h4=7",
"6451eew3q21<245534543<121<=:s44@o-q,;3,2234553788745422231*138uq",
"7#;$oO#%#@+OOO+++OOOOO+++@+&=@oOooo#@##@+OO+OoO++OooOO+@#+##@@+5",
"5XXOoXXXo+++++++OOooOO+Oo+OoOOOOo. XXoO+X .O#O.X..XXXoX.   o%@X2",
"4.-,a8ypgfyrtttwruiiyriauta>*,,#X<1>ep7>4yflvzjitq,@ooo,58<#h1*9",
"0eO&*riqtq8999876798666998ixaw,$osKuwussmcguerpdkCAxt>>sbZAro4ih",
"q^Zs1<832353457765433111124egc0OO-dGvxdrw980qqeeweyiptr9:18t4t4d",
"7K~Iz,0432434575764337q793450ui#oyCgr9qeq890wwwrrewq965eiaurfy70",
"7sy<:6932235567587333t1#,7248i9+Oycrw0qw989qwwqweqqq999998770tpw",
"7e6%=i723345548997663r>>-3335y;+owve098q080q0wqqq9qqq99089768wie",
"6@@#uy233433346799963we664344y-@o7xe098q00wewqq0q0qqq99q09978wy0",
"8djhg31233332358998558uui6345a1#@6ze099wqewrrq9999989987907570y9",
"8fp9342,344333470086863853566a<#@1ftw000wrrryw0qqqw09098807558t0",
"6pa64312334334448988063245464a=+@>irq9qreertyw90ww997888788867w8",
"6tp53434433324459888084236761ktoO&yt0q0eewtiyeq0qw66656788776686",
"60t6443333222214689076443342<lvOO#ru0q0wwqrtyrrw0655556578896975",
"66e53234323342479886454333421mp@o+eywwweryrwwqw09657788899875865",
"62q31254323544790q8664335434<V9OO$tewqqwtteweq9q8580880qwq08786w",
"e7e41366534766688986422353232M8XX1i80w0eueqww0qw768876990976585p",
"gc852435955678778755212244244fqX.6aq0ertteq89800867666900987575e",
"fZ642456765675655534323467665qs+X5aeryyree0qw000077756889999687a",
"ua7412567898997667654447878898y&.2iruatrqqq0q0qqq08876890009787g",
"929621368788999678863335885887w&.2utyeqqqqq000qew099778q0q97777k",
"82w53234777778878874326466578qw*o3yew89qee00999w0q0999900965578j",
"62y4321134344645643321443468q8e-X1r0621240r097800qqqqwqq0973160f",
"38y3332342223544432113465556554@X,r04<,<,20q97900wq00q90985126wg",
"4tu444343243344442312456765578;:+=eq94332<4q098800080w0q943246eh",
"5pa765443465446542123545544449,7o07ew94331<7975688078qq0722236rh",
"4rp76546555454554323233544233014.ew6qq953335655446657686422327rb",
"77p85556446755666422223334337r2%o*h39qq06336655534456663423437em",
"e<ue644444554557522231322346q8-+o@62079q9346556666635775334426ih",
"w13r065455544566532221133580y2e#o@=bpewq955556666>=:,97656526q<7",
"98*7r62>:,15977775555556579eu:,#oo1mapsauiywq84-=4yu*<qqqq80u,@4",
"<$=-1$@%&=--;-,1,::262<,;-&*,%&@o@,;*:3,$;0w2>>=10863=242225;@+>",
"a4575458qww744606670trryiie75654466560wq624579re444444444455444p"
};
