/* XPM */
static char *out[] = {
/* columns rows colors chars-per-pixel */
"64 64 233 2 ",
"   c #37074B",
".  c #3B064E",
"X  c #37084B",
"o  c #3A094D",
"O  c #3D0653",
"+  c #3D0954",
"@  c #3E0659",
"#  c #3E0959",
"$  c #42034E",
"%  c #41094F",
"&  c #420655",
"*  c #4A0256",
"=  c #420955",
"-  c #44065A",
";  c #4B045C",
":  c #44095A",
">  c #4A085E",
",  c #52025C",
"<  c #5A015F",
"1  c #4B1C5E",
"2  c #521A5E",
"3  c #4C205D",
"4  c #4D0561",
"5  c #460961",
"6  c #4B0962",
"7  c #530363",
"8  c #5B0163",
"9  c #510865",
"0  c #590861",
"q  c #54046B",
"w  c #5B036B",
"e  c #54096B",
"r  c #5B0A6C",
"t  c #4E1D62",
"y  c #531C65",
"u  c #5A1866",
"i  c #551D69",
"p  c #5B1A69",
"a  c #5E0473",
"s  c #5D0972",
"d  c #5F0678",
"f  c #620265",
"g  c #690467",
"h  c #65036B",
"j  c #6A056C",
"k  c #75066F",
"l  c #73086E",
"z  c #601669",
"x  c #60196C",
"c  c #650473",
"v  c #6B0472",
"b  c #620974",
"n  c #6D0875",
"m  c #67077C",
"M  c #6B047B",
"N  c #66097D",
"B  c #6A097A",
"V  c #730574",
"C  c #7A0675",
"Z  c #780977",
"A  c #74047A",
"S  c #7B057B",
"D  c #7C0979",
"F  c #6B1971",
"G  c #761976",
"H  c #761B7A",
"J  c #7C1B7C",
"K  c #81057E",
"L  c #830A7F",
"P  c #821C7E",
"I  c #6B0683",
"U  c #730384",
"Y  c #7C0282",
"T  c #7A0A85",
"R  c #76078A",
"E  c #7B058B",
"W  c #7A088B",
"Q  c #7E1C83",
"!  c #7A0991",
"~  c #830584",
"^  c #850B83",
"/  c #8C0B85",
"(  c #86078B",
")  c #8C038C",
"_  c #820889",
"`  c #910E87",
"'  c #950F8C",
"]  c #990C8E",
"[  c #8E1184",
"{  c #841B85",
"}  c #8B1B8A",
"|  c #921385",
" . c #981587",
".. c #94128B",
"X. c #9A148C",
"o. c #890694",
"O. c #830995",
"+. c #8A0992",
"@. c #930E95",
"#. c #9B0F92",
"$. c #93049A",
"%. c #9B039A",
"&. c #930A9B",
"*. c #980899",
"=. c #9C1492",
"-. c #991B97",
";. c #9E1994",
":. c #A0168E",
">. c #A40A9B",
",. c #A31594",
"<. c #AA1394",
"1. c #A41B94",
"2. c #AB1996",
"3. c #A4159A",
"4. c #AC169D",
"5. c #A3199B",
"6. c #AD1A9B",
"7. c #B1179A",
"8. c #B41B9B",
"9. c #BB1D9F",
"0. c #852F85",
"q. c #9A288E",
"w. c #9E2597",
"e. c #A0219C",
"r. c #AF219B",
"t. c #A82A9A",
"y. c #B1229D",
"u. c #AC309D",
"i. c #9603A3",
"p. c #9B03A3",
"a. c #9E01AC",
"s. c #A708A5",
"d. c #A603AB",
"f. c #AB01AC",
"g. c #A61CA3",
"h. c #AB1CA3",
"j. c #AD17A9",
"k. c #B315A4",
"l. c #B41CA4",
"z. c #BB1AA4",
"x. c #B416AA",
"c. c #BB17AC",
"v. c #B41BAA",
"b. c #BE1CA9",
"n. c #B40BB3",
"m. c #BA08B4",
"M. c #BC05BA",
"N. c #B415B3",
"B. c #BB12B5",
"V. c #BA22A5",
"C. c #B32AA5",
"Z. c #BA29A6",
"A. c #BC21A9",
"S. c #BC29AF",
"D. c #C212AA",
"F. c #C41DAC",
"G. c #CA1FAE",
"H. c #CB0EBF",
"J. c #C717B7",
"K. c #CC1EB4",
"L. c #CC1DBB",
"P. c #D21EBA",
"I. c #D41CBB",
"U. c #C322AD",
"Y. c #C923AF",
"T. c #C524B2",
"R. c #CC22B4",
"E. c #CA24BA",
"W. c #D324B5",
"Q. c #DB24B7",
"!. c #D324BA",
"~. c #DC24BC",
"^. c #C634B1",
"/. c #D236B8",
"(. c #D73FBC",
"). c #D93DBC",
"_. c #BF05C2",
"`. c #C707C8",
"'. c #CB11C4",
"]. c #CF11CB",
"[. c #D31EC4",
"{. c #D618CC",
"}. c #DC1DCD",
"|. c #CF15D0",
" X c #D415D3",
".X c #DD15D7",
"XX c #E41CCB",
"oX c #E91CCE",
"OX c #E81BD8",
"+X c #CF28C5",
"@X c #D523C2",
"#X c #DC23C3",
"$X c #DB29C4",
"%X c #D621C8",
"&X c #DD24C9",
"*X c #D529C8",
"=X c #DE2AC8",
"-X c #D737C1",
";X c #DD37C2",
":X c #DC3EC2",
">X c #E424C3",
",X c #E825C7",
"<X c #E123CC",
"1X c #E62ACB",
"2X c #E33EC5",
"3X c #E43DCB",
"4X c #E939C8",
"5X c #F838CF",
"6X c #E422D2",
"7X c #E923D5",
"8X c #E72AD1",
"9X c #ED2BD3",
"0X c #EC24DC",
"qX c #F123D5",
"wX c #F323DE",
"eX c #F32BDC",
"rX c #EE3CD7",
"tX c #F33AD6",
"yX c #F11CE1",
"uX c #EB25E3",
"iX c #ED2DE5",
"pX c #ED25E9",
"aX c #ED2FE8",
"sX c #F424E5",
"dX c #F026EB",
"fX c #FE26ED",
"gX c #F53BE7",
"hX c #FB26F9",
"jX c #F929F9",
"kX c #FF31F7",
"lX c #FF34FD",
"zX c #DD4EC3",
"xX c #D950C0",
/* pixels */
"xX(.(.(.(.(.(.(.).).).).2X4X4X5X5XtX3X2X).).).).).).).).).).).(.(.(.(.).-X:X3X3X3X4X3XrXrXrX3X3X3X:X:X:X:X:X:XzX;X:X).:X).).).zX",
"t.X.:.:.:.X.1.,.2.2.7.8.8.9.9.9.9.l.z.K.c.7.6.6.2.<.<.:.:.,.=.,.:.:.,.=.,.,.3.3.,.#.3.>.#.3.=.=.,.=.=.@.......' ' ..` ' ....| w.",
"2 $ $ $ $ $ $ $ $ * * * , , < , , , h h.C * , ; * * * $ O & @ + & & $ O & & - ; * - ; - ; ; * * - O @ @ O O . & - O O & O O O t ",
"3 o X X o o o o o X     o % = $ = = < e.h & - - O O & . + + o +   O O o O # @ - - - - : - - ; - @ o + O O O O o O @ . O O O O t ",
"1 o o o   o     o o + o = O = = & & < w.b # : = = O + + + + + + + + + + @ # : 5 : 5 - 5 5 - : * - @ + O = = = = = = # + O O O 1 ",
"3 X o o     . .   o o O o = + = & & , t.b # = = + + + + + + + + + + + O - - : : : 5 > : - = > > = = = = = o o + o + O + O + O t ",
"3 X . . O O o o +   O o + + + = O & 0 w.h # = O + + + # + + + + + + O = - : : : : : : # > > > : : = = * O + + + + + + + o + + 3 ",
"2 % o % O o o O O O o o + + = + O & 0 w.j O O o + + o + + + + + O # O O @ : > - : > : : > = : > = * = = = + + + + + + + + + + 3 ",
"2 % % o % + O O + + + + + = + = = = < g.n + = = + + + + # = = = = = : : - ; 5 5 > 9 > > > > 6 5 > > > - : : + = + # + + + # + 3 ",
"t % = & O o O O = o + = = O O % % = 0 r.V = = O + + + + O # = - = : = = 5 4 4 7 7 7 7 8 7 7 7 ; , ; > ; > > : - : = # # + + # t ",
"G f g h g 8 w f f 8 f 8 0 f f f g g C F.] l j h f h h h h h h h h j l v A S ~ ~ ~ ~ ~ ~ ~ Y S A A A A V j j g h f f f f f f r F ",
"/.G.G.Y.Y.U.U.A.A.U.U.U.T.U.U.U.Y.G.G.Q.Q.R.T.T.^.U.T.U.Y.T.K.K.!.P.!.!.@X#X#X<XXXoXoXoX6XoX7X6X<X#X[.@XP.R.K.G.Y.U.U.G.F.F.Y.^.",
"C.<.3.,.1.3.,.,.,.,.=.=.=.=.] X.]  .] ` ` ` ' / [ / / / ` ' ' ] ] ,.#.>.>.k.k.m.'.XXsXfXyXOX}.[.I.J.J.b.b.z.k.7.4.4.4.7.7.4.4.C.",
"u - * * = * * - - - - * - * * & & O & & & & O O O O . & & & - - ; ; ; 4 h v A ~ %.M.pXjX`.*.o.U m c w q 7 , * * * * * * ; ; * u ",
"y + # O O O O O O O O O # + O O + + + + @ O + o O o O O + @ # # - - 5 4 8 b n _ %.m.dXjXM.&.W N s e 9 5 - - & & = & = . % = = y ",
"t O o + o + + O O O + + + + + + + + + + O O O o o +   O + - = - : 5 5 4 q b m T i.N.dXjXM.i.W N s e 6 5 > - = & o = % = % O # t ",
"t + O + + + + + # O O + + + + + + + O + + + + o + o O O O = = @ : > > > 9 b B T &.n.pXjX`.i.W m s e 5 5 > - - @ O O = % . = O y ",
"t = O # + + = = = = = O + + + + + + O # O O o + O     O # = - - : 4 - 4 e s B W &.n.pXhX_.i.E m s e 6 5 5 - @ & = = % % & o O 1 ",
"y + # # # # = = = = = + + # + # # = = = O O # O = = o = = = : - 5 4 > ; e b B _ i.j.pXjX`.i.E n d e 6 5 : : = = % = % = O = = y ",
"y + = = = - = = & & = * = = - = * & * = = = = = = = = = * & * - ; 4 4 7 0 b B ( &.n.pXhX`.a.o.A N e 6 5 5 : : * = & = & = & = y ",
"F 7 8 7 8 8 8 < 8 8 8 8 8 f f f f < f 8 < f < < < < < < < < < 8 8 w h h c V Y ) s.m.yXhX`.f.%.( A b w w f 8 7 < < < , < , , * z ",
"Z.l.l.l.l.l.V.l.z.z.v.b.F.b.F.F.z.F.b.b.V.y.y.9.y.8.6.r.r.r.6.C.r.V.z.l.A.S.J.[.}.OXfXhXyX}.[.L.T.A.v.V.V.h.6.6.1.1.1.1.1.1.1.u.",
"Z.C.k.l.k.l.l.l.l.l.l.z.b.F.G.L.qXXXL.J.U.U.Y.G.U.U.U.U.A.U.A.A.U.Y.T.R.!.E.+X%X%X}.{.%X[.[.@XE.E.T.T.T.A.A.F.b.V.V.A.Z.Z.Z.V.^.",
"u - - & * & * * * * * * < 8 8 D <Xs.v w 8 8 < < 7 7 7 4 ; - ; 4 ; 7 9 7 7 8 w h h c c n c c h 8 7 < , , < ; ; , * , ; , , , , x ",
"t O + + + + O O O O O = > > , n $X=.w 4 : : : * & & & O O O O @ = : @ @ : - - ; 4 4 4 4 4 ; 4 > - * - * & - & & - - = = : : : i ",
"t O O O + O = O O + O = > , , n *X+.q 6 : = = = = = O @ # O O @ # # @ O - - - - 5 - ; 5 4 , 4 4 - - - - * * & & = * = = = : - y ",
"t = = O # + + + + + + O : > , n *X@.q 5 = : & - = @ & O # O = O + + O + O @ : - 4 4 4 5 4 4 4 ; ; - & - - - & @ O = = = & = @ y ",
"y + O O + + + + + + + + > > 9 A *X&.7 6 : - @ @ & = & = = # # # + @ + @ @ @ - - - - - 4 4 4 5 ; ; - - - - - - @ = @ O = = = = y ",
"t O = O + = + = + : % = ; 7 7 n *X*.7 6 > : : : & - - @ # - # @ @ # # * - - - - ; 4 ; 4 4 4 ; > 5 > > : = : : - # : = = = : : y ",
"t O O % = = = = = : 2 = > 6 7 A *X#.7 4 5 : : = : = : : - - - = - - - - - 5 5 4 6 4 6 7 6 4 4 6 9 > > > > > - 5 > 5 : > : > : y ",
"y = = = = = & * : > * * 7 7 7 A <X>.8 7 4 ; - 5 ; - ; ; - ; - * * - - - 4 ; 4 7 7 q 8 7 8 7 8 8 7 0 7 9 6 4 4 5 4 4 , ; , , , x ",
"P l k l l l l l l l L l D D S ] ,XD./ / ^ D S S D D S S D D D K D Z D D S S ^ ~ _ ` ( / ~ / L ~ L S Y C S S S S C C C Z Z D D P ",
").Q.Q.Q.Q.W.W.W.Q.Q.Q.I.~.~.~.XXoX,X>X~.I.Q.P.I.W.I.I.~.~.~.~.>X#X>X>X>X1X9X9X9XeXeXeXeX9X9X7X9X9X7X8X8X1X1X1X1X,X>X>X>X>X>X,X4X",
"q.| P | [  .X. . .:.:.X.:.X.X.=.X...X.| |  .L P | |  . .......X.X.X.=.=.g.j.v.J.H.oXfXOXJ.D.c.x.c.l.l.k.4.4.6.4.2.2.7.2.7.8.8.U.",
"0 & & $ $ & & & & * - - ; ; ; ; * ; * * * * * * * * * * * * ; * ; 7 4 7 7 c m E $.`.kX].%.~ M d w q 7 , ; , ; ; , * * * , , * z ",
"2 & O O O O + + @ @ @ - - - : : = & * = = * : = = * = = * - - > > > ; 7 q a N R o.'.kX|.p.! I a w q 4 - - - - 5 = = * = = = = u ",
"3 = = + O O O # @ @ @ = : 5 : 5 > = : = : = = = = = = : = = : : - - - 6 q d m R $.'.lX Xa.O.I a q q 5 5 5 : # # = = = = = > : i ",
"t = + + O # + # O @ # - : : - - - - - = = = = = = = # # + # + = = > 5 4 q d m R $.'.lX Xi.! I m q q 6 5 5 # 5 # : > = = = = # i ",
"t + + + O O @ & # @ = : * = : : ; = * : : = # # 1 + # = # # = + : 5 5 9 q s m W %.].lX Xa.O.U s q 9 5 5 # 5 # # : : : = - = = i ",
"y + = = = @ = @ = = # - > = - * = = > = = = = # + # # = + # = : > 5 5 6 e d B ! d. XlX.Xd.&.R m s 6 5 5 5 # # # = = = = = - : i ",
"y = = : = = = # = = : > = > : - * > - = = = # = = : = = = = : = > 5 6 6 e c I o.d. XlX.Xf.&.! m b e q 6 5 : - - = = = = = : : i ",
"y > & - - & & @ @ @ # = - = * - * & & - - & @ # = - : > > = = * : ; 4 7 w c S o.d. XlX.Xf.&.E m h r 7 7 4 ; ; - * * * * * = * y ",
"H h h h h h h h h h h h h h h h h h h h h h f h h h h h h h h j v M A A Y ) ) %.m..XlXOXM.f.%.) L K S S S C V k V V l V l n l J ",
"/.R.K.R.K.T.K.K.G.R.K.R.K.R.R.E.R.R.!.R.!.R.E.!.E.R.R.R.R.R.R.!.W.!.@X~.&X&X=X6X7XpXlXjXdXuX6X&X>X#X#X@X@XI.!.!.W.!.R.!.!.!.!.-X",
"u.,.;.;.;.=.;.5.=.;.5.=.1.=.;.;.;.;.;.;.;.;.;.;.=.=.=.=.=.=.=.=.,.5.3.5.g.g.g.j.v.j.N.N.N.j.j.h.4.5.3.5.3.=.;.=.=.=.=.=.=.X.=.w.",
"u * ; ; ; ; ; ; * ; ; ; ; ; ; ; * ; ; ; - ; ; - ; - - ; * - * ; ; ; 4 7 7 w a w w c h b a s q 7 7 4 7 7 ; 4 ; ; ; ; ; ; ; ; ; i ",
"i & O = & & & @ & O O & - @ & = & - & = = @ & @ : @ = # + # & = - & - ; ; 5 4 4 7 7 7 7 6 6 4 5 - 5 5 - : = - - : - = : : - : i ",
"y @ = = O & O O % O O O O & = O & @ O & O @ # & = = = # + # = # & @ - - > > - > ; 4 , > ; ; > > 5 - - - > = = > - - * > = : : y ",
"y & & = & O = & O % O O & & = & & O & = = = = @ = - = # # = = = # # - - - - - 4 - ; - 4 4 - 4 - - - > - : : = = - - = : = = = i ",
"y @ & # & @ O O & O @ = O o . . O O O & = = = @ = = = # # # = # & @ - - - - - - - - - - : - : - - 5 = - * > : : - > > = > * = i ",
"y = = - - @ * - * = : - - - * & - - - : & @ - @ : @ @ @ # = # = = = = : - - - - 5 - - - - - ; - - : - : - = & = = = = > * : = p ",
"i & & - & - & - = > > = - - - : 5 - 5 - = = : # @ # @ : = O = = = - - > > ; - > ; - 4 - - - - - 5 - 5 - - : = * = * = * = = = u ",
"p , 4 , ; * - * * , , , 7 ; 7 7 7 7 4 4 4 ; ; ; 4 ; ; ; - * * * ; ; 7 , , 7 , 7 7 7 7 , 7 7 7 7 4 7 , 7 , , , , , , , , , , , z ",
"C.4.4.4.4.4.4.4.k.h.h.h.j.l.x.j.k.k.j.j.h.4.3.1.,.3.3.1.,.2.1.1.3.<.4.4.4.6.4.4.4.h.4.4.4.4.7.4.4.4.4.7.<.<.<.<.<.<.<.<.2.<.2.y.",
"-X!.!.!.!.!.!.@X@X$X*X1X1X8X7X7XsXwXOX#X@X~.~.!.!.W.W.W.Q.W.W.W.W.Y.R.R.T.R.W.R.G.Y.F.Y.Y.Y.G.Y.K.G.K.P.K.K.G.W.W.Y.W.!.W.Q.Q.;X",
"H c h h v j v v A A A C T _ ) s.OXH.%.~ A A V v j j l g g f f f f f f f g f g f f f f f f h g f h h g h g h g j h h h b h l C P ",
"i # = = = = - - ; * 7 ; 7 w n o.0XB.U w 4 - - - : * = = &   O O $ o O & & % & & = = = = = & = = = # = = @ # # # - # # # # : : i ",
"y = > : > = * - ; 4 6 7 7 r c +.uXB.M w 9 6 > > : > = : = = # = = = # * & & = & = = % = = = = = & = - = & = & = = = = = : : > i ",
"y : = = = = = : > 5 5 ; 9 w c +.iXB.M w 6 6 5 > : : = = = = = = = = - & = * = % = % = * = = * * * = & : & & & # = = = = = : = i ",
"y * * = * = @ - ; 4 4 4 7 r m +.iXB.U a 9 5 > : = = O = = * = : = : : : = = = & * = = = & = = = = & & = & & & = = & = % = = : y ",
"y = & = = # # - 5 5 4 4 e s B &.aXB.E c e 6 > > : = = * = * = : : : > > : = > = = > = = : = : : : = : : : # + + % = o % % = = y ",
"i : - = & = & : - 4 4 6 r m I &.aXB.E m r 9 6 ; = > : = = * : : : : : - > : > - > ; > ; > > > > > > 5 5 > = = : : : : = : : 2 p ",
"u ; ; ; * ; 4 4 6 7 7 q a m S &.aXB.Y n f e 6 4 4 > , > - - ; ; 5 6 ; ; 4 4 6 7 ; , ; 7 * 7 , 6 ; 4 4 5 ; > > > > : * 2 > , * u ",
"0.H H H J P J J J Q Q { } -.-.A.gX+X-.-.} { { { Q Q Q { Q Q Q J J { P P Q { { { } { { } { { { { { { P { P J J H H H H H H G G 0."
};
