/* XPM */
static char *xpm_[] = {
/* columns rows colors chars-per-pixel */
"64 64 215 2 ",
"   c #000004",
".  c #01000C",
"X  c #030014",
"o  c #080215",
"O  c #060812",
"+  c #090913",
"@  c #06001B",
"#  c #0A011C",
"$  c #0D091D",
"%  c #12041C",
"&  c #150C1E",
"*  c #0C0123",
"=  c #0D0820",
"-  c #0E0129",
";  c #130324",
":  c #130C24",
">  c #1A0A24",
",  c #14022B",
"<  c #1B052D",
"1  c #160A2B",
"2  c #190C2C",
"3  c #160232",
"4  c #1B0334",
"5  c #1D0B34",
"6  c #170138",
"7  c #1C023A",
"8  c #1D0A39",
"9  c #220535",
"0  c #220C34",
"q  c #280936",
"w  c #23043C",
"e  c #29063D",
"r  c #240B3B",
"t  c #2B0B3C",
"y  c #300B3F",
"u  c #251335",
"i  c #1E0142",
"p  c #250342",
"a  c #2B0544",
"s  c #2D0942",
"d  c #280947",
"f  c #2D044B",
"g  c #310744",
"h  c #330A45",
"j  c #32064C",
"k  c #340A4B",
"l  c #3B0C4C",
"z  c #2A1041",
"x  c #321143",
"c  c #39114D",
"v  c #2E0353",
"b  c #340553",
"n  c #3A0654",
"m  c #330C53",
"M  c #3B0A53",
"N  c #350459",
"B  c #3B065B",
"V  c #3D095B",
"C  c #3F1351",
"Z  c #3E0561",
"A  c #430E54",
"S  c #40055D",
"D  c #430A5C",
"F  c #4A0E5D",
"G  c #441256",
"H  c #491157",
"J  c #4C135C",
"K  c #430665",
"L  c #440A62",
"P  c #4B0C64",
"I  c #450669",
"U  c #4A066D",
"Y  c #4C0A6C",
"T  c #500E65",
"R  c #520C6D",
"E  c #471165",
"W  c #4D1363",
"Q  c #4A1169",
"!  c #541263",
"~  c #591A66",
"^  c #53116C",
"/  c #5A126D",
"(  c #4D0672",
")  c #4F0971",
"_  c #520676",
"`  c #540A74",
"'  c #5A0E75",
"]  c #550779",
"[  c #58077B",
"{  c #560A79",
"}  c #5B0A7D",
"|  c #561374",
" . c #5C1374",
".. c #5C137C",
"X. c #60166F",
"o. c #620F7D",
"O. c #621574",
"+. c #63127C",
"@. c #69167F",
"#. c #671A79",
"$. c #76207E",
"%. c #5F0A81",
"&. c #640C85",
"*. c #680E86",
"=. c #670C89",
"-. c #6B0E8B",
";. c #700F8F",
":. c #651283",
">. c #6A1384",
",. c #6A1A86",
"<. c #6C128B",
"1. c #751A87",
"2. c #71128E",
"3. c #741B8C",
"4. c #6F0D90",
"5. c #720E92",
"6. c #780F98",
"7. c #751292",
"8. c #791396",
"9. c #751992",
"0. c #7C1B94",
"q. c #7D139A",
"w. c #7D1A9A",
"e. c #7C218C",
"r. c #7F10A0",
"t. c #801A95",
"y. c #81149D",
"u. c #82159D",
"i. c #831B9D",
"p. c #891C9E",
"a. c #84229B",
"s. c #872698",
"d. c #8B229C",
"f. c #8516A1",
"g. c #8916A4",
"h. c #861AA1",
"j. c #8B1AA4",
"k. c #8D18A7",
"l. c #8C15AA",
"z. c #8F19A9",
"x. c #901CA7",
"c. c #9216AE",
"v. c #911AAA",
"b. c #951AAD",
"n. c #931CAC",
"m. c #981EAF",
"M. c #961CB0",
"N. c #9A1CB2",
"B. c #9B1DB3",
"V. c #9E1EB5",
"C. c #A01EB7",
"Z. c #A31FBA",
"A. c #8C22A4",
"S. c #8F22A9",
"D. c #9428A5",
"F. c #9323AB",
"G. c #9922AE",
"H. c #9834AA",
"J. c #9D22B3",
"K. c #9D28B4",
"L. c #A027AD",
"P. c #A123B6",
"I. c #A22AB5",
"U. c #A522BA",
"Y. c #AA24BD",
"T. c #A52ABA",
"R. c #AA2BBD",
"E. c #A735BA",
"W. c #AD24C1",
"Q. c #AE2AC1",
"!. c #B226C5",
"~. c #B32AC5",
"^. c #B82CC7",
"/. c #B626C9",
"(. c #B927CC",
"). c #B62AC9",
"_. c #BB2BCB",
"`. c #AF35C1",
"'. c #B533C5",
"]. c #B833C7",
"[. c #BC32CB",
"{. c #B836C9",
"}. c #BF2CD0",
"|. c #C02ECE",
" X c #C035CE",
".X c #C038CE",
"XX c #C32DD3",
"oX c #C92ED7",
"OX c #CB2EDB",
"+X c #C432D2",
"@X c #C934D5",
"#X c #C43AD2",
"$X c #C93AD5",
"%X c #CC33D9",
"&X c #CF3DD9",
"*X c #D135DD",
"=X c #D239DC",
"-X c #D535E0",
";X c #DA35E6",
":X c #D638E1",
">X c #DB3BE4",
",X c #DE3AE9",
"<X c #E43EEB",
"1X c #E53CED",
"2X c #EA3DF3",
"3X c #C842D3",
"4X c #D445DD",
"5X c #DC43E3",
"6X c #D944E1",
"7X c #E345EA",
"8X c #E64AEC",
"9X c #E152E7",
"0X c #EC42F3",
"qX c #F748FA",
"wX c #FF56FF",
/* pixels */
"] [ [ %.[ %.=.%._ } [ &.-.&.-.<.:.2.:.<.7.4.K v 3 b ] =.6.&.} =.=.&.-.&.&.%.5.&.] %.[ U _ ( ( ( B i K ( U ] } ( ( ( U I K U Z I ",
"} &.%.=.5.8.B.5._ 7.v.l.k.w.w.i.F.j.q.j.B.B.&.Y * N =.&.-.&.-.5.} [ } [ ] _ =.&.=.-.} &.] ( ( ( Z 4 U 5.[ _ =.( } =.&._ =.=.=.%.",
"} [ &.-.=.y.b.y.k.N.c.8.F.F.F.G.j.k.y.n.W.z.4.} @ Y -.-.&.&.&.%.[ =.} -.} [ U _ ] U ( ] U U U K ( 4 N =.&.&.-.-.&.5.&.[ 6.-.&.%.",
"q.f.f.b.y.q.f.k.8.B.B.y.F.i.A.w.y.y.v.y.B.z.l.&.@ ` 4.q.8.7.5.-.} -._ U &.] _ ( ( } _ ( ( ] ( ] ( , f %.&.] [ 5.6.&.] &.} %.} } ",
"q.y.j.B.y.q.B.U.h.9.j.w.v.j.K.B.B.f.v.B.M.n.2.f * i.b.8.n.q.y.h.&.7.<.] 2.3...{ _ } &.] ] _ ] 5.&.* f ] ] ] ] [ %.-.] =.-.] <...",
"] -.v.y.M.5.B.<.Z i v 9.B.h.B.C.q.y.-.7.q.=.a - , <.J.q.f.z.y.B.M.B.y.h.w.7.<.5.&.q.=.6.6.&.8.6.] ; 4 I ( &.I K ( ( } 5.=.] <.%.",
"- 4 p 4 9 w 9 3 1 4 5 s s 4 9 4 , 4 4 3 < ; * 3 , , ; , , ; , , 4 9 q t u 5 4 3 , 4 9 9 w 9 9 9 4 # * 4 p f 4 , 7 7 f j k f m k ",
"p 4 * , * * * , 5 1 1 4 3 3 , 7 6 , 3 - * * , 3 p 7 - , , , * * $ # $ 1 8 3 , 4 3 , - # X . . o # , * # # @ # * * # X $ : : @ @ ",
"&.8.6.-.8.<.} ) 8 u ` -.-.] %.<.<.<.-.&._ v b } 5.q.5.y.8.7.w.r.9.c $ ..k.6.q.8.q.5.} -.[ U , , I ( Z ( ( I Z Z B B 8 1 m | _ Z ",
"-.6.-.-.y.9.i.9.k m f.j.q.y.W.j.8.b.q.v.M.f K V.Z.c.v.V.M.U.).[.P.L & -.y.y.c.v.V.6.-.5.l.y.e ; ] 4.4.4.4.-.5.&.&.*.E 8 Z 6.4.4.",
"-.q.8.q.8.k.h.w.m d 8.7.y.&.<.7.q.y.} 7.z.4 b k.g.;.w.k.z.M.W.T.A.P % w.5.=.-.4.5.-.5.5.2.5.e , U [ %.<.-.g.r.&.7.9.:.8 Z 5.%.6.",
"-.7.&.w.j.F.i.w.3 s k.<.y.8.f.B.k.y.f.&.&.; B 8.5.8.q.l.b.b.G.J.z.` % ] 6.6.z.8.5.6.-.*.&.f.g e 6.-.-.4.&.<.w.,.:.2.| * N 4.%.] ",
"5.&.*.i.R.T.K.v.4 < g.6.5.B.q.i.v.7.J.5.8.% j c.k.7.q.6.2.9.A.:.` V % b V n.z.f.g.8.-.5.=.6.g A B.-.7.] _ U ( w.<.:.U # B 6.%.] ",
"!.j.v.j.T.G.J.P.% o 8.w.J.~.V.!.P.q.B.8.v.< f q.y.-.*.:.<.<.<.{ Z p # B f U U./.(.b.l.f.6.l.9 k c.q.6.-.-.<.:.h.A.-.Z # b r.4.&.",
"9 > 0 q t g e < X . # o # % % ; , < < ; 4 , 3 3 9 4 8 r t r 4 4 3 * o w 7 7 l ~ ~ F F W P P # ; g s p p s x r r p p w # 4 f p p ",
"X X . X # # # % ; ; ; ; ; o # ; 3 4 ; * P } } p 1 # : + O * , 7 4 7 , # o X # * , 3 - X @ o # # . . . X . O o X X @ X * # . . . ",
"X 4 B &.&.&.} } k.j.j.w.-.&.{ } ;.7.} } 8.v.k.6.L 8 | 3.0.2.y.j.g.k.7.x.} Z U { &.&.-.} { &.&.{ b p @ M &.{ ` ` Y { o.` U K S n ",
"; [ 7.y.%.&.&.} q.<.>.o._ &.-.} &.} Y -.&.q.2.-.,.8 A.W.!.w.W.n.-.x.h.b.y.8.j.y.&.;.8.g.y.7.q.q.&.{ - <.q.6.*.&.} 8.Y.8.( ( &.[ ",
"f n.q.} -.&.-.&.} &.-.&.&.&.-.5.&.} *.-.6.7.w.9.i.u G.B.k.y.8.q.j.y.7.g.j.y.K.B.f.k.8.5.;.o.] 7.-.*.# 3.k.&.-.} ] _.(.B.x.U.B._ ",
"Z 2.4.5.-.2.2.y.7.y.y.7.-.-.&.5.8.8.7.;.-.-.w.A.0.< i.!.Y.b.j.j.2.y.8.k.<.} &.} *.7.-.5.*.%.-.7.-.&.@ ' k.{ } [ y.!.Y.^.C.U.U.y.",
"K -.q.7.g.B.f.b.x.n.x.j.8.k.z.k.j.f.k.q.j.j.j.G. ., h.B.y.q.2.<.-.q.-.y.8.<.U.y.7.-.} &.&.q.y.%.5.8.# j f.&.5.!.B.q.q.-.*.-.&.&.",
"f &.f.f.z.b.b.B.b.G.x.J.J.U.U.J.U.B.J.M.n.B.q.8.&.4 0.B.7.y.y.k.U.B.b.b.k.n.J.b.z.f.k.y.j.P.v.-.<.Y X b q.q.y./.f.Z.W.y.6.B.c.[ ",
"7 p r e g s s h k , 4 G l G k l k k h h h s w 4 p , p w p w 7 4 w w w 1 3 ; * 1 < 4 < , , , , , , * * * 7 D L T P ' Y F M D S w ",
"3 * * @ # @ @ @ X @ @ X X @ @ @ # * - , - * 3 4 3 7 3 - , 3 7 p p - @ @ * # X o * * , 2 2 4 , - , 3 7 - X X . . .     . . . . o ",
"<.&.[ 2.7.:.' +.} } Y n - L j.I.K.y.k.h.j.J.n.&.:.7.3.:.8.w.y.q.&.2.d.:.R f 4 p U U L L Q Z K I ` { } U B N L B b b f b v f 7 # ",
"-.q.7.2.8.-.5.7.2.7.<.U f 8.W.Y./.Z.(.v.k.B.y.-.-.8.k.q.B.XX}.!.B.%X1X;X(.{ f &.~.P.h.w.h.S.f.y.B.b.q.8.5.7.7.7.4.=.&.&.-.%.N , ",
"8.>.7.&.5.7.7.7.q.7.-.U 7 5.V.Q.G.~.Y.G.f.-.y.7.&.7.f.f.k.U.k.b.B.U.~._.}.Y i f.=X+X#X[.T.(.W._.P.U.b.J.k.k.-.y.g.6.y.f.Z.B.K , ",
"2.7.&.&.2.q.<.<.8.8.w.` 4 Y J.q.-.} } -.6.q.w.7.%.=._ =.-.<.7.8.-.&.>.B.XXY d }.K.,.I.).B.W.(.).!.U.(.U.Y.W.J.y.y.q.q.k.k.k.] 3 ",
"&.7.-.&.7.7.<.7.q.;.q.7.8 Q F.j.i.-.;.q.-.q.q.j.k.y.F.v.q.j.j.v.q.q.q.).$XQ r ~.'.~.n.~.!.U.>X*X*X_._.Y.Y.C.V.U.j.7.k.q.k.U.-.; ",
"q.&.=.4.-.7.4.-.8.y.q.>.8  .+XQ.U.b.:.7.U.W.).!.}.@X}.Y.Y._.Q.+XW.W.XXK.| k 0 a.K.J.B.W.W.B.XXY.U.v.!.Y.J.b.v.n.U.W.j.b.B.Z.Y ; ",
"f p a a p a a i g D V d 1 C  . . .| P D  .e.s.e.e.s.3.0.a.1.0.d.d.d.s.P Y M , E j n f a j j f b n j f f f f a w g j k P V L m : ",
"# @ # @ @ * - * @ @ : r d 6 * @ X @ * * @ . . . X . X . . X X X * @ * - z d 3 , * * @ @ @ X X X X . . . X @ . X X X . . . + : r ",
"* ~ H.H.D.i.w.w.A.s.w.a.w.w.w.9.9.a.9.2.<.>.@.,.0.A @ w K ) } ,.) Z ` :.,.,.<.&.&.&.` Y K D V L L B a . a I _ { ' Y I :...Q ^ ` ",
"6 9.J.U.P.n.J.K.K.G.S.i.v.k.v.z.n.m.v.b.b.z.v.k.B. .* } 5.Y._.>XT.i.E.[.{.$X}.%X@X|.|.n.Y./.U.v.Y.Y.5.; P %XoX(.(.(.h.@X{.F.6.=.",
"- :.z.7.7.q.y.a.w.w.y.<.8.w.q.j.j.y.8.j.j.0.w.w.j.' , } ~.U.{.3X[.$X4X#XR.+XQ.J.5X&X$X'.=X~.F.j.j.U.v.#  .0X0XW.n.n.,.A.9.h.-.) ",
"* ..B.=.&.8.q.i.A.D.k.h.v.g.I.k.j.i.w.h.7.<.8.-.w.>.7 h.~.b.4X9X`.E.#XP._.%X%XJ.=X+X_.j.b.P.~.Y.n.k.<.# ^ 1X*XR.w.:.:.G.<.] ( %.",
"* ` b.q.<.w.a.h.9.q.7.7.7.<.F.v.j.j.k.j.n.h.n.j.B.{ 7 P.!.+X5X=X#X[.[.U.~.+X*X@X$X*X#X~.^.!._.[.P.J.8.4 ^ -X%X%XU.n.<.;.6.=.5.6.",
"X V i.h.0.S.F.M.q.B.f.M.h.q.&.q.n.U.j.Y.%Xb.W.f.b.V 7 %.<.F.I.T.A.7.<.B.~.B.B.Y.M._.J.U.W.W._._.W.(.B.w M ,XqX+XU.Y.w.v.f.=.5.=.",
"* , a c G W M M b A b A A g a k A H k A ! k k a p , 3 p r r 5 r 7 k a f b j f f f k f b k d Y R P L V 3 j d.I.s. .0.R o.*.R _ _ ",
"p 1 : : 2 = # o # @ @ . . X # # * @ * * - * * , 7 7 f p * 1 , * @ X @ @ X @ * * @ @ * * @ * @ * # * * 3 5 $ = $ O X X . o X . . ",
"7.3.3.0.w.7.<.9.2.t.0.1.X a -.7.f.<.7.<.<.7.7.q.w.7.7.8.>.3.7.3.3.3.,.M D w # b U I K ) R ` { ' { } +.3.....,.+.&.' &.R { ) f o ",
"A.w.z.F.k.w.7.2.-.q.B.U.X P W.J._.Y.W.Y.!.W.B.Q.!.+X%X1X/._.t.y.v.).f.7.U.` 3 I 8.g.=.U.U.7.W.W.W.j.J.@X[.G.XXY.XXXX_.z.*XY.c.w ",
"9.F.K.F.m.k.i.g.7.2.V.~.. / (.Y.4X5X@X^.Y._.+XY.*X+X$X[.B.<.2.-.*.&.<.7.Z.>.@ ' >.y.f.J.Y.*.p.8.n.:.A.{.F.A.Y.k.2.j.B.q.G.b.v.l ",
"h.i.b.h.V.y.k.z.v.g.j.F.. O.Y.(.^.P.Y.).^.W.!.~.~.U.%Xj.i.-.2.7.7.-.7.8.U.| * B &.P.n.2.>.P.U.>.P h.a.s.<.j.k.t.7.2.v.>.{ &.(.A ",
"f.w.B.b.k.8.n.f.j.z.U.j.. ^ U.~.*X!.(. X^.~.W.W.Y.}.~.B.q.z.z.8.7.w.f.h.i.4 # K 8.7.y.y.y.q.n.0.3.w.w.S.v.P.b.g.b.j.2.-.&.&.-.g ",
"N.z.B.g.y.U.B.k.M.n.W.j.@ P y.~.'.Q.U._.~.Y.n.J.q.n.h.Y.n.f.b.M.n.q.f.U.M.f X } B.8.p.j.U.Y.P.U.T.`.W.(.Z.C.W.b.w.8.y.5.-.5.=.f ",
"^ D W A P R P P Y D Y b # l M a a a s f f f g f j n D M s b k k b j n D P e X p 0.k.0.B.1.Y D.p.3.G.G.,.O.2.1.#.2.>.@.o.R +.R 9 ",
".         . X X X X X * , * @ , 3 4 4 4 1 * , 4 4 3 7 * , .   X # . X * @ @ # X # X o # . . X X + .   X . o       . . . . X @ X ",
"P P 9   h 0.>.' ' ` | o.>.+.' %.&.:.,.,...,.<.=.:.:.2.:.N o s Y D V P K U D K n f a a a a p a w a p w p 4 #   . w j b b N N N g ",
"6.b.F   ' U.U.Z.V.v.Y.Y.b.Y.).W.j.f.h.j.A.j.j.B.f.y.z.q.L X | Z.z.B.XXW.%X%Xb.!.!.U.y.T.k.q.6.y.k.n.7.} 8.8.e o y.b.g.U.g.8.%.4.",
"v.6.n   >.Y.h.n.y.f.n.7.h.z.v.k.j.F.i.U.G.M.z.h.8.} %.-.b * ` !.k.7.5.-.i.U.j.t.n.y.] y.2.<.2.-.y.<.y.Y -.y.n # b._.!.P.v.y.%.-.",
"y.&.p . 2.B.w.7.w.w.q.i.q.q.j.S.a.A.s.i.9.h.7.&.k.h.5.q.V @ ..%XY.5.] >.w.y.2.-.8.-.2.8.x.~.x.x.j.>.2.<.} 2.n % P.x.y.y.;.] 5.5.",
"8.P.k X t.n.8.q.y.y.y.i.7.9.F.{.{.E.{.i.g.y.7.} >.i.j.y.R X +.n.J.n.q.k.V.y.8.g.n.q.b.U.G.Y.*.2.2.>.<.7.&.W.D o p.y.g.B.;.5.&.&.",
"@Xb.w # 7.8.k.c.k.b.b.b.q.w.S.'.{.Y.n.B.!.B.v.&.[ <.M.M.D . +.*XT.=X[.J.R.R.P.[.G.XX^.G.~.j.*XP.7.w.y.i.Y.OXM ; V.V.2.*.8.v.y.5.",
"@.w * # w a l l M ! J P ^ Y E #./ R L 1.0.o.' K B L ` ` e o b '.T.8XwX0X=X'.{.{.7XqX@XR.0XP.+XP.~.1XU.2.;X;XA # >.t.p.o.p.i.v.i.",
"  @ X # X X X . X       O O   X . . . X X . . .   . O   X * * , ; x l t h t t x x y t 9 g 4 9 4 a J A 4 9 e , .     o . o o # & ",
"# ; a b b p 9 t 4 < , 0 u > o * * - * 7 f - 3 1 , 4 # o w s s 4 ; ; # o # : $ # .     .   X . . . . X .     . # # X # < ; % : ; ",
"4 9 R.!._.B.y.b.z.R.I.'.]./ * e.H.9.D.E.i.9.h.h.-.8.g , h.v.b.J.~.Y.G.F.A.F.I. .; { ' ` ' } o.@.+.>.o.{ > , Z I Y &.>.K.F.0.s.<.",
", < |.*X[.W.Y._.[.=X6X4X>X.., h.~.J.S.y.2.j.7.b.q.y.B > j.f.k.~.T.&X X].'.~.~.1.< XX%X).@X~.!.U.U.c.B.W.h 4 g.y.Z.(.v.j.Y.F.i.8.",
"; & P.Y.@X%X_. X[.R..X5X=X^ # k.~.Y.n.J.W.n.w.p.!.W.B , h.XXXX@X[. X7X X#X8X>X1.< i.+X%X<X_.P.Y.b.8.|./.e 9 Y.oXOXk.k.0.i.i.<.8.",
"; ; B.U.U.~.R.R.R.7XP._.k.g # w.Q.n.).XXXXJ.Y.G.W.v.L , v.*X_.|.$X^.$X_.R.=X%X/ X 7 *.$X~.7X_.!.<X~.Y.Y.g < b.k.~.n.9.j.w.w.-.k.",
", % J.<XJ.Y.U.'..XT.Y.%X} 4 , 7.@XJ.|.|.^.U._.y.U.!.P 9 Z.C.~.*X^.U.$X^.U.!.OXD . f <.W.*X@XT.@X$X!.!.OXA < !._.i.h.T.S.8.n.8.%.",
"< o /.2XP.'.R...~.*X:XqX` - , &.b.7.q.5.2.j.b.>.j.n.V o >.G.R.[.Y.U./.!.Y._.W.f X v &.|.b.V.U.U.!.U.(.J.e , k.Y.z.0.U.i.y.c.q.=.",
"o o e G k C J e l A H $.h X o e 4 4 7 w 9 a , X , g ; . + > 0 u q e h l A A 9 # . % 9 D ! / F F O.O.J < . o s c c 2 P R *.*.Z a "
};
