/* XPM */
static char *xpm_[] = {
/* columns rows colors chars-per-pixel */
"64 64 26 1 ",
"  c #010101",
". c #040404",
"X c #080808",
"o c #0D0D0D",
"O c #111111",
"+ c #141414",
"@ c #1B1B1B",
"# c gray11",
"$ c #202020",
"% c #272727",
"& c #2A2A2A",
"* c #2C2C2C",
"= c #323232",
"- c gray21",
"; c gray22",
": c gray24",
"> c gray26",
", c #444444",
"< c gray29",
"1 c gray31",
"2 c #535353",
"3 c gray33",
"4 c #585858",
"5 c #5D5D5D",
"6 c #606060",
"7 c #656565",
/* pixels */
" ....X.X........... ....O@@%$+@@++@#$#&*+XOXX.@$O$&$@$&&$+###@X ",
"  ....XXoXXXoooooooo..X.O#@#@#$%@++++@%=$oo.X.%*#$%&#%*&#@#@@#o.",
"...XXo@+#-;:&$OO+@++..X.oO+@+@%$#%*$+$-:*oX.X.%=&&#$#&=%OoOo@#o.",
" ...O#=-#->,,$++O##O.XX.+@+O++$$$#$@@&;;%...XX*=--*++#$+@$%#+@OX",
"...X+&;>%@$;:@@++#$+..XXO++#@o##$OO+@*==$. ..X-==%%%#++#%&&&%$+X",
" ..O+#&-*+$-@$@+##&+..XXo+#%%#O@@@$###@$#  .XX$#@%=&%@$$%&%&&*%o",
" ..+#$@;=#@@@@+#@@;# ..Xo+$&%*#Xo#%%&*=*$...X %-&=-=*#*%%%%%%$#o",
"...##=,32&O+#@@#@#&#. XXOO#&-*&@@$$#$*--%.....===*--*@*=*&%%%%*+",
"...+@;,<;&O+@+##@@@+. .XOo@$&#++$&%@@*-*#. ...-&*==&%#&-*&$&%&*O",
" ..+#>11#$++$#$@@@#+..X.O@&&=&%+$%#O+$**@.  .X--%==&&%$%$&%$%%&X",
" ..@#:,1*;@+$$@o#@$+ ..X+@$:,;=@$&$@X#&%+.....-;:---=##$$#@@#+$o",
" ..oo@#$$$o@@$O+$#&% ..XOO&<,:$@&-;&$@$#O ....-:;=%%%#%:;*&$@@#o",
"...+#**#@$;#+%$$##*&...XoO&<:%O#-:;*&@##o....X--*$#*=&%--*;;&*%X",
".. %**>-$@<*+$&&#@&#...XO@=&**&$#&&@O@*=#.. ..$$+#==*&%-*===**$.",
"...@%=,:*%>-##$$$%%%. .XO@+%,,:*+@#&&+=;&. ...+#*&%*=%@*=-=*==$.",
" .X+#:2<-&*-#$*%#@=% ...O@*$>>:*+--;&+*-#.. ..O$*:;**$O@-;===*$o",
"..XO#<<*=-$@@%=$@#*& ..XX#=*&;<=+**$O&;*o.. ..o#;:>#+$&&#*-;-OXo",
" ..o$,>#%$#$$-*%+%&$. X.o#*=&=>%@&+#*:>*o . ..O@=:;**=--*#$&@.XO",
"..XO#><=$@@#&*=#+&$@....o#$*=*<#=:#$>;%=O ....O@@%:>:-;;;%&&&@Oo",
"o.XO%>>&&$#$&%-*$%=-. ..o#$=<*=:>>-#>;#:@  ...XO+*,<:::>;$&&==#.",
"OX.+%,,&&$$=$=-*+#&-..  .O+&*$#%*-@+-*%*O . ..o@#&;:>;:;#=*&*&@ ",
"oXX@%:;#*#O=%*%&@&=@   ..........X.XX..X......O@@+%>:;:#&>;==#XX",
"o..##@%%:*+=&$$*%-:O .  ........ .......... ..X@+o%><:%#;>>-*%+o",
"XoO%*->1,*+*;%$&*;1O . .... ..X.. . .. .......XO$&=:::$$:::;%%@o",
"oOo+=21<-=%$;&%&:*;O.. . ..+XXX....XXX..o.....Xo@%&*;;:$;:>*#%+o",
"Oo.&;,:;;:%$-==&*=;= .  ..o=O+@o&*$@##@@#O. ...o@$@%*=;#=-:*%+Xo",
"OX.%-+@&*$#==-*==&>>......O$#%%@=>,:-:,<:+.  ..+OO+@#+@o@@@OOX..",
"XOO$$#=;-##--=-=:&$%.... O$&$*@+$*;>><22<O   ..XX........  . ...",
".O+@@=1>-*+=-&&&$%%o ....+***$OO+$$*=>32<+...  ... .... .. .....",
"o+o##;,<==+&%#*%*:<O.....+*$*&OO%#X+$-11>O...... ..X....   .....",
"Oo.$%=;,-%+%+=:*%-*o....X+@@$&O+@#@@%&,1,+..  .X##+++O+@$%#@O. .",
"XXX--*;<,-+&=-%=*,-o..X.XO$#+#O%@%&=;=<1-o. ...#--%$&#%%->,>$X..",
"XX.>%=,11;*=&-**;2;o...X.O@+oXX@%#+@%@@O.X....o%$**;-;,$*><,$oX.",
"XXX:%-><1=;*$*-&=<<O...X.+#$o%oO*-@+$@%#$o....X$&,:;<23*&,2=&=o ",
".XX#%;,1,&=-$&-%#&2$....X+%@@=$#%$X*>;+%*@....X#-,-%<33*%13#%:% ",
"X..#%$$*$&-&@$=&&:4:. ..X$%O@*>%#@@&=#+>3=..XXX$=*##<<<@=,11:,@ ",
".X.@@O@#@$--$#-=;1<:o. ..#:-O&;$+@#&#@%>6=...XX#&&%%&-#$%#*>-%o.",
".XX#%%;-&+#-=@==;2,-o ...$-=O+#+++@%O-:><*. ..O%%%$$$@%:<:$@%:= ",
".X.#%&:%+#+*-*&-:;;-X..X.@*$@##+%=&X+;<:<&. ..o*=:=%#&,244&#;2* ",
"...$$$;-#%@@#%#$$$%&o..XX+*:>;+$:*%X@$:<1@X...X&-&#O=><344$@<2# ",
"..X@O%;>=*@X@&%*:1,-X...X@$;;$O*;@+$#;>5<+....o$$%;-%=,233%$:1% ",
"XX.@$$;<-&+.@$%&>5-oX..X.###$$+%;%%=+#+#@.. ..o%*;13&$:114=$;1$ ",
".XX@&$;:O@+#&$*%=;%oo ..X+$&%+*=$$&@+&&&@X....o$-*&,:#=,16:-;:+.",
"...@$%=-#++-*+=*&$::X..X.+$-*o%-:#o#:2,3;O... o%-*o%1==33,&&&&o.",
"X..$$&>:>%@=-$#*&;21X....$%&@+@+==+$,3,2<O.. .o$-:%%,:#=&#&;**$.",
"..X+@%-:-@#;:>*@$=-*X .XX#%#O$>:;%o$>1,<<O. ..o%=>2,&$&;>;,<*=% ",
"...@$*=>#o&=>:#*><>O....X@@+@#-$$@o=<<,;=X....o#&;;&%,466%@=%-$ ",
"X..@%@**@&;>1*+&:<>O.....$&$&O@$=-%@%&%+O.....O#$&;3=:452*%-#*&.",
"..XO+++oO$*>:+$##$+XX...X#%%%o*1121*O*:<,O. ..o%&-<<;%:53,:=%-& ",
"X..#@$%&#@O+o#*-->*.X..XX%*$*@%>-<1>$:<,<O....o%*&-44;*353<&%=* ",
"X.X%+$-::=%o#*=:,>:+X....$#+%+$-*-=*&:11<o. ..o#&>;354&<33<%-;&.",
"...O@&<>,;:$#&*#$--*o ...%&&$+#++@@$*>123O....X@*,3353$%43:O$%+.",
".X.@@*,;-:>*@%&X+&;-X..XX#<2*%*&@-;>*;163+.. .X#*<,,-*>==&@*-*@ ",
"X..@@$-:*@$+&%&$*&--o ..X&<,*%=&#=-,@->::O....X@&-$&-363$>,21># ",
"..X+@O&:&O$O#&**:=:>+ ..X##OO#%O&*->@##o+o. ..X+#&<3454>-11=*=O.",
"XX.+@OO&&$*=+@--*&=*O ..X#**+Oo@;-;&*<<,<o....o&&,521:&@+#@O@+X.",
"..XO+o+&#%=;=O@$++&$X...X%;=@#@o%&&$:6542@    X&*&12&+oOO@@++XX.",
"XX.O++&-%$-::;@@#@*=o..XX$;#O#@o@#$$-,232#  . o&&-<2$oXoooO+ooX.",
"X.XO@#&*%#;>-;@@=&==....X$<>:*@%$%#$->353+ ...X$&;,:@OXXXooXoo..",
"...O$@&=#@*$+++##&::o...X@&%-*@%$;;%;1374+ ...X#%=>:-+.X.XXXXX. ",
".XXO@@=-oO@@@$*-#$;>o...X@-,=O+%@#=-&#-75#  ...Ooo+@OXXX..X.....",
"XX.o+#&+o$%#O$&**-;#..X.o#-11%@*$%=&@@*35#....X.    ........... ",
"..XO#@+X*&$+o+@%%&*X..XXo$*<;@%*#$&*:3224@.X.....     .. ..X.. .",
"X..o#@O+=+OOXX+o@@oXX...o#=,%@*##=*-,5343@oOX.+@*$$%$@+OXXXXX..."
};
