/* XPM */
static char *xpm_[] = {
/* columns rows colors chars-per-pixel */
"64 64 25 1 ",
"  c #030303",
". c #050505",
"X c #080808",
"o c #0F0F0F",
"O c #111111",
"+ c #151515",
"@ c #181818",
"# c #1C1C1C",
"$ c #212121",
"% c #242424",
"& c gray16",
"* c #2C2C2C",
"= c #313131",
"- c gray21",
"; c #393939",
": c #3F3F3F",
"> c #434343",
", c gray27",
"< c #484848",
"1 c #4C4C4C",
"2 c gray32",
"3 c #565656",
"4 c #585858",
"5 c gray37",
"6 c #686868",
/* pixels */
"o+@#@#O.o@$++@o o++%@@X..XXXXXOO+@+@$#+..oO+oXX.o@##@$*XX%%$%@@o",
"o@@@$#o.+@+++#X O@*=@&O XXo+#++.@$@O##O X&&;#@+ o+@#@%*.X*&##$$O",
"O@@@@+oX@####$o OO=-#*+ X+&&==+.#*&+@@+ +=*#### o$%@$&% X&=&%&&#",
"O#$+@@OoO+OOOo..OO*=##O o#=&&*O #:$#$%@ @<=+@#@.o%*##$%.X==&&%$#",
"oO+@@#o.ooX . ..+$*;#$+ o@%&$*O #,*=#&# +&$###@ o==%*#@.X-*&&*%@",
"O@@++@o o+#@OoX.@-;-%=+ X@$%&&o +&$#$%+ #;**$$$ o&;%&$% .#&&%--@",
"O@#@#OX.o@%$#@X.@$:;$-@ o@$%$-o +;&$*=% @>&$&## o&:&%*%  #;&&*&o",
"O@@$@OX.o@$$$&X.+++&&%+ o@%%%-X @;*$--#.@:$$=$$ X%==&-% .O=>;&&O",
"OO#$+O..o+@$%*o @@+@:-@ O#&%-*. @;-=>>*X#=&%&&$ .XXXXo. .O%>*-=+",
"@@#+OO..O#%%+$o.@#@+$%O O$@**&X +>1,,3;X%>-&&-%  XXooXX. o%-*:*O",
"++@+++o O#&$O#OX+#@+@$O.o#&;-*o.O,42,2=.#=&&==$ .#$$-:>o .ooooo.",
"O+@+++o.O##@+#O #$%$%%X.O#&==*X o#&%%@+o#:=$&=# X%$+@;1o .X..o. ",
"O#@@+o..+###O@o +%*$OO..O$*---X     ...X&>:%*:$ X@O#$&&X @==*:&.",
"O+OooX..O#@##$X .X.....X+$&;;-o X@$@#&o #-;*&-* o#%$$%&+ #=,;::+",
"X......XO#@@#$O .O++#O..+&--:&o O*;&*;+ @&#&%:- o&$##%<@ #%%=-=#",
"ooOO+OX.O+O$&%O o@$#$#X.+*==,=o +-&*--+ @-&@%;& X*%&#%,o #=*1,-%",
"OOo+$#X.XXoO$@X.O$##@@X.O%::>=O +**-:;+ @-%@%;% X$$&$&*X #--:,=@",
"OOOO+$X....XX. .@%@$%%X.O%-;1:X O*&;::+ @;&***= o$$&#,,o #-----+",
"OOO++#X.O##$$$+ ##++%=.XO&;;-=o +;;-;-o +%$;&-@ o$#-*=*. @;;3:*@",
"++OO+@X.+&##@$@.@%###&Xo+*-&=-X.O-,*;-o.+&*#%-# o%#---1o @:1:1*#",
"O@+O+$X.#$#@#%@ @%$#@%Xo+%;;>;X +*>&:-o.+;;%%&=.o-%$=-,o +:<>;-+",
"+@OO@@XX##$@#%@ #%#$+&oX+&,>&*o O;,-,*X.O$%$%*&.o$@%-=-X @:<=&&o",
"+@O+@$XX@$##$&@.@#&@@&X.O&,%;=o @>,>,;o.O$&-$$% o*$#$,3O @,*.Xo.",
"+#O+O#XX%*#$$;#.##&$#%X.O><&;=o.@:3<<=o +%$#$**.X-&$*=3O o#+....",
"@@+O+#XX$*#$&;$ +$%+$*X.o%-<<=+.@,;;>=o.O@#++%O o;&$&>1+ oOOo.. ",
"#@+O@$XX$&#&%;# +*-@*=X..oO#@+O.@>=;,=o.XXX.XX. o=$#$=;O.=;>-=%.",
"@+++#%oX$&@%*%X.O%&@&=..XXXXoooX$,>,,&X.XXXo ...O;-%$>1OX-;31>:O",
"+++@%$oX%$@$#XX.O$%@@&..+*=-;+@+$>:>:-o O*-=@$+ +<*%&*-OX=:1:==+",
"@+@+@&OO%%$@oXX.%**&&*..#>>;,&OX$>:==-o O%%&&=+ O;$#=:2O.->:;-;+",
"@@@O@%OXOO+oXXXX&&$%#&X %1:$&;$.@>1:;%X @#$$%*O +;$+$*3O.*;2<,;O",
"#@@@$%oXXoXXX..X$&$%%*o.*1;@%;=.O-1>>#o &-#$%$o +;#@&26+.-11:>-o",
"@+@@#=XX$$%%@o.X&%%$$=X.@-=@$=*.o&,;>%X %-@#$&o O&%*=-;o.;;>>==o",
"#@+@$*X.%:=*+OXX%$%%#=XX$==#&>= @<,2<-X.%&#$$&o +==>&>,.X;;:>,;O",
"@$@$%&.X%:;*%$X.&-%&#%XX$;&$&;* #<141;o.$$#$%*o +&*-*:$.o&->-,,O",
"+@@#%&..%-==*$X.$&$*%%X.&>=$&:% +;=><-Oo%=$#*&o .oXXXX..O*%><=*O",
"$#@$%&..$*&*$$OX$&&=$$o.$-*#%=& +*:*;%o.#:%$&%O..X.XX...o&&;:=*X",
"#@#$&$XX$**&$$O.&;*;&$X.$%&#%-& o+&;:#XX$>;%%=o.@#+@$$O X##@@$O.",
"@@@$$&..$*%%$#oX$-=-=-o.#%%@*-%..oO+#OXX%<>;;*+.$%#$%*+ ..... ..",
"O@##-=X.$&$%$@oX+#$@@+XX%&%+&,* .XXoX.XX$,,>:&O.$&O$*&+ .@@$%%#X",
"XXXo@O..$*$$$$XXOO@OXOXX$#@#%:* %&%&%$XX$;,-;%O.@%$=$@O X#%;*-*o",
"XXo...XX$=%$&%XX@%&&%#o.@##@&>* &&%#*&o.%;>:-%o.#*%%@+o X$%=;*%.",
"o@#&+...O&$#%#.o%#%*=%XX$#%%&-& $&%$&*o.$=---*o.#*&@@$O X&&%=*$.",
"O##%%+..XXXX...@&$%$%%o.=%$$$:= $*%$&=o.$*,;;*o.$%&%$*@ .&$%-:*.",
"$==*&#X.O+OoO@.@&$#$&=O.==#%$=% $&&#&=+ $;-;--o.$*=%&=# X$&==-%X",
"#*-&=&X.@**##&Xo#@$#%*O.&%&$#*@ $*&%*>#.#--;:;oX$*;$$-& o=$=>:#X",
"#%%%&@X.#%@@%%X.+@##%=O.*==@%#O.%&&&&&O #;>:>;oX$&=*=&# .:&=>>$X",
"$$%*&%XX#$#&=*X.@+@$&=O.&;-@#$@.%&$$&*+ $=,=;=o.$&&*>*O .=&*=;$X",
"%*&$%$X.$*%$$%XX$@@%%*O.&=;@#=# *=&&*=@ $;2;;;o.#%=*:;@ .&-;=-%.",
"#**%-&XX##$*=;X.#@#$*=+.-;=#&=$ %&&%&&O %;,:<>X.#*%*,,@. ;;;;:&X",
"$&-&**XX#=$*$-X.+@##&=O ==-&&;#.%*&*=$o %=---=o.@;&=::$. #$##@+X",
"@%**=*o.@=#%%=..@###*=+ %-*=*># &&$-&#o @=;-=$+.#;&&**+ .    ...",
"#%=*&&X.+%#$*:..@+@#&=+ O#+oO+OX%*%&#$o XoOOoOO.#=*$$$@XO&&%OX .",
"#&&*&=O.#%%$#*XX$+@#%=O .XXXOooo&&$*$%+ Xo.... .$*%%$%+.O>11*$%@",
"@&$%%#OX@&$#%%.X%@@$&*@ O++@%#Oo&&#&$*+.%;>--=O #-$&&*+ o:2<:>5&",
"+&*-&ooo@$#&%#..*##%**o +##%$%OX&*&*$%O.%&%%*-O @-*%%*@ X-1,-->+",
"+#**$.XooOoX. ..*##%&=X.@$%%#%+ --&*%*+.%$$&**O @&%%%&@ X-1;2;,+",
"++%$*+.ooO+ooX..&%+$**O ##$%%$o *=*&$$O.$#%&&*+ @=&%%&o o&;>:>=O",
"@$%&*$X.@%&%&-o.@+@%**O ##$##@X.%-&%&=O.%#&&&%+ @-*$$&o o&::;:@o",
"@*&&=*X.@&&&-*o.@##$&*O.@#$$#$X.&=%%&=+.$$&&&=+.$=&%$%o X%-:;-:#",
"+$$$$$o.$$&=;=O @@+#**O.$#$%#$o **%$%*#X$%&%%*@.%=-=*$o o=-,;=;+",
"+#@%%=XX$%$&--O.@@$#%%o.$$#$$#X =-###%@O&&**&%+ o+@$%#o O;>>---+",
"+@#**$XX#@$%&%o @%@#$%o $##@@#o :=$@%&+o&==%*%O      .  o;,-=<1+",
"+@@&&&oX$#$#@*o o#%#$%o @#$@#@X.:*&=*%Xo%*-***@ o@oXOo. o->*=*;o",
"+@+%%@.X$$$$@&X X@*$#@o.#$#$$@o.$$$@+OX.$&*&&&O +&$@=*X..oX.X.. "
};
