/* XPM */
static char *out[] = {
/* columns rows colors chars-per-pixel */
"64 64 54 1 ",
"  c #020106",
". c #05050C",
"X c #08070F",
"o c #070711",
"O c #080711",
"+ c #0A0A14",
"@ c #0E0D1A",
"# c #100F1D",
"$ c #12111D",
"% c #18171C",
"& c #19191E",
"* c #100F20",
"= c #141324",
"- c #181726",
"; c #1C1B25",
": c #161529",
"> c #18172C",
", c #1B192D",
"< c #1D1B33",
"1 c #211F2C",
"2 c #201E36",
"3 c #211F38",
"4 c #23222E",
"5 c #29292E",
"6 c #252334",
"7 c #292735",
"8 c #2C2A36",
"9 c #24223B",
"0 c #29263D",
"q c #2C2A3B",
"w c #312E3D",
"e c #33313E",
"r c #272540",
"t c #292641",
"y c #2C2A43",
"u c #2E2B48",
"i c #312E44",
"p c #312E4A",
"a c #353243",
"s c #3C3A47",
"d c #35324C",
"f c #39354C",
"g c #3C3A4B",
"h c #373551",
"j c #393652",
"k c #3C3954",
"l c #3F3D58",
"z c #413D4D",
"x c #413D56",
"c c #423E59",
"v c #45425D",
"b c #4C4964",
"n c #54516F",
"m c #58526D",
/* pixels */
"84wwqwi0qqw7727%;s87eeaaq88www7;;1445aiw>7aq567;&eawq8q741;18w78",
"1kvjppiipt3iyyw@4mkdddppypfiydc;1f337733>9t990f>$vxiidjdy80yfpj8",
"zvt033333033333+-k996399309,<2p;-3-***-::***==<@-k9999999yu92<y4",
"cj99r3333333333++d992290r099<<t-#3=**::*===*#=,+;d29><2929922261",
"spr3323<233232i%$99<><9230930,9=#2:=:::*=:==**:@>t2<,99923322<30",
"ipy92<2<233233t$+99992<<3999392<@2::::>***=*=*=@,0<9999932222<37",
"7yrr2<<222>2223@o92292<<232330q$#1:::>:==*===**=;t999999922<<<37",
"70ry3<<<,>22>13=#922<2<<<33222t=#2>>>:::=======o>99999999222<237",
"3rry3,<2<,22,<3>#9<<33<,,<929<9=@32,<>:>:=:=:::@,9999tt93322,,37",
"1r3rr2222,,,,,,@*9<9<<<<<<<2929:+2>:>>>>>:>:::<*>999999932<22<27",
"4yr33323<<2,<22O=92<3<<<2222229:*,:=::>,><>::=:*=,9999232<,22<2q",
"7u3333332,22<,3+=9<2<<<<<9<>,<9-@>:::::,<>:::=>*X009993322<29<24",
"qi222333222>,,3*#9<22<2<222,<<9:+,::=::::=::==>*;92t03932333929w",
"qi3323333332>,3*+-<239299926<<9@*,====::==::==<@,t99r9rrtr92<,ti",
"1yu33233222<2,:+o,,993<9999<<--O+=><::::>><><<<@+929rt9932<<-991",
"1@+++oo+oooooo@oooooooo+oo++.O@.o..ooooo+o++ooo..$@O##@#@.O++#O;",
"%.#=1=**==*=:*+o+#=#=;,-=+ +$##X $7=$-0,    $=1$ $:,=$$$$=**=@@;",
"e8:,::>1>:>>>2r+=d099223rr,<72,##kkhkdykd060yycq+999uy2<<;,<<<9q",
"wq::*=:>:=:*==<+-y<,>,<<<>,,><2+6nu9033<9adt<<p,+2>>==***====*,6",
"1#1=:=:><:>:=:<.=9>,<<,,<,<,>><+1h9999323<<<<9u-$<->=:========-6",
"33>*===:<::<>:<+*r,,<3<,<>>>>:<+;d9993939939920-#,:=:=========:6",
"32==:==::<::=:<++<,<<3<<,>:>>>>O$p9392999999929-$>:=*=*====*==:1",
"11=====::>::==r*o<<<<<<<>::,,>>o#y9333999992999=#==@**=::=**==-y",
"21*::::><:====9o@<<<3<,,>>>,,:>@+r<3<<299939320#o$=**::::=*===,g",
"a>=:>>>:::*:::<@*<33<><,>=>>,>>@+932<<3999992,6+.**::*:>:=::**:d",
"11=:>>>>>>=:>><*@3<<<,><<>><,>>=+93<<<2329<2<<2+o*:::::::=::::>0",
"1>*=:*:::====:<@*<:=,<,,,<<>>=:=+9<,3<<23<<<<<,=+:::::*:::=:==>4",
"22==::*:===>:::+@<:**,,>>><<:=>=*932<<,<99396<,@*::>:*::::::===7",
"22:::::::=::==>**,,:=:>::>,:==,:=9<9<<,<333<<<<.*-:::::=:,,>=*:6",
"12>-:::::===:>,oo,<<::::==::==,==r9<<3<<<<<,,,9#o*:,:>:::>,==*=q",
"1--##*:::==:=>:o.<<<,<:$=:=,>,$ +<<9<<,:=@=;::9+.o+==:>-,:-==,2y",
"%  .oX.Xoo++oo.....o .oo.. o.O   oo++o.   .@+  .   .+++oooo*oo@&",
"&@--++++@@**=-=.+;;2q6=@;<4-=$@Xo:=,;#==:-=$@$,X $-=@=-$=--*==+;",
"5lrr<><<6233<pd+6nlhugd9ddddqab0-hy9yd96rr939yl;@69yrr9yq0rrqdi6",
"4y=:=>,:=>,,<,d*-h3933rr999rryh6=9,<:,<>::::==2=@12<<>:::,:=::ia",
";<=:-=>:=:>,,,u$=d93,2rr9y939rd,#9:=,,:>=:::==-+o2<,>>:>><,:,-2s",
"72--:::>>>>,>,r*-p3<39rrry939rd,=<=,:::::=:**=:+;r:-:,==>>,,::3y",
"q<:->>>,<,,,>,r+=0<2999rr99999y==<:<,>:::==***:+=3,,,:=*=><,::<7",
"0<::>>>>,<<,>><o:2<33339999399t=@<<,::>:=**=*==o@<,:>>:=:,<<>>>6",
"63:,><>><2<,>><+@3<33339939999r=@<::<<,:**:=*=:@$,,,><,>:>,,,:>6",
"02>=<<,,<<>>><9=@2<323939399939=@:::::::::::==:@><<:>:::><<:>:<9",
"62>>,,,,>><<<><=@3293999399339r$+::=::::::::==:*@<:<<<<<:<<><:,<",
"q3,::,,,>><<<<<==ur99923996<299=*>=**:::>::*==,*o><<<<<<,<<<<,<4",
"79>,=:,<<<<,<3>.$rr393329999333=*<=::::><>:::=<=@<<<<<9<::><<,<6",
"8t>>,>,<<<,>,:3$$r992,<<<299222$*<:>,>>><<>:=:<**<<<999<>==<<<<0",
"ir<::>><2,:>:,r-=y3r<2<,,>,<2<2=@>,::<<>>>>::::o=3<<<<3<<,,<<:9q",
"4t9<>:><,<23rrr+*pyrr32<<9929<<#o=:,<,<<<<<><::o@,,<<<<<<<<<><94",
"&+*@++@@*@==@@@..+++*@++oooo+.oo.oo.++o+@ooooo@o.@oooooo@oo++@O&",
"&+=:#######=;=# #21=.   =4=+#6- +===OX$*#-1%##+X.=-<,461,>,64=#%",
"49<22>-2310099tOibfi020ixydyydk=%10i2133223t7qx-@kkyyytut0tyy18e",
"69=##*=****:=:9+3d23ajkd990a9tv6+t3221>:>><>:>p-&k9993<<<22<33cw",
"8<=@#*****=*==<@,i<23339999r99i4*t:>::,>>1>>::3-+99999,,<99<06$1",
"7>**#=*:=***==3*>i2223<<<99999y>$0>1==>>222>::<*#6<99<,,,23223pq",
"6<=***::**=**:,*:y22<<><<<999<t=#3>:#:>2>>2,1>:O@t<,<<,,<,3323pw",
"8>===*::*======+:r22<,<2<<9999r#@3:::1>::>:,,>> ;f,,,2<,<,3330t0",
"w<====:=====::=.*r2<<<<<<999<<<@$2:::::=::>>::,O$y<<<222<23r30tw",
"y>=::::==*=====o@021<2<<2233222+@2::==:=>-:,::>@#3<2<<32222<<33f",
"8,::::::==:==::+.321<22,,332,,2++>:=====:=*>:>2@#<22<2<2<<<<<<37",
"6,::::=:==:::::*+332,<,,<32,212@@,===:==::::,,2@#3<<<32<22<<<<31",
"6<::::*==::::=>*X332<<22222<>>2#*1=::=:==:>>>,2++2<:<33<<223<<36",
"8<:::=========:@.332332232<,:>2=>>===::=>->>,>,=#6<<2332<<,2<,r7",
"y9:::=*:=:====:@.2y3333232,,,,2:=<-==>==>-<>,,-X#3<<<222,>,<<<33",
"8t<,::,<<:=:,2<@X$21,==:,,<2,,2@X-22<=>=-<2,:<, @,<<<2222<,,-2,1",
"861,411;;,;44;-=%%%111&%-&-111&%%%;;;&;1;;1%1-;%%-;;1;1;;-;-%;-5"
};
