/* XPM */
static char *xpm_[] = {
/* columns rows colors chars-per-pixel */
"64 64 248 2 ",
"   c #050701",
".  c #050902",
"X  c #090B06",
"o  c #070A08",
"O  c #0C0C0C",
"+  c #100E0F",
"@  c #0F100F",
"#  c #11100F",
"$  c #0E0D11",
"%  c #0F0B1C",
"&  c #110E12",
"*  c #160F1B",
"=  c #180E1E",
"-  c #0F1114",
";  c #141314",
":  c #191517",
">  c #161815",
",  c #161219",
"<  c #1A151C",
"1  c #1C191D",
"2  c #190F25",
"3  c #1D1523",
"4  c #1A1425",
"5  c #1E1821",
"6  c #1D1429",
"7  c #1B1636",
"8  c #220E2B",
"9  c #211626",
"0  c #221A25",
"q  c #22152A",
"w  c #28142E",
"e  c #241A2B",
"r  c #291D2E",
"t  c #230F32",
"y  c #241234",
"u  c #241A33",
"i  c #2A1E32",
"p  c #251438",
"a  c #29133B",
"s  c #2E1D39",
"d  c #301F36",
"f  c #311C3B",
"g  c #262327",
"h  c #2A232E",
"j  c #262235",
"k  c #2C2133",
"l  c #2F2039",
"z  c #32223B",
"x  c #34283B",
"c  c #1B1748",
"v  c #191752",
"b  c #310E43",
"n  c #330E4A",
"m  c #281645",
"M  c #24154B",
"N  c #311244",
"B  c #361A4A",
"V  c #360E50",
"C  c #281655",
"Z  c #391A57",
"A  c #352243",
"S  c #382343",
"D  c #3B2D45",
"F  c #35234B",
"G  c #3B244C",
"H  c #3E2C4B",
"J  c #3C3145",
"K  c #3F3249",
"L  c #3D2552",
"P  c #3D2A55",
"I  c #3C235A",
"U  c #3E2B5B",
"Y  c #3F3357",
"T  c #2D1A6B",
"R  c #381B68",
"E  c #391971",
"W  c #3C2062",
"Q  c #431A5A",
"!  c #41274F",
"~  c #402C4E",
"^  c #41324C",
"/  c #412653",
"(  c #432A54",
")  c #462858",
"_  c #462B5B",
"`  c #492C5D",
"'  c #413159",
"]  c #4B325D",
"[  c #471767",
"{  c #52166E",
"}  c #441A73",
"|  c #571675",
" . c #452965",
".. c #4B2D63",
"X. c #4B256D",
"o. c #4C2B6B",
"O. c #542968",
"+. c #532D6C",
"@. c #4E3362",
"#. c #4C3368",
"$. c #513564",
"%. c #52326B",
"&. c #59316D",
"*. c #4B2675",
"=. c #522B74",
"-. c #552778",
";. c #4B3578",
":. c #543372",
">. c #5B3376",
",. c #56327B",
"<. c #5C337B",
"1. c #602E78",
"2. c #623079",
"3. c #544779",
"4. c #441D88",
"5. c #5C1887",
"6. c #651886",
"7. c #691996",
"8. c #721D9B",
"9. c #492583",
"0. c #582586",
"q. c #5C3384",
"w. c #5B3888",
"e. c #4F2E94",
"r. c #662A88",
"t. c #712E8A",
"y. c #623384",
"u. c #65378A",
"i. c #71358A",
"p. c #682996",
"a. c #722A98",
"s. c #6A3698",
"d. c #73379A",
"f. c #6E18A5",
"g. c #751AA8",
"h. c #7A1CB5",
"j. c #5824A6",
"k. c #5927B3",
"l. c #6D28A4",
"z. c #7A27A9",
"x. c #6B35A3",
"c. c #7739A9",
"v. c #6728B8",
"b. c #7C27B5",
"n. c #7A38B7",
"m. c #54478E",
"M. c #594388",
"N. c #59548D",
"B. c #635391",
"V. c #726B90",
"C. c #6946A2",
"Z. c #7050A9",
"A. c #7C44B9",
"S. c #7958BA",
"D. c #7469AC",
"F. c #7662B2",
"G. c #7C1FC9",
"H. c #6C2AC8",
"J. c #742DD1",
"K. c #782CD9",
"L. c #7C31E2",
"P. c #785AC8",
"I. c #7663C9",
"U. c #7D6ED0",
"Y. c #754EE4",
"T. c #821CB3",
"R. c #8235AD",
"E. c #8326B8",
"W. c #8931B6",
"Q. c #8839B7",
"!. c #8142BD",
"~. c #8F41BA",
"^. c #827BAF",
"/. c #881EC4",
"(. c #8A29C3",
"). c #843EC3",
"_. c #8935C8",
"`. c #8D37CE",
"'. c #8A2AD4",
"]. c #992BD7",
"[. c #9436D8",
"{. c #A33FDE",
"}. c #8632E4",
"|. c #8438E8",
" X c #9735E3",
".X c #8B36FB",
"XX c #8E39FD",
"oX c #9438F6",
"OX c #8442C3",
"+X c #8549C4",
"@X c #8946CA",
"#X c #9345C7",
"$X c #8459CC",
"%X c #914ED6",
"&X c #9344DA",
"*X c #974CD9",
"=X c #A54BDD",
"-X c #8865CB",
";X c #867BC7",
":X c #9B47E6",
">X c #9A58E6",
",X c #8E41F7",
"<X c #8C4EFF",
"1X c #9342FD",
"2X c #9642FC",
"3X c #8A52FF",
"4X c #865DFF",
"5X c #895BFF",
"6X c #A547EB",
"7X c #A356EA",
"8X c #A54CF1",
"9X c #A749F4",
"0X c #B44EF4",
"qX c #A657F7",
"wX c #AC5CFE",
"eX c #B857FC",
"rX c #B35BFF",
"tX c #946AEA",
"yX c #9175E9",
"uX c #9D6CFC",
"iX c #9A79FC",
"pX c #AA66FB",
"aX c #A46BFE",
"sX c #AB6CFF",
"dX c #B668FC",
"fX c #A273FE",
"gX c #A778FC",
"hX c #938BD1",
"jX c #8E82E7",
"kX c #9389E9",
"lX c #978CF3",
"zX c #9584FE",
"xX c #9982FB",
"cX c #968AFE",
"vX c #998CFE",
"bX c #9E95FF",
"nX c #A889FF",
"mX c #BA83FF",
"MX c #A697FF",
"NX c #B1A8ED",
"BX c #A9A0F2",
"VX c #ADA5FF",
"CX c #B0A6FF",
"ZX c #B5ACFF",
"AX c #B8AEFD",
"SX c #B7B2FF",
"DX c #BBB2FF",
"FX c #C5BDFF",
/* pixels */
"i z x e 0 9 9 9 9 9 0 9 5 9 9 9 9 4 3 5 1 4 < 1 < 9 3 , 5 k k z f f x 0 : , = , : ; 1 < * * : , , = ; , ; = ; , & = ; , & e i r ",
"e k l i i i i i i e 9 e e u e q e q w w w 9 r i w q q w q k z f i l k 0 0 9 9 e 0 0 1 4 9 5 9 9 9 = 3 3 4 9 3 3 3 9 5 1 9 r k r ",
"9 0 h &.i.i.i.i.i.2.S 2.y.%.$.@.$.&.i.t.t.Q d.J.p.O.>.t.O.s z k l k h r.#X#XQ.R.R.~.&.d.Q.~.~.~.#X-X;X;X;X3.^.;X;X;X-X#XS.k r i ",
"< 1 0 X.t.a.i.d.d.y.D q.s.<.>.:.$.:.r.r.<.Q t.a.y.@.1.a.O.r s z l s 0 Z.eXeX7X=X=X0Xd.#XeXeXdXdXdXnXVXCXAXV.ZXFXFXAXMXnXyXx r r ",
"1 1 1 -.z.z.W.R.R.y.A w.w.w.w.q.%.=.>.<.+./ <.=.+.O.t.W.r.s z f z d e C.wXwX0XdXdXdXZ.-XmXgXnXnXnXMXZXZXDXV.NXDXSXBXMXlXkXD h r ",
"9 1 1 5.h.E.W.(.Q.s.F ,.:.;.:.:.%.#.#.#...A %.......l.].z.i z z d d r C.aXaX7XgXMXMXV.hXDXVXMXCXCXVXAXAXDXV.NXAXSXMXnXmXyXx r r ",
"1 9 < | f.f.g.R.W.i.A %.$.$.$.$.$.$.#.#.` A o...#...a.(.a.f z k l f e C.fXlXMXVXDXFX^.hXFXDXDXDXDXAXAXAXDXV.NXAXZXMXdXeX7Xz h s ",
"5 1 1 5.g.f.g.g.R.s.H w.<.y.<.<.>.2.>.>...F q.q.:...2.r.O.k s k l l r c.pXdX7XpXnXNX^.hXDXCXCXZXVXVXVXVXCXV.BXVXVXnXeX=X=Xx r r ",
"0 1 < v.L.K.'.K.K.'.| x.q.y.2.2.2.>.1.>.) B <.=.` ( ` O.~ l i z l l r t.=X{._.#XtXjXB.F.lXkXkXjXjXjXjXjXjXN.jXkXjXyX*X`.`.k f r ",
"1 1 1 4 2 * 2 = 4 9 5 q e q q e q q 9 9 e 1 q q e 9 9 9 9 l z l l l z r q 9 6 9 q e 9 h e q 9 5 9 3 9 9 3 1 < 6 3 1 9 q 0 g i i ",
"5 1 5 & o O O O O & $ < 9 9 0 9 9 3 9 3 9 9 1 3 9 3 4 3 9 z l z l l z 0 = < = 3 < * < < = ; = ; , , * & & , , ; * , ; - ; r h r ",
"5 1 5 & O O O O O O & , = 1 3 5 5 < 4 3 3 9 5 3 < = 3 < 1 f f z l s l g = < < ; < < < < < ; ; < , ; , , , , ; : ; * * & ; r i i ",
"< < 1 : : & , , ; & & * 3 q i l z z f z k 0 z k s i i i r f z z l l z r i i i i u i e e i r k q r r w e e 3 0 q e 6 q u w r r k ",
"1 4 5 9 9 9 9 r 9 9 , 5 i A ( @.$.$.$.$.] ! $.$.$.$.@.$.~ f z z l l i ~ ..` ` ` ` ..S / ` ) _ _ _ _ ) _ ] k ) ( ( ( _  ._ i r i ",
"1 1 1 0 e 9 q q 9 5 * < 4 e s H ] ] $.$.] x $.] @.] ] @.~ k z f l l k D ` _ _ ) ) ` f G ) ) ( ( _ ) ` ....m ' ..` ....#._ i r k ",
"0 1 5 0 e e 0 9 9 9 = < 3 9 e z ! ] $.$.] z $.$.$.@.@.@.~ z z z z l l D ) ) _ _ _ ..A G ) ) _ ( ( ) ) ` ..f _ _ ` U _ ] U i k r ",
"1 1 1 0 0 e 0 e e 1 = 1 1 < 3 q s G ] ] ] z $.$.$.$.$.] ~ z z z l l i H ` _ _ _ ....A L  .) P ( ( / ( ( ( i ! ! L ( U ) P i k r ",
"1 1 5 0 q 9 9 9 0 0 < 9 9 9 < 3 e s G ` ` x $.$.$.$.] $.~ z x f z l k D ..` ` _ ` ..A L ) _ _ ( ( ( ( L ! s ! / / ! ( L F r i i ",
"1 1 5 5 e e 9 9 9 0 = 3 5 9 3 5 9 q l H ( z $.$.$.$.$.$.~ k z z z z l H %.o.o.O.o...A L ` ` ) ) ) ( ( ) ) z ! ! ( / _ ( G r h i ",
"5 1 1 5 < 1 5 1 9 1 ; 3 < < < = < < 9 r s i ~ ( ~ ! ! ( D s x z z l l A ( ! L L G L s A L L L G ~ G G G F r S B A z B z l h i r ",
"1 5 5 ; + & $ $ $ $ O $ O $ $ O O $ & O ; , < 4 5 3 < < 5 z z x z z l 0 < = < < < < < < < , , * ; , ; , , , : = , = & * , r i i ",
"< 1 1 ; + + O $ $ O & O $ $ $ $ O O O & $ & , = 9 9 9 3 3 l A z z z l 0 < 5 3 < 5 < 3 4 < < < < < , < , < , < < , < < < < e k r ",
"3 1 1 $ o O X X O o O O o o O O O O X X X O O & < < < < 5 z x z z z x 5 , , , & , ; , < , , ; ; & & , ; ; , & ; ; , ; ; ; e k r ",
"1 1 1 F U ) I ) U U u I U I B a a a N Z N y V Z Z B ( ..F l x z x l l D H / / / L ) f B G F L ( G G G B G i B G G G G B G h u k ",
"5 1 1 Z.I.I.I.I.I.I.;.F.I.I.n.0.{ *.l.b.l.} b.b.b.p.s.%Xy.k x z l x k ' 2.3.>.:.:.>.L ..:.#.&.%.%.+.%.%.$.F ..+.+.%.%.+. .i r k ",
"1 1 1 U.vXcXcXcXzXvXN.cXvXxXqX&X`.l.'. X'.5. X}. Xb.OXwXs.j z z x l k ' <.<.<.<.<.w.P ..=.:.:.:.%.:.%.%.>.F o.:.%.=.:.:.#.i k r ",
"1 1 1 U.vXzXzXzXzXcXN.jXvXzXaXpX:XtXfX[.b.-._._._.n.@XwXx.h z x A x k u.8X8X0X8X8X8Xs.Q.@X+X+X+X@X+X+X+X%XM.A.OX@XOXOX@X@Xz h i ",
"1 1 1 -XsXsXaXaXaXuXw.tXfXzXiXiX8XvXVX%Xp. .l.x.x.l.OXwXs.q k z z z h u.0X0X9X9X9X9Xx.OX%X@X@X@X@X@X@X@X%Xs.%X*X*X*X*X%X*XA e r ",
"1 1 1 !.:X:X:X:X:X:X0.:XaXzXzXfX&X*XqX).x.*.n.n.n.n.@X2Xy.5 k k z x h q.@XOXOX).).`.y.c.!.!.!.!.!.!.!.A.%Xw.7XrXwXrX7X6X@Xl h r ",
"1 1 0 c.b.a.p.l.l.l.Q b.wXiXiXwX:X:X:X:X&Xp.2X9X6XoX:X X0.1 q g k z h q.`.A.).).).@X0.x.@X&X&X&X&X&X&X@X*Xs.qXrXrXwX:X&XA.r h i ",
"1 1 1 o.B N N N N N 3 Z *.;.;.*.{ =.-.=.*.B -.*.*.-.-.X.p < 1 q r l k P X.o.X.X.X.X.B U X.=.X.=.=.X.=.=.-.B =.=.=.=.o. .Z k r i ",
"1 1 5 - o X o o X X O X .       o         o             O 1 5 3 9 e k 1 ; ; ; ; & ; , ; ; ; ; & ; ; ; ; # ; + + & O # ; ; 0 k k ",
"1 1 1 ; O $ O + O O O $ O O O @ O O o - O $ O $ O $ O + - < 5 < 5 0 j 5 < < < < < < 3 4 < < < < < * 2 , , < < , , < < , * e k h ",
"1 1 1 & O $ O & $ $ $ $ ; O O - $ $ O O O O $ O O O O O O 5 < 1 1 5 5 1 , 4 < 3 1 < < < < 2 < < < < , 2 4 , < < < 2 1 1 < r i i ",
"1 1 1 w Q [ [ } E *.a Z E 9.9.9.9.9.9.9.} C 9.*.9.*.*.R 7 < < 5 1 3 1 u I =.,.,.,.w. .<.w.M.u.w.M.w.M.M.M.P M.M.w.w.M.M.3.i k h ",
"1 1 1 Q 7.f.f./.(.f.b m *.J.oX,X,X1X1X1XL.9.<X1X,XXX1Xv.M ; < < 1 1 < l X.*.,.,.s.S.3.B.F.S.F.F.F.F.D.F.F.#.D.Z.s.C.C.d.y.i h k ",
"< 1 1 5.'.G.G.9X0X}.[ } p.L.3X<X3X<X<X<XY.9.Y.5X<X3X<XL.C > < < < < , A *.*.*.*.n.sXC.P.aXuXfXaXuXcXcXcXvXN.kXiX:X*X*X7Xn.k u k ",
"1 1 1 Z g.T.7.f./.h.n m e.,X5X5X5X5X5X5XY.m.Y.4X4X4XY.&XI ; < 1 5 1 > I 0.*.9.*.P.qXC.+XqXqX7X>XgXbXMXbXbXB.lXgXaXaXaXsX+Xl h k ",
"1 1 1 B 6.8.| | 7.g.b 7 9.oX3X3X3X5X3X3XY.e.5X3X3X5X5X|.Z ; < 1 1 1 > X.l.l.p.*.e.s.X.w.C.s.x.A.uXcXvXvXbXN.yXaXgXfXfXfXA.i i k ",
"1 1 < f 6.7.| { 6.7.p u X.}.2X2X2X2X2X1XL.e.1X1X1X1X1XJ.C ; < 1 1 1 ; *.G.G.p.R Z R m I o.*.X.c.pXiXzXzXxXN.yX>X%X&X&X>Xc.i h k ",
"1 1 1 f | | | 6.g.6.q 9 Z b.}.}.}.}.}.}.K.5.|.}.}.}.}.k.n < , 1 1 5 ; | /.h.5.[ } { V R | <.X.w.:XaXuXuXuXm.>Xn.q.q.q.q.-.i l k ",
"< < 1 > 3 8 8 w m w & , 2 t a y p y p y t 2 p p y y a 2 4 < < < 1 1 1 e t t 4 4 2 8 = 9 8 q q e B F G F F j m i e q q q 6 r k k ",
"1 < 1 # X X O X . O O O o o o . X o . . . O o X X X X X O 1 1 1 1 1 1 ; X X O O O O X O O $ & & - ; - ; ; , ; , ; , < ; , u h i ",
"< : 1 @ O O O + O O O O O O O O O O O O O O O O O + O O # 1 < 1 1 1 1 ; O O O O + & O O O + & , , < < < < < , < , < < < < e h h ",
"< 1 1 - O + + & # ; O - + + + + & # @ @ & O ; O # + & + & < 1 1 1 1 1 ; & & ; ; & + & & & & & , < 4 5 3 3 3 5 5 5 5 1 5 1 0 k k ",
"> > 1 > : : : < : : ; ; < : 9 9 0 < : : : & < < : : < : < 1 < 1 < 1 1 5 9 9 9 9 e 0 = 9 9 e 9 q u z D ! K i J H K K ^ ( D h j k ",
"< > 1 > # @ > ; ; > @ ; > ; 1 q < : ; > ; O ; # ; ; ; ; : 1 1 1 1 1 1 0 9 9 9 9 9 e = 1 9 9 4 9 w i S ~ ^ i H ^ ( ^ ~ ^ J h h h ",
"< < 1 > > > ; > > ; # ; : : 9 w 9 ; > ; : # > > ; ; ; ; : 1 1 < 1 1 1 9 9 9 9 9 e e ; 9 q 9 9 9 9 w i x H k ^ ^ ^ ^ ^ ^ J j h h ",
"1 < 1 1 ; , : < : < + : : < q w 9 ; ; > ; + : < : : : : : 5 1 1 1 < 1 5 9 9 9 q 9 q , 5 q q 9 9 9 9 9 i x r ~ ^ ^ ^ ^ ^ x h h h ",
"1 1 < > < 1 1 < 1 < & < 1 < 9 8 1 ; ; > : + : : : : ; ; : 1 1 1 < 1 1 0 9 9 9 5 9 e < 5 e 9 9 9 9 9 q r z 0 D ^ ^ ^ ^ ^ J h h h ",
"1 < 1 > < 1 5 1 5 9 & < 3 9 9 8 < ; ; ; ; + : : : : ; # : 5 1 1 1 1 1 1 9 q 9 3 9 0 , 9 0 q 9 3 3 9 9 w r 9 x x x J ^ ^ K h h x ",
"< < < > , < , < < < ; < = < < < < ; ; ; ; + ; ; ; ; ; ; ; 1 1 1 1 1 1 0 9 9 9 3 9 0 < 5 0 9 9 5 3 3 1 9 0 < e k x x x x J g h h ",
"< 1 1 @ - @ # @ + & + O + + + + $ O O O + O + + + + O O & < < < 1 1 : : $ $ $ $ & & + & - O & + + + $ $ & & O & & ; ; > > g g g ",
"< > 1 @ O O O O O O O O O O O O O O O O O O O + + X O O @ < : 1 1 < < ; O O O O O X O O O @ O O O O O O O O @ O O $ O @ > g h h ",
"< < > O . X O X X O O O X O O o O X O O O o X X X X o X O < < < 1 < 1 > o O O O O O O O @ O - o X o o O O O O O O O @ X @ 1 g g ",
"< 1 1 0 6 q 6 6 q q = q 9 , = = = , = = = & = < 9 9 q 8 < 1 < < : < < : % , - - $ $ $ ; - - - % t a 2 * 2 $ 2 % & ; # # > g g g ",
"< < > F P P P P U P 7 P F u s s d d f d w q B ! B B L B s 1 < < 1 > > 5 7 7 7 c M V y m C M m Z 4.j.R 7 7 4 7 u q q q 6 3 1 1 5 ",
"< < > Y ' U ' ' ' ' j Y U B s a a f f a a 8 B G Q Z B Q F > < 1 < < 1 7 c 7 C e.j.k.E 4.j.j.j.v.v.J.4.7 5 ; 3 3 5 6 3 6 6 1 < 1 ",
"1 < < S.tXtXtXtXyXyXm.U.7Xc.d.R.r.r.5.r.-.Q E.(.(.E.T.'.Z., : 1 < < > 7 v c T K..XXXj.H.XX.X.X.XXXXXk.c < , 6 6 6 6 6 6 5 < 1 > ",
"< , < -XgXfXfXfXnXiXN.yXpXQ.*XeXz.l.z.b.R.{ W.]. X(./. Xn.> : : < 1 : j v v T L..X.Xj.H.XX.X.X.XXXXXk.c 4 2 a a a a m a u < 1 < ",
"< < : $XsXpXpXaXiXiXm.tXqXc.r.W.W.[.E.(.E.{ E.(.].T.T.].z.; ; < < 1 < 7 M c T k.J.J.4.k.H.H.L.L.}.L.j.c 4 2 b n n V n n q , < < ",
"< : > %XrXrXrXrXpXuXw.uXwXp.{ 8. XsX:XT.g.Q 8.T.E.T.T./.a.> 1 1 < < < u M p M E T E M C E 4.H.J.J.H.4.7 = 2 n b n n n n 2 < > < ",
"< 1 1 s.c.c.n.c.n.A.X.c.a.Q a [ p.A.p.{ { b [ { | { { | [ > < < < 1 , 4 2 2 2 2 2 2 % 2 2 M } } } E C % & & 8 8 8 8 2 2 , < < < ",
": < > X . . .       X   X X O         X X X X X o o X X O < > < ; : , * O $ o o O o o o o o     o   o o O O o o O o O O O > , > "
};
