/* XPM */
static char *out[] = {
/* columns rows colors chars-per-pixel */
"64 64 233 2 ",
"   c #010102",
".  c #0B0103",
"X  c #040906",
"o  c #0B0906",
"O  c #04040A",
"+  c #0B020B",
"@  c #030A0D",
"#  c #0A0A0D",
"$  c #130103",
"%  c #1B0104",
"&  c #14020B",
"*  c #1B020C",
"=  c #0B130D",
"-  c #040613",
";  c #0C0312",
":  c #030B13",
">  c #0B0A12",
",  c #0A0519",
"<  c #030D1B",
"1  c #130314",
"2  c #1B0413",
"3  c #1E0815",
"4  c #140219",
"5  c #1B031C",
"6  c #031114",
"7  c #04131C",
"8  c #041C1D",
"9  c #081B19",
"0  c #131313",
"q  c #1A1313",
"w  c #1D1A16",
"e  c #15151A",
"r  c #1C1519",
"t  c #161919",
"y  c #1B1A1C",
"u  c #220305",
"i  c #24040B",
"p  c #2B040B",
"a  c #27090E",
"s  c #2D0B0F",
"d  c #33080C",
"f  c #230214",
"g  c #2C0415",
"h  c #200815",
"j  c #230419",
"k  c #2B021C",
"l  c #24091A",
"z  c #2B0A1D",
"x  c #330316",
"c  c #3C0C13",
"v  c #360618",
"b  c #21141C",
"n  c #3F1116",
"m  c #06241B",
"M  c #0B221D",
"N  c #050C27",
"B  c #170423",
"V  c #1C0424",
"C  c #041424",
"Z  c #0A1522",
"A  c #051B24",
"S  c #05152A",
"D  c #0A1628",
"F  c #041B29",
"G  c #0A1D28",
"H  c #171B28",
"J  c #051833",
"K  c #171837",
"L  c #1C1C3D",
"P  c #220324",
"I  c #28052B",
"U  c #340E23",
"Y  c #3C0C25",
"T  c #33092C",
"R  c #271523",
"E  c #3C182C",
"W  c #2B0936",
"Q  c #350737",
"!  c #201539",
"~  c #22153B",
"^  c #032225",
"/  c #02222C",
"(  c #0A232E",
")  c #132728",
"_  c #052332",
"`  c #0A2432",
"'  c #042B36",
"]  c #0A2A34",
"[  c #05253C",
"{  c #0C253D",
"}  c #092C3C",
"|  c #09333D",
" . c #093A3D",
".. c #242424",
"X. c #42040D",
"o. c #430816",
"O. c #480818",
"+. c #510A17",
"@. c #520F1A",
"#. c #471514",
"$. c #4A141A",
"%. c #49191B",
"&. c #5A1517",
"*. c #54151B",
"=. c #561D1F",
"-. c #611115",
";. c #420D29",
":. c #490E2D",
">. c #540C24",
",. c #4C132C",
"<. c #461A2A",
"1. c #5C1C24",
"2. c #541729",
"3. c #5B1D29",
"4. c #430C34",
"5. c #4C0E32",
"6. c #4A0D3A",
"7. c #530C3C",
"8. c #590D3A",
"9. c #4B1131",
"0. c #451D32",
"q. c #541135",
"w. c #5C1432",
"e. c #5C123D",
"r. c #621D24",
"t. c #6A1A26",
"y. c #6C1D2C",
"u. c #751B2A",
"i. c #681739",
"p. c #791B39",
"a. c #51222F",
"s. c #632125",
"d. c #6E2427",
"f. c #632329",
"g. c #6C222A",
"h. c #75252C",
"j. c #7B2A2D",
"k. c #2F0D4D",
"l. c #380D4B",
"z. c #360F55",
"x. c #26185A",
"c. c #34185A",
"v. c #092647",
"b. c #0B2B42",
"n. c #192443",
"m. c #12264C",
"M. c #122C48",
"N. c #0B3343",
"B. c #0A3B49",
"V. c #123A43",
"C. c #0A2D51",
"Z. c #0C3A57",
"A. c #173352",
"S. c #103063",
"D. c #113864",
"F. c #362B78",
"G. c #25347B",
"H. c #450C4B",
"J. c #4C0D4E",
"K. c #590D42",
"L. c #4B1542",
"P. c #511247",
"I. c #5A1245",
"U. c #4D0E53",
"Y. c #560F5A",
"T. c #43115C",
"R. c #4F115F",
"E. c #631247",
"W. c #681654",
"Q. c #6E185A",
"!. c #76195B",
"~. c #662846",
"^. c #702A4F",
"/. c #68265D",
"(. c #792955",
"). c #561664",
"_. c #5C1C7A",
"`. c #7F1B64",
"'. c #6A1D76",
"]. c #711D7A",
"[. c #482377",
"{. c #5A2278",
"}. c #0B444B",
"|. c #07484A",
" X c #0C4255",
".X c #0A4C53",
"XX c #0E4E50",
"oX c #0D4B5B",
"OX c #0A5658",
"+X c #0A525C",
"@X c #134569",
"#X c #0C5C65",
"$X c #0E546A",
"%X c #0E596A",
"&X c #0C5573",
"*X c #0C6169",
"=X c #0D6775",
"-X c #14687C",
";X c #17767E",
":X c #811D36",
">X c #86292E",
",X c #872135",
"<X c #952838",
"1X c #A42E44",
"2X c #851B68",
"3X c #14807E",
"4X c #7A1D80",
"5X c #1A4382",
"6X c #18598A",
"7X c #1F5995",
"8X c #204B8B",
"9X c #18658C",
"0X c #0B7082",
"qX c #167689",
"wX c #196B97",
"eX c #177A97",
"rX c #177CA6",
"tX c #851F83",
"yX c #982492",
"uX c #0F8180",
"iX c #168588",
"pX c #138A89",
"aX c #198794",
"sX c #198399",
"dX c #1C9A9C",
"fX c #27868A",
"gX c #1C80A5",
"hX c #2686A6",
"jX c #2689A1",
"kX c #2899A3",
"lX c #3A93AD",
"zX c #28A3AD",
"xX c #2BB0B9",
/* pixels */
"..0 0 0 0 0 0 0 0 0 0 0 0 q E E 0.0.0.a.~.~.^.^.^.(.(.0.b r e 0 0 0 0 0 0 0 0 0 e e q 0 e e e q 0 0 0 0 0 0 0 0 0 q 0 0 0 0 0 ..",
"#                         . 9.& . $ . & 2 f f x x x E.K.* .                                                                   # ",
"0                         $ <.& . .     . $ & * i f i.K.* +                                                                   0 ",
"0                         . E +                 + * 5.q.& .                 X     X X @ X   X O   O     O                 O   0 ",
"0                         . Y .                 . & ,.9.$ O                     X   O O   X O   O                             0 ",
"0                         . U .                 . % ,.q.&                   O @ @ @ @ @ : : @ @ @ @ O                         0 ",
"0                         . U .                 . $ ,.w.$ .             X X @ : 7 7 8 7 7 7 7 8 7 6 6 : O   O O       O       e ",
"=                       . . U $               . $ $ 2.w.* .               X 6 6 8 A A ^ ^ / / / / F A 8 : : O                 0 ",
"0                         . z .                 . $ w.i.*                 @ 8 }.+XoX.X.X.X.X+XOX#X*X#X#X.XC :                 0 ",
"0                         . z .                 . $ 3.y.% .             @ : ' aX*XXXB.V. . .}.}.XXOXOX*XaXB.C : O X X         0 ",
"0                           l .                 . $ r.g.*                 : | -XF 6 @               O : #X XC O               0 ",
"0                       . . h                   . . 1.y.% .               @ ] %X7 @ @               O @ Z.B.C O               e ",
"0                           3 .                 . . r.g.*         X     X @ / oX7 @ @ O O   O O   X O O b.b.7 O     O       O e ",
"=                       . . 3 . .               . $ =.g.% .             X : G B.< O O O   O O   O       ` [ < O               0 ",
"0                       . . 3 . .               . $ g.t.% .               @ G N.@   O                   F ` < O O     O       0 ",
"0                       . . l & $               . $ s.s.% .             O O D V.: O - O O O O O   O     C F : O         X     e ",
"0                       . . l 2 & .             . $ s.h.% .               @ C b.: O O O O   O   O       C F - O               0 ",
"0 .                     . $ z & .               . % s.h.u .               O C [ O                       7 C - O               e ",
"0 $ .                   O . l . O         .     $ $ r.h.u . O           O @ C v.- O O O O O O O O       < C - O     O         e ",
"0 % $                     . 2 .       . . . . . $ $ s.h.i $               - C [ O   O       O           7 S <                 0 ",
"q a %                       O . .     O .     . . % d.h.p $ .         X O : S v.O                       < C < O   O           e ",
"q s % .                       .       . . . O . . p h.j.a $               - S C.< - - - O - O O O   O   7 F < O O   O         e ",
"q s % .                     . O       . . $ . . & i h.<Xx %               - J Z.< O O O O               < F : O       O O     e ",
"q n u .                     + .       . . . . . . $ s.h.u $ .         X O O N C.O X : O   O   O O O     < C : O               e ",
"0 n u . .                 . 2 + .     . . . . . . . %.%.. .                 , v.  O : : O O       O     7 C - O O O O   O O O e ",
"q #.p $ . .   . .   . . . . 3 & $ O   .       . $ . %.%..                   - m.    : O O   O     O o O < C O       O O O     0 ",
"q $.s $ $ $ $ $ $ $ % $ % * k 2 & . . . . . . . $   =.%.  .               X - m.    : O O   O   O O X # C 7 O                 0 ",
"q #.p $ % % % u u u p d p k Y f 2 . . . . . O . . o 2.%.$ . $ . . . . . .   , m.    O O                 Z C O O O O O O O O - e ",
"q p o.%.*.1.s.r.r.t.u.:X<X>.;.i * . . . . . o . $ $ =.@.% u u u * % $ $ .   # n.          O       O     < Z @ O     O O O   O e ",
"q . $ % % u u p u p c +.1Xu.x f * .   . . o . . $ $ r.u.#.+.@.@.*.O.O.v x f 2 !     O X             O   : : O                 0 ",
"q . . . . . $ $ % i x o.<Xu.x g * . . . . . . . & % y.1X,X:X:X:Xp.p.p.i.w.:.P 2 + + + O O O O . O . O O - , O O O O O O - O O e ",
"0         . . . . $ i a :X&.i * +     .     . $ $ * h.p.O.o.v v x x g g 2 * * * 1 2 4 2 4 4 4 4 4 4 4 4 ; , O O     O         e ",
"0                 . $ $ j.#.$ .                 . $ s.t.p i i * * * & $ & & & 3 2 5 j 5 j V 5 5 4 5 5 5 1 ; O                 0 ",
"0                   $ % j.#.$                     $ 1.r.$ . .           O   + 1 Q ].).T.z.k.k.k.k.z.c.T.).I ; O               0 ",
"0                   $ $ j.#.$                     $ 1.*.$ $ .             + ; 5 U.yXH.Q I V V B V V I W '.J.4                 0 ",
"0                 . $ % >X+.$                   . $ %.#.$ . .             O 1 j U.2XQ P 4 2 1 1 ; 1 1 B '.Y.5 +               0 ",
"0                   $ u <X-.% .       .   . . . % % =.#.$ .               . + 5 U.tXQ P 1 + + . + O ; 4 '.Y.V ; O O O   O O O Z ",
"=                 . $ % >X-.% $ .     . o   $ $ % u =.%.. .             O + 1 V U.tXI V ; O   O O + ; 4 ].Y.V ; O           O 0 ",
"0             . . . % % u.,Xt.1.2.1.1.3.3.f.f.f.d.s.f.s                 + + 1 5 H.tXI 4 ; + O O O ; ; 1 {.R.I ; O             0 ",
"0         . $ % u u p d X.+.+.O.o.o.v c c n n d n d u .                   O ; 4 H.4XP 1 O           O O [.T.B ; O O O - O O   0 ",
"0       & U ;.,.w.i.p.p.j.p.p.p.p.i.p.5.i u * % $ . .                     O + 4 l.].P 4 O O O O   O + - [.T.B ; O     O O O   e ",
"0     . l z . $ % % % u p d p p g x q.!.g 2 & . .           O   X     X O O + + Q '.V 1 + O O O O O + O F.z.B ; O   O     O O 0 ",
"0     . l h       . . . . % $ $ & * 7.2Xk 2 .                 O   O O   O + + + W _.4 ;               O G.x.4 - O O O O O     e ",
"=   . . l h                   . . * 7.!.g * $             O - - - + - + + ; ; + W _.5 1 O O   X O O - - G.x.4 - > O           e ",
"q   . . 3 2                     . & 6.`.j & +           @ M.M.M.n.L L K L ! ~ ! c.[.B , O           @ - 5Xx., O O > O         e ",
"0   . . 2 1                     . 2 K.2Xk & .           ` rX@XA.n.n.L L ~ L L ~ c.[.4 - O           O O 5XS., O O O @ O O     0 ",
"0   . & 1 1                     & f K.2Xk & .           N.eXS - O               K F.B , O O       O O - 5XS.N O   O O - - O O e ",
"0   . & & &                     + j K.2Xk 2 . O       O N.eX[ 7 O O             K 8XN , O         O O < 6XZ.< O O     O O O   e ",
"0   . . 1 #                     . 2 K.`.j 1 & .         } eX[ C O               v.7XN ,             O < 9XD.N - O     O   O   e ",
"0     . & #                     + * 6.!.2 * . .     X O N.qX_ < O   X X X O O O m.7XJ < @         O : S 9X@XS O   O O O       e ",
"0   . . & &                     + + 4.Q.2 * +         O | -XC - O               K 7XN - O         X : C qX$XC O O + @ O O O O e ",
"0   . + 2 1                     . & 6.Q.j 2 + . O     O ( @X7 - O               b.6XS - O O       @ : C wX&XC O @ O @ + O O @ e ",
"0   O . j 3                     + * 6.W.2 * + .       O ` Z.7 @ O X O X X   O : N.6XJ Z > @ + O @ : 7 _ sX&XC O   . O O O ; # e ",
"0   . $ j 3                   . & 2 6.Q.2 1 + . .     O A N.: O               O N.wXJ C O   X     O 7 F sX&XC O O O O @ # > @ e ",
"0   . . 3 3   . . . . O .   . & 2 j 6.!.j 2 & . .   X X A } :   O O         X O C.wXJ < :         O 6 / sX%XF O   O O > + O + e ",
"0     . & &   . . . $ & $ + & * j k 6.Q.2 1 . O .     O / N.: # o @ @ X # @ @ 6 Z.rXv.D @ O O X O X : / aX=X_ > O   @ + @ O O y ",
"0       & 3 & f Y ;.:.:.:.;.5.7.K.e.W.W.1 & . .   o     A  .O @ O @ @ X @   O : Z.gXC.C O           @ 6 aX0X/ @   X O . @ +   H ",
"0       o & 3 z 9.q.w.e.8.5.8.I.E.K.E.I.+ + .       X   ] #X: @ @ @ @ @ X X X @ { D.< O             O : qX0X_ @     O X O   X r ",
"0               . $ & $ & $ & & 2 & T L.. O   O   o X X V.iXm 8 m m 8 8 6 @     Z b.                @ 6 ;X=X_ @ O O O   # + # y ",
"0           X X     O       . + . + T P.. O   . .   X o V.dX|.|..XOX|.|. .A @ O D b.  X O         X : 6 ;X*X/ : X   O O O O @ y ",
"0 O O @ 6 ^ B.qXX               + + T P.& . . O   .   o ) 3X3XuXpXpXpXuXOX .} ` ` 7     X   O     O : A ;X+X/ 6 O O O O O O O Z ",
"e O O : 7 / |.aX@               . + T P.& + + . . . . o o = m m m m m m m 9 6 @ @ X X X           O : ^ ;XOX' 8 : : O O O O : H ",
"G A _ ] ' }.#XdX@               + . T P.+ + . o     . . o o = = = = = = = = X X X X X             O 6 ^ aX=X}. .' ( G 7 A D F M.",
"lXjXjXjXkXzXxXkXt 0 0 0 0 0 e r r b L./.R R b b r w w b q w b w w w w w w w w w 0 e e e e e e e t y M ) fXxXzXkXjXjXjXjXjXhXhXlX"
};
