/* XPM */
static char *out[] = {
/* columns rows colors chars-per-pixel */
"64 64 256 2 ",
"   c #09173C",
".  c #14123C",
"X  c #38193F",
"o  c #110E49",
"O  c #091746",
"+  c #05154B",
"@  c #0A154B",
"#  c #0B1A4D",
"$  c #12134D",
"%  c #12184A",
"&  c #0D1553",
"*  c #081757",
"=  c #061B54",
"-  c #0B1C54",
";  c #041C5C",
":  c #0C1C5B",
">  c #131453",
",  c #121A54",
"<  c #131C5C",
"1  c #18185A",
"2  c #241550",
"3  c #241659",
"4  c #371657",
"5  c #0A2149",
"6  c #17244B",
"7  c #092254",
"8  c #05225D",
"9  c #0C225D",
"0  c #192557",
"q  c #12225C",
"w  c #262E58",
"e  c #051D64",
"r  c #0C1C63",
"t  c #061B6A",
"y  c #0B1D6B",
"u  c #1A1565",
"i  c #131D64",
"p  c #1A1B64",
"a  c #131D6B",
"s  c #1B1C6A",
"d  c #0B1D72",
"f  c #171C75",
"g  c #241563",
"h  c #241A65",
"j  c #2A1A65",
"k  c #241C6B",
"l  c #2A1D6C",
"z  c #3B1B69",
"x  c #281B76",
"c  c #351C7B",
"v  c #042363",
"b  c #0C2264",
"n  c #05236B",
"m  c #0C236B",
"M  c #072A69",
"N  c #0B2B6C",
"B  c #122364",
"V  c #1B2363",
"C  c #13236B",
"Z  c #132A6C",
"A  c #1A286A",
"S  c #09326F",
"D  c #1A386A",
"F  c #052572",
"G  c #0B2573",
"H  c #052C74",
"J  c #0D2B74",
"K  c #06267C",
"L  c #0B257B",
"P  c #052C7D",
"I  c #0C2B7C",
"U  c #132474",
"Y  c #1B2473",
"T  c #142C74",
"R  c #192579",
"E  c #132C7C",
"W  c #1B2B7B",
"Q  c #093174",
"!  c #04337C",
"~  c #0C327B",
"^  c #133175",
"/  c #13327C",
"(  c #19377B",
")  c #262569",
"_  c #332767",
"`  c #243464",
"'  c #272678",
"]  c #352678",
"[  c #273676",
"{  c #343878",
"}  c #4B3274",
"|  c #453179",
" . c #194679",
".. c #364168",
"X. c #3A4276",
"o. c #43477B",
"O. c #221E84",
"+. c #052D82",
"@. c #0C2D82",
"#. c #0D2B88",
"$. c #132D83",
"%. c #1B2D83",
"&. c #192A88",
"*. c #0C3384",
"=. c #0D338A",
"-. c #093788",
";. c #133384",
":. c #1B3384",
">. c #13348C",
",. c #1B348D",
"<. c #173B89",
"1. c #0C2E91",
"2. c #152D92",
"3. c #0C3B93",
"4. c #0A3998",
"5. c #143594",
"6. c #133B94",
"7. c #1B3C94",
"8. c #183598",
"9. c #123C9B",
"0. c #1C3B9C",
"q. c #232483",
"w. c #272888",
"e. c #392889",
"r. c #27378A",
"t. c #353686",
"y. c #262B97",
"u. c #263997",
"i. c #34359A",
"p. c #093CA4",
"a. c #173CA3",
"s. c #133EB1",
"d. c #283AA3",
"f. c #3539A6",
"g. c #363BB1",
"h. c #422C82",
"j. c #4E398C",
"k. c #463E97",
"l. c #613D9F",
"z. c #463AB9",
"x. c #06418B",
"c. c #194888",
"v. c #064498",
"b. c #0C429C",
"n. c #14439C",
"m. c #18469A",
"M. c #1B439C",
"N. c #394888",
"B. c #254497",
"V. c #394696",
"C. c #374F97",
"Z. c #0D44A3",
"A. c #0649A8",
"S. c #0C4BAB",
"D. c #1B42A4",
"F. c #1546A8",
"G. c #0553AA",
"H. c #1B53AC",
"J. c #084AB5",
"K. c #1548B4",
"L. c #0554B8",
"P. c #1657BA",
"I. c #2546A7",
"U. c #3749A5",
"Y. c #3B48B7",
"T. c #2F52B2",
"R. c #2856B6",
"E. c #0767B4",
"W. c #1865B9",
"Q. c #2D65B8",
"!. c #454C84",
"~. c #474499",
"^. c #564699",
"/. c #4F5C92",
"(. c #57678D",
"). c #5C768A",
"_. c #63738F",
"`. c #626C92",
"'. c #4C4EAE",
"]. c #6559B1",
"[. c #556EB5",
"{. c #503EC1",
"}. c #1B4DC5",
"|. c #085CC9",
" X c #1559C6",
".X c #085AD6",
"XX c #185FD3",
"oX c #274CC6",
"OX c #275BC8",
"+X c #3057C9",
"@X c #0564C9",
"#X c #1465C4",
"$X c #1769C9",
"%X c #0F75CE",
"&X c #0767D7",
"*X c #1867D7",
"=X c #0572DC",
"-X c #1576D8",
";X c #2667C6",
":X c #3669C6",
">X c #2D72D4",
",X c #015DE2",
"<X c #066AE3",
"1X c #156CE4",
"2X c #0475E4",
"3X c #1A78E8",
"4X c #1578F4",
"5X c #2C79EE",
"6X c #5355C9",
"7X c #6F56D4",
"8X c #4E76CF",
"9X c #6C79CB",
"0X c #4886B8",
"qX c #1B8DD3",
"wX c #2A87D7",
"eX c #308FD6",
"rX c #19A9D3",
"tX c #15B4D5",
"yX c #1CB1D2",
"uX c #27A7D3",
"iX c #20B2D4",
"pX c #158AEF",
"aX c #1996F3",
"sX c #2E8BEA",
"dX c #3598E6",
"fX c #2785F7",
"gX c #0BA1F7",
"hX c #30ACE6",
"jX c #4D88CE",
"kX c #6388D4",
"lX c #68B2DB",
"zX c #4297E9",
"xX c #17D5F7",
"cX c #32D8F1",
"vX c #1DFEEE",
"bX c #08FCF7",
"nX c #03FDFC",
"mX c #0BFDFC",
"MX c #18FBF6",
"NX c #13FDFC",
"BX c #1BFDFC",
"VX c #27F9F8",
"CX c #23FDFC",
"ZX c #2BFEFD",
"AX c #37F2F2",
"SX c #33FEFC",
"DX c #39FBF8",
"FX c #53DAEE",
"GX c #73D8ED",
"HX c #46FCFA",
"JX c #55F5F1",
"KX c #52FAFB",
"LX c #65EEF4",
"PX c #73ECF2",
"IX c #8FD0DD",
"UX c #8CD1E4",
/* pixels */
"]._ h.~.j.l.^.k.^.~.~.k.k.k.N.t.' t.V.~.~.V.~.U.~.'.V.!.{ t.[ [ j h.^.^.^.^.^.^.^.^.^.l.l.l.l.l._ X } } h.| | h.h.h.| | } | } } ",
"g.] ] Y ' R R $.E &.$.E W ( $.u.W %.:.%.&.[ %.2.5.:.:.%.&.2.&.2.x z.$.R W Y W A a G f f f f p p _ w c $ u 1 1 1 1 1 1 > > $ , 3 ",
"f.) j G G F H K L L I @.I ~ =.u.&.<.;.>.>.:.&.>.$.@.E $.I #.I K x w.n F F F m n t n v e t e : = a 3 c o : & # # @ # @ + + O O 6 ",
"d.) ) G L H P L $.$.$.;.;.*.8.B.&.,.<.>.,.>.=.>.=.=.@.;.^ @.J I ) ' m J T U U G m b b b r r < : p 2 x & : - - - # # # + @ @ O 0 ",
"I.h Y I R E E %.:.,.,.=.3.3.7.U.,.u.7.7.0.0.9.4.4.=.=.>.=.1.@.$.x w.K J J T J m m m b v b b < : q 2 l - r : - & > & @ & @ $ o 0 ",
"B.) A I R $.W w.w.y.y.8.9.9.B.T.7.0.Z.D.a.Z.p.4.9.4.1.>.=.1.*.$.x r.H H H H H H F F H M v v v r q X l 5 : : : * & & & & $ o o 0 ",
"B.j J ~ &.;.:.r.u.u.0.a.Z.A.F.R.a.S.J.s.K.A.A.A.Z.4.4.=.-.-.+.;.s r.P +.+.I I P K L H F n n m y B 2 x 7 ; : = = * * + & @ O o 6 ",
"B.s T I I =.<.r.r.I.b.G.L.L.K.:XJ.L.J.L.J.J.G.A.A.4.b.3.3.3.-.*.U ,.+.+.+.+.+.K L @.F F F F n y C 1 k 7 ; 8 ; ; = = = + + + = q ",
"r.t U E *.-.5.a.R.XXW.&X&X*X*X1X.X<X<X2X=X2X%X@X|.P.F.F.D.F.n.3.+.D.4.4.4.9.4.0.0.5.x./ =.@.J T V < V B B r y r : 7 e 8 v 9 r A ",
"C.i.V.V.B.B.I.H.K.OXjX8X9X9X9XkXkX8XkXkXkXkXkXT.S.K.S.9.7.r.t.V.^.l.~.r.r.t.t.r.r.u.r.W =.@.H J T N b r r r : ; ; + & 1 h 3 2 _ ",
"C.N.V.B.B.H.H.:X>XjXLXJXLXLXLXLXLXLXLXLXPXLXPXFXP. X.XP.P.R.6X6X8X6X6X'.'.6X'.'.Y.Y.U.w.I.2.;.;.~ / T G C s C r : > 1 l e.c ] ] ",
"r.%.r.<.m.n.A.P.wXhXZXbXnXnXnXnXnXnXnXmXNXCXHXcX@X<X@X|..X XoXoXoX}.}.oX+XoX+XoX}.K.R.f.a.2.$.$.#.I E G m b r r * : a f d R f [ ",
"r.,.r.u.0.F.G.L.qXhXSXBXnXmXnXnXnXnXmXmXNXvXJXcX%X1X<X.X|. X X X XXX XP. XR.P.L.L.L.R.f.F.9.>.9.>.=.$.I N n b r < < s k f f f ' ",
"r.<.M.M.I.S.G.P.qXhXVXxXnXnXnXnXnXnXnXxXmXCXHXcX-X4X=X@X@X|. X|. X X|.@X@X@X@X@X@X@XQ.U.F.a.u.a.5.=.@.I I m m b i < m U L J B [ ",
"B.7.M.I.d.J.L.P.qXhXMXbXnXnXbXbXnXbXbXbXNXVXKXcX*X4X=X$X&X.X|.#X X X.X.X&X&X@X&X@X@X;Xz.P.D.d.S.n.3.>.*.E Z m b b q s C U Y a [ ",
"B.M.I.I.K.P.L.XXwXhXMXnXbXnXnXnXbXbXMXNXNXvXHXcX*X4X<X,X&X&X.X.X.X*X$X&X=X=X=X=X=X=X;X+XP.J.K.F.F.n.-.;.^ J U b q < a f L L U ' ",
"C.I.T.T.R.P.L.*XeXhXVXnXmXnXnXmXBXSXDXSXZXZXHXcX%X=X&X.X#X.X|.|.XX&X*X<X2X2X2X2X2X-X>X+X*XL.L. XF.I.7.t.' W W N : B m L K L f [ ",
"Q.Q.:X:X8X>X>XsXeXdXVXmXnXmXAXSXAXSXDXAXAXAXJXFXL.*XXXXXXX$XXX*X*X3XsX5XaXhXdXdXdXzX5X#XwX%X%X-X:X+XR.D.r.<.:.~ N B v E R %.&.t.",
">X*X5XfXsXfXfXaXpXfXaXgXgXgXaXaXaXpX3X4X4X4X=X*X*Xs.a.y.a.d.d.f.oX>X8X5X5XfXfXfXfXzX5XpX4XpXpXpX-XOX}.a.:.^ S n B = = : 3 3 0 w ",
"0XFXFXFXFXFXFXGXGXGXGXGXGXUXGXGX3X,X-XwX>X>XW.8XkX[.[.[.[.[.[.[.[.Q.lXIXUXUXUXIXUXUXGXGXGXGXGXGXGXQ.J.S.p.4.p.1.-.-.-.=.$.R V { ",
"uXHXVXBXCXBXBXBXNXMXBXMXMXvXHXJXfX<X-X#XW.P.P.P.S.F.D.K.S.S.K.P.*X3XFXZXVXVXCXMXBXCXMXMXMXBXBXMXKXeX.X|.G.A.A.4.1.;.$.&.' x O.w.",
"rXBXnXnXnXnXnXmXbXnXmXNXNXVXDXJXaX<X=X.X XF.F.S.b.b.Z.A.Z.S.s.K.|.&XcXvXbXNXbXvXbXnXbXnXbXnXnXnXKXeX1X&XL.A.A.4.-.%.R q.q.x ' ] ",
"uXVXNXbXbXnXnXNXnXbXmXbXmXMXMXHXaX@XE.L.H.F.F.M.n.3.v.4.p.F.s.s.OX*XxXnXnXmXmXmXmXmXMXCXNXmXmXnXHXeX1X=X|.J.A.p.1.$.q.w.O.x x ' ",
"qXBXnXnXnXnXnXmXbXNXNXNXmXNXbXDXpX*XW.F.K.m.n.n.n.3.9.3.3.v.A.g.+X*XxXnXnXnXmXmXnXNXCXCXCXBXmXnXDXeX2X<XL.L.A.p.9.&.w.O.O.f k e.",
"uXNXnXnXnXnXmXbXmXmXNXmXbXmXbXDXpX.X#XZ.K.a.a.9.a.a.p.8.4.b.F.I.:X*XxXnXnXnXnXmXnXmXNXMXNXbXnXnXCXqX<X<X|.J.A.9.8.%.w.x ' x O.y.",
"rXmXnXnXbXbXnXmXbXmXmXmXbXbXmXDXpX|.L.A.s.3.3.3.=.=.1.4.4.4.Z.D.OX#XxXnXnXnXnXbXbXmXNXNXNXbXnXnXZXqX<X=X|.J.p.9.4.2.&.&.w.O.O.e.",
"uXZXBXZXSXSXSXSXDXDXSXSXZXSXSXKX3XJ.K.p.9.b.9.9.9.9.4.9.9.b.Z.F. X|.xXNXNXBXZXZXZXSXSXSXSXSXZXCXKXwX@X.XJ.J.S.F.9.6.5.:.r.' ' h.",
"W.qXrXuXuXiXuXrXyXyXyXyXyXrXrXuX@Xs.6.:./ ^ T T T T E ^ T / &.2.p.s.qXtXtXtXyXyXiXiXiXiXyXyXyXyXuXW.G.p.4.1.*.( ;.J U C i 3 2 _ ",
"Q.wXwXsXsXdXdXdXdXdXdXsXsXsXsX>XK.:XkX_._._.`.`.`.`.`.`.(././.[.[.jXW.wXzXzXzXzXzXdXhXzXhXdXsXwXqXwXQ.T.d.r.' W t ' w.x ] _ ] ] ",
"T.P.W. X#X@X$X@X$X*X#X@X@XW.P.P.K.u.B.u.B.u.u.r.u.u.u.u.r.u.u.B.I.T.oX>X;X%XQ.W.$X$X;X%X$X$X$X#XP.F.m.m.,.( W T d i.f f u p 0 A ",
"7.3.v.b.A.G.G.G.G.G.A.G.A.A.v.n.5.<.~ =.*.*.=.=.@.*.+.+.-.1.=.1.3.3.4.K.G.G.E.L.L.L.L.L.L.L.L.A.b.n.x.;.$.I N v t q.a u < : - 0 ",
"c.=.3.x.v.x.v.v.v.A.v.v.v.v.x.<.q.:.! ;.*.=.@.=.$.;.;.*.=.=.+.=.=.3.2.I.b.v.v.G.A.G.v.A.A.v.Z.n.b.6.:.( T T m v y q.a 1 , % 0 0 ",
"r.>.6.3.3.9.3.x.x.x.b.x.3.x.>.;.q.%.P @.#.~ P P I $.$.;.^ ~ I ~ ~ ^ R i.6.x.x.v.b.v.x.b.n.6.7.6.>.>.%.W Y Z C 7 r x u & $ , & V ",
"[ T / ;.=.>.-.-.-.-.*.>.:.:.~ I Y ^ F K P H ! P P +.@.@.+.+.@.+.+.*.R i.<.-.-.-.3.6.7.,.7.6.,.,.;.~ T Z Z b 9 : 1 ] u * + & - 0 ",
"D M Q Q ~ ~ ! *.=.*.*.;.;.%./ T s E F K K K K P +.P P P +.+.+.P P P U t./ *./ *.=.;.*.;.;./ / / T T Z A B q 7 - & ) & + + + + 0 ",
"D M H +.P *.+.*.*.! ! ~ ~ ~ E I d I P K K H P ! +.! ! ! P P P P ! P U r.*.+.*.*.P +.*.-.@.~ ! P I I J G N b b : e Y e * ; e = 0 ",
"D M b N N N S T m b 9 b q q b n e n G m n v M H I E U C d G y G G a f %.;.>.@.;.*.;.~ ^ J Z N J M b b 8 9 7 7 7 = i B 9 b i B [ ",
"D 9 b q B A : { /.(.(.(.(.`._.)._._.)._.).).(./.r ' ~.^.^.k.^.~.k.k.i.i.%.@.G G m H M 8 7 7 7 7 : 7 : < , % % 7 9 : @ + + + + 0 ",
"h.q.] ' w.&.l t.N.t.{ N.N.N.N.N.!.N.N.!.N.N.N.'.t.'.7X7X7X7X7X6X6X6X+XY.I.d.8.>.>.R M v m b b m B C C Y C C V : , < - & & o O < ",
"| ] c ' O.&.z d t t y y t G y y d d a y d f d #.w.f.z.{.{.{.{.z.g.z.g.I.d.a.0.8.u.' M v b b i b B q < q < < < , , , 1 > > > $ V ",
"t.] c ' x w.4 B v v M 9 M M B B a B C C V C m @.W u.z.z.'.g.g.g.g.g.s.d.a.u.0.0.u.] r e r b a i i B B r r i : < : < - 1 & & o V ",
"e.c c ] x w.4 s e a B p B s C y C C s C Y C b U Z w.f.f.f.f.f.f.d.d.d.a.0.0.8.0.f.e.: e u i p s i i i s r < r : * < < > & & $ h ",
"h.e.c l x ' 4 p t C C C a r m m C m m C C b b L A q.f.d.d.i.u.u.8.8.8.8.8.8.8.y.f.e.: e r r i i < < q < 1 < < , , , , > & $ $ V ",
"h.c c j ' ' 4 i v : : B 9 b : q < B q q q b b U A %.y.y.y.y.8.8.8.5.5.8.8.8.8.2.i.h.; e r e r r B q : < < : 7 , , , , - @ @ & V ",
"t.W ' ' q.E 4 r ; r : : r 8 < 9 : r i : s n v L C $.2.2.2.2.2.5.4.5.5.&.>.,.,.r.e.e.e n t t e e ; 8 ; v ; ; ; = = = = = = = = A ",
":.P T Z %.R 2 J P H H ! ! ! -.-.-.! -.-.+.~ I =.v >.d.n.n.n.n.n.0.0.,.r.:.;.;.r.e.g ; F n H b v n H M n n t n v 8 v 8 9 ; ; * A ",
"6     % O , 1     O O O     O 7 5 7 7   5 # # = b < - # + + + 8 1 ) { [ [ [ X.[ { { !.!.!.!.o...0   * - & > # o % % % . . . o 2 ",
") i s f R f ' Y a C C a a y C y > y i 9 7 9 7 b Z B 9 b r n t d u i.[ r.t.r.V.N.N.N.N.!.!.o.o.{ t.f y.w.e.y.w.e.' c x l l j 4 _ ",
") p p B s s s B B q B b 9 9 U J 0 m y i m v m m m n m m M F n K f f * : : : : : : : : * : & - & 1 0 q.) k x ) l ) l l j g 3 g z ",
"` < < < < q q q q q q 9 9 q A Z   7 7 9 v n n m G J m N 9 9 8 N 3 Y 8 b b b r B r m i B i < i < V 1 q.' l ] l ) _ j j j 3 g 3 j ",
"' a a p i s i s B s B r b i Y / # b t y m n y m m m Z C m y : G k ' r m a m C y a i < i 1 1 1 : < 1 q.) l z l ) h l j g g g 2 j ",
"A r r r r B B i i B i B i < ' T , n d y d m m m a C b C G C r U l f b q q q q 9 q < < 1 < 1 1 * s 1 &.x l l l h h l h j g g 3 j ",
"A y y e y m m b b b i C C s V Z , n y r t F m m m m m C b B < Z h ' r i s < < < 9 < < 1 1 1 - * < , f k l l ) k k k h g g g g j ",
"Z e e v e e v 9 v 8 b b r r ) A 1 y t y t d d t m m N m N m b Z p f e i y r r r r : * * : * * * < < %.s g s k k k k k g g g 1 ) ",
"A b m m J N N T T T / T W ^ ` T B C C C C U T E Z N N M N N B Z N ( ^ ^ ^ ^ T E E N Z N B Z Z B A r A A Y ) ` ' ' ' ' ' ' ) 0 ` ",
"..` w ` ` ` ` C J m r b m m H H +.H L @.I P *.! T ~ S Q M N N N N N b 9 9 8 b m N 7 = - = = = = O 5 # % @ @ O       % O o O . 0 ",
"/.~.C.C.C.C.C.B.n I J J Q ~ v.A.A.A.A.S.S.G.G.H.! ~ ^ ! S S S S Q Q n 8 v 8 8 7 = 7 = - - = - 7 n m m m y e ; : - - & < a s k ] ",
"^ s C Y U Y U c.( ^ T I ~ ^ ^ S ^ ^ ^ ^ ^ w.&.B.%.*.~ +.! ! ! Q Q J J n v v v 7 - q : 9 - 9 : : - # , % % % # + + = @ q u u 0 _ ",
"[ Z T / ;.( ~ c.;.$.$.%.;.;.;.*.;.-.>.;.<.~ -.m.;.*.=.=.*.! ~ P I E I n n m b : < b r r r < : : , , , - , - = = # O @ 3 h g h _ ",
"[ T T I *.;.<.m.<.:.,.,.,.,.>.<.<.>.-.-.;.x.x.m.-.3.=.=.>.;.:.;.E E E F F m b B 9 i r r r : r < : < , , , : - & @ # $ 1 p s g ] ",
"{ T W ( r.:.:.I.7.M.u.u.B.7.7.7.7.3.c.6.x.n.m.H.B.7.<.6.<.u.r.r.:.;.E I m Z m B q b i b r : < : r < < > < - * * O % O 1 p s g ] ",
"N.( r.r.7.6.x.B.m.m.m.m.m.M.B.M.M.n.9.n.n.n.F.R.m.M.D.D.m.M.B.u.r.>.:.T U A A V 0 9 b : b : 9 = = 7 7 = - = : * @ O O < V s 1 _ ",
"j.t.r.f.d.M.9.T.I.F.F.S.S.Z.v.D.I.I.D.F.A.Z.D.Y.I.I.F.S.n.d.F.i.i.u.r.;.T Z B 0 b M r b : , , 1 > , : & > > & @ @ % . , u u u j ",
"'.T.Q.Y.+XQ.:X8X;X;X;X#X#X#XW.W.T.T.Q.#X#XW.:X>X:X;X#X#XW.Q.$XT.T.I.c.c. . . . .D  .( ( ( [ [ [ [ W [ ' [ ) A A ` A B ` [ [ [ N."
};
