/* XPM */
static char *out[] = {
/* columns rows colors chars-per-pixel */
"64 64 256 2 ",
"   c #020103",
".  c #0A0406",
"X  c #04040A",
"o  c #0B050B",
"O  c #05090C",
"+  c #0C0A0C",
"@  c #12060C",
"#  c #18070B",
"$  c #040612",
"%  c #0B0413",
"&  c #030A14",
"*  c #0A0B13",
"=  c #060519",
"-  c #0B041B",
";  c #050D1A",
":  c #0A0C1C",
">  c #120414",
",  c #14031C",
"<  c #190818",
"1  c #0B1115",
"2  c #07111D",
"3  c #09121E",
"4  c #131314",
"5  c #14141A",
"6  c #19171B",
"7  c #25071B",
"8  c #330A1B",
"9  c #26181B",
"0  c #221A1D",
"q  c #33191B",
"w  c #0D0524",
"e  c #0B0B23",
"r  c #080828",
"t  c #0A0B2B",
"y  c #130323",
"u  c #1B0421",
"i  c #17072A",
"p  c #071323",
"a  c #091322",
"s  c #09172A",
"d  c #0B132C",
"f  c #061A2C",
"g  c #151524",
"h  c #131A23",
"j  c #1A1A24",
"k  c #161A2B",
"l  c #0C0C34",
"z  c #0C0B39",
"x  c #180838",
"c  c #061333",
"v  c #0A1334",
"b  c #061C31",
"n  c #0B1D35",
"m  c #071338",
"M  c #0B153A",
"N  c #0D1D3B",
"B  c #161739",
"V  c #121A3C",
"C  c #25072A",
"Z  c #360729",
"A  c #2E182B",
"S  c #270938",
"D  c #350838",
"F  c #261437",
"G  c #0B212B",
"H  c #19232B",
"J  c #0A223B",
"K  c #0B2438",
"L  c #192433",
"P  c #17273A",
"I  c #0B333E",
"U  c #262437",
"Y  c #322831",
"T  c #51311B",
"R  c #490C37",
"E  c #680D39",
"W  c #4D3720",
"Q  c #684A2C",
"!  c #1A0745",
"~  c #160B4F",
"^  c #0B1946",
"/  c #181A43",
"(  c #0D1759",
")  c #1A1754",
"_  c #270944",
"`  c #360B47",
"'  c #2A1649",
"]  c #290857",
"[  c #281A54",
"{  c #361052",
"}  c #361759",
"|  c #072541",
" . c #092542",
".. c #0C284A",
"X. c #192845",
"o. c #0E3242",
"O. c #13334B",
"+. c #0A2857",
"@. c #152558",
"#. c #0D3655",
"$. c #143857",
"%. c #242848",
"&. c #332C4D",
"*. c #282859",
"=. c #0E1967",
"-. c #15136E",
";. c #131968",
":. c #141D79",
">. c #360A69",
",. c #3E1766",
"<. c #310D72",
"1. c #390A75",
"2. c #0A2968",
"3. c #172E69",
"4. c #0C3667",
"5. c #0C2C71",
"6. c #162478",
"7. c #0B3377",
"8. c #342671",
"9. c #4C1249",
"0. c #460C58",
"q. c #560C58",
"w. c #46155C",
"e. c #6A124F",
"r. c #4F2F56",
"t. c #470D68",
"y. c #570C67",
"u. c #471668",
"i. c #54136A",
"p. c #4A0C76",
"a. c #560D78",
"s. c #4A1775",
"d. c #591477",
"f. c #6C0F6F",
"g. c #6C0D77",
"h. c #651478",
"j. c #5C256A",
"k. c #6E2E73",
"l. c #154758",
"z. c #104958",
"x. c #184964",
"c. c #13506D",
"v. c #0C4278",
"b. c #224966",
"n. c #285663",
"m. c #2F4B70",
"M. c #634657",
"N. c #8E0B4D",
"B. c #B91059",
"V. c #8D2D59",
"C. c #8B1075",
"Z. c #AC1171",
"A. c #CF0F72",
"S. c #E0167D",
"D. c #9D5F65",
"F. c #EE5A71",
"G. c #FDA778",
"H. c #181E85",
"J. c #361692",
"K. c #17248A",
"L. c #0E3387",
"P. c #113285",
"I. c #172693",
"U. c #0F3596",
"Y. c #123298",
"T. c #3F2F8A",
"R. c #341AAD",
"E. c #182BA8",
"W. c #1433A7",
"Q. c #1B32B5",
"!. c #2628B0",
"~. c #480C87",
"^. c #570B87",
"/. c #4A1886",
"(. c #57178B",
"). c #550E9A",
"_. c #471298",
"`. c #551799",
"'. c #6F148F",
"]. c #660B99",
"[. c #66279D",
"{. c #5A0DA4",
"}. c #4814A9",
"|. c #5213B2",
" X c #640DA9",
".X c #7212AD",
"XX c #502EB0",
"oX c #115288",
"OX c #23499A",
"+X c #106B96",
"@X c #144FAA",
"#X c #166BB4",
"$X c #68438E",
"%X c #3E1FCB",
"&X c #282DC5",
"*X c #392ACE",
"=X c #5019D0",
"-X c #7011D0",
";X c #4B20DE",
":X c #5C1CF3",
">X c #7115ED",
",X c #4F25E8",
"<X c #7025F5",
"1X c #2369DA",
"2X c #624ACC",
"3X c #8D1192",
"4X c #AA1090",
"5X c #922298",
"6X c #870CA9",
"7X c #8E10B0",
"8X c #861AB5",
"9X c #961BB7",
"0X c #A81AB8",
"qX c #B013B0",
"wX c #CC1594",
"eX c #F31290",
"rX c #F2349F",
"tX c #D312AE",
"yX c #EE0CB0",
"uX c #AB5B9E",
"iX c #F165A0",
"pX c #FC71AB",
"aX c #9A09CB",
"sX c #8F16CF",
"dX c #AD0CD0",
"fX c #B231CD",
"gX c #9312F3",
"hX c #B10FF0",
"jX c #8C25EF",
"kX c #B02FF9",
"lX c #CE0BD3",
"zX c #EE0ECD",
"xX c #F136D3",
"cX c #D10DF2",
"vX c #E80CE6",
"bX c #EB0CF1",
"nX c #CD2DF6",
"mX c #E628EA",
"MX c #8242EB",
"NX c #F84BCC",
"BX c #EE6ED5",
"VX c #D556F0",
"CX c #E45FEA",
"ZX c #28A7B8",
"AX c #168FCE",
"SX c #2097DF",
"DX c #188BED",
"FX c #13ADF7",
"GX c #2FD8FA",
"HX c #FCA591",
"JX c #ED93A1",
"KX c #FA8FB0",
"LX c #FED0A6",
"PX c #F38DCE",
"IX c #F6B2C9",
"UX c #EF98E3",
/* pixels */
"Y 6 Y r.k.uXKXBXmXnXkXsX`.' *./ S F F F F &.8.*.O.X.%.$.n.b.6 4 6 6 U &.H h h h H %.P h 5 H / B P *.@.OX1XSXSXSXGXGXZXn.n.L H &.",
"4 +   + F &.5XfXnXdX X] X.T.J.] i i , x } [ N N P N n L n $.l.P   X e X O O & & & & s B d e m +.) 2.3.( ;.#XDXDXAX+Xl.G 6 3 3 H ",
"0 + + +   4 F >.).>.! s.`._.~.<.i i x } / M ^ V V J J N n n N l.l.h = X O O & & & & & 2 B ^  .M ( ( ;.7.3.) 7.@X%.P & & 2 2 3 P ",
"0 + + O O X O z w { '.{.{.`.~.<.i i _ B V V V J N J V J J n n b o.x.= X & & & & & & & 2 ; m c c =.6.;.:.6.P.@.w > O & 2 2 2 3 L ",
"0 4 + + + O % z ] ~.{.{.{.`.).1.y S S B V ^ ^ J J V N J n n n n s l.; X & & & & & & 2 & = c c c =.:.:.H.:.:.6.) % & & ; 2 2 p L ",
"0 + + + . O % x R.).{. X X`.).1.i x S B V V V V N J N N K n K n K z.* X O & & & & & ; ; p c c r =.6.6.K.H.:.6.@.& & O ; 2 2 p L ",
"0 + + + . . * z }.{.). X X{.).1.x C S B V V N N V J n n n n n n K l.O X O & & & & ; ; ; p c c r =.K.K.K.K.:.:.( = X & ; 2 2 2 L ",
"0 + + + + O * B |.{. X X{.{.).~.x x S B V V V N J N P n n N n n k l.& O O & & & & ; ; ; = m m c :.K.K.K.H.H.5.@.= $ & ; 2 2 2 L ",
"0 + + o O X * x .X X{. X X{.`.~.! S _ x ^ V N N n V N n n n n b n l.+ X $ $ & & & & ; ; p m ^ m :.I.I.K.K.H.6.3.= X & & & 2 2 L ",
"0 + @ + o X * x .X.X]. X X).1.! ! ! ] ' V V V n N n n n n n s K l.I X X O $ & & & & ; ; = ^ z z ^ 6.I.K.K.H.6.@.% X & & ; 2 2 H ",
"0 + + + . O e _ -X.X X X~.] w 1.-X1.x [ [ ^ n n n n n b s n #.$.1 X 1 4 : O & & & & & & t m =.#X7.r ;.K.I.H.K.6.! = X & & & 2 L ",
"0 + . O : ! ] ].-X[.^.{ w i >.-XsXXXT.z i [ [ b n n b f ..l.G   X s l.I 3 5 * X $ & & v ^ L.DXFX1X5.r z -.K.K.%XJ.( ! & & & ; k ",
"0 . * x ] S , t.].>.i = ! ~.sX-X`.s.8.8.M % l ) / s J $.I     O 2 b n #.x.K 1 3 & e ^ ^ :.DXFXAXFXDXL.z r ^ H.XX,.w ~ ~ t & & h ",
"6 d _ S - X X % y - w ]  XsX8X[.`.s.,.[ ) ) s % B @.O.&   X $ ; f n J J | x.x.G e z ) ;.#X#XL.L.#XDXDXW.( r r z & $ = l ) ! ; 6 ",
"' _ i = X X % y y w { 7XfX8X.X[.(./.8.[ ' / @.#.p % X o * & 2 p f b K J J J #.c.l.z 3.OX7.5.L.U.Y.W.1X1XQ.2.r r r $ = - t ~ ( %.",
"R < u y % > % y w 0.9XsX8X8X8X.X[./.s.} ' / B ..$.o.< g 2 3 p f f J J | | | | J x.c.@.^ 2.7.L.Y.W.E.E.&X2X*X-.z r = w w x t ^ OX",
"6 + . % , C C - S g.5X9X9XsX8X[.[.d.u.*.*.V V V k #.g g a s f f b n J | | | | | O.b.v +.5.7.U.U.W.Q.Q.!.R.XXXXz ~ ~ z r = $ & X.",
"0 @ @ o o , i % , f.7X0X0X9X9X.X[.d.u.8.[ ' V P B o.g d s f b b n n J J | | | | $.b.^ +.4.L.U.W.E.Q.&X&XR.J.<.! ] ! = & & p e k ",
"9 @ o o o , C % 6 g.4XqX0X9X8X'.(.s.u.} ' X./ V B o.g v s f b b J J n | | ..| | O.n.^ +.7.L.U.W.Q.&X*X%X%XR.<.M ~ = $ & ; 3 p P ",
"9 @ @ @ o , D X 0 C.qXfX0X9X5X[.(.j.u.*.%.' V N n ..g k f f b b n b K J | | | | O.b.^ +.5.L.Y.W.Q.&X&X;X;X=XJ.x ] = = = r e s P ",
"9 @ @ @   u 9.  9.4XwXqXqX5X'.'.d.u.} { ' ' P N K K g k f b b b J b J J K  . .J O.b.^ +.5.L.U.E.Q.&X*X,X,X,X[.] 1.= & p ; 3 p P ",
"9 @ @ @ . u 9.  e.wXwXfX5X5X'.d.i.w.} ' ' B B n s & # n f f b b b J b J K J N K O.x.M +.5.7.P.Y.Q.&X*X,X:X:X2X>.{.= $ = ; e e P ",
"9 > @ . o % >   q 4XwX4X3Xf.d.y.w.{ ' F F B k :       * s f f b b b J n K n n #.$.a c +.2.5.7.I.W.Q.&X%X,XMX$X/ ] r $ & ; e a P ",
"9 . . o % 7 u @ 7 # R f.f.q.q.{ ` A F C u % X X         X ; f b b b n n N J +.K O d l c ( 2.5.K.I.I.R.&XXX8.`._.~ ~ w - & ; 3 k ",
"0 > > < Z C 9 Y 9.R > o Z ` ` D F C g , X . , B p X         X p b b n J  .K * * a : M ^ d ^ 2.;.:.H.R.H.<.-X<X>X~.>.] ! y : : k ",
"0 < Z Z q W q . j &.9.<   X , u u < X . < C , g X.n r $         & b J K 1 X * * X $ X p ^ B l ( -.-.-.R.:X:X,X<XkXfXs.>.] x y k ",
"R R 8 T T # . o . O B } i     X o   @ Z C @ X   % P X.c = X       X p   X O   X & = & $ O d ^ z ! J.:X:X;X,X:XjXkXVXUX2Xw.} _ A ",
"R T T q . @ @ @ + +   1 %.' X     7 Z < O . X X X   : P N c $ X       X X X X & & $ & $ % X % d R.:X,X%X=X<XjXkXkXVXUXUXIXk.D ` ",
"Q T # # # + @ + o o o X X *     o q @ X X X X X X X   X h  .N r       X X X & & & $ = & $ $ $   H.;XR.=X=X>XgXkXkXVXPXIXLXLXD.4 ",
"q . # # # # @ + o o O o X X     . . X o X X . X X X X X   O k r       X & $ & & & $ & & & & $ X x J.R.=X>X>XgXhXnXVXUXIXLXHXV.4 ",
"q # # # + # + @ + O o o X X       . o X X X X X X X X   o   O w     X X $ $ $ & & & & $ $ $ $ X x R.}.=X>X>XgXhXnXVXUXIXLXF.E 4 ",
"q # # # # + # * o o O o o X       o O X O . X X X X X X X X % r X     $ & & & & & = $ $ $ $ $ X l J.|.=X>X>XgXhXnXVXPXKXHXF.R 4 ",
"q # # + @ @ @ o o o o o X X       O . X X . X X X X . X X   $ w X     & = & ; & & & & $ $ $ $ X z J.|.=X-X>XgXhXcXnXCXKXpXA.C 5 ",
"q # # # @ @ @ o o + X + X         . O X X X X X X X X X X   % r X   X ; ; p p ; * & $ & $ $ $ X z J.{.|.-X>XgXhXcXcXCXBXNXZ.< 5 ",
"9 # # @ @ @ @ o o + X     o       . . X X X X . X   X X o X X t X   X p p e p ; ; & & & $ $ $ X x J.}.|.-X-XgXhXhXcXnXmXzXC.u 5 ",
"Y # # @ @ @ @ o o X X X * O   - X o X X X . X X X . X   X   % - & G X p f f d p p & = & & $ $ X l J.J.{.|.-X-XgXhXcXbXbXyXZ.Z 5 ",
"q 8 7 @ @ @ @ o o X O 1 * u v w > o   X . X X X X X X       X J l.z.z.G e c f f p ; & & $ $ X X - ] ~.}.{. X-XaXdXhXcXlXyXZ.0 5 ",
"q # 7 7 @ . . . X 1 1 C q.i.*.b.o.. . X X X X X X X X     5 %.o.3 1 K x.z.p e f e p & & $ X = V a X l 1.).|..X-XsXaXdX0Xi.D y.' ",
"r.#   . < @ o 1 2 # R C.f.w.{ { m.c.s   X     X X     + U %.s 2 p p 3 2 o.z.o.p ; ; % O $ t ^ a       X ] ~.`. X X.X].D 0.'.{ U ",
"M.r.7     X * 1 8 V.5Xg.h.i.i.} { *.oXz.* X X     X 0 Y k ; 2 p p 3 a p 3 2 l.z.K $ X - M c X X X         - ] ~.).] _ a.y.w X h ",
"4 0 r.*.+       e.f.f.h.h.d.i.u.} { ' $.c.G .   6 Y F 3 3 3 2 3 p a 3 3 3 3 & G z.K w d &   X X X X           y x ] t.x X $ $ h ",
"9 . . P x.P     C 0.f.h.h.h.d.u.,.' ' x *.I . Y Y a 2 3 3 3 3 p 3 p p 3 3 p 3 2 a P $   X X $ X X X X X         S _ $ X $ & * j ",
"9 @ o . * X.e   , ` y.h.(.h.d.u.} } ' F %.I < A ; p 3 2 2 2 3 a 2 3 3 3 p 3 3 2 a k   X X X X X X X X o         X X X $ O % % h ",
"9 @ o +   O -   = S t.h.h.h.d.u.u.{ ' ! X.X.< j e a 2 3 3 3 2 2 2 2 3 3 3 2 2 2 d h     X X X X X X X X O         X X $ & $ & j ",
"0 @ @ o o * :   $ S t.d.h.d.a.u.,.} ' _ ' o.7 j 3 3 2 3 2 3 2 2 2 3 p 3 3 2 2 2 p h     X X X X X X X X X o     X X X X O O $ j ",
"0 @ o o o % w   $ S t.a.d.d.d.u.} } ' F X.X.u g p 2 a 2 3 3 2 2 2 2 2 2 2 2 3 2 s s   X X X X X X X % % o o       X X % O % % j ",
"0 > o o . * e   X S t.d.d.d.i.u.w.{ ' _ %.X.C g 2 p 3 3 3 2 2 2 2 2 3 2 2 2 2 2 a h       X X X X X % % > %     X   X O O O % g ",
"0 @ o . X $ y   = ` y.d.d.d.a.u.} { ' S X.P > j p 2 2 3 3 2 2 2 2 2 2 2 2 3 2 2 a h     X   X X X O o % > , o   X X X X X X X j ",
"0 o o o   O F C C ` y.d.d.a.i.u.u.{ ' B n o   + j 5 3 2 2 2 2 2 2 2 2 2 2 2 2 2 h 1 +     X X X X X X % > , > % %   X X X O X 6 ",
"6 @ o o   O _ y.6Xi.i.a.i.i.t.w.{ ' B -   o X     5 H 3 ; 2 1 2 2 2 1 2 2 2 1 5 1 % % 4 +     X X X o X X @ ] ^.      . X o X j ",
"9 o .   O O Z 4XcX9Xj.j.y.t.w.{ _ i % o X           X 6 6 2 & 2 ; 2 & 2 ; 3 5 & w w w X * 4 X   X X X   o _ .XdXi.h X   X O X 6 ",
"6 o   * 1 M.iXxXvXdX7Xd.r.u.{ _ y > > X o               O H 3 2 2 & 2 3 1 1 r r r r w y - o 4 *       , t..XdXhXbX9X&.4     X 6 ",
"4 + 3 Y D.HXJXNXbXlXqX6Xa.{ i S < O o . O                   4 5 2 1 1 1 c c c c t w w y y y % * +   C p.].7XdXcXbXbXmXD.Y &   6 ",
"H H 7 F.G.HXJXNXvXlXqX6X'.y.D Z . .                           X 1 1 3 ....^ z l t t t w w y y , X _ p.]..XdXhXcXcXbXNXPXJXW 6 6 ",
"j.'.C B.G.G.iXxXvXlXdX6X'.g.` #     X                               | 4.+.^ ^ v l t t w w y y , y t.^.].7XaXhXcXbXbXNXPXHXF.A A ",
"5X4X, N.F.iXiXyXlXlXqX3Xg.a.` #     .   X                           o.7.+...^ M c l r y y w , - y t.^.].7XaXhXcXcXbXxXpXpXwXu D ",
"3X3Xu E eXrXxXzXlXtXqX'.'.y.D @                             X       #.v.4.4...^ v c t t e - - , y p.^.].6XaXdXhXcXbXvXNXrXZ.7 D ",
"3X3Xy R S.yXyXyXtXqX4X'.f.y.D #     .     X                         z.+Xv.4.+...^ c t e y - - % w t.^.]..XaXdXcXcXbXbXvXzXC., A ",
"k.3X< R A.eXyXyXtX4X3Xg.g.0.S @       . .                   X       c.#XoXv.4.+.^ m c t e - - % , >.^.]..XaXaXdXcXcXvXvXzXe.% D ",
"g.C.# E B.S.eXwX4X3X3Xg.y.0.D #     .                               +XAX+XoX4.+...n c e : - = % w t.a.^.]..X7XdXdXcXvXzXyXe., F ",
"f.f.> E B.A.A.Z.4XC.f.y.0.0.C .                                     K ZXAXoXc.4.@.^ c d : - % X - >.t.a.].].7X0XdXdXlXtXwXC.y C ",
"A X 8 E N.B.B.Z.C.f.q.q.9.i .     O                                   O c.AX+Xv.#...n t w = X   O %.,.p.^.].].7XqXqXqXqX3X` g.9.",
"T 8 @ E N.N.N.e.e.e.q.D >       X   . X                               X X p z.v.4...n c = X     X + B ,.p.a.].'.'.3X7Xf.q.9X7Xw.",
"V.rXe.7 R e.e.e.e.9.A 4 4 5 g 6 6 4 4 6 6 5 4 4 4 + 4 4 4 4 4 4 4 4 4 4 5 g 5 I $.$.X.k 5 5 H X.X.%.k H *./.h.'.'.'.w.5XfX5Xh.k."
};
