/* XPM */
static char *xpm_[] = {
/* columns rows colors chars-per-pixel */
"64 64 245 2 ",
"   c #070402",
".  c #090503",
"X  c #080807",
"o  c #0A0907",
"O  c #0B0B0B",
"+  c #130A06",
"@  c #110E0C",
"#  c #0F100F",
"$  c #12110F",
"%  c #0C0E12",
"&  c #120F12",
"*  c #0D1215",
"=  c #07121D",
"-  c #0D151A",
";  c #0D191C",
":  c #131314",
">  c #191614",
",  c #1B1916",
"<  c #13161A",
"1  c #181719",
"2  c #15191D",
"3  c #1B1B1C",
"4  c #211E1D",
"5  c #1E201F",
"6  c #23211E",
"7  c #0D1721",
"8  c #0E1A22",
"9  c #0E1D2C",
"0  c #151721",
"q  c #131C23",
"w  c #1A1D23",
"e  c #141E29",
"r  c #1A1E2A",
"t  c #0E1E31",
"y  c #141F34",
"u  c #0E222B",
"i  c #0F2628",
"p  c #142126",
"a  c #1B2225",
"s  c #15222C",
"d  c #1C232C",
"f  c #15292F",
"g  c #1E292D",
"h  c #0D2637",
"j  c #142432",
"k  c #1B2632",
"l  c #132A34",
"z  c #1D2A34",
"x  c #13253B",
"c  c #1C273A",
"v  c #132C3B",
"b  c #1D2D3B",
"n  c #15323E",
"m  c #1C313C",
"M  c #12393B",
"N  c #242423",
"B  c #2A2523",
"V  c #2B2926",
"C  c #23252A",
"Z  c #24292C",
"A  c #2B2B2A",
"S  c #312E2B",
"D  c #33312D",
"F  c #222732",
"G  c #222A33",
"H  c #2B2D32",
"J  c #212D3B",
"K  c #24323D",
"L  c #2B3739",
"P  c #2B343C",
"I  c #343333",
"U  c #393837",
"Y  c #3C3B3B",
"T  c #423D39",
"R  c #46413D",
"E  c #0E2943",
"W  c #152D42",
"Q  c #142B47",
"!  c #0F3248",
"~  c #143442",
"^  c #1E3242",
"/  c #14364A",
"(  c #1C334A",
")  c #163A4C",
"_  c #1A3B48",
"`  c #122E52",
"'  c #0D3356",
"]  c #173955",
"[  c #1C3C55",
"{  c #232F40",
"}  c #233343",
"|  c #243C45",
" . c #2C3C43",
".. c #22364A",
"X. c #243A4C",
"o. c #2B3848",
"O. c #383C42",
"+. c #233D52",
"@. c #253D57",
"#. c #163C66",
"$. c #133D7F",
"%. c #233D61",
"&. c #17444B",
"*. c #13415B",
"=. c #1A4559",
"-. c #1C525D",
";. c #29424B",
":. c #3A4447",
">. c #33424C",
",. c #2B4253",
"<. c #25445D",
"1. c #2B455B",
"2. c #284958",
"3. c #344755",
"4. c #2B535A",
"5. c #31525A",
"6. c #184667",
"7. c #1B4C6A",
"8. c #1A5666",
"9. c #1C526B",
"0. c #0D4877",
"q. c #194878",
"w. c #195873",
"e. c #244363",
"r. c #2C4C63",
"t. c #284867",
"y. c #254C6A",
"u. c #354C64",
"i. c #324C69",
"p. c #2D526B",
"a. c #29586B",
"s. c #375867",
"d. c #3D5B65",
"f. c #32546C",
"g. c #274C75",
"h. c #304E70",
"j. c #29577A",
"k. c #345876",
"l. c #335D7B",
"z. c #1E697E",
"x. c #2C666F",
"c. c #3D6269",
"v. c #34627C",
"b. c #386B7B",
"n. c #434242",
"m. c #494644",
"M. c #535250",
"N. c #425A60",
"B. c #47686C",
"V. c #43697A",
"C. c #516D71",
"Z. c #47777C",
"A. c #164A84",
"S. c #185586",
"D. c #184D91",
"F. c #195B94",
"G. c #265A86",
"H. c #325A88",
"J. c #265893",
"K. c #1C6883",
"L. c #1B669D",
"P. c #286384",
"I. c #386784",
"U. c #367787",
"Y. c #2A6795",
"T. c #356A96",
"R. c #2A7397",
"E. c #377898",
"W. c #1B65A7",
"Q. c #1D74A0",
"!. c #1C69B6",
"~. c #256BAB",
"^. c #2C79A7",
"/. c #3577A6",
"(. c #3175AD",
"). c #296CB4",
"_. c #347AB4",
"`. c #436C86",
"'. c #477288",
"]. c #567C85",
"[. c #477696",
"{. c #427EB2",
"}. c #2979C4",
"|. c #297BD3",
" X c #3E859F",
".X c #2882A3",
"XX c #3784A7",
"oX c #288BB3",
"OX c #3B83B8",
"+X c #2691B9",
"@X c #3A94BC",
"#X c #5B8388",
"$X c #4B8594",
"%X c #528899",
"&X c #4782A6",
"*X c #5593AB",
"=X c #458BBA",
"-X c #4B9BBE",
";X c #5BA1AF",
":X c #59A3B4",
">X c #6CAFB6",
",X c #3888C8",
"<X c #3293CC",
"1X c #3BA8CB",
"2X c #3AA9D3",
"3X c #38B8F0",
"4X c #4789C3",
"5X c #4798C7",
"6X c #529AC9",
"7X c #499BD3",
"8X c #559DD5",
"9X c #49A6C9",
"0X c #57ABC9",
"qX c #46A5DC",
"wX c #5AB7D4",
"eX c #65B2CF",
"rX c #6CB7C8",
"tX c #74B9C4",
"yX c #49A5E5",
"uX c #55AAE4",
"iX c #43B3E7",
"pX c #59B2E6",
"aX c #52B2F5",
"sX c #61B7F8",
"dX c #37C1FF",
"fX c #5BC6DC",
"gX c #70C9D1",
"hX c #5FC2E9",
"jX c #47CBFA",
"kX c #5BC3FC",
"lX c #49D4FF",
"zX c #5BD7FE",
"xX c #64C9F8",
"cX c #71CFF1",
"vX c #68D9FB",
"bX c #59E9FF",
"nX c #78EAF4",
"mX c #78E9FC",
"MX c #92D2D3",
"NX c #8ADBE8",
"BX c #88E1F0",
"VX c #88FBFD",
"CX c #97FBFF",
"ZX c #A7FFFF",
"AX c #B4FEFE",
/* pixels */
"z J k k y r d r r y r c j r k J J C e e 0 e y 0 r N w a p p d z z a q e e q w q 8 0 < 7 0 < w k d r < 0 0 ; 0 2 2 2 < < - 2 6 A ",
"1 } H.H.k.r.I.f.i.H.t.Y.j.g.+.G a k.yX4X4XT.4X8XpXNX>XMXMXcXd.a k J <.e.<._ t.<.+...c ^ ^ ^ c r C k ^ ^ ^ b ( ..( ( b } } o.H N ",
"1 ( ).).T.i.I.l.f.h.1.r.h.).e.F y b.vXxXBXrXCXCXZXAXMXAXZXVXV.w Z J <.%.@.( e.[ +.( ^ ^ ( ..b C d k ......^ X.X.X.X.m X.o.n.H 6 ",
"1 ` !.}.(.f.l.k.k.f.1.v.h.Y.%.F r I.mXBXZXMXAXAXAXAXMXAXCXsXh.a k J i.t.%.[ e.e.....b ( +.%.W r d c ......^ X.X.X.X.} :.M.:.Z w ",
"1 b w.9.9.@.@.X.....J _ { b J c F +.g.g.b.B.].Z.Z.Z.c.Z.V.g.{ d F k k b c y k y s d e d r y d r d d s k s e d s s d a G k a w 3 ",
"w < .   . % 2 0 2 0 0 0 2 < d J J C % : O % O O O . % O O O w G G w % : - & & & * % % % & % w k d w % % & : % & : : > : % O < B ",
"2 w 2 0 2 < d X.,.,.o.o.o.o.K J J J X.X.X.J } X.} } b } } X.J z d o.s.f.e.+.y.y.y.y.@.e.e.t.{ r d k k k k s k G H I A V 6 3 N V ",
"3 w r r e 2 q J 3.f.,.u.u.u.} J G } 1.1.1.X.e.,.1.r.+.1.5.r.} d d >.].].V.d.'.'.V.I.a.l.j.H.} r r F } { b k } O.n.n.H Z C V S S ",
"3 w w e w 0 2 q c 3.,.u.u.s.o.J G } r.r.1.+.r.,.@.@.X.X.,.,.K d a d.tXrX{.[.6X5X5X0X%X>XtXrX3.w a k ^ ^ b J :.R n.O.B N C T D S ",
"2 w 0 2 0 2 2 < 0 k J +.@.o.{ J J } ,.@.+.} X.X.o.X.J ..^ ..G k r s.0X0X(.Y.,X,X,X,XE._.6X_.@.w d d k k F V I I I N 3 3 B T D S ",
"3 < X X X X X X X X O : 2 < C J J C < < < < : : : : : * : % w G k w O * % & & % & % % O O O w d C w * < : 1 : : & @ O $ : , B D ",
"3 g ;.| | m | j 9 x j W ^ X.} K J J J J b k b K z z k k b b k G G d d a d e r a r r q r r e r k k a a V A N A 6 > : : B S S A A ",
"& c.VXnXnX>XnX9X^.,XW.,X_.7Xp.G G ,.I.T.I.f.v.v.l.I.f.k.l.l.X.d k J o.o.} J } } } } c } } } k a r F O.m.R Y R A 6 4 6 R m.R D V ",
"& c.mXmXvXwXVXnXxXhXY._._.yXp.G G f.aXyXyXOX5X5X5X5X=X7XqXuXf.a F G } { { F } { { { k J J c k d d I m.R R D D 6 > 6 D R R R S V ",
": 1.OX(.(.Y.vXvXyXqX/.,X<X7X_ r G p.,XOXOXT.,X5X,X5X&XaXaX7X1.a g G } } { G { { J { z J J b k C V I m.m.R D V 6 > B D R R U A V ",
"3 e = = * * p s e e e e j e 2 w g G z k j j z k z l s k k s s G G a < < < 2 2 < 2 < < < < : w A S A 4 4 6 > > + $ , 4 , , , 6 A ",
"3 : % * - * * * * * * O O O : 3 p w q s w q p q q p 3 2 a a d z F F k k f g z s s k g Z b k N S I S N N 4 & & & : 4 4 4 > 3 N B ",
"1 c F.~.~.] R.2X2X2X.X1X2XoXf 1 2 g a.l.&X$X:X;X;X>X$X*XE.XX,.C a s.eX9X-XXX6X=X=X=X$XtXrXrXN.S U T M.m.H r r r S T U @.O.3.H B ",
"> ^ !.).}.=.@XbXbXbX9XbXbXjXm : : } P.P.9X-XhXkXVXCXgXnXvXxX5.d r B.NXwXgX:XpXfXfXpX*XMXNXNXC.S I Y m.:.H r y G T T O.k.k.k.} 6 ",
"< d A.$.D.n .XdXlXlX1XjXlX3XZ , , [ }.K.a.y.I./.mXVXgXhXpXuX1.d r Z.mXvXmX9XvXzXvXkX0XZXCXCXC.V A I m.I A r C S T T I i.f.i.P 6 ",
"0 1 y W / < W 7.6.6.[ =.7.[ e 3 1 k ] x h y x ..l.I.s.<.b ^ G Z Z ;.V.b.g.r.j.j.j.j.1.Z.`.V.>.A A V V 1 1 < > 3 B V 6 C Z d N N ",
"3 < . X . O . . .   . .     : 1 w : . O X X O O @ @ $ # : : w G G w O O O @ O O X @ + + + + 4 V V 6 $ O : O O $ $ $ $ + @ @ 3 B ",
"< 1 : : : & : 2 < : : : : : 2 0 < 3 2 2 0 < 0 0 k } J K } P G G Z G J } K z K J o.T H o.j.I V V C H } K m k r.d.d.c.3.B.c.B.L 6 ",
"3 1 > : > & < e 0 > & : : : 1 1 2 w e e a e a p r } P ,.>.>.J Z Z P ,.3.,.| ,.r.u.n.} i.k.O.A N N P p.p.5.+.'.#X#X#XC.Z.#X#X:.4 ",
"2 1 2 2 2 < 2 9 < : & < > & 1 3 1 0 w e a 2 s p q s G  .>.>.P Z Z H >.,.3.} ;.2.s.L A Y U Y A N 6 P H.j.g.=.Z.#X].#XC.#X#X#X:.6 ",
"1 1 < < < < < < < & : < < : 1 0 1 w 0 0 2 3 p 3 0 0 0 d G P Z Z Z G P P P g g K L V B A A A N N N Z =.[ ) k 2.s.s.d.3.d.d.c.L 6 ",
"1 : X o X O X O O O O . X X < 1 1 : O O X o X X X X O O O % w A H N : : $ $ O : $ $ : $ % $ 3 N N 1 X o . O X X O + @ $ @ O > 6 ",
"1 2 e w q 0 0 < < < - < 8 q < 1 1 2 ; : ; * ; ; v p 2 2 : : 2 N N C k k s 1 p Z a g Z G N a N w N 3 2 e 7 : ; a a g a 1 a a N 6 ",
": } U.V.Z.s.p...( ( W %.g.g.K : 1 g M z..XK.oXoX<X-.2 g p p 3 1 3 G y.g.t.G 2.5.5.5.5.x.>.I N 6 3 a g.q.q.l -.x.x.x.4.L e.t.J 6 ",
"@ c.mXmXnXgXuX,X).).J.}.|.|.i.& 1 f &.oX3X1XdXdXdX8.7 h v v q 2 , b q.j.y.1.U.$XE.U.b.XXU.U.o.4 3 Z G.G.S.l x.U.U.$Xx.L L O.V 6 ",
"& p.kXaXhX0XOXq.7X|.q.J.W.!.` & 1 p M 8.w.*.K.+X+X&.= E E h 0 1 : s ] ( ..m <XiX3XiX@XqXqXiXr.> 4 N %.g.oXi &.4.4.4.| L O. .A N ",
"1 w e e s q 7 * e 7 < = = 7 1 1 1 : % O O O * ; ; * O * * % * 2 1 < # O $ o p p p p p s p p w 3 4 1 < = i $ $ : , $ $ > : : 3 6 ",
"1 : O X X O O O O X O O O X : 1 2 : O # O O O X O O O * * O : 2 1 2 * O q 2 % O @ & O $ 2 2 1 , 6 1 # # O % & : : : : : : & 4 6 ",
": w e q k v ~ v n j < 0 e 0 2 1 : 3 u s s q p q j / 9 u p 8 2 1 : k 0.6.S.7.` #.q.q.( } XX9X2.> 3 N G k j 9 k V L P N P  .P B 4 ",
": w e w ~ ~ =.[ [ k < q 0 e 0 < < q f s f p f v ) -.~ _ _ _ p 1 : ^ Q.W.S.#.q.F.A.q.] 2.9XfX4.$ 1 Z ^ ^ c x v C |  .N P P L B 4 ",
": w s e v n &._ ~ l < 0 e q 2 1 < 3 1 u q ; p p v ` ] ) i l 2 1 : j 0.A.S.] S.S.q.#.] ...X X| > 1 a K .._ v [ } ;. .N S I I N N ",
"< 1 < % 2 7 9 7 - 2 * * * * < < < : * - = * = % = * * % * * : : : 2 9 h j 2 t t e y q 2 q e 3 3 3 1 3 p p q s a a w 1 3 4 3 6 N ",
"< : O X X X X X X X X X X X : < 2 : X X O X X O X X X O O . : 2 2 :   O . O . X o o X O . X : 3 3 , X X o o X O O O O + + @ 3 6 ",
"< 1 < < * * < * * < : ; < ; : 2 < 2 < ; < % < ; * ; - - - - < < : < - * 8 8 < < 2 q q q 3 q 1 3 3 3 w a 6 : 2 0 3 N 3 N N 6 6 3 ",
"< < < < : * : < : 1 = 0 7 7 2 : : 2 7 0 7 ; 7 7 7 0 ; 7 7 2 2 : : d ~ ~ w.9.=.W ` ) W W k W r > > g <.2.,.p s x c J k J A L Z 4 ",
"< : & @ O $ $ O O < - - = * < < < 2 8 7 0 - 8 7 8 0 - ; 8 7 2 : : b w.w.K.w.K.*.0.0.' ' ` ' j : $ ~ oX+X.Xs x ' ] #.#.g.+.2._ > ",
"1 : @ @ O O $ $ O * % * * O : 2 : < * % - * * * * * * - * * < < : s M ; O O ; * 9 h h t j h s > , p l k l < < e ) q.=.7.7.y.G 4 ",
"1 : O O O O X O X X O O X X : : < :   X X X X   X . .     X : < : : X X O X O X O X X X X X : 1 , $   .   . .       . . . . $ 6 ",
"< : @ O O O O % = O % O = - * < : a e m j ; v j 7 s m K m l 2 : 2 * % % * O * O % % % % # : 1 , : Z ..} b z } } } m z K K | N 4 ",
"< q q O $ O O : % = O O h h 7 : : k [ I.v.b a.g.( l.V.%X$XI.b : : 2 - - - * ; ; < < * 2 2 2 1 , $ ;.%XI.l.f.'.[.[.I.f.`.[.[.>., ",
": e j @ O O O O % X O % = - < < & +.4X8X6X{.8X6X6XuX:XcXcX8X,.$ : 2 ; 2 < * 2 - < ; * < 2 < 2 , , >.&X[.`.s.[.[.`.`.s.`.'.%X .> ",
": 2 ; % O = 7 * = = O = % O : : @ X.uXsXpX-XsXsXsXsX6XpXuX4X..$ : 2 < ; * * ; < - - * < - < < : & o.[.V.V.u.`.`.I.l.f.b.l.`. .> ",
"< : O % O % % O O O O O O O : < : : q d e 0 s s e q 0 e q - < : : : O X O O O X X O O O X O : : 1 < < - < : < < 2 < - 3 2 1 1 4 ",
"< : X o X X O O X X o o X X : : < : X X X . X X X X X X X X * : : * O O % O O O O O O O O O : : > > O + O O O O O O O % X @ : 1 ",
"< : o o o X X X o O X o X O * < : 2 8 8 7 ; e 7 0 8 7 q q u 2 : : : O O X O O * O O O O O O : : : w a 6 1 w d r r 4 1 s 0 w 3 , ",
"1 : O o o o X X o X o O o o : : : 2 8 q q ; q q 7 e 8 q q 8 2 : < : X X X X X X o o X X O O : : : q s d a s x k r N 1 0 q d 3 3 ",
": : o o O X O X X O o X o o * : : 2 q 9 8 7 s 8 q q 7 p 8 7 2 : : $ X O O X O X o O X $ X O : : : : < 2 1 w d q r N 1 w 2 q 3 1 ",
": : X O O X X O O O O X O O : : : : * * * * - * - - * * * * : : : : X O O O O O O O O O O O : , < : O * : : < : : > > : - - < 1 ",
"< : X X X O o X O X X X o X * : : : X X X X X X X X X X X X * : : * X o X X X X O o O X X X : : 1 $ X o . . X X o X O O +   & : ",
": : * q * * * = * q 8 u = * : : * 2 < - = * ; - * - * * - * : : : : : ; * * ; u - - 2 ; ; * : : : 2 ; ~ p * u x v a 1 3 r w 1 > ",
": f =.8.~ x ~ &.~ &.M M i i 2 : : : O O X X O X O O X O O O * : : 2 ; v f * 8 ~ 8 8 8 u p ; 2 : $ p M -.f 8 ] 6.q.( a Z [ 6.k : ",
"* f K.Q.0.*.w.8.&.i = ; ; ; ; : : # X X X X X X X X X X X X % : : < 8 j 9 - 8 ~ q 7 8 u 9 9 2 : : s &.8.i i 6.S.S.*.m &.7.F.b : ",
": # u ) = = = * - X * = = ; : : : $ X O O X O O $ X O O X X : : : : - ; 7 * 8 u u ; 7 8 8 7 : : : q u i - = ! ! / ~ v M =.6.r > ",
": *     X X X X X X X X X X # < : * X O X O X O X X X O X X * : * @     . X         . .     O : : $   X X X X . X X X X X . $ , ",
": : % % # O * O O * O * % # # : : * * O $ X $ O O * O O * O % : : p ! E j v ) / ( =._ =.=.e.s : : : # # * O * O O : O * $ : : , ",
": < * * - % % - * - * * * - * # * : - * * * - * - * % - * * < & @ ~ L.0.7.R.<XE.Y.5XP.^.XXiX<.O : : - 2 ; * 2 p p p ; u f a 1 > ",
": < - * * % - * * * % * - * : : : : * * * * * - * * * % % * * : @ Q F.6.9./.5XE.w.E.P.w.j.5X;.O : < 8 7 * - u n n M h / n 2 1 1 ",
": : * * * * * - * - * * * * * : : : = = % % = - % = % % * O * : @ x S.' 6.P.^.z.' 7.*.] 6.oX;.O : < 7 - % ; ! *.*.*.~ *.~ : : 1 ",
"< * O O O O X O O X O O O X * : * : O O O O O O O O O X O X * : : < ; ; ; = * % % % % % * ; ; : : : O O X X % % * = % * * o : : "
};
