/* XPM */
static char *out[] = {
/* columns rows colors chars-per-pixel */
"64 64 52 1 ",
"  c #020203",
". c #010509",
"X c #080709",
"o c #03080D",
"O c #0A0B0D",
"+ c #040710",
"@ c #020A12",
"# c #0A0D13",
"$ c #020C1A",
"% c #090F18",
"& c #0C1115",
"* c #05131A",
"= c #0C131B",
"- c #141414",
"; c #13161A",
": c #14191D",
"> c #1A1B1E",
", c #041323",
"< c #0C1624",
"1 c #0F1A23",
"2 c #101621",
"3 c #141B23",
"4 c #1A1D22",
"5 c #141E29",
"6 c #0F1F31",
"7 c #201F24",
"8 c #152124",
"9 c #1E2226",
"0 c #15212D",
"q c #1B242A",
"w c #0E2235",
"e c #0F253C",
"r c #142432",
"t c #1A2635",
"y c #1E2B3A",
"u c #1E303A",
"i c #23262B",
"p c #26292D",
"a c #2A292D",
"s c #232C34",
"d c #2A2B33",
"f c #302F33",
"g c #293138",
"h c #142A42",
"j c #1B354F",
"k c #293944",
"l c #26394A",
"z c #343F43",
"x c #273D55",
"c c #2F4453",
"v c #3D4C56",
"b c #504F52",
/* pixels */
"lr33331;;;;;;-::;-=:;;;;;::32;---;>32;;;;;--;;-;5;-;=-------;;;a",
"w,$$@+@........X.   .......++oo.....o..... ..  X$....    .  X..#",
"r$$@+++.... ...X .   ......++@@@......... X    .$..  .      . .-",
"r$$@@+... .. ..X. ..  ......+o@@.......  .     X%.. .        XX-",
"0$@@++... .. ...  .  ....  ..o@@.. ..           $. . .       . ;",
"0$@o+......   ..    .  ..... o++  ..  .        X$X..        . X-",
"0$o@++.......  .     ..  .....++. . .  .        $X  ..      . .;",
"1ooo...... .   .       .........               .$..          ..>",
"c*+......  .  .X         .....o&               X$..           X;",
"su0. ..     ..o++          ..&1&                @             .>",
";.3q&... . .+++..o.. .   ..+&#.. .            ..++.          ..2",
"2+..38#  o@@++.+.....    .##.. .X             .+++X.         ..4",
"2+.  @3<,@$+++......o+...Oo  ..... .       . X.+o..o..      ...2",
";....  6jo++.....+++++++o. ..  . ...  .    ..++........  ..o++.;",
"2... . ,ho+..++....+++++..   . .. ....   ....+.. .X....#%......:",
";.. .. %e++.+........++..  .. . .......%;. ........... %: .....;",
";...   *e++.+.......++++. . .  .. .... =: ..... . .... &%  .. .;",
";....  =eo+o.++....+.+++... ... ...... #*. ....... ..  *%......;",
";..    *ho@++.+.+.+..+++........  ..   #* .............#&......:",
";.. .. =h+++.+.+.+.++++.. .  .. .. . . +%  .   .. .... &* . ...-",
";..  . 2x++o@@+.+..+++++...........  . ##    . . ......*= .....-",
";.  .  *cr$.o++++++++.1q......... . .  +#  . .. ...... =8  ..XX-",
"; .. .#=$ry<@+o+++oo=85#O... ....  . . .o  ..  ....... 88. ...X;",
";  .O2:o..%tt*o++.@3q% .;<+.o...... . .....     .....&8;*:#.ooX;",
"; .&>+    .+;st#@0y=   X.%4=+. .... ......   . ....X2;O .#55+..;",
":%:&       . .5kk3..     ..;q=....+..............+=2# .  ..#55X;",
"i&.      .. ...+# .       ..+33o.+o+o... ..  . .+2#. .      o=qi",
">            ....          .  #q:o..... .......:;X            #g",
"-             X.             X 38.  . ... .... :#              ;",
"-           XX.              . <<......... ... =#              ;",
"-            . .               ==........ .... :O              -",
"-           ... .              -=o... ...  ... >O              -",
"-          . ..                -=.... .  . ... 3#              -",
"-            .                 =%  ... ..  ... 4-              -",
"-          ...                 %% .....  .. .. 9-              -",
"-         .  ..                Xo... . . ..... g-              -",
"-         . .. .X              .....   . ....#qi.              -",
"-          ..#:               .X..  ... ....:4#.               -",
"-      .  ..;7;                .... .  ...#3-....              -",
"-       . #>2.  X              ........ X-=+.            X     -",
"-       O--X                   ........*-X .                   -",
"- X ...X;OX                  .. ...... &&                   X  -",
"- X  .X.                    .. ....... &O                      -",
"-    .                   ........X.... &O              XX      -",
"-     X               X#q. ..........X *+               -      -",
"-                      -k.+. ......... &O               -      -",
"-                      -k.o........... 8#              X-      -",
"-                      #vo.... ..X.... p&               O      -",
"-                       dz4..o..... .=a7X      X        -      -",
"-           X           .#dp#..... X77%                 O      -",
"-    X                 X...#i4+. o4i& X                XO      -",
"-                      X.. . 4d42d4.                   X-      -",
"-                             +ad#   X                  X      -",
"-                  X                                           -",
"-            X         X       ..                      X       -",
"-X                            .X.    X                         -",
"-                              -O                              -",
"-                              OO       X      XX              7",
"-XX              X             OO              XO              a",
";         X                    OX              XX              a",
";              X               OO              XX              a",
";                              OO                              f",
"-   X                          OO              X               f",
"a------------------------------7>------------------------------b"
};
