/* XPM */
static char *xpm_[] = {
/* columns rows colors chars-per-pixel */
"64 64 219 2 ",
"   c #000204",
".  c #00030C",
"X  c #050C0D",
"o  c #000314",
"O  c #030B15",
"+  c #01041B",
"@  c #09061D",
"#  c #060B1C",
"$  c #0A0B1A",
"%  c #010423",
"&  c #0A0623",
"*  c #050923",
"=  c #0A0C24",
"-  c #02042B",
";  c #0A062B",
":  c #06092B",
">  c #0B0B2D",
",  c #100B2D",
"<  c #0D1121",
"1  c #030433",
"2  c #0A0633",
"3  c #060A32",
"4  c #0C0B33",
"5  c #04043B",
"6  c #0A063C",
"7  c #0B0B3C",
"8  c #110932",
"9  c #130A3D",
"0  c #0C1034",
"q  c #161137",
"w  c #050443",
"e  c #0C0644",
"r  c #0C0A44",
"t  c #05024A",
"y  c #0C054B",
"u  c #100644",
"i  c #140A44",
"p  c #190C46",
"a  c #11074D",
"s  c #140A4C",
"d  c #1A0C4C",
"f  c #161146",
"g  c #181049",
"h  c #0C0553",
"j  c #0B0554",
"k  c #0D045A",
"l  c #120754",
"z  c #150954",
"x  c #1A0C54",
"c  c #12075B",
"v  c #15095B",
"b  c #1B0B5C",
"n  c #1B1154",
"m  c #1A115B",
"M  c #24174B",
"N  c #210D51",
"B  c #220D5C",
"V  c #241254",
"C  c #261856",
"Z  c #24125C",
"A  c #2A145D",
"S  c #0E0462",
"D  c #130664",
"F  c #180762",
"G  c #160A63",
"H  c #1B0A64",
"J  c #16066B",
"K  c #19066D",
"L  c #170868",
"P  c #1C0A6B",
"I  c #1F1263",
"U  c #160472",
"Y  c #1A0673",
"T  c #1E0974",
"R  c #1F077A",
"E  c #1F0879",
"W  c #220D65",
"Q  c #220D6C",
"!  c #290E6D",
"~  c #241163",
"^  c #2A1465",
"/  c #23116C",
"(  c #2B126B",
")  c #2C1869",
"_  c #321D65",
"`  c #32156E",
"'  c #311869",
"]  c #230C73",
"[  c #290F73",
"{  c #230A7C",
"}  c #2A0E7D",
"|  c #261272",
" . c #2C1373",
".. c #2C127B",
"X. c #281479",
"o. c #321574",
"O. c #341974",
"+. c #3B1977",
"@. c #33147B",
"#. c #331B79",
"$. c #3B1B7D",
"%. c #422278",
"&. c #230782",
"*. c #250A82",
"=. c #2A0D85",
"-. c #2D0D8A",
";. c #310F8D",
":. c #2D1283",
">. c #2F118B",
",. c #331384",
"<. c #3A1685",
"1. c #341A82",
"2. c #3C1B83",
"3. c #33128C",
"4. c #3A168C",
"5. c #3D1A8C",
"6. c #2F0C91",
"7. c #330E92",
"8. c #370F9A",
"9. c #361193",
"0. c #3A1395",
"q. c #3C1A94",
"w. c #371099",
"e. c #3C139A",
"r. c #3D149B",
"t. c #3E1999",
"y. c #3C2185",
"u. c #3E13A1",
"i. c #431D85",
"p. c #421A8D",
"a. c #441A96",
"s. c #441C94",
"d. c #41169D",
"f. c #40149E",
"g. c #431A9D",
"h. c #4A1D9C",
"j. c #462487",
"k. c #4B208D",
"l. c #4D3084",
"z. c #4A2192",
"x. c #44219B",
"c. c #4B229C",
"v. c #532798",
"b. c #4316A3",
"n. c #4417A2",
"m. c #4619A3",
"M. c #4A1BA5",
"N. c #4617AA",
"B. c #4917AB",
"V. c #4718A9",
"C. c #4A19A9",
"Z. c #4C1BAB",
"A. c #4E1AAD",
"S. c #511EAE",
"D. c #4E1BB1",
"F. c #531DB3",
"G. c #551EB5",
"H. c #581FB7",
"J. c #561EB9",
"K. c #591FBB",
"L. c #4B21A4",
"P. c #4E21A9",
"I. c #5525A7",
"U. c #5323AC",
"Y. c #5C2AAC",
"T. c #5621B3",
"R. c #5A23B5",
"E. c #5C28B6",
"W. c #5720BA",
"Q. c #5C22BB",
"!. c #5F2ABA",
"~. c #642DB7",
"^. c #6125BE",
"/. c #642BBD",
"(. c #6230B8",
"). c #6931BE",
"_. c #7031B6",
"`. c #5E22C1",
"'. c #6325C3",
"]. c #6628C3",
"[. c #6A2BC5",
"{. c #6626C9",
"}. c #6827CB",
"|. c #6728C9",
" X c #6C2BCB",
".X c #712ECD",
"XX c #6E33C5",
"oX c #6E30CA",
"OX c #7136C4",
"+X c #7332CD",
"@X c #7739CF",
"#X c #6E2AD0",
"$X c #732DD3",
"%X c #7631D2",
"&X c #7A33D5",
"*X c #7C3AD3",
"=X c #7C33DA",
"-X c #7F39D8",
";X c #7F35E0",
":X c #813DD7",
">X c #8136DD",
",X c #833BDC",
"<X c #8436E3",
"1X c #853AE1",
"2X c #8A3CE3",
"3X c #8B39EB",
"4X c #933FEE",
"5X c #8F3AF4",
"6X c #943CF7",
"7X c #8542D7",
"8X c #8942DF",
"9X c #8D43E3",
"0X c #8F42E8",
"qX c #9449E6",
"wX c #9543EE",
"eX c #9450E2",
"rX c #9945F6",
"tX c #A549FF",
"yX c #B157FF",
/* pixels */
"Y E E { E E &.{ K E E { *.*.*.} { 1.:.:.=.R S t 5 j J &.7.] Y &.-.=.=.&.*.{ *.{ U { K J U J D J k t D D D Y E K J D D S D S j h ",
"*.*.&.=.7.7.V.;.Y ;.e.b.b.9.0.t.h.M.9.u.Z.F.{ G - h -.-.7.;.;.7.{ { &.{ { { 7.-.=.;.=.&.{ Y E E k 1 Y -.{ E *.K &.=.&.U &.=.&.&.",
"E { *.-.=.e.F.e.e.A.A.e.P.P.U.U.Z.B.e.F.`.C.>.{ % H -.*.*.} =.=.{ &.{ -.{ { U ] { U U { J J J J U - c 7.*.*.-.-.&.;.=.R 8.-.-.&.",
"7.e.r.n.8.e.b.b.e.F.F.e.U.g.L.L.d.d.b.e.J.C.u.,.+ Q 7.e.7.9.;.=.{ -.Y E { { Y U E E E U U E U K E - j { =.E &.9.7.-.{ =.*.-.{ } ",
"w.n.b.W.r.r.F.G.b.Z.T.t.Z.M.T.P.C.b.A.D.A.Z.b.b + s.b.;.V.7.w.r.{ 9.-.U 3.,.] E K ] &.Y Y R Y ;.&.* t { &.E E { -.-.{ *.*.{ >.X.",
";.9.D.V.G.9.Q.d.| t G t.J.M.W.`.A.V.7.b.N.e.l % - h.'.n.V.G.B.`.D.D.u.t.d.r.q.9.-.e.-.8.7.*.e.8.*.% 5 J Y &.U Y U E R 7.-.E >.:.",
"1 y b s b z b e 1 5 7 m ^ x b x e s s e u 6 - 1 - 5 s e s u e u b b n Z g z y y 5 v z z v z l l e % % y l H t 1 t h G P H v L I ",
"1 % o + o o o % > > < : + % % % % % % + + + % - 5 % + + + o o o o X $ # = + # # % o o o .   . . o % + o o o + + + + o o < # + + ",
"{ =.:.] ..| J c 0 > m T { J J { } { P P D t t G { *.] =.} } .... .f * / 0.=.=.=.-.{ Q [ F l % & l k h l v h j t t r : : g G G j ",
"7.e.7.7.b.0.d.q.f z r.Z.r.r.Q.M.0.A.b.C.V.j J D.K.F.A.J.D.K.'.oXT.m $ >.b.b.A.A.G.e.;.8.b.8.6 - &.6.-.6.-.-.>.&.&.=.m 4 G 7.6.*.",
";.w.9.7.9.d.x.t.z f 9.w.w.;.r.3.w.m.{ 9.D.5 z Z.V.w.b.V.Z.F.`.].P./ @ r.7.;.7.7.0.;.7.7.8.7.9 - J *.*.-.-.e.9.-.;.9.X.r G w.*.w.",
";.0.>.d.b.P.g.g.5 r V.>.d.3.r.W.C.0.e.-.-.% b 9.0.;.e.b.Z.Z.T.T.M.Q + =.7.7.d.0.7.7.;.-.6.e.9 2 -.*.-.9.-.d.L.>.q.q.X.+ v 6.R *.",
"=.*.=.g.E./.U.b.2 4 b.;.3.g.e.d.n.d.F.;.-.& a b.m.r.d.0.0.x.P.4.,.P + k ] A.m.b.e.0.-.7.=.8.i N D.>.9.&.Y J T q.:.:.T + l 6.&.U ",
"'.m.m.C./.H.K.`.- + b.C.Q.$XQ.{.'.e.J.e.A., s N.b.;.;.3.>.4.t.{ k w + k w ..K.K.`.N.e.e.8.u.9 s N.w.w.*.:.>.:.V.L.9.D + v u.6.-.",
"A N Z A _ ' A N o . 2 4 p i p d d d x i z % - y z z l n m n s y e - + y y w o.v.v.<.@.<.} 4.& ; ^ ~ H b H Z m n c c e + w H v c ",
". .       . . . o o . . .     . + + o o e J G 1 + o O X X + + - - % + . . . o o + % + o o . o o   . . .   X O . . + o + + .   . ",
"o - e H T ] ] ] 4.5.4.4.} Q Q Y } *.L P 9.N.m.-.m 0 v ) ( ] *.3.4.0.} p.W y c L { { { c H [ P c e 1 + u H b b v z B b b c z u 5 ",
"+ G -.m.=.*.*.{ V.r.4.-.{ =.=.&.;.-.{ -.=.d.9.7.1.7 L.`.|.b.'.T.e.A.b.D.9.3.w.9.*.-.r.b.e.7.u.e.{ L % ,.u.7.-.-.&.7.G.7.Y U &.{ ",
"w Z.r.*.=.*.;.*.{ =.=.=.{ -.;.=.} ] *.;.>.r.g.4.q.8 S.G.m.0.e.0.r.d.9.C.C.n.Q.Q.d.n.w.0.e.=.{ 9.7.;.% 5.b.=.-.*.{ Q.[.Z.e.m.n.Y ",
"D 0.;.;.;.=.;.0.3.0.e.;.-.=.=.7.7.7.3.;.-.-.t.h.h., h.[.Q.T.M.Z.r.d.r.Z.3.=.3.=.4.e.;.w.=.{ =.7.=.*.+ @.A.{ { R 7.$X[. X^. X'.e.",
"J -.8.7.d.Z.d.A.C.C.M.m.r.b.d.n.b.d.n.w.b.b.m.U.} - d.F.m.f.0.=.*.9.=.r.3.*.m.-.=.=.{ &.=.;.e.=.;.0.* y r.*.=.G.H.r.8.d.;.-.;.;.",
"y -.n.b.A.F.D.F.F.Q.S.Z.Z.J.Q.F.J.A.F.A.D.F.b.m.=.2 h.Q.8.d.n.Z.Q.G.F.Q.F.G.|.Q.A.b.b.b.V.Q.F.-.w.} o z b.9.d. Xe.G.K.7.;.A.b.{ ",
"5 c B W W ^ ~ ( ' d x $.O.+.o.o.O.` ` ! ( ^ v s z - z v v b z z b H z r r u e s d x x i s i u e e 1 + - h } } 4.,.a.4.@.] ,.} l ",
"1 + o . . o o . . . o . o o . . . o + o o o + % % 1 % + + % - - - + + o + o o o o o + * # - + + + % 1 % o o o o o . . . . . o o ",
"] P H | ..! b P H b z e % u #.c.s.,.q.4.4.s.q.{ | ....] } *.=.=.T ] o.b a 1 - 5 k k h z m v k k c D J c y e e 6 5 5 5 5 5 5 - + ",
"w.r.7.e.r.;.7.e.3.e.3.T y 4.{.`.'.G.'.V.S.Q.C.-.-.u.C.9.G. X X^.C.$X3X$X`.] j Y F.m.q.>.q.9.9.9.V.b.e.7.-.=.9.9.-.&.R { &.R j % ",
"3.3.9.=.;.0.3.7.0.3.-.L w 9.G.]./. X XG.d.7.w.3.-.9.m.b.M.].H.K.Q. X=X>X$XP 5 r.2X-XOX[.E.|.Q.].Q.Q.m.C.b.e.=.e.b.7.d.d.S.B.c - ",
"w.3.*.=.3.r.9.4.e.d.r.L 1 ] Q.g.=.3.=.w.r.9.d.w.&.-.{ ;.9.0.9.0.3.;.3.F.$XP e ]./.q.OX.XW.'.]. XQ.G.'.'.G.'.A.d.b.e.7.N.G.B.Y 1 ",
"*.0.;.*.9.9.7.;.0.3.w.3.4 / M.g.d.} =.3.-.b.w.d.e.3.0.d.0.0.d.m.9.3.9.'.=X/ 7 %X(.U.h.].Q.K.=X&X=X.X|.Q.^.H.T.F.d.;.M.d.d.F.;.- ",
"r.;.-.;.7.w.7.;.e.e.r.3.7  .%XQ.G.m.3.r.Z.Z.Q.'.[.|.$XQ.F.|.K.[.J.W.]./.k.n 0 L. X[.].|.$XK.<X.X{.Q. X[.Q.G.F.Q.^.^.B.m.G.^.Q * ",
"H v v F z H F l P } [ b : I x.c.a.s.] ] h.~.).Y.(.OXI.U.E.I.T.XX/.E.]...J x > ..Q K L H W P Q ] ] P ] Q Q P P c Q [ ] ;.....b = ",
"+ o o o o o + + . o # 3 7 3 + + o + % % o o o o + + + * $ + # * : & > % f f - : + + o + o + + o o . . o o o   . . . . . . # * 4 ",
"% M l.j.2.#...X.y.#...1...:... . .#.| | / ~ Z ^ ` i o % y h c G c j l P | P | J L L v c y 7 6 y r 6 ; . 5 t l c l y a n n n m G ",
"1 y.].|.|.R.R.E.!.(.U.C.G.Z.Z.S.T.T.S.A.F.Z.Z.Z.J.o.% Y -.F.'.=XM.3.I.XX(.oX].#X'.].K.r.A.G.S.n.F.Z.*.* F `.'.'.Q.'.u.&XoXm.9.*.",
"1 1.B.r.0.r.M.L.x.x.g.3.r.r.d.m.M.b.e.M.M.d.g.d.n.! : { T.].XX7X*X*X9X7X).,XoX[.qX,X2XOX2X+XS.m.S.'.C.&  .rXwX|.Q.Q.q.I.M.P.9.E ",
"% ..Z.-.:.r.w.t.x.L.M.d.C.d.P.g.d.0.q.d.0.3.0.;.r.,.1 w..XS.7XeX).(.@XQ.].%XoXM.,X%X].M.T.T.^.Q.C.V.4.+ ( 4X2XQ.0.>...U.>.R Y E ",
"% ] F.9.-.q.g.M.d.d.r.r.d.q.E.S.U.U.C.M.m.f.b.n.C.@.5 Q.'.OX9X9X*X*X%XT.|.=X2X%X2X-X,X/.'.]..X XT.S.;.;  .<X=X&XT.M.,.e.9.&.-.9.",
"+ H C.m.0.L.P.P.e.Z.r.b.e.7.;.r.m.F.d.J. XA.'.b.J.G 5 3.M./.oXoX!.g.g.Q. XQ.'. XQ.%XQ.[. X].$X$X'. XG.6 b <XwX%XQ.T.0.r.e.-.w.-.",
"+ 5 b ) O.$. ...! ,./ <.@.W b ! +.i./ $.v.!  .W b 5 1 h l m n n z H c P ..P H P Q ] ! P ! Q 0.4.,.,.} 1 l [.,X).s.R.-.d.8.=.*.&.",
"1 % O # $ O o . o . o   . o o o o o + o + + o + % - w 1 + = # + . o + + o + % % o o + + o + + + + + + - 4 = > < # + + + & + + * ",
"..X.o.$.y... .#.o.@.o.W o 6 Q  .*.] ] ] ] ] ] *.*.} *.} H /  ./ / ~ ~ 6 e ; + e h j k v z v v H v L I O.I I ^ b v h b a a l - . ",
"L.L.P.P.b.r.7.9.7.b.F.K.o b K.K.}.F.K.G.'.'.A.'.^..X X>X].$Xd.C.F.%XC.9.S.Q - J e.e.{ Z.A.9.J.J.F.V.Z. X/.L. XK.#X X}.b.$XA.b.1 ",
"q.L.U.U.S.m.b.d.9.3.F./.o ` }.T.7X2X=X X^.[. X'.%X&X,X>XT.d.4.;.:.9.3.3.K.} % ] ,.n.d.Q.}.=.T.M.Q.3.I.*X/.U. XS.n.T.Q.r.].'.C.s ",
"g.P.T.m.F.b.m.C.A.d.M.T.  ` '..X+X)./.[.[.]..X].$X^.:XU.m.;.;.3.9.=.3.r.Q.<.% L -.F.A.0.p.S.M.} ] t.L.c.,.g.m.5.,.9.S.3.] =.'.V ",
"m.w.A.D.F.e.C.b.C.C.F.h.. ` J.].%X'.]. X[.'.Q.].^.]. XZ.r.d.d.9.9.w.r.r.m.4 % k -.g.g.0.q.m.^.4...x.q.L.M.H.S.C.S.m.4.-.-.=.b.u ",
"A.C.F.V.0.D.F.b.A.S.'.S.+ H V.+X=X X}.=X.X XK.K.C.Q.S.].Z.Z.T.C.C.r.m.W.Z.y + ] A.;.d.d.F.F.M.F.T.E.U.].G.H.H.b.d.w.8.=.-.-.&.y ",
"5...<.[ ,.5.,.,.3.} ;.] + A Q W W W W W W W W H H Q [ [ P H ! ] ] Q ! @.,.u + l S.F.m.'.M.4.[.E.Y.[.+XU.d.M.Y.h.d.d.a.0.=.0.=.u ",
". . . . . . o o o o o + % + + + % % - % % + % - - - 1 + + O . o + . o % + + + o ; 8 8 8 & o & ; * , & o + & o . @ o @ @ o + + o ",
"i u +   2 ( ~ v z v b b / I c J P { | | I / ] T T P X.P r + ; s r 6 e y j e e 5 1 % * % - % - % - % % - % .   . + 1 6 5 e w e 2 ",
"7.Z.B   [ K.G.G.F.m.R.Q.Z.W.'.W.m.d.h.m.L.P.b.F.m.b.Z.b.H o  .Z.m.Z.|.T.|.].C.T.A.Z.d.M.d.0.;.;.7.d.;.{ -.[ ; o -.b.9.n.;.;.&.=.",
"C.e.x   @.^.I.W.m.C.T.d.C.Z.T.T.M.P.x.E.T.P.V.m.r.&.*.-.l % ] '.Z.r.C.d.R.].M.S.E.Z.*.C.e.;.;.;.M.0.0.T e.N.z + U.].].[.G.b.{ -.",
"m.=.e . <.F.w.9.r.0.d.0.0.t.M.d.M.x.x.M.q.m.r.3.M.q.>.w.l % ..&XT.;.Y *.3.m.0.-.;.;.} 0.h.T.S.m.h.} g.} ] -.s + S.R.M.0.;.{ ;.7.",
"3.C.y o h.F.e.e.b.r.g.d.0.9.U.XX~.(.).g.d.d.3.{ q.M.g.b.! + @.T.].m.7.m.S.r.4.r.Z.e.M.H.T..X-.p.d.;.=.0.=.T.B + M.d.d.H.0.-.-.=.",
"].Q.u + 9.e.b.A.b.m.V.C.0.q.P.oX*X).T.Z.Q.Z.n.*.T >.F.V.x . 1. XS.+XE.Z.T.R.S.].Z.^.^.U.T.m.[.M.,.-.d.g.Z.$Xx + S.M.0.;.-.b.;.;.",
"Y.v % + b W ( [ ..2.<.4.,.,.1.c.p.0.=.M.T.r.q.{ P { -.0.d o F 1X).tXyX4X2X%X@X*X0XtX>X[.rX'.<X'.].<XZ.d.3X5Xx & h.G.A.;.A.F.J.C.",
". + o + o . o . o .   . # O O $ o o o + & + + o o + + o + % - u p %.j.+.O.A _ _ %.+.^ Z O.x ~ x ( s.2.u ' ( 6 . @ @ 8 % 2 8 8 q ",
"o * ; 1 5 : - & % + o # < O O o + + o - 5 + % o o + o X - : - + . .     . O . O .                   o .       .       o . . o o ",
"1 8 M.S.T.d.:.d.5.c.z.I.Y._ + | 2. .j.v.<.} ,.<.} *.e & 4.h.h.d.I.h.h.i.2.2.z.Z % z z s z b b B b H b z o % e k l J Q h.p.+.$. .",
": 8 =X<X$X].^.].].2X8X1X<X@.- U.@XH.E.S.3.C.m.F.w.r.c ; C.u.b.[.[.,X[.[.XX[.{.k.; '. XQ.[.K.'.H.K.S.G.K.p 2 8.6.C.'.N.S.Q.U.P.t.",
": @ F.].&X.X[.%X.X).:X9X3X .+ n.Q./.d.M.Q.C.>.d.Q.Q.x - g.{..X.X/.*XqX@X@X9X=Xi.8 Q.,X&X4X.XQ.^.S.0./.'.u 2 K.$X$XF.S.h.L.P.3.9.",
"% @ Q.T./.&X]./.+X,X/.%XF.z o h.].S.^. X.XS.'.T.'.A.b : Z.3X.X$X>X.X:X.X].0X=X@.+ t q.,X[.,X[.^.%XQ..X].e ; F.H. XM.0.h.q.q.-.V.",
"- @ M.>XW.T.E.+XOX~.Q.].=.1 + 0..XS.%X>X&XQ.^.d.Q.Q.Q 2 A.Q.].&X X^.:X.X^.[.$Xb . t =.^.2X2X/.>X4X.XH. XN ; Q.Q.L.L.T.I.d.A.9.=.",
"; @ $X6XR.+X^.5.OX=X<XtX{ - 1 ;.[.m.A.b.a.F.'.d.F.K.b * M.^. X,X[.].#X{.K.}.$Xz o j ;.#XH.S.H.^.H.G.%X#Xp ; K.{.V.L.Q.d.e.B.e.-.",
"@ o ^ s.o.O.y.z @.<.i._.B + o z h y y l l c y % i G 2 . # i C C A B  .$.+.$.b % . - a <.p.p.<.<.I.c.<.s o + b  .) f 2.-.w.e.] F "
};
