/* XPM */
static char *out[] = {
/* columns rows colors chars-per-pixel */
"64 64 254 2 ",
"   c #0D0D0F",
".  c #0A0A1D",
"X  c #0A0C1D",
"o  c #170918",
"O  c #17111C",
"+  c #220A1C",
"@  c #0A0A22",
"#  c #0A0C23",
"$  c #0C0A2B",
"%  c #130523",
"&  c #150C23",
"*  c #1B0B23",
"=  c #190528",
"-  c #130C2D",
";  c #1C0C2B",
":  c #0A1329",
">  c #141125",
",  c #1A1124",
"<  c #14132D",
"1  c #1B112C",
"2  c #181B2B",
"3  c #0A0C32",
"4  c #0D0E3A",
"5  c #140E33",
"6  c #1A0C33",
"7  c #150B38",
"8  c #071737",
"9  c #0C1432",
"0  c #0B1B3B",
"q  c #161334",
"w  c #1B1233",
"e  c #191A34",
"r  c #14123B",
"t  c #1C143C",
"y  c #141B3B",
"u  c #1C1A3B",
"i  c #210A26",
"p  c #26162A",
"a  c #24132E",
"s  c #260C37",
"d  c #231334",
"f  c #2A1234",
"g  c #231B34",
"h  c #2B1B33",
"j  c #23143B",
"k  c #2C133B",
"l  c #241C3C",
"z  c #2A1C3D",
"x  c #341739",
"c  c #0E2139",
"v  c #1B2338",
"b  c #1C243C",
"n  c #2C2737",
"m  c #262538",
"M  c #24223D",
"N  c #29213D",
"B  c #140A45",
"V  c #0C1946",
"C  c #131C43",
"Z  c #161946",
"A  c #1C1C42",
"S  c #1D1C4C",
"D  c #1C1D55",
"F  c #261544",
"G  c #2B1443",
"H  c #251D43",
"J  c #2B1D44",
"K  c #261749",
"L  c #2D144A",
"P  c #241D4A",
"I  c #2C1D4B",
"U  c #331545",
"Y  c #321C45",
"T  c #33164B",
"R  c #3B154C",
"E  c #311C4C",
"W  c #241D55",
"Q  c #2C1D52",
"!  c #291B5A",
"~  c #341756",
"^  c #331C53",
"/  c #391B54",
"(  c #341C5A",
")  c #3B1D5C",
"_  c #0A2344",
"`  c #0E244D",
"'  c #1E2242",
"]  c #14254B",
"[  c #1C224C",
"{  c #12334D",
"}  c #092655",
"|  c #0A2955",
" . c #082859",
".. c #0A2C5A",
"X. c #1D2255",
"o. c #182956",
"O. c #1D255B",
"+. c #073156",
"@. c #0B325B",
"#. c #18355A",
"$. c #242244",
"%. c #2B2145",
"&. c #242A45",
"*. c #25234B",
"=. c #2A224C",
"-. c #23294C",
";. c #2B2C4C",
":. c #32224D",
">. c #372A4A",
",. c #28374D",
"<. c #38314B",
"1. c #252453",
"2. c #2C2353",
"3. c #242956",
"4. c #2C2954",
"5. c #25245A",
"6. c #2D245B",
"7. c #2C295C",
"8. c #312254",
"9. c #3A2855",
"0. c #31235B",
"q. c #243255",
"w. c #24355B",
"e. c #283A5A",
"r. c #363256",
"t. c #3B325B",
"y. c #271C62",
"u. c #361E62",
"i. c #1A2B65",
"p. c #0C3362",
"a. c #093663",
"s. c #1C3C64",
"d. c #173668",
"f. c #0E3170",
"g. c #1D3B74",
"h. c #2D2563",
"j. c #262C67",
"k. c #2D2964",
"l. c #342463",
"z. c #392665",
"x. c #332863",
"c. c #273867",
"v. c #35366B",
"b. c #352F75",
"n. c #2C3777",
"m. c #2C3C75",
"M. c #373977",
"N. c #432549",
"B. c #46295D",
"V. c #442B62",
"C. c #462B6B",
"Z. c #47336E",
"A. c #472D72",
"S. c #473371",
"D. c #1A4354",
"F. c #08446D",
"G. c #174362",
"H. c #14416D",
"J. c #074373",
"K. c #174479",
"L. c #1C597C",
"P. c #27476A",
"I. c #274775",
"U. c #304A71",
"Y. c #1A647B",
"T. c #163988",
"R. c #2C3D81",
"E. c #373E87",
"W. c #0C4685",
"Q. c #1A4987",
"!. c #1A578A",
"~. c #1B5B8D",
"^. c #184994",
"/. c #0F5890",
"(. c #1A5B94",
"). c #185798",
"_. c #135B9C",
"`. c #264686",
"'. c #374486",
"]. c #215486",
"[. c #284994",
"{. c #285997",
"}. c #21559C",
"|. c #2C5D9C",
" X c #34579B",
".X c #196686",
"XX c #1B648C",
"oX c #1A6293",
"OX c #186498",
"+X c #166F98",
"@X c #276399",
"#X c #1D52A4",
"$X c #175CA5",
"%X c #105BAE",
"&X c #2D54A4",
"*X c #2659A6",
"=X c #325BA6",
"-X c #315AB4",
";X c #0B69AC",
":X c #1664A7",
">X c #1C63A4",
",X c #136EAA",
"<X c #1C6DAD",
"1X c #0E78AE",
"2X c #1775A8",
"3X c #0D67B5",
"4X c #186AB6",
"5X c #0C7DB5",
"6X c #0C7BBC",
"7X c #1577BA",
"8X c #2E62A3",
"9X c #2668A8",
"0X c #3264A8",
"qX c #2572A7",
"wX c #3576AE",
"eX c #286BB5",
"rX c #2C6ABC",
"tX c #3666B5",
"yX c #2877B9",
"uX c #0C7AC8",
"iX c #1879C5",
"pX c #1A73CF",
"aX c #266BC2",
"sX c #3965C3",
"dX c #297AC7",
"fX c #486EC7",
"gX c #18859D",
"hX c #0B83B7",
"jX c #0D8CB3",
"kX c #0C82B9",
"lX c #1883BC",
"zX c #2B82BA",
"xX c #1888C9",
"cX c #1291CE",
"vX c #1689D1",
"bX c #0998DA",
"nX c #1997D6",
"mX c #2589C9",
"MX c #2598CE",
"NX c #2796D2",
"BX c #249BD3",
"VX c #3491D0",
"CX c #0AA0CB",
"ZX c #10A1CD",
"AX c #1AA9D8",
"SX c #1BB9DB",
"DX c #25A6D3",
"FX c #0FABE6",
"GX c #1EA6E4",
"HX c #14ABE2",
"JX c #15B3E6",
"KX c #13D1EB",
"LX c #19D4EB",
"PX c #15E5F5",
/* pixels */
"VXb.v.Z.S.S.Z.S.S.%.I.fXb.Z.C.A.A.A.A.C.f  X'.C.B.B.C.B.V.C.9.<  XM.B.t.V.V.V.z.:.z wXM.B.B.V.V.B.V.V.:.J tXZ.B.V.B.B.V.V.V.h U.",
"NXy.h.V.u.z.6.l.z.w f.sXW 0.9.) ) z.u.) = ).E.~ / / ) R ~ u.T @ [.x./ Q ^ ~ ( 0.s 6 tXb.R / ^ / E ( / F 6 -Xz.E 8.^ ^ ^ ^ / i k.",
"NX! h.z.z.u.0.l.l.6 d.sX! l.) ) u.) ) ( % $XE.! / / ) / ^ u.K . [.k.) ^ Q / ( ( j 7 tXb.R / Q ( / ( / F w &Xx.E ( ^ ^ ^ ^ ^ ; v.",
"BXy.x.l.z.l.h.l.l.t p.sXy.l.l.u.u.u.0.) = :XE.Q 8.( ) / / u.G . [.z.) Q ^ ( ^ 0.j 6 tXb.R / Q ( ^ ( ( l ; &Xx.E :.^ ^ ^ ^ / ; v.",
"BXy.h.x.x.l.k.l.l.w f.sXj.6.0.0.6.0.9.) = 4XE.E 2.( ( / ^ ( U . [.h./ =.Q / ! ( t 5 tXb.R / W ^ Q ^ ( l 1 &Xx.^ ^ E ^ ^ ^ / * v.",
"DXy.x.k.l.l.6.l.l.w ..tXW 8.:.8.8.^ 8.h.4 7X'.J 2.) ( ( ^ ) Y X [.h.) 8.^ / ^ ^ F q tXc.T ( ^ ^ I ( ( j - *Xx.E 8.^ :.E E / & v.",
"GXy.x.x.l.l.k.( 6.w p.-XO.O.3.O.i.O.o.O.` cX'.E 2.) ( / ( u.U X E.k./ 8.^ / 8.^ j e wXd.L ( ^ Q I ^ / t - &Xx.^ E 8.:.E E ^ ; v.",
"SX( x.x.k.l.h.6.u.d ..nXHXHXHXJXJXJXJXAXDXKXK.E 0.( ( ^ ( ^ U % R.h.E :.L I L Y k A dXg.E =.Y E ^ Q ( 6 ; &X0.E E E T E T Q 6 e.",
"SXy.x.0.z.u.0.6.6.6 @.dX).(.(.).:XOX<X3XXXAXI.~ 6.^ ( ^ ( ^ T = i.B 4 = 6 4 4 B B ..NXg.L 2.R / E Q ( d d T.[ Z t y u Z u 0 3 c.",
"SXy.h.j.l.l.8.6.6.j @.eXD W W W ! 1.Q ~ $ kX'.L ^ ( ^ ^ ( ^ L $ ^.bXvXcXbXbXbXbXCXjXFXd.Y 2.^ E E E ~ 6 y %XbXbXbXbXbXbXbXCXjXMX",
"SXy.k.k.l.l.8.6.u.6 a.rXD h.x.h.k.h.6.4.# 5X`.K :./ ^ I ^ Q F $ }.(.Q.!.].).(.>X>X_.GXs.Y Q / E I ^ ~ q 0 dX(.~.~.~.(.oXOX#X).qX",
"AXW k.7.6.u.4.2.6.j a.rXW 2.8.6.6.0.8.8.3 4XE.K %.I ^ I ^ I L 3 [.O.K G L L W ~ k 4 dXc.T 2.Y E I E / - V iX^ U G L J L J T s w.",
"ZX2.7.7.3.l.2.6.6.j a.tXW 8./ 9.0.( 0.5.$ 4XE.F *.Q Q I ^ I L 3 [.i.1.I ! ^ ^ ^ m 8 zXH.L ;.Y E I I / q c iX0.I ^ I 2.Q I :.j e.",
"jX0.w.x.0.0.4.6.6.j a.rXD 0.8.( ( 6.7.*.@ ;X`.S :./ Q Q ^ I G 3 [.c.D I I Q Q I f 8 7Xs.L Q T ^ E L E 1 y rX7.E I I E I I E t s.",
"mX5.h.h.0.h.2.2.l.j p.rXW 8.8.8.6.6.8.Q . :X'.P 8.^ 2.! ! E G $ }.j.=.I ! Q P Q F 8 eXj.G I I E J Y ^ 1 y rX7.I =.I I 2.I J ; w.",
"dX3.6.6.0.h.8.6.h.d @.rXW 0.8.6.0.6.8.1.. $XR.K =.^ =.^ ( Q G 3 ^.c.E I ^ ~ Y ~ z 8 0Xj.F Y I E %.Y Q a 0 rX7.I =.I I =.I E i q.",
"yX2.8.4.l.h.6.6.x.j @.rX! 0.8.8.6.8.6.2.. $Xn.K I Q E ^ ^ ! F 4 *Xj.J I ! ^ J ^ F : 8Xj.G I I E I Y ^ a y rX6.I I I I I I =.* e.",
"yX2.0.0.h.h.0.6.h.j p.rXW 8.^ 0.0.6.0.*.. _.R.K :.^ E ! ~ I K 3 *Xj.J J ~ T J Q j : |.j.L E I =.=.E ^ ; y rX7.J P I =.J I P O q.",
"aX7.0.7.h.6.6.6.h.j p.sXW 0.8.8.6.8.6.W @ _.R.K :.I I ^ ^ I F V eXj.k J P L J Q t : {.5.z J J L %.%.Q ; y aX6.J I I J I I I % q.",
"rX4.0.2.6.6.;.2.7.j @.rXW 6.8.0.( 6.8.I % _.n.t j F j F G F j Z eXj.z H P J H Q u : '.7.h z Y H M x J 1 0 rX7.I J I I P P *.& q.",
"<X$.J M %.$.%.*.P d ..aXW 0.8.8.^ 6.8.6.% /.n.5 6 6 - 6 6 6 = V 9Xj.F l P J J Q u > n.q o ; i * * + i o 0 aX4.J I I J I I I * q.",
"*Xb u e q A A Z D t d.tX1.0.8.6.6.0.8.=.% %XE.P 8.I J 8.T I d 4 *Xj.J H L J J I y q T. .V D D S ` ]  .V ..aX7.J $.J I H J W & q.",
"pXiXpXiX7XiXxXvXxXxXcXyXD 6.8.2.3.8.;.I @ 3Xn.F W ^ E ^ ^ ( d 5  Xj.W J Y J J J d ; #XtX X|. X&X-X&X-X[.[.aX8.J J =.J I J I & q.",
"dXW.T.T.Q.Q.Q.^.^.K.W.tXD 6.8.2.2.2.^ I % 3Xn.J 2.I 8.W E ^ d r `.[ w d d w d s s = &Xg.y Z F P S S D V ` rX4.J =.J I J J J + %.",
"dX5.1.=.2.y.6.5.6.A V 0XX.6.^ 2.2.2.2.=.# 3Xm.J W E =.Q :.^ w r f.g.i.5.i.i.i.i.d.o.*Xn.G ! 2.Y I x J a V yX4.J %.I I J J M   w.",
"mX6.6.0.6.2.2.2.2.u _ =XW 2.:.2.2.2.2.I $ 3Xm.H =.E E 2.E E d r $X$X).}.*X#X#X#XQ.g.*Xn.x L H I 1.Y Y f C aX2.J I %.%.J %.*.X c.",
"vXj.O.h.6.6.2.6.2.A V 8XX.6.:.2.2.8.^ I $ 3Xm.l I I =.I E ^ 6 V Q.M l z M F F H F $ }.c.x E J $.*.J z p ] eX2.H %.J J J J Q & w.",
"mX8.*.6.8.6.2.6.2.F ` 8X5.8.E =.2.=.Q Q $ 3Xm.l %.J =.=.E E d V ^.%.l J =.I %.z f - {.c.x L N Y W Q E d C pX1.J J =.%.I J U o w.",
"mX4.1.8.2.6.2.3.2.A ` 8XX.6.:.8.=.2.=.E $ 3XU.j I J =.=.E :.q V [.I F =.P P J $.1 > ].v.U =.=.x I =.*.d c qX3.G I I J J I z o #.",
"MX0.h.6.2.8.6.5.2.j ` =XW 2.:.=.=.*.%.I 3 7Xc.F ^ =.J I J %.6 Z `.z H P H H H I t - }.w.f g g f e p f d V aX3.J %.J J H J z O e.",
"mX8.6.6.2.8.6.5.=.j ` 8XP ;.:.E :.%.=.=.4 uXP.H I J J I E %.w y [.H J H J J J J t ; `.C o = = * o o + = D uX2.Y I J J J H P ; c.",
"xX4.h.6.8.8.^ 1.:.j ` =XD =.:.=.=.I J J 4 xXm.F =.%.E =.%.%.q Z `.H F J J J J J a = ^.*X).$X%X$X3X3X%X)./.uXW z J H J J J H & c.",
"xX4.6.0.;.Q ^ 2.:.j ` |.P ;.:.%.=.=.%.x q 7Xm.j I %.I I Y =.w C `.J J J H J J I u - *XK.o.#.q.o.#.q.#.] | 4X3.H P $.*.P P z o e.",
"MX1.5.0.2.6.( 3.:.j o.@XC u e y C u y V r mXc.J Q I I I J %.1 t `.F H J H H H J d % }.c.h z N L E x x ; 0 :X%.z z z z z z z o e.",
"MX1.5.Q =.8.^ 2.:.s V 4XeX9X>X<X<X<X<X<X@XbXc.z Q I J =.Y %.w t `.j l j F t l H d : ;Xg.G Y M J I E *.r 0 W.> o O o O O O < X #.",
"MX1.1.8.=.6.^ 2.:.6 ` 4X$X_._.$X_.$X_._.W.cXP.z I %.I =.I Y i u i.. o . . o o o o X (.j.U J $.b $.l %.1 & ).2X,X,X,X,X,X,X<XXX@X",
"BX5.1.=.:.=.6.=.8.q ..|.K F z J K J z F % 6XP.F E %.E $.=.I a 1 T.a.F.J.a.F.F.f.f.K.iXg.z z H $.z z Q w 8 uXiX5X7X7X7XlXxXuX,XeX",
"MX5.=.=.:.2.2.=.:.w ..8X[ -.*.;.3.-.*.;.6 kXI.F I =.J %.=.=.1 0 4X*X).).).*X)._.).L.4Xd.h m m %.H H I 1 8 7XX.w A u A Z y e 2 ' ",
"BX6.1.=.:.=.2.=.E w | 8X] 3.-.-.-.3.*.-.$ hXU.A Q $.Y %.I Q q _ _.l F F F l H l p o {.c.h U L $.J H I 1 9 7Xo.$.$.$.$.$.$.J p b ",
"BX4.1.:.:.;.=.=.I w | 8X[ =.*.1.3.*.*.4.- hXI.A =.-.*.%.E ^ q _ $X$.$.-.$.$.$.*.[ 5 &Xj.Y P [ I J %.I , 9 4X-.h z H H z z P e ] ",
"BX3.1.:.>.=.2.I E 1 | 8XS 2.*.;.1.=.1.;.- kXP.A 1.*.=.%.=.E d C *X$.P *.$.$.$.' b : {.w.h x z $.J $.I 1 9 eX1.K *.*.I K J F , m ",
"BX5.1.%.;.=.2.%.=.1 | @XS =.=.=.1.=.=.=.5 5XI.' 2.*.E $.J E w _ *XK P P P H P H l < ).d.m z N J z $.P & y 7X-.l H H $.H F l , m ",
"BX1.2.:.:.=.*.=.E < | 8X[ 2.=.=.1.=.;.=.- 5XP.$.=.=.T =.*.*.< _ *XH $.H H H H $.m $ [.j.x K -.H z z H , y dX2.k H %.H H l S 2 ' ",
"nX-.2.:.=.=.2.I I w } |.S 2.=.=.-.*.E 6.: 2XL.U =.&.%.Q *.&.1 ] 9Xz %.M $.$.J P K < Q.w.x J $.J E N m < ` aX;.l $.*.J H H K 2 b ",
"BX-.5.;.:.=.2.%.=.1 | @XS 1.=.=.;.=.=.2.- 1XP.' 4.&.&.2.=.F d { >Xz H $.$.H P %.M X `.[ p h p j G k s ; H rX;.l $.J %.F H A 1 b ",
"DX&.o.8.:.=.2.=.E q } |.S 2.=.*.*.*.*.=.- hXI.A %.&.J T L J t | <Xz M $.$.H H H z o g.8   X     o o = % ] 7X*.z H %.H J l H , b ",
"AX&.-.:.E =.Q =.:.w } |.S *.=.=.*.=.=.6.6 2XY.,.,.D.,.#.#.e.O.H.2Xz H %.%.$.H %.m & W._.oX;X:X;X3X;X;X/./.uX$.z l $.J z M $., b ",
"DX:.*.:.=.=.2.%.I q } @XA =.*.=.=.=.=.-.6 hXPXLXLXLXLXKXKXKXSXDXxXj H $.$.H H J u $ ^.(.H.K.H.g.K.K.F.@.#.eX%.z M H H z H *.> m ",
"BX;.=.=.:.=.2.=.I w | {.' *.=.=.=.=.=.2.6 1XgXL.Y..X.XL.L.].P.F.2Xz H $.$.$.J J u # /.a.> e 2 e l g j 1 9 <X%.z l z z z l $.& m ",
"BX&.=.=.=.=.Q =.I w | {.' *.=.=.*.=.I 3.3 jXP.s z H U F l K y 8 XXz %.N H H $.J h X oXd.l ' b b H z N p y <XH g M %.J z z H O ,.",
"MX;.1.=.:.=.^ *.=.6 ..@X' =.=.$.*.=.*.2.q kXP.l I -.$.=.*.$.u 8 OXJ J H H H H J l @ OXd.u l v l z m $., < 4XP l M $.z z l l & #.",
"mX*.*.=.=.=.E *.=.a | @X' *.=.=.=.*.Q =.9 hXH.F K -.$.I *.$.l 0 (.z J J H H z J u . (.s.g H M $.z l I , q <XH z $.l z z z z * q.",
"zX$.1.=.=.=.Q *.=.6  .@XA 2.*.*.=.*.Q 2.3 kXP.u Q [ $.=.=.$.d 8 (.H H J H H H H g # oXs.l z l l z z H , < 9XH z M M z z l z * q.",
"zXN =.=.=.=.2.$.$.q +.@XA *.=.=.*.=.=.=.5 hXP.g H &.$.I $.$.e 8 (.$.$.%.$.H H H j . oXs.d z M H z z H , - <XP z H F z z l l * e.",
"zX%.E =.=.$.Q -.P 1 +.@XA =.=.=.*.2.*.=.- hXP.e I ' $.H $.$.g 8 (.l $.$.H l z H u # oXs.g z l l z l H , q $XI z l l z l l z * e.",
"yXN I =.I %.I $.%.- ..@X' =.=.=.*.2.=.*.< hXP.w H ' %.%.$.$.f 8 ~.$.$.$.$.H H $.u X OX#.g H l z z l $.> < $XP x H l k l l z * c.",
"yXJ P *.=.%.I $.H 1 @.@XA =.=.=.*.;.I =.$ hXP.g J $.N =.$.M d 8 ~.$.$.$.H H H $.e # oX#.g %.u $.z u A > < $XJ z z z z z l l * e.",
"qXf j J F v g l g O #.9XA -.%.=.%.*.=.*.< hXU.u J N z J ' M e 9 !.$.$.$.M ' $.$.c # ,XH.k l M M z l P , > OXH g l l g l j f * P.",
"qX; 6 q q < > q 5 o @.@XA *.$.=.=.*.*.*.- hXc.e J N z J $.$.e < Q.f d d a d d f O   gXG.p z z M N l H > > W.q > > > > & > < # P.",
"yXz H J *.' %.P H , @.9Xu *.%.=.%.*.=.$.$ hXP.e J M H J M M e 3 OXOXoXXXXXXXXXoX/.!.cXK.f J z $.g l H > > ^.+XXXXXXXXX.XXX~.L.@X",
"zXJ J =.I *.$.*.=.1 +.qXA *.*.=.=.*.=.*.- 5Xc.e J N %.J $.N g < xXFXCXCXCXZXCXbXcX2XnXF.p m v l z l A O > 9XQ.H.H.H.g.H.d.#.{ U.",
"zXz =.I I =.I I =.i +.8XA *.*.=.=.=.*.%.- hXe.l J z z J M N g 8 OX*.S H [ $.*.$.2   +XG.f P S H z M $., , $XI k F k d f d f X e.",
"zXF 2.I Q $.I P P 1 +.qXA *.%.=.;.*.*.*.- 5Xe.m J N N J n n g 8 @XF l e l l l j m > 2XF.p z l H l m H O < >X[ l u l M l h h : #.",
"zXr.t.z.t.r.t.t.t.n G.wX;.t.r.t.r.t.t.r.M zXU.&.B.<.r.N.<.N.%.[ qX,.,.&.;.;.>.;.n 2 wXU.N.<.<.<.>.<.;.n m 0Xt.9.9.9.N.<.N.N.p U."
};
