/* XPM */
static char *out[] = {
/* columns rows colors chars-per-pixel */
"64 64 256 2 ",
"   c #0D0C1E",
".  c #030325",
"X  c #0B0225",
"o  c #020C27",
"O  c #05052B",
"+  c #0A042B",
"@  c #050A2D",
"#  c #0A092E",
"$  c #13012C",
"%  c #16082B",
"&  c #05112E",
"*  c #151424",
"=  c #17152B",
"-  c #050632",
";  c #0B0633",
":  c #050C33",
">  c #0A0B33",
",  c #0D063A",
"<  c #020C3A",
"1  c #0C0D3B",
"2  c #130334",
"3  c #130B35",
"4  c #190835",
"5  c #14053B",
"6  c #1B033D",
"7  c #130B3C",
"8  c #1B0C3D",
"9  c #0B1235",
"0  c #05133C",
"q  c #081538",
"w  c #0B143C",
"e  c #1C1532",
"r  c #15143B",
"t  c #23063D",
"y  c #22123D",
"u  c #1F2538",
"i  c #060942",
"p  c #0C0D43",
"a  c #0D0D4B",
"s  c #150544",
"d  c #1C0444",
"f  c #130B43",
"g  c #1C0B44",
"h  c #19074B",
"j  c #140C4B",
"k  c #0B1444",
"l  c #051847",
"z  c #0B1B44",
"x  c #0C144B",
"c  c #0C1C4B",
"v  c #131344",
"b  c #181944",
"n  c #13134B",
"m  c #1B144C",
"M  c #121B4D",
"N  c #0B0D52",
"B  c #1B0554",
"V  c #130B51",
"C  c #1B0C53",
"Z  c #180A59",
"A  c #0C1754",
"S  c #0C1C53",
"D  c #131454",
"F  c #131B53",
"G  c #191759",
"H  c #220244",
"J  c #2B0B47",
"K  c #24034B",
"L  c #2C034C",
"P  c #240C4B",
"I  c #34064C",
"U  c #251548",
"Y  c #31174E",
"T  c #2C0552",
"R  c #2C0A55",
"E  c #260859",
"W  c #320354",
"Q  c #320B53",
"!  c #3B0855",
"~  c #35035A",
"^  c #3B045B",
"/  c #34095C",
"(  c #3C095A",
")  c #241354",
"_  c #271758",
"`  c #391258",
"'  c #082348",
"]  c #0B234D",
"[  c #192345",
"{  c #18244B",
"}  c #10334E",
"|  c #0B2353",
" . c #092955",
".. c #0C245B",
"X. c #0B2C5C",
"o. c #162956",
"O. c #12235A",
"+. c #0C335C",
"@. c #0C385D",
"#. c #18345C",
"$. c #242558",
"%. c #31305C",
"&. c #181966",
"*. c #19136C",
"=. c #2C0C64",
"-. c #280C68",
";. c #370867",
":. c #3C0C63",
">. c #241363",
",. c #281667",
"<. c #381567",
"1. c #2A0C76",
"2. c #380977",
"3. c #2B1776",
"4. c #381676",
"5. c #0E2964",
"6. c #142966",
"7. c #0C3463",
"8. c #0C3B63",
"9. c #0C396A",
"0. c #173668",
"q. c #192978",
"w. c #0D3D72",
"e. c #153877",
"r. c #262669",
"t. c #352567",
"y. c #253568",
"u. c #282577",
"i. c #342578",
"p. c #253D75",
"a. c #430658",
"s. c #440A5B",
"d. c #53075E",
"f. c #46145D",
"g. c #440463",
"h. c #4B0563",
"j. c #480866",
"k. c #44056B",
"l. c #430B6B",
"z. c #4B0C6C",
"x. c #5B0966",
"c. c #550869",
"v. c #5D0A6B",
"b. c #481567",
"n. c #55166A",
"m. c #470876",
"M. c #580977",
"N. c #491475",
"B. c #561579",
"V. c #66096B",
"C. c #660A74",
"Z. c #6B117B",
"A. c #4F2678",
"S. c #14455F",
"D. c #0F4B6B",
"F. c #174469",
"G. c #0E4A77",
"H. c #154679",
"J. c #0D567A",
"K. c #155977",
"L. c #22447B",
"P. c #24567A",
"I. c #07657E",
"U. c #0A637E",
"Y. c #15627A",
"T. c #256378",
"R. c #4A5478",
"E. c #1F1982",
"W. c #2C1986",
"Q. c #37198C",
"!. c #183883",
"~. c #1E348A",
"^. c #372786",
"/. c #2A318A",
"(. c #362A93",
"). c #3430A5",
"_. c #590A85",
"`. c #461586",
"'. c #581787",
"]. c #4E1390",
"[. c #660A88",
"{. c #750D8A",
"}. c #671687",
"|. c #77178A",
" X c #6A0B94",
".X c #78099A",
"XX c #681596",
"oX c #791798",
"OX c #4C288C",
"+X c #6A2594",
"@X c #6C15A8",
"#X c #771BA6",
"$X c #552DA9",
"%X c #7523A7",
"&X c #0E4F8A",
"*X c #154787",
"=X c #175688",
"-X c #175795",
";X c #265785",
":X c #304D93",
">X c #086681",
",X c #146C92",
"<X c #266995",
"1X c #0B58AB",
"2X c #3151AB",
"3X c #136CAF",
"4X c #3472AB",
"5X c #416191",
"6X c #4D58B7",
"7X c #7354B6",
"8X c #5874B7",
"9X c #6C6BB9",
"0X c #2966C8",
"qX c #6068D2",
"wX c #841393",
"eX c #8A1A9C",
"rX c #892A99",
"tX c #870AA8",
"yX c #8617A7",
"uX c #9513A8",
"iX c #8D18B5",
"pX c #9916B4",
"aX c #AB15B3",
"sX c #A916B5",
"dX c #8F29B3",
"fX c #A925BA",
"gX c #B322BE",
"hX c #951EC4",
"jX c #982EC3",
"kX c #A728C8",
"lX c #B627C6",
"zX c #B732D1",
"xX c #C41FC9",
"cX c #CB2CD7",
"vX c #D936EA",
"bX c #F139F6",
"nX c #8663CE",
"mX c #C14BCF",
"MX c #278594",
"NX c #148CAB",
"BX c #2592AF",
"VX c #17ACB7",
"CX c #24AEBB",
"ZX c #41A5BF",
"AX c #168FD0",
"SX c #1CB1D4",
"DX c #25A6D8",
"FX c #2AB8EA",
"GX c #7287D0",
"HX c #1AC5D1",
"JX c #10D3E8",
"KX c #06E7EE",
"LX c #12EBF0",
"PX c #2EE2EB",
"IX c #61E9EA",
"UX c #9FDCE8",
/* pixels */
"u >.u.,.r.} #.o.o.P.=XK.F.S.} y ,XLXF.#.#.y.F.#.#.#.$.$.y.y.{ [ $.#.o.o.%.y.$.[ [ [ [ [ { A.A.t.b.o.dXdXL.T.o.r.t.t.O.i.$.y.$.%.",
"= N *.Z D 0 l k k w 0 z z ' q . >XKX+.| X.w.X. .] c b F F k 7 w ' z l z w z b r q q q : #.i.Z >.`.F }.+X9.K.p 1.b._ x >.n S z [ ",
"= N Z Z A 0 l 0 k 0 : : @ @ & . >XKXX. .J.JXSX7.l O.M M F c 9 q c ' l z w c n w & q 0 @ @.OX>.E ,.D B.XXe.K.i `.'.G k &.n | c { ",
"= a *.Z A l | l l k q q & & @ o >XKX+. .8.NXBX9.c O.k v M z 9 w ' z 0 w c ..m 1 q ] q @ q b.u.;X-.c '.%X=XK.N A =.) F 3.<.e.c [ ",
"= a Z V A 8.3XJ.z w & & & : @ . >XKX7.l +.,X>X7.] c b F O.v # : ' | w w S F m w & ' 0 : w Q e.4X3.n '.%X9.Y.x &.,._ S XXzX*Xn [ ",
"* / C N j 8.3X,XD.D.@.' 9 . . O >XKXX.l 7.3XNX7.| c k m G x : > z | 0 w S M g 1 > k q @ w :.p.<X2.G 4.%XG.J.a A -._ X.OX%X*X| r ",
"* E Z *.V 8.NX,XVXLXHXVXVXMXD.X I.KXX.|  .9.S l X.o.m ) M k 1 b M w < w v w U 9 : > : : w <.u.:X=.| +XzX*XU.j &.,._ 6.e.*X-Xv [ ",
"= a N *.Z ] ,X&XS.,XNXVXHXLXCXO I.KX+.S ..7. .' | 6.b v D n > ; o.w.: w k r _ # @ 0 : @ q b./.4X=.] +XdXG.J.D &.,.=.6.~.!.0.v [ ",
"* V N &.N  .&X5.l l k z  .S.S.. >XKX9.| | ,X8.l ] 6.O.f >._ # @ z o.9 w k M n # # =XF.o 0 <.u.2X,.F ].kX*X>XN A <.,.5.E.A G x { ",
"* j Z -.V ' J.D.| S l l < : : O >XKXX.c  .*XX. .z #.0.8 >._ : : n G @ 1 z ' k # O H.#.& k A.=.m.<.O.'.zXJ.=XN *.<.<.q.W.u.,.x [ ",
"* i Z Z a l 8.G.7.S l k 0 q q O I.KX+.z | 5.l l k #.#.d &.n ; : w k < 9 v k 1 ; o =X0.&  .:X-.-.^.D +XcX&XU.4.XX=.` q.3.>.n x [ ",
"* i Z j a ] G.G.F.w.9.9.+.l < O I.KX9.l 7.7.| l w o.6.7 k k # > k z : 3 1 v r 1 > o. .& 0 Q.1.`.4.D rXcX&XJ.XXiX-.,.&.*.D a k [ ",
"* i =.K a  .=X,X,X=X=X&XX.c w O I.KX+.c X.8.7.7.c M D f j v ; # & : @ 1 1 7 8 O # < < Z E.Q.W._.].>.XXjX&XI.XX%X-._ &.1.A n _ b ",
"* i =.E N 1 c c | 7.9.G.9.z 0 - I.KX .z | |  . .M r f 7 E b.@ @ w : # 9 O P U O @ &.W.W.3.OX).Q.Q.3.#XkX&XJ.}.#X>._ &.*.x p m [ ",
"e i ;.T V w x k k k k k l k 0 O I.KX .x | l 0 0 1 F.0.5 C z.# @ w : @ 9 # y J : @ W.Q.*.3.OX).2.].`.XX%X&X>X'.`.-.G k 6.1 < x b ",
"= i g.T V 1 F D ,.) x l i 0 < - I.KX+.| A.XXB.m w P.e.2 j n ; ; # & @ ; O 8 U O ; ].(.$X1.]./.W.2.1.dXjX*XJ.B.4.>.<.p 0.*.u.G b ",
"= B h.W j f 3.3.@XiXpXfXyX+X<.; U.KX .k n <.N.U 1 =X=X7 a A % : 8.z . ; . 8 J : < ].(.nX1.].~.(.:XAXqXfXe.=XN.4.>.N.f S 0.Y.F.[ ",
"= B h.Q V l 6.S D G ;.}.eXfXgXd I.KX .l z k l & 3 *X=X8 m p # < ] z . ; O 8 y @ - `.(.jX].hXZXSXVX>X+XfXe.K.B.iX4.b.f p D.<X6.$.",
"= =.c.R a S -X-X..k k i < < 1 + U.KX] k z k 0 w 7 K.H.P G n 5 b w 9 . @ - 8 y ; - ].(.jXdXrXy.| B Z dXzX*XJ.B.kX4.z.h p #.6.C $.",
"= ^ x.W N k H.&X6.A x k i k > ; K.KX .w ] z 9 < ; P.=X2 n p n.'.0 & . # . 8 y @ < 1.j ) ;XBXo.O.E.u.dXvX-XG.n.fX4.N.g n _ >.3.t.",
"= a.x.R N c H.e.9.9.6.X.p 1 ; - S.MX| ] r l 0 : > P.P.P j w A.Z.o @ . . . 8 y ; k @ . S.ZXMXm e.1.*.XXXX-XG.z.fX4.N.n Z Z &.G $.",
"* d.V.R V k *X&X*X*X&X!.x w @ O Y.LX| m _ b q @ 1 P.;XR ) r n.A.J.o.y # . t J @ z 9 + 9 U m M q.1.2.%X%X*XG.z.lX'.4.}.yXa G D $.",
"* d.V.T V c *X*X*X*X&X*X*Xw.#.X U.PX| w { ] z & 2 =X=Xm r.0 f.OX,X5X7Xy . 8 J : w z # & U ) n e.'.l.'.%X!.D.n.lX XN.yXpX=.*.G _ ",
"* d.V./ V S ~.*X*Xe.*X*X-X-X*X+ K.KX] k o.o.X.q 3 #.o.` '.) f.'.& e y * . e 8 > w r > g U _ x q.'.;.oXzX!.F.z.lXXXN.}.iX4.G D $.",
"* d.V.! V j q.w.e.x p p l ] | + U.LX] < @ 0 q < r 8 l.A.) < c.+X& & . . . e y O 9 [ > :.8 U n q.'.;.yXzX!.8.M.cXXXm.4.`.S V n _ ",
"  x.V./ B ] &X&XH.i.6.S A c | , Y.PX| 0 q & > @ > r . @ c S b.+X9 # . . . 4 y ; @ r 1 ( U ) n 5.b.;.'.+X!.8.Z.bXXX X2.XXD D v $.",
"* x.V.Q B k w.&X<XzXcXzXzXdXC O P.LX] z w z w O w M 1 w w < b.+Xm 4 . . O 4 8 : O z 9 Q r k v O.N.<.}.#Xq.7.B.bXXXM.-.XXj s , r.",
"* x.V./ B , h s h V Z <.'.XX6 . #.NXz > @ ' q o @ : 1 k v 0 f.}.$._ o % # 4 8 O # | : > v _ f S b.` N.XXq.7.C.vXXX`.-.;.0.,XP.t.",
"* x.V.( B v ~.!.q.6.5.N N N - . F.NXq 9 @ q w @ @ r k k C M f.t.q 9 % % O e 8 ; & r : O 7 t.k A ` f.B.%X!...[.vXXX;.h m ;XP.] p.",
"* x.V./ V 1 e.!.*X!.~.&X&.- O . T.PX .> o ] ] o @ _ k 1 p _ n.B.X.F.[ $ X # e > @ 9 O # 9 r > A l.` |.lXq.5.}.bXXX;.h h s j F ;X",
"* x.V.( B > 3.Q.q.q.q.7.S : O . T.IX' @ @ & & o o U < > a < n.+X5.*XF.% # . ; > 9 r @ 3 # # O F b.f.B.XXu.S M.kXXX2.h R j F ;X;X",
"* x.V.! B 1 u.(.~.-X*X!.5. .z . R.UX' + ' S.} q { U 1 1 7 - f.<.0.e.0.$ # + % 1 w 9 O # > ; # A f.` B.oXq.F }.lXXX2.h E h O.<X;X",
"* x.V.:.E + -.`.W.e.!./.F O @ . P.IX' @ o @ @ 9 { ) 1 1 7 k ` Y 6.e.F.% X X % r q w @ O # y.r G b.` N.}.u.A [.bX X2.B K B 6.6.;X",
"= x.V.l.E ; Z &./ , : f ; > ,.O Y.IX' @ @ O O q ] U 1 ) s z s._ 5.!.0.% + # = U r r @ # > #.9 V f.Y }.fXr.A B.zX Xl.E =.E r._ y.",
"= v.V.j.E , 5.5.X...c 0 o ) '.. Y.JXw @ o # . < & U O m f - b.'.S 0.[ % @ O e Y z 9 ; U VXVX9 f f.Y rXzX,.V B.bXXXm.E 2.E P ) _ ",
"= x.V.g.~ a !.e.*X*XH.X.w ; > O & [ < : # @ & & r ! @ j p < n.|.A 6.$.% : . U Y r 9 r r } z # v f.! '.oXu.a [.bXXX2.-.2.=.&.h $.",
"= c.V.h./ , Z G O.O.o.] c w w # @ O 9 @ # O @.S.# m 7 p i , b.'.k 5.y.% , O 3 y # 1 9 X X ; ; j f.! z.XX4.C B.zX X2.;.Q.E E f _ ",
"* x.V.c.^ ; s f 5 , ; O # . o . # O > r O O @.8.o U ; p p , 0.-X; [ y.= v # # 3 X 3 3 X X 5 ; ; f.` wXzX3.C M.#X X_.-.2.=.OXo.;X",
"= x.V.v.^ 6 / P f 1 > ; + 9 9 @ 8 ; 9 r O O @.+.. m # v , > i.-X+ O o.% ` 3 > ; X 9 ; 3 y b.<.c f.I }.yX-.C }.cX Xm.=.`.Q.1X&XLX",
"= x.C.x.^ P }.B.2.E 1 < : c } ; 3 : b b O O @.+.. m ; k 7 , ` R v { e r g # 3 ; + 7 3 8 J R ) 0 & l l.oXE Z C.lX X2.;.2./.3XU.LX",
"= V.V.C.g., 5...A k < : : # ; # ; > v v # O +.+.O P # p 3 1 J J v m #.4 P ; r ; 2 7 3 8 H |./ < f h m.pXE Z M.XX Xm.2.;.q.3Xw.CX",
"= v.V.v.a.5 ..5...l c k : ; O O ; c c w > O +.7.- ) ; a 7 h b.P # > y.4 Q , 8 # + 7 3 2 H aXN.l s E =.k.E Z {.cXXXm.1.2.*.1Xc F.",
"e v.C.C.g.5 B j x A S S 1 - 3 P ; k c b 1 ; 5.+.: ) > n 7 m b.I 8 > #.4 R 7 2 2 2 5 5 5 T aXN.i f B E ;.=.E k.pX[.m.2.m.~.AX..#.",
"e v.V.C.h.5 B j j c A S 1 : 8 Y 5 k c ] 1 , X.X.- ) 1 n m h ` / 5 % t r ;.7 2 2 5 7 6 5 T uXm.l i B '.iXVXq.E B m.m.`.].2XFX7.b ",
"t V.C.V.h.6 >.G m D S A 1 1 1 , i S 0.| f 5 S S > g.n j 5 g ` / s 5 J g :.6 7 4 6 5 d G ,.{.z.P T ;.m.'.:Xb.k.m.M._._.].2XDX7.D.",
"e V.Z.C.d.d -.>.&.G D A 5 , f f f G =X-XH.H.0.M v :.F j 5 P <.;.d d ) P k.d 5 6 d g H q.,.eXc.L W W ! ! a.( ( ! ! W I t y.FX9.MX",
"e V.Z.C.h.H -.>.&.&.S &.f f j j C q.6.q.e.*Xe.G v :.j f g d <.:.d d P g z.H 6 d 6 d d d g.aXv.a.v.v.V.V.C.v.v.v.v.v.d.d.(.DXw.BX",
"= V.C.V.x.K -.=.-.&.&.&.j j C B B _ ;X;XL.y.6.D V <.P k.s h :.;.d d H 6 M.K d H H K H d W aXM.I ( s.s.j.h.s.a.a.a.a.a.a.i.AXG.HX",
"e ! x.{.v.K 2.,.-.*.*.Z s B -.B 6.<XBXCXDXCX*XD n N.R l.s d :.:.~ H H t C.K K d H K H d W uXM.I ! ! s.s.s.s.s.s.a.! ! a.r.FX7.,X",
"e $ ! V.s.^ 2.2.-.-.*.&.k Z -.E >.4XnXGXGXGXOX,.m ;.L l.d ;.m.l.2.K H K }.R K / :.d d L 6 wXb.h.V.M.n.Z.C.v.n.C.C.v.x.x.OXFX9.MX",
"y % X + $ $ E 2.-.=.a i P :.V 5 3 E kXkXkXjXhXXX-.z.W j.T m.k.k.m.W K B {.T K g.z.K d d 6 uXc.a.c.c.c.Z.Z.c.c.c.j.c.h.d.OXFX9.,X",
"e t d.s.! J ^ 2.=.E , ; - O - - . _ dXjXjXjX`.G ) m.~ z.T ~ k.m._.~ E E {.~ K g.z.d K K 5 aXC.L ! ! ! ! Q ( s.! ( ( ^ ! u.AX5.=X",
"e I {.|.|.|.|.eXrX|.|.|.|.n.3 > O ; u.(.W.3.3._ ) M.W c.L ~ _.m.m.T L L {.~ K g.B.) E K h .Xj.J a.a.j.j.h.s.j.s.! I t t G 0X5.-X",
"y % H J % t H B.'.c.j.T ( ( 5 ; O + G /.^.u.u.,.E `.~ M.W ;.tX_.m.T W W [.~ E k.].,.T K d h.J K ( k.z.z.B.N.l.:.( T L H 6.3X9.-X",
"e $ I I t t 6 b.M.z./ 6 d d 2 - O 6 :X2X^.W.u.,.E m.j.M.W g.tX_.[.~ T W .X:.=.k.'.E K K %.aXc.; g d d C G G n f s h 5 + 5.3X5.3X",
"e t H I a.d.c.M.m.k.^ Q ` I 6 2 + H :X2X^.^.^.,.[.m.j._.~ k._. X X~ ~ ~  X;.;.g._.~ T T 8XgXN., ; X 7 G G m D m $ X + + ..0X*XMX",
"e $ 6 d d ( l.j.R K T j.n.b.s.c.n.h.r.p.).(.i.^.%Xm.k.[.;.m..Xm. X^ ^ ~ .Xm.l.m.XX/ d M.8XgXz., 2 5 ;.2 $ $ 2 2 $ 2 5 5 5.SXJXDX",
"e $ H H d d d 6 d g d s 5 5 , 1 , ; X . <X6XQ.^.8XM.m.[.k.M..Xk..Xg.^ ^ {.k.^ M.XX*X].uX9XfXc.> 3 h h 5 f 6 2 2 2 2 5 2 | JXJX3X",
"e $ t 6 d t H H H d d K d d s 5 , ; ; + <X2XOX(.GX`.m.[.k.M.iXM..Xk.a.;._.Q.k.M.OX3X4.wX9XsXc.; (.4.5 2 s 6 6 t 2 7 2 X 5.KXJXSX",
"e X $ eXsXuXeXwX|.{.C.c.j.s.~ K 5 5 ; O :X6X2X(.8X_._..XM. XtXM..Xh.g.g.hX6X2.[.XX3./ wX9XgXz., 3._ H 2 6 6 H I $ 2 2 + ..NXNXBX",
"= X % Z.uXaXsXaXgXxXxXxXcXcXcXcXyX2 3 - ^.$XOXOX9X[.[.yXm.C.iXM..Xc.`.g.hX0X]..XiXM.~ tX9X}.:.h `.) K 6 6 6 6 $ $ + 2 5 h X X = ",
"= $ 4 t H L J I W ~ ^ ^ g.h.h.c.( 5 5 , 4.%X$X@XnX XM..XM.C.pX[.tXM.'.k.kX6X].#XiX[.g.[.7X<.E C 5 2 2 6 6 5 2 2 2 2 5 P s + . = ",
"* $ $ t L L I W W L L I W K H 6 2 5 5 > ;.Z.'.@XnX.X_..XM.[.pX[.tX[.XXz.kX6X_.tX.XM.h.M.7XyXc.8 g 4 $ 2 6 | ..| S A v 6 f ;.m.'.",
"u = e y y y ` ` ` ( ` ` ` Y Y ) U _ U b <.'.OXdX+XyX|.tX}.|.fX{.hX X'.[.mXqX XiXrX}.B.B.9XgXZ.` t.$.y U ) 0.0.0.0.o.G Y _ U U t."
};
