/* XPM */
static char *out[] = {
/* columns rows colors chars-per-pixel */
"64 64 209 2 ",
"   c #6D00DB",
".  c #7300DF",
"X  c #7800DF",
"o  c #7712DE",
"O  c #7300E1",
"+  c #7B00E3",
"@  c #7C00E8",
"#  c #7912E1",
"$  c #6B00F8",
"%  c #7400F2",
"&  c #7C00F5",
"*  c #7500FC",
"=  c #7C00FB",
"-  c #8300E6",
";  c #8D00E4",
":  c #8400EB",
">  c #8B00ED",
",  c #9300E5",
"<  c #9A00E6",
"1  c #9300EC",
"2  c #9C00EC",
"3  c #8812EA",
"4  c #9812EB",
"5  c #8500F5",
"6  c #8B00F2",
"7  c #8400FB",
"8  c #8B00FA",
"9  c #9300F4",
"0  c #9C00F5",
"q  c #9400FB",
"w  c #9C00FB",
"e  c #940BFF",
"r  c #9C0BFF",
"t  c #8511F9",
"y  c #8514FC",
"u  c #861CFE",
"i  c #8C1CFE",
"p  c #9D12F3",
"a  c #9312FA",
"s  c #9D15FF",
"d  c #921DFE",
"f  c #9C19FF",
"g  c #A200EE",
"h  c #A612EC",
"j  c #A300F5",
"k  c #AB00F6",
"l  c #A400FB",
"z  c #AC00FB",
"x  c #AF0AFD",
"c  c #B300F5",
"v  c #BC00F5",
"b  c #B300FB",
"n  c #BB01FC",
"m  c #B60DFF",
"M  c #B90CFF",
"N  c #A212F5",
"B  c #AA12F6",
"V  c #A415FF",
"C  c #AA15FF",
"Z  c #A419FE",
"A  c #AB1BFD",
"S  c #B712F5",
"D  c #BB12F7",
"F  c #B415FF",
"G  c #BB13FF",
"H  c #B21AFE",
"J  c #BC1AFE",
"K  c #8323F1",
"L  c #8725FC",
"P  c #8B25FC",
"I  c #9424FB",
"U  c #9B24FA",
"Y  c #992BFB",
"T  c #9C2DFE",
"R  c #9630FE",
"E  c #A626FE",
"W  c #AA25FE",
"Q  c #A32DFE",
"!  c #AB2BFE",
"~  c #B723FE",
"^  c #B42CFE",
"/  c #B82EFF",
"(  c #A331FF",
")  c #AF34FE",
"_  c #A53CFF",
"`  c #AF38FF",
"'  c #B433FF",
"]  c #BB32FF",
"[  c #B43AFF",
"{  c #BB3CFF",
"}  c #C100F4",
"|  c #C301FE",
" . c #CC03FF",
".. c #C40AFF",
"X. c #CC0BFF",
"o. c #D304FF",
"O. c #DB04FF",
"+. c #D209FF",
"@. c #DC09FF",
"#. c #C512F5",
"$. c #C214FF",
"%. c #CC10FF",
"&. c #C41AFD",
"*. c #C91BFC",
"=. c #D413FF",
"-. c #DB16FF",
";. c #DA19FF",
":. c #E005FF",
">. c #E30AFF",
",. c #EB0CFF",
"<. c #E619FF",
"1. c #C927FE",
"2. c #C22FFE",
"3. c #D32EFE",
"4. c #C230FF",
"5. c #CB32FD",
"6. c #C33CFF",
"7. c #CC3EFF",
"8. c #D331FD",
"9. c #D53DFF",
"0. c #DD3AFE",
"q. c #E23AFE",
"w. c #AD45FF",
"e. c #A44CFF",
"r. c #AE48FF",
"t. c #B444FF",
"y. c #BC44FF",
"u. c #B349FF",
"i. c #BD49FF",
"p. c #BD5CFF",
"a. c #BD62FF",
"s. c #BE7EFF",
"d. c #C442FF",
"f. c #CA43FE",
"g. c #C44AFF",
"h. c #CB49FF",
"j. c #D341FF",
"k. c #C556FF",
"l. c #CA56FF",
"z. c #C45CFF",
"x. c #CB5AFF",
"c. c #D753FF",
"v. c #DA52FF",
"b. c #E346FF",
"n. c #E355FF",
"m. c #E956FF",
"M. c #E559FF",
"N. c #C463FF",
"B. c #CD64FF",
"V. c #C46BFF",
"C. c #CC69FF",
"Z. c #D362FF",
"A. c #DB64FF",
"S. c #D36AFF",
"D. c #DC6AFF",
"F. c #C174FF",
"G. c #CA73FF",
"H. c #C47CFF",
"J. c #CC7EFF",
"K. c #D676FF",
"L. c #DB75FF",
"P. c #D37CFF",
"I. c #DB7CFF",
"U. c #E265FF",
"Y. c #ED66FF",
"T. c #E26AFF",
"R. c #E968FF",
"E. c #F066FF",
"W. c #E376FF",
"Q. c #EB76FF",
"!. c #E47BFF",
"~. c #EB7DFF",
"^. c #F37CFF",
"/. c #BF81FF",
"(. c #C685FF",
"). c #CC84FF",
"_. c #C588FF",
"`. c #CE8AFF",
"'. c #D385FF",
"]. c #DD82FF",
"[. c #D189FF",
"{. c #E484FF",
"}. c #ED86FF",
"|. c #E58AFF",
" X c #EB89FF",
".X c #F684FE",
"XX c #EB9EFF",
"oX c #D7A6FF",
"OX c #DCA5FF",
"+X c #D6AAFF",
"@X c #DCA9FF",
"#X c #D7B5FF",
"$X c #DEB3FF",
"%X c #DBBBFF",
"&X c #E4A4FF",
"*X c #ECA4FF",
"=X c #E3ACFF",
"-X c #EBACFF",
";X c #F4A5FE",
":X c #FAA6FC",
">X c #F3ABFE",
",X c #F9AEFC",
"<X c #E4B2FF",
"1X c #ECB2FF",
"2X c #E4B9FF",
"3X c #E8BAFF",
"4X c #F2B2FF",
"5X c #FBB3FE",
"6X c #E4C0FF",
/* pixels */
"K u I i L i L L L L L L L L L L P P P P P P P I P P I P I P I I I I I P I I P I I I I U I U U I U I I U I I I U I I I U U W W U ",
"y ` /.(.(.(.`.'.'.`.`.`.).'.'.'.'.'.'.).'.'.'.'.'.'.'.'.'.'.'.`.`.(.(.(.).(.(.(.`.(.`.`.`.`.`.`.[.[.[.[.'.'.[.'.[.'.'.'.].].I.i.",
"u a.#XoXXX&XoX+XoXoXoX@XOXOXOXOXOXOXoXOXOX&XOXOXOX&X&X&X&X&X&X&XXXOXXXXX&XXX&X&X&X&X*X&X&X&X*XXX&XXX*XXXXXXXXXXX*XXX*X*X&X=X4XC.",
"# p.<XH._ T T R R R R T T Y Y T T T T T Q T T U T T T Q T Q Q ( Q Q Q Q Q Q ! Q ! ! ! ! ! ! ! ! ! ! ! ! ! ! ^ ^ ^ ^ ^ ~ [ P.4XC.",
"L p.1X).u $ * % * * * * = = = * = = * = = = = $ = 7 = = 7 7 7 7 7 = 7 7 7 7 7 7 7 8 8 7 7 8 8 8 8 6 8 8 8 8 8 q q q q 7 B {.-XB.",
"u p.<XP.i * 0 q 8 6 8 9 8 9 9 q q q 9 q w w 9 + 6 w w w w w l l l l l l l z z l l z l z z z z z z z z z z b b b n | n 8 V I.1XB.",
"u p.1XP.d * 0 6 5 6 6 6 9 6 6 9 6 9 9 9 9 0 : . : 0 0 0 w 0 0 w w w w j 0 l l l l k l l z z z z z z z b z z b n b n n 8 Z ].4XB.",
"u p.1XJ.P * 9 9 5 6 6 6 6 6 9 6 9 9 6 6 9 9 +   @ 9 9 w 9 9 9 9 9 0 0 9 0 0 0 w 0 l j l l l j j l k l l z l k z z n b 5 A ].4XB.",
"u p.1XJ.i * 9 6 : 5 : 6 : 5 > > 6 6 6 6 6 9 @   + 9 9 9 9 9 9 9 9 9 9 9 9 0 0 9 0 0 0 2 0 j 0 0 0 j 0 0 0 j j j k k z 8 A ].4XB.",
"u p.<XP.I * 9 > : : 5 5 6 6 6 6 6 > 6 6 6 9 @   6 q 9 9 9 9 9 9 0 0 0 0 0 0 0 0 0 0 j 0 w j j j j 0 l 0 0 0 j j k k x 8 Z ].>XC.",
"u p.<X(.u * 5 6 6 5 5 5 6 5 5 > 5 5 6 9 9 9 : + 6 w w w w 0 w w w w j 0 l l l j l k j j k l k k k k k k k k k z c b b 8 A !.>XZ.",
"y p.<X(.u = 6 9 w 0 0 0 0 0 9 w 0 w 0 w l l 0 : w l l l l l z l z x l l l l l l l l l z l l z l z z z z n n n n n n b 8 A ].-XC.",
"u p.1XJ.u = & & & & & & & & = & = & = & = & & % & & 7 & & 7 5 5 7 5 5 7 5 7 5 7 8 5 6 7 8 5 5 6 7 5 6 8 9 9 q 9 0 9 0 6 C I.4XZ.",
"u p.1XJ.e.r.r.t.r.r.r.r.r.r.r.r.w.w.u.r.u.t.u.u.t.r.u.t.u.t.t.i.y.g.i.d.d.i.i.g.i.i.y.i.i.i.y.i.i.d.d.g.g.g.d.g.g.h.g.f.h.I.,XZ.",
"d p.+X+X@X=X@X=X<X=X<X=X=X<X=X<X<X<X<X<X=X1X1X=X<X1X<X<X-X-X-X-X-X4X-X-X1X-X-X-X1X-X-X-X-X-X-X-X-X-X-X-X-X>X>X>X>X>X5X4X;X*X1XC.",
"y Q a.a.p.N.N.N.N.N.N.N.N.N.N.N.N.N.N.N.N.N.N.N.N.N.N.N.N.N.N.B.Z.N.C.B.B.B.Z.B.B.x.B.B.x.B.B.B.x.B.B.Z.Z.Z.Z.A.c.Z.c.Z.A.A.A.[ ",
"I a a f f f f s Z f f Z f s f f f V f f f f f V f Z f f Z s Z r 8 q V V V C V V V V C V C V C C C A C A A F F F H F H J F J F A ",
"(.s.s.s.H.H.J.H.J.J.J.J.J.J.).).J.J.J.).J.J.J.J.J.J.J.J.J.P.L.{ 8 6.L.I.K.I.I.I.I.I.I.I.I.I.I.I.I.I.I.I.].].I.I.].!.I.!.{.I.{.|.",
"+XoXoXoX@X@XoXoX@X@X=X@XOX@XoX@X@X@X@X@XoX@XOX@X@X=XOX&XOX=X1Xx.Z x.-X-XXX=X&X=X=X*X&X*X&X&X*X&X*X&X&X&X=X&X=X&X=X@X&X@X=X=X=X=X",
"w.T _ Q ( ( ( Q ( ( Q ( ( ( Q T Q Q T ( Q ( Q ( ! ! ! ! ' ].<Xx.s l.=X~.9./ ' ' ' / / / / / / / / ' ] ] / / / ' / / ' ' / ] ] { ",
"t & % & & & & % & & & & 5 & 5 5 7 5 7 6 8 8 5 & & 6 7 & Z ].1Xk.s k.3X{.H 5 9 q 9 9 9 9 9 9 0 9 9 9 9 0 0 0 0 0 2 0 0 0 0 j j B ",
"4 1 > 9 > 1 1 1 1 1 2 0 0 j 0 j k j k k b n j ; 2 j l 9 A {.1Xx.r k.3X`.A 9 z z z b c b c c z k c b n b v c v v c v c v v v v #.",
"3 5 : : > 5 : > > > 6 6 1 1 9 1 1 9 0 j j j 1 - ; 0 w : A {.-Xx.s k.6X_.A 1 b z c b c k b c c c b b b c b c z z k c k c c n c D ",
"3 + + + + + + + + + + + - - - - : - : ; - - - - - 1 0 : W ].<Xx.s k.%X`.H 9 j 2 < < < 2 g g g g g g g g 2 2 2 2 2 2 2 2 g g g h ",
"o                     . O O X + X + X X X X + - - , 2 : W ].<Xl.r k.2X'.H 9 2 , , , ; , ; ; , ; ; ; ; , ; , ; ; ; ; , , ; , , 4 ",
"o   O O O O O + + O O + + + + + + - + + + + + + - 2 j : Z {.<Xx.s k.<XJ.A 9 g < , , , , , , ; , , , < , , , < < < < , , , < < h ",
"4 6 : 6 0 w w l l l l l l l l j 0 l j j l l l l z n n 9 W ].<Xx.r k.<X(.A 9 b v n v n n b n v n v n v n n | n v n n n | } v c h ",
"V w w w w w l l l z z z z z z z b b b b b b z n b b b 9 J ].<Xx.V k.2X/.Z 9 %.........X...X.X. .X...X.+.+.X.X.X.X.+.+.O.@.@.+.S ",
"y = = = 7 7 7 7 7 7 7 8 7 5 8 8 8 8 8 9 8 q 6 8 q 8 6 7 H ].1Xx.s k.$X'.A 9 l j j 0 0 0 0 0 0 0 0 0 j j j 0 0 l l j j 0 0 j k B ",
"u.w.w.w.t.t.t.y.t.y.t.t.t.t.t.t.y.y.{ y.y.y.{ d.d.d.d.{ k.].<Xx.s k.1X'.g.h.f.f.f.d.d.d.f.f.d.d.d.d.f.d.f.d.f.f.d.d.f.f.f.f.f.c.",
"$X@X$X$X<X1X=X1X1X=X-X-X>X-X-X>X-X-X-X-X-X-X-X-X<X1X-X<X-X;X-Xx.r l.<X1X<X1X1X<X-X-X-X-X-X1X>X-X-X>X>X,X>X>X>X,X,X,X,X>X>X>X-X4X",
"H.V.V.V.V.N.C.N.C.C.C.C.N.S.C.C.C.C.C.B.C.B.C.C.S.N.C.C.C.C.x.] 7 4.Z.B.C.C.S.S.S.S.S.D.A.D.D.D.D.A.A.A.U.U.A.U.A.U.U.U.U.U.U.Q.",
"d e f f Z Z Z Z Z Z Z Z Z Z Z Z A Z V C C V C C A C C C C Z V V s V F F F H H H F H J F J J J J J J J G J $.J J $.G $.$.$.&.&.H ",
"i [ F.H.J.J.J.J.J.J.P.P.P.P.P.P.K.K.P.P.P.P.P.K.K.P.P.P.P.P.'.].].P.P.P.P.P.P.P.'.P.I.I.I.I.I.I.L.!.!.!.!.I.!.!.!.Q.!.!.!.Q.Q.g.",
"E z.%X#XoXOX@X=XOX@X@X=XOX=X&X=X=X=X=X=X@X@X=X@X=X=X=X&X*X&X&X&X&X@X@X@X+XoXoX@X@X&X&X&XOX&X&X=X=X&X&X&X*X*X*X*X*X*X*X*X*X>X1XG.",
"E a.%XJ.' ^ _ ! ' ' ) ' ' ! ) ' / ' ' ' ' ] ' ] ] ] ] ] ] ] / 4.4.] ] 4.4.4.4.] 4.4.4.2.2.2.4.4.2.2.2.4.2.2.4.2.2.2.5.5.8.{.>XD.",
"E a.$X'.Z 7 8 8 8 q 8 q 8 q q q q q q q q w q w w w q w w w w w w l w w l l l l z l z z b b z z b b b z b b b b b b n k $.!.5XD.",
"E z.<X'.f 8 l z z z z z b b b b b b n n n n n n n n n n n n | | | | | | | |  .|  . . . . . . . . . . .o. . . .o.o. .+.z &.!.5XA.",
"E z.<XP.Z 8 l z k l k l k l z k k z z z b z b b b b n b n b n n n n n n n | | | | | |  . . . .o.o.o. .o.o.o.o.o.o.o.O.k &.~.5XA.",
"E z.2X'.Z q l z k j l l 0 l j j l k j l l k k z z z z z k z z b b n b n n b n n n n | | | | | | | | | | | | | |  . .X.b J ~.,XD.",
"E z.2X'.Z q l b j 0 0 0 0 0 0 0 0 j j 0 j l j j l j j j j k k z k z z z z b b b b n b n n n n n n n n | | n n | | | X.k $.{.,XU.",
"! z.2X'.f 8 j k k 0 w 0 0 j w j l l l k k k z k k k z z z z z b z b b n b n n n n n n n n | | | | | | ..| | .. .X...+.z J ~.,XD.",
"! z.<X'.Z q j z z k k k k z k k k z b b b b n n n n n n n n n v | n | | | | |  . . . .o.o.o.o.o.o.o.o.o.o.o.o.o.O.@.@.z &.{.,XU.",
"E N.2X].C q l w k z k b b k b c c v c b n b b n n n n | | |  .|  . . .|  . . . . .o.o.o.o.o.o.+.O.O.O.o.O.o.+.+.+.o.+.b #.!.,XT.",
"! z.2X].F 8 q q q q q q q w q q q q w w w w w w w w l w l l l l l l l l l l l l l l l l k z z z z z b b b b n b b n n z %.^.5XD.",
"E N.2X'.i.y.6.t.t.t.t.y.t.t.y.y.y.6.y.{ y.{ d.d.d.d.d.d.d.d.y.d.d.d.d.d.d.d.d.d.d.d.f.d.f.d.d.f.f.7.f.7.9.9.9.9.9.9.9.9.j.{.5XU.",
"! N.<X@X@X<X=X=X2X=X=X<X=X=X<X=X=X1X=X-X-X>X-X-X>X-X-X-X-X1X1X-X=X<X<X<X-X=X-X1X1X1X4X1X1X1X4X4X4X4X4X4X4X4X4X4X4X4X>X,X;X>X5XT.",
"f ] S.C.C.C.S.S.S.C.S.S.S.S.S.S.D.S.D.S.D.A.D.T.D.T.D.D.D.A.Z.L.D.D.D.D.S.D.D.S.D.D.D.W.D.T.T.D.T.T.T.T.R.T.U.R.R.R.Y.Y.Y.E.Y.7.",
"Z s V C C C C A C F F A C F F F F F J F J G F G G G G G G m G m m M G M m m G M $.M M G $.$.$.$.$.$...%.X.%.%.%.%.%.X.X.=.+.=.*.",
"].K.L.K.K.K.K.K.L.K.I.P.K.K.P.K.P.K.K.K.K.K.I.I.W.L.L.W.I.L.D.5.w 5.K.I.I.I.I.I.I.I.!.!.I.I.!.I.!.!.!.!.!.!.!.!.!.!.~.!.!.!.~.}.",
"-X-X;X-X*X>X-X-X-X-X=X=X=X-X-X-X-X*X-X-X-X*X*X*X*X*X*X;X*X>X4Xn.m m.4X-X*X*X;X*X;X;X;X>X;X:X;X:X;X:X;X>X>X>X:X>X:X>X>X>X>X>X;X4X",
"t.' ' ' ) ) ' ' ' ) ' ' ' ' ' ' ] ' ] ] ] 4.2.5.4.5.5.1.7.].<Xv.F m.>XK.9.3.3.5.5.5.5.5.5.5.5.5.5.3.5.8.8.8.8.8.8.8.8.3.3.8.8.9.",
"p 9 9 0 q 0 0 q w w w w w w w 0 w l j l j j j 0 0 k k w J |.$Xv.m v.3X{.*.g v c c c c c c c c c c v v v v v v } } v v } } } } #.",
"F b b b b z n n n n n n n | M | ..| | |  ...| < k +.o.g &.{.<Xv.m m.>X{.*.k @.@.@.@.@.@.@.O.@.@.@.@.:.:.>.>.>.,.,.,.,.,.,.,.,.<.",
"B j k j k k z b z z n b b b n n n n | n n | | < c o. .g 1.{.$Xv.m m.>X{.&.g @.o.o.o.+.o.X.o. .X.+.o.+.O.@.O.@.O.@.@.O.@.@.>.,.<.",
"4 9 1 0 0 w l j j l l l z z k z b b b b b n c < g  . .j J |.<Xv.m M.1X X*.k +. .X.| X. . .X. .X.X.X. .X.X.+.+.+.+.+.+.+.@.o.@.;.",
"4 > > > 1 9 0 9 0 w j l j l l k k z z k z n g < c |  .k J {.=Xv.m M.1X|.*.k +.| | | n | | n | | |  . . . . .+.}  . . .o.o.o.o.=.",
"p 0 0 0 0 0 l l j j j l k l z z b z c b c b g < v  .o.g ~ |.<Xv.m n.>X{.*.j +.| | | | | | | | | |  . . . . .o. . .o.o.o.o.o.o.-.",
"B j j k k l k k b z k c b c b b c n n v c c k < v }  .g ~  X2Xv.m v.4X{.*.j  .o.o.o.o. .o. .o.o.o.o.o.O.o.o.O.O.O.O.O.O.O.O.O.-.",
"D b v b v b v c n n n n n | n | | | } | } | v g v | | g *.{.$Xv.m m.>X{.*.k  .o.o.O.o.O.o.O.O.o.O.O.O.O.O.O.O.O.O.:.O.:.O.:.O.<.",
"N 0 j 0 0 0 0 0 0 0 0 j j j j j j j j j j j j 2 0 j k 0 &.{.2Xv.M n.1X X*.j k v c v v v v c v c c v c v v v v v v v v v v } v #.",
"g.6.6.6.6.6.6.6.d.6.6.7.6.7.7.7.7.f.j.7.9.7.7.f.7.7.7.9.f.{.@Xv.M m.>X].9.0.0.0.0.0.0.0.0.0.0.0.0.0.0.0.0.0.0.0.q.q.q.q.q.q.q.b.",
"-X=X=X*X-X-X-X-X1X-X-X-X-X;X>X>X>X>X,X>X>X>X>X>X>X>X>X-X;X:X#Xv.m m.>X1X*X-X-X>X;X>X>X;X>X>X,X;X>X>X,X;X>X>X>X>X,X:X:X>X,X:X,X,X",
"].I.I.I.I.I.I.I.].I.{.!.!.{.!.!.!.~.!.{.!.!.~.!.!.~.!.~.~.Q.L.9.F b.Q.Q.~.!.~.~.~.~.{.~.~.~.~.~.~.~.~.~.^.~.^.^.^.^.^.^.^.^.^..X"
};
