/* XPM */
static char *xpm_[] = {
/* columns rows colors chars-per-pixel */
"64 64 213 2 ",
"   c #010105",
".  c #03010B",
"X  c #08020F",
"o  c #050113",
"O  c #090115",
"+  c #0C0B14",
"@  c #060119",
"#  c #0A011B",
"$  c #0D0B19",
"%  c #100E16",
"&  c #11031C",
"*  c #130E1B",
"=  c #0F1016",
"-  c #111017",
";  c #14111A",
":  c #0D0123",
">  c #0E012A",
",  c #110125",
"<  c #180425",
"1  c #150B22",
"2  c #12012B",
"3  c #1D062C",
"4  c #1A0B29",
"5  c #151025",
"6  c #1A102B",
"7  c #160133",
"8  c #1A0235",
"9  c #1D0E34",
"0  c #160138",
"q  c #1C013B",
"w  c #1E1132",
"e  c #25082E",
"r  c #220634",
"t  c #24043C",
"y  c #28053E",
"u  c #2C083D",
"i  c #22103D",
"p  c #1E0140",
"a  c #230343",
"s  c #2A0544",
"d  c #2E0944",
"f  c #24024A",
"g  c #2C034C",
"h  c #340A45",
"j  c #33054C",
"k  c #37084C",
"l  c #2A1141",
"z  c #29114B",
"x  c #2D0352",
"c  c #330454",
"v  c #370951",
"b  c #3C0B54",
"n  c #350459",
"m  c #3B055D",
"M  c #3D085C",
"N  c #3E0462",
"B  c #41065D",
"V  c #430B5C",
"C  c #44115C",
"Z  c #420565",
"A  c #450964",
"S  c #4A0C65",
"D  c #45056A",
"F  c #4A066D",
"G  c #470869",
"H  c #4C096C",
"J  c #510B6E",
"K  c #491366",
"L  c #451069",
"P  c #4E176B",
"I  c #531269",
"U  c #53156A",
"Y  c #4E0672",
"T  c #4E0871",
"R  c #520675",
"E  c #540A74",
"W  c #5A0C75",
"Q  c #56077A",
"!  c #59077B",
"~  c #560979",
"^  c #5B0B7C",
"/  c #4E1670",
"(  c #551473",
")  c #5B1974",
"_  c #5C1778",
"`  c #5E157B",
"'  c #600D7E",
"]  c #62137E",
"[  c #6E1B7F",
"{  c #5F0783",
"}  c #5E0981",
"|  c #630C83",
" . c #690E86",
".. c #660C89",
"X. c #6B0D8B",
"o. c #710E8F",
"O. c #641282",
"+. c #6A1385",
"@. c #651A85",
"#. c #6A1D86",
"$. c #6D128B",
"%. c #6C1B8A",
"&. c #761689",
"*. c #72138D",
"=. c #721B8D",
"-. c #6E0D90",
";. c #740E93",
":. c #770F99",
">. c #790F98",
",. c #751292",
"<. c #791395",
"1. c #751B92",
"2. c #7B1B95",
"3. c #771098",
"4. c #7D129A",
"5. c #7D1C9B",
"6. c #742189",
"7. c #772693",
"8. c #7A2293",
"9. c #801D94",
"0. c #82159D",
"q. c #831A9C",
"w. c #891C9E",
"e. c #89279A",
"r. c #93289E",
"t. c #813294",
"y. c #8515A1",
"u. c #8A16A5",
"i. c #861AA1",
"p. c #8C1AA5",
"a. c #8E17A9",
"s. c #8E1AA9",
"d. c #911CA7",
"f. c #9117AA",
"g. c #931BAC",
"h. c #991DAE",
"j. c #961BB1",
"k. c #9B1CB3",
"l. c #9F1DB9",
"z. c #A11EB6",
"x. c #A41FBA",
"c. c #AA1EBE",
"v. c #8520A1",
"b. c #8C22A6",
"n. c #8D28A4",
"m. c #8F25A9",
"M. c #9122A4",
"N. c #9523AD",
"B. c #9922AE",
"V. c #9628AE",
"C. c #9928A8",
"Z. c #963CA4",
"A. c #9625B0",
"S. c #9D23B3",
"D. c #9E29B3",
"F. c #9E20B8",
"G. c #A122B6",
"H. c #A32BB5",
"J. c #A522BA",
"K. c #AA23BE",
"L. c #A42ABA",
"P. c #AA29BD",
"I. c #AD23C1",
"U. c #AD2CC1",
"Y. c #B225C5",
"T. c #B229C3",
"R. c #B92AC7",
"E. c #B627C8",
"W. c #BA26CB",
"Q. c #B629C9",
"!. c #BC2ACC",
"~. c #AC31C1",
"^. c #B934CB",
"/. c #BF2AD1",
"(. c #C02CCE",
"). c #C030CF",
"_. c #C42DD3",
"`. c #C92ED6",
"'. c #C72CD9",
"]. c #CA2ED9",
"[. c #D02FDD",
"{. c #C534D3",
"}. c #CA32D6",
"|. c #C53AD4",
" X c #CA39D6",
".X c #CD32DA",
"XX c #D234DD",
"oX c #D139DC",
"OX c #D634E1",
"+X c #D936E3",
"@X c #D73AE1",
"#X c #DC3AE4",
"$X c #DF39E8",
"%X c #E03AE7",
"&X c #E137EA",
"*X c #E33CEB",
"=X c #E93EEE",
"-X c #EC3EF2",
";X c #DE44EA",
":X c #E344EA",
">X c #EA42EE",
",X c #E44BED",
"<X c #EB4AED",
"1X c #ED42F2",
"2X c #ED4EF3",
"3X c #F244F5",
"4X c #F24AF5",
"5X c #F544F9",
"6X c #F649F9",
"7X c #FB4CFC",
"8X c #EF51F3",
"9X c #F755F8",
"0X c #FE53FE",
/* pixels */
". X o O @ # > 2 >         o O O X o   . X X O > m  ...y.>.Q ..X.| Q ! X.0...*.q.H + - + 2 : I <.Y $.a.4...y.u.a.0.{ ;.;.| ..q . ",
". . o O X : q t s h j j B b c c B Z B j X o @ : n | | ;.....<.0.| { Q Q R | u.B.=.; = O q @ [ S.$.` 4.u.X.y.a.f.;.Q X.{ X.:.g o ",
". . O O t Z -. . .W.'._.k.:.Y Y { { | F X o 2 : n Y | | { | 4.4.;.0.c.>.Q 4.E.R.b.4   O 2 o [ g.d.v.%.;.X.u.l.:.N N Y Z | ;.m # ",
"  o O > D 4.I.I.| k.!.XX].*.! Y D X.X.Z . @ 7 2 H { Y Y H Q >.;.;.X.| { ..s.K.E.4.@   O : O 7.D.J.G.v.H Q X.,.D X.0.y.>.! | c > ",
"  . # j Q a.E.].u.^ 3.Q.P.| | ! { ..4.F . O q q n ! Q X. .m ;.X.;.F D | ..u.h.k.$.O   @ 2 $ e.g.b.2.1.y.;.E } -.f.f.f.f.a.4.Q 2 ",
". . # F { ..<.J.g.^ o.K.^ >.^ !  .,.j.Q . o 2 q m ^ ;.0.<.,.Z ! ! | 0.;.;.,...>.| X . : 2 + ) +.L 8.S.g.i.W 4.y.u.a.u.a.a.k.y.t ",
". O : H X.3.,.E.K.X.! }  . .~ X.| X.I.+.. . # q N ! :.u.p.k.;.m Z X.0.0.f.z.K.k.<.O   @ 2 . =.P.m.B.D.D.b.` b.4.u.u.u.u.0.0.0.g ",
"  O > | -.x.XX1X1Xd.Z } X.! |  .{  .y.O.. . : f N Y ..a.Y.j.a.{ X.>.o...>.k.Y.c.<.O   O > . e.k.l.j.A.D.p.T e.S.j.f.u.u.y.0.z.m ",
". O , Q ..R.XXXXG.a.G R | Q ;.X.| X...E .   , q Z F ..<.u...F Q >.a.a.! { j.K.f.| . . o # o r.h.h.S.B.5.y.$.8.F.f.a.y.u.u.k.j.j ",
"  o : J :.`.*X*XX.3.H ~ <. .<.Q } | :.Q . . 2 8 F | f.d.K.h.u.^ >.y.o.Q F :.h.j.^ o   X : O r.Y.<.S.D.s.j.2.@.,.4.y.4.4.y.0.u.f ",
"  o > J ..Y.(.#Xg.T.H | X.4.! D X. .<.^   . # 2 F { 0.!.}.R.z.^ 0.f.0.! x | f.4.F O   X 2 2 C.W._.I.J.D.b.P +.2.@.P I { ..R :.d ",
". O , Z D ^ | | 3.| m ^ ^ X.R ^ :.X.d.4..   # 7 F Y u.+X`.(.*.| f.Y.(.f.u.W  .| Z X . . > 0 C.W.Q.k.=.%.1.O.2.~.P.g.b.1.^ ..:.8 ",
". @ 2 E ,.l.h.>.| :._.+.! 0.0.<.o. .k.0.O   # 8 N R f.XXT.3.Z | c.W.W.d.u.E o.o.n X . . # 7 C.I.y.] ( b.k.s.5.L.G.j.P.U.h.k.y.2 ",
". O : *.g.k.`.I.4.{ XXk.E *.q.u.X.X.u.X.. X : 2 D | h.y.d.G.z.0.' u.0.^ F ^ z.J.,.O   . O : '  .! ,.N.B.g.g.=.S.h.S.N.A.f.h.,.# ",
". @ 7 ^ 0.l.XX_.k.u.!.Y.$. .<.<.;.<.a.<.. . # > H ..^ 0.XXXXE.j.R | ;.f.h.H z.W.i.O   . X X H :.j.j.u.k.S.u.S i.D.G.B.p.N.V.] . ",
"X @ 7 ! o._.-X+Xc.d.d.G.| ,.d.4.o...K.9.. . O O Z { k.<.(.`._.h.W Y.Y.Y.2.E h.c.^ o     o @ N 3.l.R./.g.p.<.Z ` N.P.B.S.D.v.U + ",
"  @ 7 D -.OXXXu.S.K.$.^ X.q.G.,.} *.k.0.X   O # g X.x.k.0.K.OXz.H u.u.*.Y j.E.f.s .     @ # m :.I.W.XX' Q 4.k.z.$.u.D.P.A.g $ - ",
". @ 7 D ;..X`.:.0.O.X.3.<.I.j.<.~ y.g.,.O . : : c ..f.x.u.G.`.*.X.f.A | z./.'.j.j .   . o # Z ..l.Y.Y.z.z.z.K.x.F.W %.5.} q $ ; ",
"X # 8 Z -.`.OXG.0.W ~ W p.p.S.$.~ i.0.| O . @ @ c ;.<.l.K.d.XX<.z._.<.&.].I.*.I.h   . . . @ N { ^ 0._.].!.E.Q.E.T._ e.8.g.( 1 ; ",
"% @ 8 F 4.`._.d.u.+.<.=.p.p.K.j.3.<.J.Y.& . . o f X.:.I.+Xh.z._.`.[.S.| ].E.4.'.I     . o @ n F | h.].XX/.R.!..XV.$.s.u.B.A.P . ",
"; $ 8 R u.XXOXf.g.*.+.k.;.z.F.d.R ;.a.M.O     . , j M +.2.E ^ *.i.k.H R j.i.,.4.t     X o # m ....f.E.W._.E.!.J.O.z.l.k.k.0.W O ",
"; # 7 ` y.E.k.| k.W v j.<.h.5.i.| s.I.S       X .   . . . O @ @ # , , 2 # : : : , X . . O # N ..| R <.`._.W.E.W g._.Q.k.j.,.8 $ ",
"* # 8 O.:.| i.j._.d.A z.d.4.3.d.u.K.`.v   . . . X o o o o O @ # .   . . o . O O # O X . O # x } { D u.`..X_.,.X.W._.'.T.j.u.V = ",
"+ ; w @.p.R.XX*X].g.^ g.U.i.4.u.k.E.+Xt   X .   . o . . . o @ X       .       . X o O o O : p N :.u.c.!._.!.0.,.!.!.!.I.i.y.C = ",
"* l 2 L m.,X#X.XY.J.0.*.R.d.4.s.W.l.Y.d . .   . X . & J x q p q y q t f t g q 2 m q X . . @ q m X.0.y.k.Y.E._.4.E.!._.h.X.4.u - ",
"; 3 > 8.L.~.P.Y.Y.Q.<.<.G.J.S.h.h.k._.B.o . . . . . g S.Y { | A s.x.0.>.;.;.,.| :.Z o   . O 8 m ..;...u.k.k.K.^ z.K.E.j.y.R # $ ",
"; & 2 #.A.H ! e.h. .O.G.G.J.j.G.K.j.R.!., X X o X # F :.,.u.0.! z.W.XX_.E.`.+X&X_.Y @   . X > A Y D Z D H A H g E Y F n v 8 : . ",
"$ 6 z @.+.<.L.P.G.+.O.K.J.k.P.S.R.u.;.*.o # X . . B 0.h.4.k.W R ;.h.Y.!.!.#X-X-XOXb . .     O 2 , > O o o o   O . o . . o o o   ",
"o w z E ] D.@X{.V.b.G S.P.y.p.0.4.y.s.c . O # X @ G k.j.d.;.N F ~ ;.-.d.z._.1X=XXXC o . X             O o .           . . o o . ",
"5 i 9 W O.L.}.oXB.b.H i.-.$.G.0.j.`.OXZ o O 2 2 : A i.:.h.u.A H 0.| x ~ ,.K.%X%X_.d # X o   .   . # @ , 2 # # # O # O @ @ O X o ",
"9 8 > +.5.S.I.{.L.2.H 4.| P.E.l.0.K.s.N O O > 2 7 B X.| ;.y.Z ' | >.| X.y.d.XX$XOXb # . o . X r <.;.' R | D | ;.0.p.<.$.Z > o o ",
"q x a r.S.b.U. X|.H.S e.N.G.0.z.z..XK.m . O 2 7 2 G >.X.Q ^ n 4.| 0.g.c.W.J.XXoXp.c 2 . X   # :.J.P.0.4.f.0.y.0.K..X+X`.*.7 @ . ",
"8 q , Z.y.S.^.;XoXD.n.N.%.A.h.k.E.=XR.m . o 2 q # m | ! g N x ~ u.,.W E ] J W N q q , . O o 8 <.3.j.h.!.Y.W.+X*.h._.$XOX,.H >   ",
"> 7 7 t.5.Y.}..X:X7.D.j.%.7.J.s.k..X.XA # . @ q 7 H 4.<.N 0.N D k.z.A | 0.$.y.<.4.Z 2 o : # 8 -.d.XXT.I.*X-X3Xd.u.].1Xp.u.I.k   ",
"> 8 q ^ y.!..XoX).#.S.K.+.6.U.4.X.s.>X<.O   . > f ~ 4.E | K.0.$.<.$.g h._.J.Y u.l.| # O 2 : 7  .K._.G.<.*X-X5Xp.w.%X5X$.<._.<.  ",
"@ 8 0  .y.| ` 8.) 7.P.2./ @.B.5.d.(.5XR.<   . @ q +.i.~ ! k.OX+.X.| | s.l.| ^ }.3XS.: . 0 p a ,.x.s.*.O..X+X`.{ h.`.+X=X`.XXV   ",
"@ 2 q }  .R O.%.O.O.V.L.=.` D.V.T.$XXX!.e . . # : +.!.Y.Z <.K.O.E | X.d.^ | h.!.7XS.:   O 7 a o.f.u.0.0.q.x. .4.u.| d.E.j.0.B . ",
"O , p +.y.y.Q.J.u.! O.G.G.| p.A.R.:XXXK.e . o O > ..x.d.N T *.H H { | *.A Y..X}.@Xj.#   X # g 0.0.a.0.4.*.' d._.$X{.3.| d.XXS.. ",
"o 2 q | 4.a.(.,.G $.F d.I.b.8.B.L.A.B.D.< . : q f ~ k.<.| ,.J A y.I.u.c R K.OX!.#Xy., . O : a h.Y.W.z.<.*.g.XX=X6X6Xp.-.!.-Xq.  ",
"@ 2 0 O.X.4.R.E.*.u.' H ~ @.( ,.@.8.=.8.1 o # q q W f.`..XR.E ,./.d.:.m ^ y.!.#X*X| , . # : 8 y.K.u. .D z.`.+X1X6X3X,. .OX-XW   ",
"# 2 7 ~ R y.E..XI.k.! q C 5.<.A.^.;X.XF.2 . @ 7 7 W 4.I.J.| F d.W.E ~ 0.| E._.3X}.H @ . X > r *.*.u.!.W.4.h.XX*X>X3X0.4.(.-X&.. ",
"# 2 7 O.4.4.Y.OXG.u.! 7 ) _ 2.5.R.7XG.n < X @ 7 8 ^ ;.| $.$.^ 0.I.y.u.S.A ^ m ! Y p O . o @ y u.z.R.%X5Xh.*.R.#X+X3XB.2.T.+X+.. ",
"# 2 q ~ u.y.I.Y.N { H <.p.) g.y.B.S.0.T 3 X O 2 2 R 4.k.q.A l.K.*.| 0.' | S.d.S.+.g O . O # y 4.K.u.4.)._.*.J.XX:X7X(.K.K.Y.H X ",
"# 2 7 ~ 4.u.K.I.<.R H K.N.M S.k.p.0.`.`.3 . O , 2 ! 4.x.p.m ;.z.(.,.N *.`.=XXX1XQ.N @ . @ : a 0.c.G.F 4.%Xk.h.3X-X_.<.u.p.p.c o ",
"@ > 7 1.;.d.{./.`.<.` l.K.q...d.u.R.=X+X3   # 7 q $.y.f.H ^ O.^ k.z.~ X._.1X.X:X@XD O . o # a 3.I._.s.s.`.Y.| g.3.,.k._.s.k.*.. ",
"@ > 0 R { 4.K./.J.E $.E.(.`.w.~ 0.G.J.p.2 X @ 7 f  .4.X.! 4.[._.E.4.m 0.XX$X.X#X@XD @ . o # s 4.k..X-X}.0.<.B.(. XY._.+Xp.K.$.. ",
"O > 7 E <.g.K./.O.Z h.J._.R.` k.].+X.XF O . @ , 2 |  .{ | O.h.^ *.' m J.XX+X}.G.5.q . . o @ a X.y.K.J.w.2.*X7X0X0XO.W x.,.I.+.. ",
"# 2 q ! y.{ y.d.! k.Y.`.*X9.E 0.Y.XXT.Z # X O @ 2 3.s.4.a.Z | q.K.T.j.^ *.4.<.W T q O . O @ s ,.;.d.(.<XB.K.1X0X#XB.q.K.] z.9.. ",
"2 7 7 N R ! ~ Z N -.u.R.K.A 4.X. .<.F p : o @ : 8 +.0.y.4.Z j.*X*X=X=XN.G k.{.#XoXN @ . @ 7 y y.a.x.+X+X(.<.W.7X<XXX].S.0.W.w.  ",
", 2 2 ] ~ 3.u.h.3.| F A m 4.k.I.Q..XS.7 @ O # , 7 4.h.>.l.| <.}.J.+X&X_.$.`.OXXXoXD o   O # d y.k.d.F.6X3X^.d.1X3X3X+Xw.0.x.d.  ",
"2 , 2 O.} 4.Q.!.!.G.s.N ] l.x.!._.(.Q.W , . @ , 2 <.{ T ,.T ,.G.f.K.g.q.q./.*X*XXXF @ . O @ a  .s.`._.>X7X7Xp.XX3X>XXX*.K.W.9.. ",
"@ @ 2 J X.d.@X!..XR.'.,.^ a.j.H ..I.K.c.u X # , 2 2.k.j.<.T X.H H ' | 0.N.{.#X1X:XH O . o o q ..h..X1X1X6X+X*.0.5X=XT.Z <.4.M . ",
"# : 7 E  .j.'.Y.K.W.`.9.^ u.u.j ! g.Y.z.2 . # 2 q o.$X1Xz.u.k.g.| Y.E.].M.Q.=X7X>X~ o . O O 8 X.s.OX_.R.N.h.{.H.s.i.| J.R.x.W . ",
"2 2 7 ~ ..X.I./.d.H X.m q.a.u.0.k.h.Y.Y.t . # , 7 0.}.T.p.0.K.y. .z.K.}.E j.P.S.G.M . . o O q | f.S.,.d.T.3X0X4Xq.}.:X=X+X].O.  ",
"2 2 7 F ..R y.W.y.H y.~ W d.z.l.R.x.!._.C   @ : 8 ' ^ B D | ,.T d.k.Y.(.W <.*.Z | t o . . # a ^ X.g.#X7X4X6X1XR.j. X.Xp.u.h.Z . ",
"> , 7 H X.A F y.y.y.k.K.! ! J.x.u.0.h.w.u   O : 8 *.k.k.R E m } Y.K.T.u.B.*X$X@X#Xm @ . o o 8 d.h._.7X=X+XU.4.! Y ..| Z } Y q X ",
": 7 0 Z Q n { f.X.y.z.R.I.Q H  .H H u.4.a . O : 7 <.E.k.{ $. .m >.f.y.,.W.0X6X3X:XW . . . O 7 y.h.p.$X=X<.Y c N Y ! | ! H n > . ",
": 2 0 Z ! ^ s.x.4.4.I.!.(./.W ' 0.} k.G.8 o @ : 7 *.W.,.T -.| D ^ o.X.o.K..X=X5X*X'   . o o y u.d.K.$X*X*.N f t Z N N Z n n 7 . ",
": : 7 Z ..X.a.x.y.X.Y.!.h.J.J ' G.k.K.j.# o @ # q <.+X]..XS.| u.4.w.*.<.Y. X3X7X>XG . . o @ 2 ,.a.T.'.Y.O.Y a p q x n f m a : X ",
"# : 7 Z :.| d.x.$.! g.| F ^ ..<.| u.!._.u . : , a ^ q.q.p.<.| 4.,.K.Y.u.Y.+X<X9X2XH . . . @ , X.0.k.'.'.Y.F 2 a 7 8 a f 8 > @ . ",
"# > 0 M { | G.G.x Y ..| ..0.k.x.3.,.R.{.r . > 2 t ..Y.+XK.A ! u.~ ;.J.I.,.! S.0X8X( . o O O 2 j t y h h r 8 : 2 @ . O X . O o . ",
": 2 p m { -.u.M Z y.y.o.R o.u.f.k.I.I.H > O 7 q f o.x.#X&Xw.| z.<.y.x.w.$.*.S.3X8XP . O # O : o         . O : O   . # o   X . . ",
"# : 7 n o.| F x d.a.-.R n F ^ >.0.y.s.p O @ 2 q g ,.k.+XP.W u.d.$.4.u.k.(.4X>X:X,XK o * # @ : # O   . X O . @ .     , t o   . @ ",
"2 7 : t X.! Z ~ j.Y D N g c Q F { Q c p # X o q n o.z.[.*.{ k.$.| k.h.k.}.4X:X<X,XK ; 1 $ # I | b.9.w.d.&.O.W V s t q q 7 : O O "
};
