/* XPM */
static char *xpm_[] = {
/* columns rows colors chars-per-pixel */
"64 64 208 2 ",
"   c #00040C",
".  c #00080D",
"X  c #010513",
"o  c #030814",
"O  c #080D15",
"+  c #01051C",
"@  c #03091B",
"#  c #090C1C",
"$  c #0B101C",
"%  c #010523",
"&  c #090723",
"*  c #030823",
"=  c #0A0C24",
"-  c #01052B",
";  c #04092B",
":  c #0A0B2C",
">  c #0E1125",
",  c #111524",
"<  c #11142C",
"1  c #020433",
"2  c #040833",
"3  c #0F0F37",
"4  c #02043B",
"5  c #0A063C",
"6  c #0C0B3B",
"7  c #130C3D",
"8  c #0E1234",
"9  c #0E123E",
"0  c #111437",
"q  c #020343",
"w  c #0A0643",
"e  c #060844",
"r  c #0C0944",
"t  c #03024B",
"y  c #09044C",
"u  c #0F094D",
"i  c #160C4A",
"p  c #12094C",
"a  c #121444",
"s  c #171348",
"d  c #060353",
"f  c #0B0454",
"g  c #0E0C54",
"h  c #0C035C",
"j  c #110752",
"k  c #140B54",
"l  c #1A0D53",
"z  c #12065C",
"x  c #15095C",
"c  c #1A0C5C",
"v  c #0E1151",
"b  c #1C1256",
"n  c #220F58",
"m  c #24125B",
"M  c #28185A",
"N  c #0D0362",
"B  c #120564",
"V  c #180766",
"C  c #140864",
"Z  c #1B0C64",
"A  c #15066C",
"S  c #19066C",
"D  c #16086A",
"F  c #1C0A6C",
"G  c #191360",
"H  c #170571",
"J  c #1B0673",
"K  c #1E0974",
"L  c #1E077A",
"P  c #1E087A",
"I  c #210F64",
"U  c #230E6D",
"Y  c #221266",
"T  c #25136C",
"R  c #2D126C",
"E  c #301D68",
"W  c #210775",
"Q  c #220B75",
"!  c #290F75",
"~  c #21077B",
"^  c #230A7C",
"/  c #290D7D",
"(  c #271473",
")  c #2A1273",
"_  c #27127B",
"`  c #2C147D",
"'  c #2E197C",
"]  c #361A74",
"[  c #311679",
"{  c #33197E",
"}  c #45217F",
"|  c #260A82",
" . c #2A0C84",
".. c #2D0D8A",
"X. c #300F84",
"o. c #310E8D",
"O. c #2D1183",
"+. c #2E1982",
"@. c #2E118A",
"#. c #311485",
"$. c #351983",
"%. c #3A1D83",
"&. c #33118C",
"*. c #39158D",
"=. c #34198A",
"-. c #3B1C8B",
";. c #2F0D90",
":. c #330F92",
">. c #360F98",
",. c #2F1091",
"<. c #351193",
"1. c #3A1395",
"2. c #371A92",
"3. c #3C1B93",
"4. c #371099",
"5. c #3C139B",
"6. c #3E1A99",
"7. c #3E13A1",
"8. c #411B8F",
"9. c #411796",
"0. c #421C95",
"q. c #41169D",
"w. c #431B9C",
"e. c #481F9A",
"r. c #44258C",
"t. c #452295",
"y. c #4B2995",
"u. c #46219B",
"i. c #4A229C",
"p. c #532A9A",
"a. c #63359F",
"s. c #4115A1",
"d. c #4316A3",
"f. c #4516A3",
"g. c #4817A7",
"h. c #4619A4",
"j. c #491BA5",
"k. c #491AA7",
"l. c #4516A9",
"z. c #4616A9",
"x. c #4A17AB",
"c. c #4618A9",
"v. c #4C1BAB",
"b. c #531FA7",
"n. c #511DAD",
"m. c #4E1BB1",
"M. c #531DB3",
"N. c #591FB6",
"B. c #551DB9",
"V. c #591FBA",
"C. c #4C22A4",
"Z. c #4F2BA1",
"A. c #4E22A9",
"S. c #5224A4",
"D. c #5223AC",
"F. c #5529AB",
"G. c #592CAB",
"H. c #5D32A8",
"J. c #5621B3",
"K. c #5724B5",
"L. c #5922B5",
"P. c #5A29B3",
"I. c #5C22BB",
"U. c #5E2ABA",
"Y. c #673BA8",
"T. c #622DB4",
"R. c #6225BE",
"E. c #622BBB",
"W. c #682EBE",
"Q. c #6633BC",
"!. c #6C35BE",
"~. c #7D51AC",
"^. c #7347B1",
"/. c #5E22C2",
"(. c #6325C3",
"). c #6529C3",
"_. c #692AC5",
"`. c #6828C7",
"'. c #6525C9",
"]. c #6927C9",
"[. c #6C29CC",
"{. c #712ECE",
"}. c #6A34C5",
"|. c #7333CC",
" X c #6D2AD1",
".X c #732DD3",
"XX c #762ED9",
"oX c #7631D4",
"OX c #7933D6",
"+X c #7C3AD2",
"@X c #7C32DB",
"#X c #8C5AB5",
"$X c #8135DC",
"%X c #833ADC",
"&X c #8234E1",
"*X c #8838E6",
"=X c #8A3AE6",
"-X c #8D3DEB",
";X c #903BEE",
":X c #943EF2",
">X c #8541DC",
",X c #8E4EDD",
"<X c #9549EB",
"1X c #9B55EA",
"2X c #A046FB",
"3X c #A653F9",
"4X c #B157FF",
"5X c #BA6CFF",
/* pixels */
"X X     - - % 1 - 1 W H h ~ ~ J ~  .J h o.n.d.1.W &.T.M.*...v.1.1.^ Q f F 5.@.| | H W H H ^ ^ K A S t t h y V ..o...1...:.o. .B ",
"X X   5 d d d N N | z.:.H 5.7.>.5.d.>.J o./.V.'.f.D.@X(.5.M.(.v.x.h.B.:.5.j.:.P  .| ~ | 5.B.M.d.o.|  .o...o...v.(.I.M.v.(.(.I.d.",
"X + + 4 h N J ;.f.z.g.d.H ..o. .<.W 5.^ V  .N.].O.q.'.(.5.^ h.B. .~ <./ / A H V ~ ^ &.c.&.1.<. .~  .5.5. .....d.:.q.d.h.h.5...d.",
"X % % t L | | L.1.v.x.| A K V B A A A S | H f.[.5.Q j.q.:.V j | P  .B ~ | ^ ~ o.A ^ :.c.^ A :.d.^ h L L P  .L V :.o.&... ...J J ",
"+ % 1 H ~ | j D o.I.<.A ^ o.....~  .^ S :.:.<.v.o.S K / H C ^  .A B N ^ L  .:.7.J K ..^  .~ &.f.! B H ^ J d. . .5.z.h. ...^ 1.W ",
"% 1 z 7.M.j.q. .d.| A S | :...~ d.5.4.L o.<. .| H ..1.:.:. .5.g...J Q ~ :.5.d.>.J S ^ P Q S h r I u | :..... .P ^ d.B.6.f.1.&.q.",
"1 q h I.[.[./.<...| W v. . .^ ..h.5...K K | ~ Q / ^  ...| Q :.<. .^ 4.| 4.<.:...~ ~ ^ :.4...| L o. .| H ..1...&.5.<.h.C.C.P.=.O.",
"4 q D (.q.5.5.~ A H q.g.o.A L ^ | | L  .7.|  .S o.z.5.7.o.| ~ K K ..| ..W N W 5.5.f.>.6...^ ^ o.5.5.:. . .<.<.5.7.<.K | t.3.3.3.",
"q t S x...o...^  .~ 5...H ~ 5.^ ^ ^ K &...~ o.W S <.1.5.d. ./ ..:.| ....| ~ ~ ..5.v.7. . .5.:.| :.5.q. .5.5.:. .| :.o. .w.C.=.#.",
"h d / ].o.^ ..1.h. .d.&...| :./ q.v.o.o.1.&. .1.5./ &.*... .f.:. .| L :. .5.5.S | ;. .| ..d.o. ... .^ | 5.1...^ ..o.| ^ 5.P.A.w.",
"N B K 3.L >.5.g.5.| 1.;. .<.h.1.5.5.5.L.I.I.<.v.I.L.B.&.h.I.d.1.1.v.;. .5.;...5.W o...L h.L.g.&.o.1.o.L ..:. . .q.5.| v.v.A.P.P.",
"N A V | | d.5.:. .~ ..o.| h.B.x.| :.&.d.h.M.&.<.4.L.R.g.q.M.j.| q.M.q.5...| 5...w.B.d.m.d.L.M.&.L.B.B.v.q.|  .J.V.f.f.h.^ 3.C.6.",
"f B ~ >.o.| :.| &.f.v.x.n.L.L.M.5.v.L.5.v.[.M.<.q.1.f.h.q.v.1.n.1...5.d.L.J.`.j.j.I.(.(... . .q.n.n.q.N.5.<.q.d.oX5.<.5.m.h.D.P.",
"q B S ..>.x.q.N.1.o.o.5.B.{.I.J.q.L.L.<.d.`.n.5.`.j.j.n. .v.M.V.j. .J.I.B.R.).(.o.n.w.v.v.M.h...5.:.o.1.1.I.(.@.&.<.j.n.L.6.L.P.",
"1 h H H ..h...1.:.q.f.>.q.<.1.q.5.1.<.j.1.j.w.:.J.`.).[.h.n.J.;.n.I.d.h.n.q.5.f.q.q.1.d.q.j.v.n.(.j.v.x.j.1.v. .v.L.I.w.<.<.I.J.",
"% h h ~ | 5.x.n.o.h.M.5.j.f.R.B.<.`.`.I.L.1.q.5./..X`.(.h.o.d.6.q.M.f.7.5.v.R.I.j.(.(.I.I.B.1.d.(.B.L.J.v.l.I.5.oX(.5.<. .&.j.<.",
"1 h y A  ...j.n.<.d.f.5.M./.I.B.f.M.m.M.'.z.XX(.S.R 7 ] ) oX-X[.&XI.M.:X(.'.[.].z.(.(.oX[.].'.f. X(.M.I.m.v.[.d.(.(.5.<...d.A f ",
"4 t w / z 1 - 6 p k f j k u 6 6 i u r l l r m s - + + + X M ] m m i m E m n m n b m l l b l c p l i p l p i I i l l w c x j y f ",
"4 - @ + X @ +                                   X + + + + X     .               X                                   X         X ",
"- - * % % + @ X X X o o X + X o + + + o o X + + + + + + + % % X + X @ % + + + X + @ X + + X + + % @ + + + @ X + + X X + X @ + + ",
"4 4 1 - - % + - % % % - - - % % - % * % % % % % % % % + + + % + + % + % - % % % % % - ; - - % - 1 - - - 1 - - 1 - % - 2 1 4 4 1 ",
"q t 4 4 5 4 4 1 - - % - 1 % * - 2 - - - - - - - % % % % % % % - % - 1 1 1 % % % % + % - - % - 4 4 4 4 4 4 4 q 4 1 4 q 4 t t d q ",
"Z N C z d Z F j t Z { ! C { [ c u y Z k e l w w Z c f 5 5 j 6 + + + % 4 1 j I $.0.p.i.0.S.8.%.1.3.w.w.S.h.1. .2.P.*.u.C.0.O.O.~ ",
"h.j.v.7.4.5...5.j.M./.B.5.M.B.v.<.~ v.7.f.B.<.v.d...5.4.@.~ | B - + X + I ].B.V.[.&X-X@X;X@X[./.(.XX[.`.(.R.j.OX[.v.oX@X[.oXv...",
"B.(. .v.d...o.5.d.q.B.x.(.<.P :.q.| 5.q.<.j. . .<.&.K 5.<.C :.| h r F : I.(.V.'.].@X@XV.I.n.q.o.:.h.g.f.5.j.j.].).R.M.I.n.d.^ A ",
"^  . .d.1.A L ;.:.H | |  .W C  .5.^ w.n.^ <.~ 1.f.7.1.Q W ^ W B y r ~ r I.v.M.].R.5.o.d.v.z.n.g.M.V.n.z.>.:.&.j.J.(.x.g.h.o.L | ",
"A ^  .5...&...4.5.~ o...:.....^ |  .....W <. ...^ &.d.5.o.5.L d q 5 A f q.V.L.h.:.n.j.].@XM.M./.@X$XoXV.M.v.<.1.v.v.5.>.5.5.:.:.",
" .o.| :.q.h.5.:.^ F :.h.7.<.g...:.^ 1.1.&.O.<.^ *.O. .K :. .| B - 4 H h o.[.M.>.].=X.X=X:X(.].R.[.*X@X(.].M.:.:.v.5. .o.5.5.:.L ",
"5.j.1. .5.1.j.....1.J 5.d.g.5.5.j. .h.h...Q <.v.5.6...~ ..^ ..B % 1 N N 5..X:.M.@X&X{.`.E.*X2X$X'.[.|.$X1.q.j.o.h.:...5.5.j.:.^ ",
"d.v.1.h W K v...| :.*.B J  .! W &./ v.n.O.g.d.n.h.c.<.| ^ h.~ h q - B A  .N.:.B.L.j.d.B t 6.i.L.j...o. .q.B.(.q...L ..d.5.v.h.d.",
"d.d.L 1.1.A C B  .<.j.o.w.j.1.5.1.<.~ x *...5.q.d...9.L.1.1. .d 4 - f q F I.d.=XW...^ _ 5.K N  .q.o.| W V.M.x.q.M.>...../ `.v.:.",
":.| ^ x.m.1.` <.<.A / ..q.v.5.v.h.<. .9.6.&._ / 5. .L.M...L Q f 5 % 4 1 f b.%X!.1.M...j.g.^ ^ B .. .L | 1.1.L ..:.h.1.q.5.q.x. .",
"A <.<.x./ <.j.W F A 7.<.W | 5.f. .&.5.....q.n.5. .&.1.o.:.5.z.5.y 6 e 4 K =.@.| 1.q.5.f.:.f.*.A 1.^ A  .L L F :.5.v.7.f...~ o.<.",
"1.^  .5.:.7.<.o.h.4.| 5.1.o.~ d.<. .d. .o.5.v.h.&.:.^  .d.:.6...Z 0 8 4 O.F.&.j.f.1.v.1.d.5.S K <.| ..<.1...:.:.5.h.g.5.o.d.5...",
" ./  .....<.K H ..^ / :.d.&.| 1. . .&.<.o.| j.q. .q.<.~ 7.v.5.;.x = > 9 ( E.D.1.j.q.I.D.| #.9.&.^ ^ j.v.v.M.<.^ <.j.q.<.:.E.J.h.",
"*.&.L ..5.../  .^  .H <.c.f. .5.<.<. ./ o.o...o.o.q.h.| h.5.^ 5.j 2 : s F P.<X>X}.Q.C.5.v._.v.q.(.5.1.:.5.d.5. .o.L.5.<.<.).j.XX",
"h.M.q.W &.A  .&.o.x.^ S :.h. . .....q.| ..5.1...5.5.c.&.5.f.&.7.k 9 y j +.u.+X%XT.D.7.`.{.I.5.d.q.Q j.3.| J.[.C.1.j.1.J.`..Xj.(.",
"v.o.<.1.S _ o.1.1.1.&.~ L ^ 5.:. .d.5.^ | h.1...5.d. .1./ #.X.&.b 8 2 : 2.3.F.oX`.v.n.n.1.5.J.d.S z t f A X.R.$XL.J.oX%X.Xv.g.<.",
"H H K | A ^ ^ |  .P W N ..:.~ o...A A N h  . .~ 5.v.d.z.@.7.S g a ; - + q.w.2.(.{.[.@X@X(.(.(.oX1.S ;. .^ / I..X=X.X2X4X-X@X{.@X",
"4 y e 1 - ; 4 1 - 1 1 1 5 5 - - 4 w 1 1 5 - r p r I ! Z 4 p y e a 2 1 2 T O.w.#.! I 0.%.U ! F r.e.1.<. .&.o.A ) u.3.S.T.T.!.S.P.",
"X       X X   X X X X X X X + +   X + + + X X     X X X @ $ O = 0 9 8 9 8 = # @ X X     X   X   X @ @ + @ * X X   X X X X X   X ",
"+ % @ + - - % % - % % % + + % % % % - % % + + X @ + % & , , 0 3 8 0 0 a w   X % % % + + X + + + + + + + + + + + + + + X   + + X ",
"% - - 1 1 4 4 - 1 1 1 - 1 1 - - 1 4 - % * - % % * + @ < : 1 k G k t e f q - - - 1 1 % - % 1 1 - 2 1 1 1 - - % * % % + X X * % + ",
"1 1 - X X + % - - - 1 4 1 4 q q t q t q t y t t q 2 ; 9 g N d v v d t N d t t q 4 1 4 - 1 1 4 4 q q 4 q 4 4 4 1 - 1 % +   + % % ",
"5 % o   r.#X~.^.Y.a.p.H.p.r.9.Z.t.u.O.3.C.#.u.Z.y.H.t.-.e.3.=.-.{ O./ &.*.-.2.&.O.t.-.%.-.y.p.y.#.$.u.$.#.-.*.$.-.[ %.-.) [ t.r.",
"1 % % 7 1X1X+X,X5X3X<X=X<X%XoXI.$X=X(.E.%X|.).1X<X>X).L.}.|.|.}.`.oX'.I.(.@X].$X(.I.J.[.`.%X>X%XJ.v.oXR.B.(.M.B.V.h.V.].M.j.L.J.",
"q 1 1 Y ].5.q.d.v.q.{.E.I.R.v.<.v.J.w.@.A.P.5.i.Q.F.j.&.6.j.A.C.w.v.).M.1.v.1.j.J.L.K.5.6.5.6.(.J.q.B.j.D.z.o.q.M.5.1.h.v.q.5.1.",
"e 4 q x x.v.5.B.N.1.E.J.q.J.M.j.q.h.U.F.T.U.j.w.J.F.F.0.P.h.1.5.1.j.D.q...n.5.&.<.5.w.5.v.f.:.j.1.f.f.1.<.v.L.d.z.@.D.j.B.q.e.v.",
"w 4 - x B.V.o.f.I.j.1.j.>.R.w.1.h.F.).F.S.w.D.C.*.w.P.y.U.6...Q ..6.q.v.5.5.M.j.M.v.! f.).f.j.n.j. .w.I.v.j.M.1.C.w.J.f.*.1.1.j.",
"5 - ; l '.]...I.j.5.<.1.d.&.1.j.f.q.j.F.P.F.D.}.F.w.6.u.w.j.<.q.1.M.j.A.w.&.5.R.d.(.d.v.A.j.`.d.M.<.q.J.q.D.L.(.R.D.&.&.E.n.n.O.",
"2 - - l I.j.<.j.:...5.| q.5. .5.q.q.1.=.t.t.2.e.3.C.z.<.&.5.6.|  .5.<.5.q...W <.h.f. .c.1.^ <.1.j.j. .6.v.D.j.P / ..*.3.v.j.| <.",
"2 @ X q 5.N.g.#...6.^ L 1.<.v.5.<.o.w.5.e.<.1.^ _ O.6.w.q.o...&...5.1.5.<.q.].5.w.J.j.n.I.I.:.o...&.1.1.w.Q 5.5.j.L.M.../ =.f. .",
"- * - f m.XXn.1.W | h.5.J  .v.5.d. .<.&.1.c.J.F.Q.E.J.J.L.n.1.n.(.J.5.d.v.o.q.<.<.1. .K 5.5.*.1./ ^ n.w.J.v.v.5.~ W J O.v.q.<.o.",
"- - - f 7.>.].V.<.^ K | :. . .5.C.f.w.w.n.q.C.u.C.E.h.v.5.q.f.j.M.L.v.j.v.D.H.,X|.<.j.w.j.1.q.5.5...5.f.<.<.| / / / <.L.(./ S 5.",
"- * 2 f :.V.'.V.d.:.| ^ o.|  .=.3.F.J.N.D.n.j.1.h.d.h.D.f.v.f.5.A.I.A.D.9.P.,X,X&X`.n.o.R.=XOX|.).L.).n.h.L.I.I.v.5.^ 1.5.^  .d.",
"- % - x  ./ 1.g.j...:.5.1.&.C.3.w.-.$./ w.J.1./ 6.| :.|  .q. .<.g...|  . ...1.M.].(./.n.[. XR.9.S.5.w.P.C.L.[.).J.w.j.j.q.v.h.R.",
"% % + f <.*.o.L.L. .q.h.5.&.C.j.w.u.L.C.7.<...J /.1.1.o.5.o./  . ./  . .~ K _ ! &.! Q X.*.! Z K 5.h.<.<.f.X.*.&.w.5.I.{.'.[.(.X.",
"1 % @ p x./.(.I.j.>. . . .&.C.Q.3.j.A.A.q.5.^ ^ V.M.q. .q.v.7.>. .<.:.h.W d. . .q.:.W :.1.o.f.(.x.q.o.n.x.q.n.(.@X..~ M.XX3.f.^ ",
"+ X X 1 F Q ! { R M.L.( i._ ` L.3.P.P.A.v.(. ...x.].x.L <.M.x.g.| :.v.:.;.v.&.D M.5.5.(.(.o.M.].(.| | ].].(..X=X-X5.o.v.@X1.j.X.",
"% X X % f /  .e.P.C.C.' U.F.J.I.=.I.3.L.j.V.1.:.'.[.V...x.[.[.'.m.I. Xl. .B...z 5.m.V..X&XV.@X;X:Xq.J .X@X;X;X2X;Xv.o.R.XX'.'.5.",
"% % + - C B B B F { $.r h.C.G.u.Q 1.W &.j #.U B q.1.<.j W $.I 3.#.*.[ l f Q Q C j F ! ! $.U ] %.-.X.C F x n.u.*.9.U f c c F L y ",
"- % + X + % % % * > < > % @ > > + + & + + + X + X + + X + + + X X X X X o o + % + + X X   X + X   X + % X   X X X X % + X   + X ",
"4 1 - - 5     O O o $ , # # , = % % + X + + X + +   + * + % + X X X X + % % + X X X                 X X   X X X + %     X o + X ",
"t 5 1 - 1 + , < , > * > , > = + + % % X + % + + + + + 1 1 % X X   X X X X + + + % + & % - 1 % % 1 % - 4 % - - 1 1 1 % + - * - 1 "
};
