/* XPM */
static char *out[] = {
/* columns rows colors chars-per-pixel */
"64 64 235 2 ",
"   c #020205",
".  c #090103",
"X  c #02050C",
"o  c #09040C",
"O  c #02090D",
"+  c #080C0A",
"@  c #00100D",
"#  c #040711",
"$  c #090416",
"%  c #010A13",
"&  c #0A0B15",
"*  c #04071A",
"=  c #020D1B",
"-  c #0A0C1C",
";  c #031016",
":  c #0F1012",
">  c #02111D",
",  c #0B121C",
"<  c #081C1F",
"1  c #141415",
"2  c #13161A",
"3  c #141819",
"4  c #1A1A1D",
"5  c #010F22",
"6  c #090D25",
"7  c #040E29",
"8  c #021224",
"9  c #0B1525",
"0  c #0C1B22",
"q  c #02152B",
"w  c #0A142A",
"e  c #03192E",
"r  c #0B192D",
"t  c #131C24",
"y  c #1A1925",
"u  c #141D2C",
"i  c #191D2B",
"p  c #021632",
"a  c #091634",
"s  c #021A34",
"d  c #0B1B34",
"f  c #0B173C",
"g  c #021C3B",
"h  c #0A1D3B",
"j  c #121E31",
"k  c #101F3A",
"l  c #132125",
"z  c #13202B",
"x  c #0D2237",
"c  c #02203C",
"v  c #0E233D",
"b  c #0A2C3D",
"n  c #132234",
"m  c #192334",
"M  c #13253B",
"N  c #19273C",
"B  c #12283F",
"V  c #243036",
"C  c #021D42",
"Z  c #0C1E41",
"A  c #031E4A",
"S  c #081E4B",
"D  c #022144",
"F  c #0B2443",
"G  c #052846",
"H  c #0D2A44",
"J  c #02234B",
"K  c #0A234A",
"L  c #062B4D",
"P  c #0D2B4C",
"I  c #152642",
"U  c #142B43",
"Y  c #192946",
"T  c #142C4B",
"R  c #0D334B",
"E  c #153247",
"W  c #14324C",
"Q  c #032553",
"!  c #0A2452",
"~  c #022A55",
"^  c #0C2C53",
"/  c #03265B",
"(  c #092659",
")  c #03295C",
"_  c #0B2B5C",
"`  c #112651",
"'  c #122E54",
"]  c #0D3455",
"[  c #0A315A",
"{  c #093658",
"}  c #133455",
"|  c #1B3C55",
" . c #14345C",
".. c #133B5C",
"X. c #19385F",
"o. c #243449",
"O. c #243959",
"+. c #092766",
"@. c #022B63",
"#. c #092B63",
"$. c #022E6B",
"%. c #09296A",
"&. c #063363",
"*. c #0D3263",
"=. c #0D3C62",
"-. c #02326B",
";. c #0A336C",
":. c #033D6D",
">. c #083A68",
",. c #133362",
"<. c #123C64",
"1. c #133669",
"2. c #163D68",
"3. c #032E72",
"4. c #092F78",
"5. c #043273",
"6. c #0C3275",
"7. c #0B3C74",
"8. c #02347B",
"9. c #083778",
"0. c #033A78",
"q. c #0C3A79",
"w. c #123B71",
"e. c #183D75",
"r. c #074657",
"t. c #09465A",
"y. c #12465E",
"u. c #0B4269",
"i. c #0C496E",
"p. c #154466",
"a. c #15436D",
"s. c #174869",
"d. c #094479",
"f. c #0D4B7B",
"g. c #144474",
"h. c #174874",
"j. c #134B7C",
"k. c #194E7C",
"l. c #0D5374",
"z. c #0D517E",
"x. c #214366",
"c. c #224A6C",
"v. c #31516B",
"b. c #254D76",
"n. c #265372",
"m. c #30537D",
"M. c #023483",
"N. c #083586",
"B. c #033986",
"V. c #0A3C84",
"C. c #04368C",
"Z. c #033A8B",
"A. c #0C3E8C",
"S. c #103B85",
"D. c #033694",
"F. c #043C93",
"G. c #0A3990",
"H. c #023D9A",
"J. c #013EA3",
"K. c #0E4284",
"L. c #0B458A",
"P. c #174B88",
"I. c #0E5483",
"U. c #05538B",
"Y. c #135284",
"T. c #1A5586",
"R. c #034193",
"E. c #094293",
"W. c #05439D",
"Q. c #104B92",
"!. c #0B5596",
"~. c #055995",
"^. c #175796",
"/. c #295A87",
"(. c #215893",
"). c #156186",
"_. c #0D649A",
"`. c #196194",
"'. c #356D9B",
"]. c #0343A4",
"[. c #0A47A2",
"{. c #094CA1",
"}. c #0344AB",
"|. c #0B5AA7",
" X c #014CB4",
".X c #0B4BB3",
"XX c #034EBE",
"oX c #0B5BB2",
"OX c #0A55B8",
"+X c #115FB4",
"@X c #0E68AB",
"#X c #1669A9",
"$X c #1875AA",
"%X c #0D6BB0",
"&X c #126EB1",
"*X c #116ABA",
"=X c #0A76B8",
"-X c #1479B8",
";X c #216CA2",
":X c #2C78AB",
">X c #2173B3",
",X c #014EC1",
"<X c #0455C5",
"1X c #115EC0",
"2X c #0865C7",
"3X c #1174C5",
"4X c #137AC6",
"5X c #167DCC",
"6X c #0869D4",
"7X c #0368DB",
"8X c #0A78DA",
"9X c #0578E1",
"0X c #1285AF",
"qX c #0683BE",
"wX c #1583BB",
"eX c #0789CC",
"rX c #0A8BCA",
"tX c #1385CC",
"yX c #0D93C6",
"uX c #0983DD",
"iX c #158BD7",
"pX c #0D98DB",
"aX c #1B91DC",
"sX c #17A4D5",
"dX c #0682E3",
"fX c #0880E6",
"gX c #078CED",
"hX c #0A96E8",
"jX c #1394E4",
"kX c #089CF4",
"lX c #11B0EA",
"zX c #0CA7F7",
"xX c #0BB6FF",
"cX c #10B9FF",
"vX c #16C6EF",
/* pixels */
"m.M I M M M M n n n M M B T ,.Y 1 1 3 3 3 3 2 2 2 2 2 2 3 2 i n.(.Y z t l l u l u m M Y ' X.E i N b.x.y 1 1 1 3 2 2 3 2 3 3 y O.",
"h.! J g g e 8 q q 8 q s g J @.^ W - . X   X X X X X     # k I 8 q ` K q = % > = 5 q g g f 5 X O % 5 [ e.b X . X X O X   % q 9.>X",
"i S 5.#.D D g s s s g D J G q 8 ^ j.E X   X X X X   # r I r X   . X s ^ C q q 8 e g a = X O O X # = = g w.i.d . o X X 7 #.@X-X| ",
"3 X 8 +.;.@.J c D D G D e % O = = g d.Y.L .   X   9 B h #   X X X   X * F +.J s s p X X     X O # = = = 5 Z g.<.* * ~ !.=Xf.5 2 ",
"t # X X a ;.0.-.#._ a % X % % > 5 e p ~ P.k.s o x M =   X X X # X X X o   w ;.w.* o X X X # X # # # O % % = * P V.|.%XI.a X X t ",
"t O # # o % K E.+.= O O % % % = 5 8 e p g q.#Xa.9 X X X X X X # X # % X o O = *.& o X X X X X # X # # % O = 5 # f.rX{ # X % X t ",
"t % # # % O   d * O % = % % = = 5 > 5 a h C -.w.  X X X # X # X # # % % % % % _ w o # X X # X X X # # # # O % X ..d.% X % # # t ",
"t % % % % O O r & % % % ; % = = = 5 5 q s g ) ( X X X X X X X X X X X # % % = { w X # X X X X # # X X X O % X X L ~ X % X # % 2 ",
"z % % % % % % r & % = % % ; = 5 = 5 5 q e s ~ ! X X X X X # X # # X # # % % , >.9 X o X X X X X X X X X X # O   G Q # % X % % 2 ",
"l % % % % % % d > % % % % ; = = = 8 5 8 p s ~ ! . # X # X X X X X # # # % % 8 :.w X # X # X # X X # X # X X #   F ) % # % X # t ",
"z % = ; ; ; % Z 6 % ; % % = = = 5 5 5 8 e s Q ! X X X X X # # X X # # % % ; 5 :.w X # X X X # X # X X X X # X   G &.= X % % % 2 ",
"z ; = = = > = K 9 = > > > ; > > = 8 8 8 s g / !   X X # X X X X # X % O % % = :.w X # X # X X X # X # X X X X   G :.= # X X # t ",
"n 5 5 8 8 8 5 ^ e 8 8 8 8 5 5 8 5 q q e g D #._ X X # X X X X X X # # O % % 5 :.w o # X X X # X X # X X X X #   L 0.= % % % % y ",
"M 5 5 5 5 e p =.Z p s p s e q q q s s g C Q 5.6.. X X X # X X # X # O % % % 8 { 9 . X X # X X X X X # X X O #   ^ ;.X % 5 8 8 j ",
"n 5 5 5 e c s e._ Q D C D g g a s g g c D 5.F.6.a % # # % X X X X # # % % O o #.w . X X X # X X X X X X .     s %XU.% = 8 5 8 n ",
"j 5 5 g D a % = F V.8.@.Q J D D A J J ~ 5.#.e o M ,.s X O X X O X # # X   % d.iX$XL . X X X X # X # X X   6 z.&XK.d.&.g q 5 5 j ",
"n p J Z 5 X o # X w q.[.C.$.@.) ) @.5.;.g # X X   ; ' ] 8 # X O %   o . G -XjX2X2X4XI.a X   X X X . . # =.-X|.@.p q g _ J s e B ",
"g./ p # o # # # # o . F Q.OXR.B.B.Z.! % . X # X #   . r } ' = O     7 _.jX6X].F.C.F.oX-Xg.5   X   X P &X*XN.Q g e 8 % = p ! ! } ",
"X.% X X # # # # # # % X & ] oX<XV.9     % # o # o O X . o M 2.h * z.pXdX.XZ.4.3.-.5.5.Z.*X&X>.= a _.3XE./ K c e 8 5 5 = % = C P.",
"y X O % O % X % # % % % X X d 1.o X O % O O % % O # % O +   % p.sXzX2XJ.M.-.) ~ / @.-.5.0.W.5X$XI.L.@.S D s e 8 5 = = = % % O N ",
"t = O O % O % % % % % = % % > x O % % % % % O % # # # O + O . y.cX6XJ.B.-.~ J J J / @.@.5.Z.}.aX} p g s p e 8 5 5 > = = = % > y ",
"t % % % % % % % % = % % % % 8 H % % % % % % % X O % O # X X . t.zXXXC.$.~ J J D J J / @.$.M.J.5XE 5 q q 8 5 5 5 = = = = % ; = y ",
"2 % O % % % ; % % ; % = = % 8 T % ; = % % % % O % O % o X O . r.hX}.8./ J c c D C D A / @.3.D.4Xb = 8 5 5 5 5 = = = ; ; ; % = y ",
"t % % % ; ; % % % = ; ; ; % 8 T % ; ; ; ; % % % % X % % % O . r.gX].$.( D g g c c D D Q ) 3.C.3Xb * 8 5 5 5 5 = = = % = = = = u ",
"t = % % = % % = = = = = = = s ] 6 > > > = % % = % % # % X O . r.9XJ.%.Q g g s g g C C Q ) $.C.3Xb = 8 5 5 5 5 5 5 5 5 5 = 5 5 i ",
"t % = % % % ; 5 5 > > 8 7 5 g <.9 7 q 5 5 5 ; ; % = % % % O . r.dXH.@.Q g g p p g g A Q ) $.D.3Xb = 5 5 5 8 5 5 5 5 5 = 5 5 q m ",
"u % % % = = = = 5 5 8 q e p G f.a e q q q 5 = % % = % % % % . r.uXF.) J C p s s g D D ~ @.5.H.4Xb 8 q 7 q 5 5 5 5 5 q q 8 q p I ",
"t % = % = = 5 > 5 q s p g g { !.f C C g s e q 8 = % = % % % . r.uXD./ D g p g s g D D / $.8.}.tX] s g s s p p q p e e p s g C ' ",
"0 % ; ; > = = > q s c A ~ D c ^.9.@.) / J C s e > ; ; % * O . i.kXJ.) D C p p p g C J ) 5.Z.,X5X .%.@.J D g g g s g g g D D C } ",
"o.9 % % 8 5 8 q g A ~ ( f =   , j.+XW.q.$.~ g g q 8 = * # : l.-XwXtXF./ C s p s C J / 3.Z.].A.e o K L.R.3.~ J J J J Q / @.5.u.W ",
"m U H > = 5 8 s J ) Z >   # %   X x ^.1XH.8.@.C s q * # <.wXuX5.a ..$X|.%.C C C A Q $.Z.5.g     #   5 6.{.F.3.$.@.@.$.B.^.k.x 3 ",
"l % h } F 8 e D D 8 # X % % % # # o o ] #XOXM.S e 5 ] 0XjX<X0.G p % - y.#XE.@.J ( 5.9.C o . X * X # . o f A..XW.C.F.|.`.R O X y ",
"l % O 8 ] a.v 9 o X O % o % X % o # # . : h.#X3.) $XlXfX}.M./ g e 8 5 o r Y.*XE.B.Q *     X # X # X # # . % P oX6X-Xs.+   O % t ",
"t = > = * F , X % X % O # # # o % # # O o . j wXvXxX7X}.B.) D g q 8 = = = = R #Xv . . X X X X X X X X # o X   p ).t . % % O % 3 ",
"z = 5 5 8 q X O % % O % % % X % # X # # # X $ yXxX7X XZ.-.Q C g q 8 5 5 8 8 8 >., . O X X # X # X # X # O % % > t.o o # # % # y ",
"z % 5 8 e h % % % O % X % O % # # % o % # # # rXkX<XR.8.@.J g s 9 8 5 5 > 8 s z.0 . X X X X X X # # X # % O # > i.# # # # # # 3 ",
"l % 8 8 p v % # X O % X # % o o # # # o # X * rXgX<XR.5./ J g s e 8 8 5 8 8 D U.<   X O X # X # X X X # # X % > i.X # # o # o t ",
"l = > 8 p c % # # % O % # % # % o % % # X X * eXgX,XF.$./ D c s p q 8 q 8 s J ~.l .     X X X X # X X # % # O 8 i.o # # % # o y ",
"t ; 5 8 p c % # # O % O # X # % # # X X X o * eXdX XB.@.~ c g s p 8 q q p g Q ~.< . X   X X X X X # X # X O # 8 i.% # # # # % 3 ",
"u % = 5 w s % X # # # # % o # # X X X X X X * qX9X].5.) J g s p e e e e s g ! ~.<     X   X   X X X X # X # % = u.X X X # X X t ",
"0 % = = q s # X X % # X # # X X # X X X X X # =X8XH.$.~ C g s p q q q e g g / ~.< . X   O   @ O X X X X X o # > u.o X X X X X 2 ",
"t ; % = 6 q # X X + X X X X O O X X X X X   $ =X6XC.@.J g g e q q q q e g C J !.< . O           X X X O X X # = ..O O O X X # 2 ",
"t % % % = * .   O O O   X       X   X O     X $X8XC.( G g p e q q q q e s g ! _.0 .       O   O   X   O X   X X I       O   X 2 ",
"t O % % X q s.s           O O     X       %  .j.;X#X5.D g a q 8 8 8 q e p Q g.} 0 , @     O           X X   . F T.0       X   2 ",
"2 X . X R ^.^._ q     O O     X   X . o B g.&.7 = y.(.w.C a q q q 8 8 s ^ P > . + 8 8 # . . X   O       . 8 %.B.Y.^.| & .   O 3 ",
"2   x T.^.#.S C D c ;       O     o r 2.<.C 7 > O . & p.P.^ s q p c ( P 9 .     .   % 9 9 *         . ; ! 8.8.$./ / q.j.B .   2 ",
"k s.^.6.A g g g s g g q %   . X = ] 7.J p 8 8 = = % O . u h.Y.L ^ ' a X .           .   # 9 - X . o G B.B.8.@.) ! J J ! a.p.0 1 ",
":XQ./ C p p p q q q q e s 8 % d ,.K q q q > % % % O % O X . U /.W % .         X           X 9 9 h K.}.F.5.@.) ~ J C C c g ( k.v.",
"^.! C f p w 7 8 5 8 5 8 q e C C > = = = = = % % % % O # # O X -                               # E.XXF.9.-.) ~ J D c g s g s A '.",
"e.Z s q 5 5 5 = = = = = = 8 a p = = = % % % % % O # # X # # = 8 X     X       X X             o G.}.B.5.@./ Q A g g s p s p g /.",
"1.g p 5 = = = 5 = = 5 = = 8 a q % % % % % % O O # X X X X % % 8 X       X           X         . B.W.M.$.) Q D C c s s e p q p /.",
",.s q 5 % = % = = = = = = = q > O # # O O # X % # # X X O o = 9                                 9.F.5.@.~ J C g e q q q 5 q e b.",
"} e 5 = % % % % % % % % = ; 8 > O O O % # X X X X X X   O X % 8 X         X       X             5.Z.3.@.Q C g g e w 8 5 8 8 7 c.",
"W 8 8 = % % % # % % # % % % 8 >   O % o X X X O X X X O     % >                           X   . ;.C.3.@.Q D g s e 8 8 5 5 5 7 c.",
"W 8 % % % % O % # # # % O % ; % O     X X X   O X   X   O   % , X   X                           5.B.$.) J g g e 8 5 = 5 5 = = x.",
"Y 6 = % % % % X # # % X % % ; %     O   O   O   X X   X   O % >             X       X         . 5.C.$.) J g s e 8 5 5 = = = = s.",
"M * % % % % O O # X X # X % X X   . X X     O     O O     O X =                         X     . S.C.$.~ J g s q 5 = ; > = = % x.",
"Y % = % # X X   X X X # o . T W O o X     O   O       X X X , 0 X     X X         X           = c.;XB.~ D C p 8 8 % % % % w F O.",
"X.s 5 o X X O X X X X X 0 X.p.D p 5 X .     O       X   % 6 < % * % X .       X           % r r o i n.P.~ g p q > = % = d n 8 4 ",
"T g g 8 %         . % Y <.D 5 > 8 e 8 % O       X O X $ - #     O ; > %   .       . . X 8 w = . X     I h.*.g 8 = = r x 9 % % z ",
"I e e e p = O X X x } K 5 > ; = > 5 8 p q O     X & & X X X     X % % 5 5 * X     X = 9 > @             . U p.K h H r % # % % t ",
"M 8 > 8 8 q 8 > H F 8 = = * = = % > = 5 q e , O O O X     X O   X X o O = 8 >   O 9 - X .   O O       @ X   - E P 9 % ; % = % u ",
"x 8 8 8 = 8 ; C a % = = % % % % % ; % = 8 8 s 8         X         X X # X = 5 U 0 %                           . ; q = % = = = 0 ",
"o.x n n z z z B m t t t u t t t t u l u n z B M 3 , 1 3 3 3 3 2 2 2 2 t 2 2 y | m 3 3 , 3 3 1 3 3 3 3 1 2 2 2 1 z I k n u u u V "
};
