/* XPM */
static char *xpm_[] = {
/* columns rows colors chars-per-pixel */
"64 64 219 2 ",
"   c #000204",
".  c #00030C",
"X  c #03080E",
"o  c #000414",
"O  c #040A11",
"+  c #01041C",
"@  c #080619",
"#  c #040B1B",
"$  c #0A0A1F",
"%  c #020423",
"&  c #050A23",
"*  c #070827",
"=  c #080B23",
"-  c #02052B",
";  c #09072C",
":  c #0B0B2C",
">  c #100F2E",
",  c #0E1124",
"<  c #11122A",
"1  c #030534",
"2  c #0A0635",
"3  c #060A34",
"4  c #0C0B34",
"5  c #04043B",
"6  c #0A063D",
"7  c #05093B",
"8  c #0D093C",
"9  c #110A34",
"0  c #11073A",
"q  c #120B3C",
"w  c #190E3D",
"e  c #0C113D",
"r  c #171335",
"t  c #13113C",
"y  c #050343",
"u  c #0C0643",
"i  c #0E0944",
"p  c #040349",
"a  c #0C064A",
"s  c #0F0A4D",
"d  c #100745",
"f  c #130B44",
"g  c #190D44",
"h  c #11074B",
"j  c #140A4B",
"k  c #1C0D4C",
"l  c #161244",
"z  c #1B1244",
"x  c #1C114D",
"c  c #060351",
"v  c #0C0554",
"b  c #0D055C",
"n  c #120753",
"m  c #140A54",
"M  c #1A0C53",
"N  c #12075C",
"B  c #15085C",
"V  c #1B0B5D",
"C  c #1E1154",
"Z  c #171158",
"A  c #1C125C",
"S  c #210F4C",
"D  c #22124D",
"F  c #220F55",
"G  c #220E5C",
"H  c #231253",
"J  c #25115C",
"K  c #2B145D",
"L  c #2B195E",
"P  c #0D0461",
"I  c #120664",
"U  c #160A64",
"Y  c #1B0B63",
"T  c #15066C",
"R  c #18076F",
"E  c #17086D",
"W  c #1C0A6C",
"Q  c #1A1167",
"!  c #170671",
"~  c #1A0775",
"^  c #1C0974",
"/  c #1D077A",
"(  c #1E087B",
")  c #230E65",
"_  c #230D6C",
"`  c #290E6E",
"'  c #251163",
"]  c #25126C",
"[  c #2C1668",
"{  c #2C136C",
"}  c #321866",
"|  c #341A6A",
" . c #230D74",
".. c #2A0F74",
"X. c #220B7C",
"o. c #290F7C",
"O. c #261072",
"+. c #2D1374",
"@. c #26127C",
"#. c #2C117B",
"$. c #2E197C",
"%. c #361876",
"&. c #32147D",
"*. c #34187B",
"=. c #44207B",
"-. c #1F0881",
";. c #250B83",
":. c #290D85",
">. c #260A89",
",. c #2C0D8B",
"<. c #300F8E",
"1. c #271283",
"2. c #2D1283",
"3. c #2F1880",
"4. c #2E118A",
"5. c #321484",
"6. c #351686",
"7. c #3B1A84",
"8. c #32138C",
"9. c #3A168C",
"0. c #36198F",
"q. c #3C1A8C",
"w. c #2E0E91",
"e. c #310F92",
"r. c #340F98",
"t. c #351293",
"y. c #391495",
"u. c #361892",
"i. c #3C1A94",
"p. c #361199",
"a. c #3C149B",
"s. c #3E1A9A",
"d. c #3E14A1",
"f. c #411E85",
"g. c #421F8D",
"h. c #421C93",
"j. c #40179E",
"k. c #421B9C",
"l. c #481C9D",
"z. c #48238C",
"x. c #432097",
"c. c #4A2393",
"v. c #46209E",
"b. c #49239C",
"n. c #502699",
"m. c #532A9C",
"M. c #4217A3",
"N. c #451AA4",
"B. c #491CA6",
"V. c #4316AA",
"C. c #4817AE",
"Z. c #4719A9",
"A. c #4B1CAC",
"S. c #511EAD",
"D. c #4E1CB1",
"F. c #521EB4",
"G. c #551FBA",
"H. c #4721A1",
"J. c #4B22A5",
"K. c #4E21AB",
"L. c #5324A3",
"P. c #542AA3",
"I. c #5222AD",
"U. c #5727AE",
"Y. c #5D33AF",
"T. c #5522B3",
"R. c #5A25B5",
"E. c #5628B2",
"W. c #5C2BB5",
"Q. c #5621BA",
"!. c #5B23BB",
"~. c #5F2ABA",
"^. c #6237AB",
"/. c #6028B0",
"(. c #6127BF",
"). c #612BBD",
"_. c #6538B6",
"`. c #6732BF",
"'. c #5D23C1",
"]. c #6226C4",
"[. c #652AC4",
"{. c #692DC6",
"}. c #6426C9",
"|. c #6827CD",
" X c #6729CA",
".X c #6B2BCB",
"XX c #702FCE",
"oX c #6B32C4",
"OX c #6E31CA",
"+X c #7234CC",
"@X c #753BCD",
"#X c #6D2BD2",
"$X c #722ED4",
"%X c #772FDC",
"&X c #7532D3",
"*X c #7935D6",
"=X c #7738D1",
"-X c #7B3AD4",
";X c #7B34DB",
":X c #7D39DA",
">X c #7E33E2",
",X c #8036DE",
"<X c #833BDD",
"1X c #8136E3",
"2X c #863AE5",
"3X c #883AE9",
"4X c #8B3CEA",
"5X c #8E3DF2",
"6X c #913EF0",
"7X c #8644DB",
"8X c #8542DC",
"9X c #8942E2",
"0X c #8C43E6",
"qX c #9145EB",
"wX c #954BE9",
"eX c #9652E7",
"rX c #9946F7",
"tX c #AA4BFF",
"yX c #B45DFF",
/* pixels */
"I ;.;.@.@.1.j + I ,.p./ / >.7 . n / / j.>.X.6 o + % - 1 % = , e ^ >.! >.t.,.~ . o 6 M H u a 2 o h ,.,.w.>.e.l.$ % 6.y.y.M.;.,.u ",
"I >.>.X.4.4.m % ^ ,.X./ ;.w.u . N >.S.G.>.V.M . 5 b I / 8.W x % O.t.:.! e.e.W . a C.Z.|.e.>.W o N ;.X.w.,.y.B.@ = b.N.4.,.t.p.B ",
"T ,.:.;.X.^ j = ( p.t.w.w.d.u . Y ! (.!.<.D.) . a X.D.M.Q.Q.V # ] J.M./ ;.,. .o W Q.A.:.:.e.o.o b t.a.X.e.Z.a.@ & g.I.k.a.C.C.:.",
"T ,.r.( :.>.j = Z U I N U N 1 % T ! B.Q.:.e.M . v ,.G.Z.M.F.V . $.oXu.4.t.a.:.o  .1XT. .:.:._ o b d.A.<.<.y.j.o & S.Q.l.i.a.d.&.",
"I ! ;.>.>.w.h # : e 3 + + + + %  .e.A.|.e.r.G . v >.d.Z.e.D.Y . &.:XJ.I.e.Z.o.o _ A.y.:.,.e.o.. v !.Q.a.S.4.X.. : Q.J.i.B.J.a._ ",
"T ;.;.( / ( h o 4 Q @.^ T b 1 o o.'. X!.y.'.) . a >.d.a.Z.Z.m . W N.4.2.8.a._ o :.|.F.B.e.a.&.. n Z.].a.Z.9.j.@ o 8.Z.A.i.~.Q.' ",
"! :.e.>.,.! 5 + m 1.u.u.1.4.u +  .y..X}.y.'.+.  v ,.r.y.t.].d . W {.B.5.B.Q.h.. o.$XB.t.N.y.5.  n C. XN.a.F.h.  o ,.}.M.N.J.x.< ",
"! >.;.e.;.T 5 % P >.t.6.8.d.u o E ;.X.M.C.d.' . v ,.M.a.j.G.h o  .}.A.y.(.Q.&.o o.#Xe.8.F.y.9.  6 M.F.!.N.!.9.  o ! !.$X Xk.N.l ",
"! T ,.t.( T - % b >.;.6.s.H.4 +  .>./ ;.}.].) . m t.Z.a.!.A.6 o X.|.Q.!.&X+Xc.# 2.Q.k.s.M.C.%.  . & ; ; * ; ; . # R M.$XC.].G.M ",
"X.>.,.X.~ I 1 % P e.a.s.^ 4.e #  .,.:.X.t.Z.Y . Y t.;.S.F.Z.u .  .&X4X;X;XrXW.# 7.&X!.N.A.].f.  . ; 6 0 d 8 6 % . I M.}.F.|.D.g ",
"X.! ;.~ / -.u + W ,.V.u.T 4.l #  .e.>.X.X.p.Y o n w.N.}.Q.D.a o T ,XrX6X>X6XP.% 3.K.B.B.Q.F.q.. @ 5.a.e.}.$X%X0   2 u j d g 6 o ",
"T X.>.>.( ^ i o W ,.,.>.~ 4.w . :.p.y.d.M.r.u o I w.N.Q.Q.D.a o s :.h.g.q.O.V : #.OXL.8.A.G...o 2 a.<.X.:.].4X9   @ 2 - ; 9 * o ",
"! w.,.-.( ! 1 + ^ w.,.4.~ >.i . Y a.B.6.B I - % I r.F.!.[.!.a o o + o o * - - 1 g.$XoXg.K.|.&.o y X.W <.y.j.l.1   ` G.G.F.$XB.% ",
"! X.T b n y - % I w.>.,.t.e.8 o % - + + o o + 5 X.y.A.}.[.].a . 2 ;.y. .<.M.n % 2.~.W.v.x.'.L.. u ,.y.9.5.j.Z.k @ o.G.&X]..X|.G ",
"u 2 - % + + + - T ,.;.:.:.p.w . 5 I ^ _ 5.n % 1  .C.Q.]..XA.h . B G.}.B.F.}.Y + ;.k.4.N.s.OXW.. i N.8.:.<.y.1XK o 2.B.j.G.(.!.} ",
"v v I T W E 1 + R ;.! p.Z.V.g . v ,.e.t.r.w.* - / F.F.!.;XQ.m o V !.N.B.F.].) + X.!.N.O.u.W.z.o u B.a.l.8.y.%Xk . 2.F.B.4X*X].%.",
"T ! T ( p.w.7 o 6 y y G &._ ; o R t.<.<.X.,.; % E M..X.X;XQ.n o W C.J.~.{. X_ % o.'.j. .q.].h.o 7 a.8.B.y.l.B.; o #.!.!.XX,X!.' ",
"! ! T ! X.p.6 . + + * = * + o % ;.M.:.e.a.a.- - T a.'.[.4X$Xa + B D.Z.].&X#X_ +  .].j.S.B.D.U.o a r.<.A.:.,X;X8 . 5.(.Q.(.R.G.G ",
"! ! T / / ,.2 . B w.:.a.r.p.F o 4.<./ X.j.F.% 1 U N.}. X].Q.h o V {.R.].[.'.h %  .a.<.[.j.!.+.. u y.8.!.S.I.S.; o X.}.).qX{.F.[ ",
"^ / T ! ! ,.8 o X.M.e.,.>.a.) @ X.j.:.:.,.A.- 2 Q B.!.D.Q.Q.s o Y ].;XI.[.'.h % R Z.B.4.j.].+.. d a.<.!.(.Q.2Xd . o.$X4X&X4XA.[ ",
"! X./ ! ( p.6 + :.a.e.>.r.p.G o X.M.t.<.:.a.* : U s.[.[..X].u % ! A.+XN.{.R.n +  . X].i.a.M.S.o d (.M.t.A.R.:Xq    ..X*X&X[.].G ",
"/ ;.! ! >.:.1 & :.,.e.,.,.V.K % ,.a.<.e.X.N.: 3 Q N.=XoXA.F.a + R ].@X].=XS.h % I e.j.y.j.S.l.@ d a.X.a.!.R.R.2 .  .$X,XS.B.M.j ",
"X.>.T X.:.r.8 % :.e.,.e.e.V.G 1 ;.t.M.:.:.M.; % U B.+Xi.[.T.m + ;.$X-X$X=X}.h + T p.M.}.9.<.y.o d Q.8.2.a.;XrXw   o.>XA.p b b % ",
"X.,./ ~ ! ,.- - a.C.w.r.a.}.} - :.,.Z.t.8.M.; % ~ .X8Xk.).E.v + :.XXwX<X<XG.h + W M.5.<.y.A.S.+ i '.N.y.A.T.qXz . d ` G % + % o ",
"X.;./ R ( 4.- 1 y.D.,.e.Z.}.} % X.t.j./ y.A.- + v y.].:X:XE.A - :.;X).{.$XG.h + T X.8.! X.a.V o v }.N.t.A.+X0Xz o f z g 9 * % . ",
"<.>.~ ! X.t.3 - p.Z.,.Z.d.}.K + ! A.!.:.A.T.- + 7 I I 3.] A i 1 ,.XXR.[.:XG.s % - 5 1 1 1 1 % + B T.y.4.y.I.W.r # U.|.&X'.Q.a.- ",
">.X.X.~ 3.u.4 - p.Z.,.a.F.8.6 o T a.N.;.N.F.% o 5 v 5 1 2 > 4 7 8.=X@X,X;XC.a % - u u 0 o % % + V [.!.a.y..X<Xr & U.[.qX4X$X$Xk ",
"X.~ X.o.s.u.4 4 a.p.,.r.#.y 5 o W t.a.X.:.Z.- + Y F.F.'.).)  .l 2.+X.X&X X].h o V D.!.I.#.t.V + W 1XB.M.N.T.).q = J.oX7X{.G.G.S ",
">./ >. .X.a.r 4 a.d.d.,.c P 6 @ h.C.A.M.N.A.- % o.%X$X}.*Xh.N 2 6.+X`.Q.Q.!.j + B M.j.Z.Z.F.G % E }.u.<.F..XrXw + I.+XoX{.(.].S ",
">.X.;.T >.M.q = 8 k S 6 5 5 * % k.M.t.a.<.A.1 + i.3X{.y.A. X7.% @.@X7XOX[.a.u + ] t.8.8.j.F.m % Y .Xe./ e.S.rXg + L.oX9X<X&X}.k ",
",.X.X.;.t.M.2 $ : : 4 8 2 + o 5 y.Z.y.a.y.S.6 % l.3X].>.a. XL.# U U.7XoX+X,.m o g.!.,.<.a.y.m . V }.<.;.B.qXyXS % ~.9X<X{.XX!.q ",
">./ >.>.,.F.2 # $.y.u.a. .b - 5 C.j.M.t.8.G.6 5 o.].F.;.y.G.h.% T k.=XW.+Xk.6 o q.Q.:.e.y.M.h o M N.a.A.Q.R.).> * ).[.+X=X!.!.0 ",
",.,./ ;.e.A.- % j.{.I.C. .T 1 5 a.t.M.a.,.T.1 y y.G.S.t.Z.$XL.+ o.:X@X7X-XE.2 % h.M.:.y.<.A.j % Y G.Q.+XB.+X&X- - [.[.+X;X&X].> ",
">.e.:.y.M.B.- % s.OX].T.i.4.1 1 N.].y.M.4.a.7 y y. XN.t.M. Xn.o 4.;X7XeX8XW.4 - 8.y.8.y.a.D.j . G A.A.(.I.[.5.% d B.!.&X].*X=Xr ",
" .;.;.,.a.M.% - a.'.T.T.H.8.4 - y.A.a.B.y.M.6 1 M.$XF.t.B..Xf.o  .].R.OX2XE.t : h.S.8.:.B.N.d . # 8 6 7 8 1 1 % l A.a.$X1XT.I.: ",
"e.,.;.t.M.N.- - t.F.Z.B.4.0.t # 9.N.M.T.p.t.u - y.].F.:.a.].g.o R B..XF.[.s.e & 5..Xj.y.Z.M.h + - - - 1 - + o + a A.D.|. XQ.I.= ",
"e.>.<.p.Z.t.- - y.D.C.A.t.4.t O k. XA.}.B.a.6 - t.M.j.8.M.!.h.. N >.M.{.OX:.u - 8.%X).j.j.G.u - X.8.~ o.y.t.) . - +.{ ) ..9.j X ",
";.:.:.<.t.N.- - y.F.M.a.t.4.8 # 5.!.'.!.Q.!.y - 4.a.d.X.F.G.f.o - n B W #.U 5 c y.2XXX{.(.A.V - 5.a.w.a.d.D.W . . + % % % % + o ",
"T ;.<.e.'.G.- - e.Z.e.a.t.:.2 & Z { | J ) M 1 1 i.Z.a./ B.:Xn.o % - 1 i 5 5 - p y.;X=XXX.XB.M 5 t.M./ 8.B.M.W . - o.;.y.y.k.5.6 ",
"y 1 6 d F M - y t.F.e.y.y.t.2 % e f C j 6 m 1 5 8.,.,.,.a.{.z.. *.N.s.A.a.:.7 5 e.[.*X!. XM.m 1 o.y.t.K.u.X.B . 1 e.M.|.A.].F.6 ",
"5 1 1 - % - 1 5 8.G.Z.e.C.a.2 1 @.s.s.N.a.4.u - :.:.:.>.A.#Xz.o z.A.a.t.C.A.6 1 a.}.+X.X(.a.d 5 :.B.a.y.o./ B   * t.j.F.[.A.i.+ ",
"b ;.e.Z.Y - - - E N.t.<.a.8.- B y.4.i.J.I.a.7 1 t.,.a.a.N.'.g.o 6.M.a.8.B.A.k - t.Q.].].!.F.j 1 ,.F.A.:.>.t.W . 1 N.A.s.S.S.8.o ",
"! t.,.d.a.U % - c p 1 2 % + - ;.Z.p.i.t.M.d.8 - T.M.t.y.y. Xm.  6.B.a.y.A.F.d + 8.F.*X].}.F.d - 6.d.N.a.t.D.... - N.u.y.(.[.F.5 ",
"e.G.Q.F.C.t.% % b W V u M G - X.Z.t.t.w.N.T.l - T.F.e.a.a.Q.z.. 5.N.j.4.M.!.F - y. X].(.[.'.d % *.A.T.a.M.!.#.. 1 8.N.Q.!.!.y.6 ",
"e.A.!.A.F.M.- % X.G.D.,.e.Z.2 a :.>.e.4.a.D.g - N.d.N.t.,.D.] + 8.A.N.a.A.$X} - <.!.!.[.XX.Xu 3 $.K.W.p.a.'.h.+ v P.<.!.&X.X<.6 ",
"<.d.M.a.A.,.- - ;.M.;.>.a.y.* % X.;.:.e.a.D.f - B.T.F.:.y.:.Y % i.A.k.N.N.D.j % 8.].XX XXX Xu 3 3.N.E.N.K.D.&.o 1 _.l.F.%X*X<.5 ",
"8.y.d.C.C.a.8 - :.a.,.A.F.D.3 % X.^ 2.t.M.T.g - N.}.'.;.<.t.' % i.A.y.y.N.C.D % 8.!.*XU.].Q.d 5 6.N.x.b.oXK.Y . % m.N.B.G.(.j.- ",
"0.A.N.y.a.t.- 1 <.F.M.t.8.a.; 1 y.;.X.a.d.D.k % N.Q.).X.8.G.{ + b.A.M.N.I.T.H % y.].qX(..X].0 1 1.d.I.H.`.].`   - k.(.{.S.(.y.1 ",
"@.J.B.M.Q.A.- 5 4.,.t.F.T.].- - ,.:.,.t.Z.G.k + R.}.I.<.M.Q.%.o q.A.M.j.N.C.F % a.}.-X.X<X.Xu 1 2.Z.s.N.@X@X] o % Y.[.].(..XA.7 ",
"8.k.R.s.D.D.2 1 ,.T.y.A.y.!.* + / X.8.e.N.F.k + W.G.].k.J. X$.+ i.B.N.K.I.t.d + i.T.!.].R.Q.u % 1.].A.K.`.[.%.X % +.6.<.#. .R 2 ",
";.i.J.H.E.T.8 - X.G.4.a.N.Q.+ @ X.<.:.,.C.Q.x o j.'.F.I.K.oX+.# s.Z.y.E.l.,.d + :.G.}.].!.p.F + #. XA.N.J.J.J   o + + . . + * . ",
":.M.E.N.N.N.2 - ( a.,.t.A. X+ @ ;.X.>.,.N.G.D + j 5.:.B Q Z l 7 y.A.a.M.4.d.j o 2 f g H k m w - 3.D.B.y.4.a.) # < z.h.9.Y y - o ",
",.M.N.K.C.T.l 3 <.a.a.y.<.A.# # 8.X.;.<.a.F.k o - p 5 5 i i 4 i i.B.y.B.y.d.F . * ; * * % - % - 8.D.s.a.t.d.) X r OX4X3XC.y.h.H ",
">.Z.t.a.y.3.t 3 :.Z.e.<.a.j.@ - y.:.:.y.N.F.H o B X. .;.a.t.j 3 v.N.t.M.e.D.F o h.}.$XG.!.Q.B + #.!.t.M.s.D.G   < {.9X<X X;XtX=.",
"( Z.A.Q.Z.c 4 : ' y.t.M.y.&.o % B.:.<.a.A.A.: + W e.,.a.t.a.V = g.K.k.B.t.d.j + h.B.N.j.F.Q.Y + O.'.K.a.a.D.J   4 W.8X@X/.R.%XH ",
"/ 8.D.D.8.y 3 : 4 s 6 ; + . . % N.8.:.j.A.I.: + o.t.y.y.e.a.V o P.E.k.J.t.F.G o j.t.t.B.A.B.V o O.M.a.s.s.D.) . 4 ~.<X).qX).1XM ",
"! / M.p.A.Y - : f Z A a a 2 o & N.y.X.t.A.A.z + o.8.t.y.a.e.u + b.E.H.N.y.p.j # 0.,.y.C.j.S.` o o.Q.M.a.a.V.M . 2 B.[.+X`.OXR.k ",
">.y.a.Z.K.y.3 - ^ s.s.s.D.'.9 + X.X.>.a.B.D.g + #.t.t.4.e.:.u % i.E.k.s.N.K.M + 0.e.Z.B.Z.M.Y o X.!.B.t.y.C.k . q C.&X.X).OX@.q ",
",.A.D.M.G.D.2 % o.d.H.H.E.F.0 + ;.;.,.8.M.D.f + o.w.t.t.<.e.u - k.K.a.s.H.K.M + 5.t.M.M.Z.G.) o 5.!.M.s.t.M.k o 6 a.!..X'.W.{.L ",
";.e.p.p.t.t.8 % 8.t.N.K.~.R.w + ;.;.;.e.F.A.w + 8.:.t.y.t.t.u % v.D.a.t.u.J.[ = y.a.A.a.t.F.) . i.Q.'.F.D.d.d . i T.].;X[.!.~.x ",
"X.e.,.p.M.D.2 * t.p.y.N.~.W.r + >.;.,.,.d.Z.d + y.y.t.8.t.,.u % P.Q.t.>.4.s.C < h.N.D.F.C.a.)   0 ) +.&.9.2.8 + m .XXX*XR.!.'.k ",
"X.>.,.A.F.y.1 - ,.,.y.a.k.M.9 o 2.a.o.w.t.d.w + 8.,.:.>.:.w.u + ^.T.t.:.a.N.x , x.J.I.M.A.Z.M         . o + o + h }.1X!.R.4X5XH ",
"/ ;.:.M.M.A.q - t.e.r.,.:.A.9 . b 4.a.,.p.M.4 % o.e.8.:.,.:.i + ^.G.A.F.D.s.u = 0.J.R.S.A.F.)   8 _ M a m u % o d )..XI.S.S.].8 ",
"X.>.;.a.a.,.1 1 e.a.y.8.>.B.; o 1 X.D.y.:.>.i % >.y.:.t.t.:.6 + } 6.$.O.W m - 3 i.s.J.M.j.Z.V   ) D.e.,.Q.K.u + = ; : @ @ + @ o "
};
