/* XPM */
static char *xpm_[] = {
/* columns rows colors chars-per-pixel */
"64 64 221 2 ",
"   c #010305",
".  c #01040B",
"X  c #06090A",
"o  c #010413",
"O  c #030913",
"+  c #0A0C14",
"@  c #01051B",
"#  c #04091C",
"$  c #0B0D1D",
"%  c #0D1217",
"&  c #0D111A",
"*  c #101216",
"=  c #11131A",
"-  c #010424",
";  c #0A0624",
":  c #030923",
">  c #01042B",
",  c #0A062C",
"<  c #02092D",
"1  c #0B0A2C",
"2  c #120B2D",
"3  c #0D1323",
"4  c #0F122A",
"5  c #101324",
"6  c #020433",
"7  c #0A0535",
"8  c #050837",
"9  c #0A0A34",
"0  c #02043B",
"q  c #0B063A",
"w  c #0D093C",
"e  c #120933",
"r  c #130B3E",
"t  c #101335",
"y  c #11153E",
"u  c #040443",
"i  c #0A0645",
"p  c #0C0843",
"a  c #05034B",
"s  c #0A044B",
"d  c #0D084A",
"f  c #120C43",
"g  c #140748",
"h  c #11064C",
"j  c #13094A",
"k  c #0E1147",
"l  c #151546",
"z  c #0B0554",
"x  c #0B0654",
"c  c #0D045B",
"v  c #130653",
"b  c #150953",
"n  c #1D0E54",
"m  c #12065D",
"M  c #15095C",
"N  c #1A0C5B",
"B  c #1C105E",
"V  c #20104F",
"C  c #250E5D",
"Z  c #22125E",
"A  c #0E0462",
"S  c #130564",
"D  c #1A0766",
"F  c #160863",
"G  c #1A0A65",
"H  c #15056A",
"J  c #19066D",
"K  c #17086A",
"L  c #1C0A6C",
"P  c #1D136D",
"I  c #170572",
"U  c #1A0673",
"Y  c #1E0974",
"T  c #1D077A",
"R  c #1E0879",
"E  c #230C64",
"W  c #230D6D",
"Q  c #231562",
"!  c #25136A",
"~  c #2A136B",
"^  c #29176B",
"/  c #220B74",
"(  c #290F75",
")  c #20077A",
"_  c #240B7C",
"`  c #290E7D",
"'  c #241572",
"]  c #2A1374",
"[  c #2B157B",
"{  c #2B117C",
"}  c #331C76",
"|  c #34167C",
" . c #301A7E",
".. c #3F1B7D",
"X. c #230783",
"o. c #250A82",
"O. c #2A0D84",
"+. c #270B89",
"@. c #2D0C8B",
"#. c #310E8D",
"$. c #2D1182",
"%. c #2E1883",
"&. c #2F108A",
"*. c #321285",
"=. c #3A1786",
"-. c #331A84",
";. c #3E1B84",
":. c #34128C",
">. c #39158D",
",. c #361C89",
"<. c #3B1A8C",
"1. c #2D0C92",
"2. c #330E93",
"3. c #360F99",
"4. c #3B0F9D",
"5. c #351193",
"6. c #3A1395",
"7. c #3D1C94",
"8. c #361198",
"9. c #3C139B",
"0. c #3F1A9A",
"q. c #3C218C",
"w. c #3F13A1",
"e. c #451C8B",
"r. c #411797",
"t. c #411B97",
"y. c #41169D",
"u. c #431A9C",
"i. c #481B9D",
"p. c #45258D",
"a. c #442293",
"s. c #4A2695",
"d. c #46219E",
"f. c #4C239B",
"g. c #57279D",
"h. c #592A9B",
"j. c #593999",
"k. c #4416A3",
"l. c #4817A5",
"z. c #4619A3",
"x. c #4A1BA5",
"c. c #4717A8",
"v. c #4917AA",
"b. c #471AA9",
"n. c #4C1AAB",
"m. c #501FA6",
"M. c #511DAD",
"N. c #4E1BB1",
"B. c #531DB3",
"V. c #591FB6",
"C. c #561EB9",
"Z. c #591FBA",
"A. c #4621A1",
"S. c #4C21A4",
"D. c #4D23AB",
"F. c #5120A4",
"G. c #5D2BA7",
"H. c #5323AD",
"J. c #5924AE",
"K. c #5621B3",
"L. c #5923B5",
"P. c #5728B4",
"I. c #5B29B4",
"U. c #5C22BC",
"Y. c #5D2ABA",
"T. c #6028AA",
"R. c #653BA4",
"E. c #6026B5",
"W. c #6125BD",
"Q. c #622ABC",
"!. c #6130B5",
"~. c #5D22C0",
"^. c #6325C3",
"/. c #6827C6",
"(. c #6629C2",
"). c #6A2AC5",
"_. c #6626CA",
"`. c #6927C9",
"'. c #6728C8",
"]. c #6C2ACC",
"[. c #712CCD",
"{. c #6A31C3",
"}. c #7333CD",
"|. c #6E2AD1",
" X c #732DD3",
".X c #792FD6",
"XX c #772EDA",
"oX c #7A2FDB",
"OX c #7631D4",
"+X c #7A32D5",
"@X c #793AD4",
"#X c #7D32DB",
"$X c #7E32E0",
"%X c #8235DE",
"&X c #833ADB",
"*X c #8435E2",
"=X c #8837E4",
"-X c #863AE2",
";X c #8A3AE5",
":X c #8835E9",
">X c #8D3BEA",
",X c #923DED",
"<X c #953EF2",
"1X c #8741E4",
"2X c #8C40E4",
"3X c #9447E9",
"4X c #9442EC",
"5X c #9642F2",
"6X c #9B43F4",
"7X c #9C4BF3",
"8X c #9D43F9",
"9X c #9F48F8",
"0X c #A045F6",
"qX c #A24BF7",
"wX c #A146FB",
"eX c #A44AFB",
"rX c #AA4EFF",
"tX c #A654F7",
"yX c #AB51FE",
"uX c #B253FF",
"iX c #B15AFF",
/* pixels */
". . o o @ : - > - .       o o o o .     X . @ - M o.+.k.3.) O.@.X.) _ #.w.2.r.A.W + % O > - ~ 8.J 8.x.9.@.w.l.c.k.) #.3.O.+.7 . ",
". . o @ . - 6 0 q e q q g s d s v v v g o O @ @ M @.+.2.@.@.8.y.X._ ) ) ) _ r.H.-.& * # 8 @ ..M.*.[ k.k.@.w.n.v.2.X.2.X.@.3.a o ",
". . o @ , c o._ @.^.`.`.v.2.U U X.X.X.U o o - : x U o.o.) O.4.9.2.y.C.2._ 8.^.).D.2 . o 6 . ..B.x.d.*.8.2.k.Z.9.H S I H @.2.m @ ",
"  . @ - H 3.U.U.O.U.XX%XoX>._ U J @.@.D . @ 6 > E X.R Y / _ 8.2.2.3.2.O.O.k.^.].r.@   o - # p.P.L.L.d.L R 2.9.L O.5.9.#.) o.v - ",
". . @ i T v.^.XXy.O.8./.).O.O._ ) @.2.D . o 6 0 S T U @._ m 2.#.2.J S X.@.n.B.B.5.o   @ - # h.K.H.u.7.9.#./ T @.v.v.v.v.v.2.L > ",
". . @ J X.@.z.^.n._ 2.^.O.8._ R #.5.v.) . O 6 u S ) @.k.6.:.H O.O.O.3.2.#.2.#.8.$.o   - 6 + } &.P 0.H.n.y._ 9.9.v.c.k.v.v.N.k.w ",
". o - U +.2.O.^.V.@.o.O.O.#._ @.O.@.^.#.. . : 0 S X.8.k.k.B.@.c m #.k.w.v.C.U.n.6.o   @ > . ;.Y.d.J.P.P.S. .S.9.c.k.k.c.9.k.4.d ",
"  o - O.2.C.#X5X5Xx.D _ #.o._ @.o.@.z.*.. . - u A U #.z.^.B.v.O.@.2.@.#.4.B.^.W.9.O   @ - . g.U.P.M.P.Y.x./ A.K.n.n.c.c.k.4.B.N ",
". o > ) +./.%X*X).n.D R O.R #.:.O.#.@./ .   - 0 S J ` y.n.:.U ) 3.c.c._ O.B.W.N.O.. . o @ o g.v.M.K.H.u.k.%.t.Y.n.l.9.k.c.M.B.v ",
"  o - W 2. X,X;X#.2.D Y 8.@.8.) o.O.5.Y . . > 0 J X.v.i.V.l.9._ 4.y.2.) U 8.B.v.O.. . . @ o g.^.6.L.P.z.n.0.%.0.9.v.k.9.y.k.v.i ",
"  o - / #.].+X,Xn.^.W O.#.9.O.H #.O.2.{ .   - > J X.9.].%X`.Z.` 6.v.2._ a @.v.k.U o   . 6 > G.`.[.W.Y.Y.H.^ *.>.%.' ' o.#.T 3.f ",
". o > S H O.#.:.9.:.x O._ #.U _ 5.#.c.6.. . @ > J T l.*XOX X8.` v.^.].v.9._ #.O.J o   o - 0 G.].].L.t.<.7.{ 6.{.Q.x.d.:._ O.2.w ",
". @ > J #.n.v.2.@.2./.$._ 9.8.6.#.@.B.k.. . - 6 S U x.*X[.y.S #.^.].].N.v./ #.#.v . . . @ 6 T.^.n.:.! A.K.x.t.Q.L.B.Q.(.x.B.k.> ",
". @ - >.M.V..XU.8.o.%XM./ 8.i.z.@.@.v.:.O . @ 6 J o.Z.x.x.n.n.6.#.v.v.` J ` B.Z.#.o   . @ - *.2./ :.H.K.n.n.7.L.B.K.K.P.n.B.9.@ ",
". @ > O.y.B.*X[.M.y. XW.*.@.6.8.6.6.l.r.. . @ : L o.o.r.#X#X].B.W O.#.c.x.L Z.].k.o   . . o L #.n.n.k.B.B.z.! x.H.Y.H.x.H.D.| . ",
". @ 6 _ 2.|.,X=XW.n.n.U.*.6.x.9.2.@.Z.r.. . @ @ D o.M.8.+X.X].M._ Z.^.^.i.W v.^.$.o   . O @ S 3.B.^.].N.n.9.F { P.Q.H.P.P.x.} + ",
". @ 6 J 1.*X*Xn.K.W.8.` @.y.L.:.O.#.B.z.. . o : s @.Z.n.k.).=XV.L n.M.6.J v._.N.s .     @ @ m 2.^. XoXO.T 2.n.n.:.n.Y.Y.P.b ; * ",
"  @ 6 S 2.#X.X#.z.:.*.2.9.U.B.8._ 9.n.8.o . @ - c @.n.~.z.B. Xr.O.c.D ` N.|.XXN.h   . . o @ H @.Z.].^.B.C.L.U.^.n.{ ,.d.O.6 $ = ",
". - 6 H #.OX=XZ.y./ _ { z.n.P.#.R x.k.` o . @ @ v 2.8.Z.E.M.*X#.V. X=.6.XX^.y.U.f . . . . @ S X.O.k.[..X].^.'.^.(. .i.d.S.! & = ",
"+ @ 6 J 9.XX Xn.z.*.:.=.x.k.Y.M.8.6.V.U.@ . o o a 1.8.U.*XM.Z. X XoXK.*.oX^.#.|.~   . . . @ c H ) n.%X*X].].].#XI.-.b.z.H.K.Q X ",
"= # 6 Y l.#X*Xv.n.:.>.M.2.L.Y.M._ #.v.E.o   . . > M L t.H.$.*.y.B.~.` / U.K.y.n.r   . . o @ c @.@.N./.]. X`.].^.*.B.B.n.n.b._ o ",
"= : 6 { k.[.W.#.B.] b V.9.M.y.z.o.v.Z.~     . . . . . o o @ @ - > 6 > 6 6 > > > - X . . o @ H X.+.) y..X|.`.].` x. X`.L.K.5.0 % ",
"* # 6 $.2.O.6.z.|.x.N B.x.9.8.x.y.W.|.n   . . . . O o o o o @ @     . o . . o o ; @ . . o @ x X.) S w.XX#X X9.$.]. XXX^.N.k.n % ",
"+ & t ,.x.^.#X>X#Xn._ B.Q.k.9.c.B.`.;Xr . . .   . . o . . o @ o     .   .     . . o O o o - u D 8.c.U. XXX].6.8.|.].].^.c.k.Z % ",
"* y 1 G D.3X-X#X).L.9.5.).x.9.x.].B.`.r . . .   . . @ N i 6 0 > 6 > 6 0 6 0 6 > v 6 o . . @ 0 A @.y.c.B.]._.].9.'.]. Xn.5.9.l = ",
"= 9 - a.Y.@X}.].).].7.6.U.L.L.N.B.B.].m.. . . . o   j B.H T / S k.n.2.@.X.#.O.J @.M o     @ 6 m 2.8.@.c.B.C.'.$.L.^.[.B.w.` : $ ",
"= : > ;.I.Y ` i.M.:.O.L.L.U.K.B.Z.B.[. X; o o . . o H 8.:.k.y._ Z.|.%X[.^.].*X*X].U @   . o - J U I H _ _ / ( c O.o._ G D u # . ",
"& 4 k ,.:.:.J.Q.Y.O.*.W.Y.L.U.L.].x.9.t.o @ . o o N 8.n.9.B.` R 3.B.`. X X>X<X,X*XM . .   . @ 6 6 > - @ o o o @ @ o o o o o . . ",
"O t l / o.I.&X}.J.S.J B.^.k.x.k.8.y.9.v o @ @ . o E N.B.n.6.H H ) 2.3.M.W..X<X<X*XQ o . .           . O O .           . . . o . ",
"3 y 9 ( %.Y.%X&XH.H.! z.9.:.B.y.B. X#XD . o > > - D n.8.n.k.K L 9.O.z _ 6.W.,X,X Xg @ . o . .     o o @ @ o o o . o o o o o o o ",
"t 9 > =.0.P.^.OXY.a.D 0._ L.).B.9.^.M.S o @ > > 6 M @.O.3.z.F _ O.3._ O.y.n.%X=X$XV - . o . . , | @./ J / S _ @.>.8.$._ M - o o ",
"6 s 0 g.P.D.Q.@X}.J.G A.H.Y.k.V.B. XZ.m o o > > 6 G 3.@.o.O.M 6.O.y.B.Z.`.V.=X;XE.c > . .   @ 2.U.^.r.8.l.3.9.k.~.oX%X|.5.6 o . ",
"0 u > R.k.H.@X1X=X!.f.S.7.P.M.B.).,X/.M . o 6 0 - M o.o.z c z ` y.#._ ` >.` | D 0 0 - . o o 9 6.8.M.n.`.Z.`.%X#.M.XX;X*X5.S - . ",
"> 6 < j.u.^.OX%X>Xs.!.K.:.a.Y.x.L.%X%XD @   @ u > L 5.6.m 6.c H V.U./ / :.` 9.5.5.m > o - @ 8 5.x.#X(.).>X,X0Xn.l..X<XB.k.U.g   ",
"- 0 0 { k.|.@X-X@Xq.K.U.-.p.Q.i.#.v.,X:.@   . > a Y k.( O.L.5.@.6.>.i B. XW._ y.B.o.- o > @ 6 @.U.#XW.r.:X6X0Xx.i.>X8X| 8.|.e.  ",
"@ 6 0 *.k.:.>.S. .p.Q.y.' %.H.0.x.].wX).@ . . o 0 @.9.J o.C.XX=.:.O._ v.Z.@._ OX5XB.@ . 0 0 u 5.Z.x.#.*.*X=X*X@.K.#X,X=X].*X!   ",
"@ 6 6 ` O.U ] $.` :.I.I.,.{ Y.K.Q.>X&X Xe . . @ - *.].Y.G u._.-./ O.#.v.*._ v.OXyXY.-   o 0 u 5.B.x.y.r.c.^.#.#.y.@.V..XW.9.b . ",
"@ - 0 :.w.9.).L.z._ *.Y.H.O.S.H.).,X%XW.2 . . @ > :.Z.V.M I 2.Y L o.O.9.D U. XOX;Xn.@   o @ j 9.y.k.9.9.6.O.y. X%XQ.6.@.y. XJ.. ",
"o > u o.9.n. X7.L :.L n.^.S.d.P.{.Q.W.E., . - 6 u _ B.>._ 5.] G 8.U.i.c Y ^.*X].*Xx.- . o - r M.~.].Z.r.{ l.%X,XeXwXz.#.].<Xx.  ",
"@ - 0 *.2.9./.W.#.k._ ' $.-.' >. .7.,.q.$ o @ u u _ v. XOX^./ =. XB.9.x ` w.[.%X>X@.> . @ - 6 k.^.v.O.J V..X*X6XeXwX5.@.*X,X[   ",
"@ > 0 _ U y.].+XZ.B.o.u B 0.5.H.(.1X+XU., . # 6 6 / 9.^.^.>.L n././ _ 8.*.^..XeX*XU O o . > q :.5.y.^.W.y.V.#X,X5X5Xt.6. X<X=.. ",
"@ > 6 { 9.8._.#X^.x.( > ^  .0.A.}.yXY.H - . @ 6 6 ` 2.#.6.*.Y k.`.y.9.L.D *.L :._ u o . o @ w v.B.).>X8Xx.6.].>X;X0XM.6./.:X=.. ",
"- > 0 _ n.9.^.].L +.( *.z.} n.y.L.(.0.A , o @ > 6 R 9.v.:.L B.Z.*.:.n.O._ z.r.x._ u o . O @ w 9.^.n.z.#X].:.Z.%X>XrX[.Y.^.]./ o ",
"@ > 6 R 8.c.U.W.+.U L U.H.N K.B.k.9.].]., . o - > / 4.Z.M.m 8.^.].*.S #.].,X#X5X(.H @ . @ - p 9.Z.M.J k.>XM.M.8XwX%Xi.x.v.x.z o ",
"@ > 6 >.8.n.+X].XX<.` B.W.>.@.M.x.].<X>Xe . @ 6 0 :.k.N./ _ _ _ C.Z./ #.oX6X#X4X-XH @ . o @ w 8.^.[.i.w.oX].:.L.y.2.x./.x.B.>.. ",
"@ > 6 R o.y.^.].W._ *.`.]..Xf._ 8.V.W.B.> . @ 6 u :.9.2.Y 6.XX]./.r.S 6.#X;X+X-X;XH o . o @ d 9.B.oX,X*Xx.>.i.^.[.`..X;Xm.Z.>.. ",
"o - 6 R 6.n.U. X=.A n.U. X[.{ M. X*X.XJ @ . @ @ > o.@._ _ *.W.7.8.` m Z.=X>X#X).D.0 o . o @ p 1.x.^.^.t.>.=XeXyXuX=.*.U.6.^.=.. ",
"@ > 0 ` k.@.n.B._ n.^. X;XS./ l.[.=X[.S @ o o @ > 8.c.9.l.H _ >.V.L.l.` r.x.9.Y K 6 O . o @ f 5.2.x.].4XH.].9XyX2XF.6.W.{ Z.t.  ",
"> > 6 S _ Y _ S D 8.n..X].D 8.@.@.6.W u - o @ - 6 O.y.c.9.S n.>X<X,X,Xx.D x.).=X+XS o . @ 6 w y.c.U.:X=X].6.[.rX3X+X XL.6.`.i.. ",
"- 6 > ` _ 5.9.c.&._ H ) M 2.M.U.^..XM.> @ o @ > 6 r.n.4.B.O.6.#X^.;X>XOX*. X-X%X&XH o . o - f k.B.x.Y.qX0X(.x.9XeX5X=Xx.k.Z.F.. ",
"- > > *.o.8.^.].].V.y.c { B.U.]..X X].U - . @ - > >.@.R 6._ 6.'.M.^.U.x.i.|.,X>X*XH o . o @ p 1.x. X`.6XeXqXx.=X6X<X%X>.U.`.i.  ",
"@ @ > / 1.x.%X[.@X`.|.>.$.v.B.{ 5.W.W.Z.r . @ - > y.x.z.5.G @.D / o._ >.M.OX;X4X3XJ @ . o o 8 X.M.+X8X5XeX4X6.z.wX6X[.D 6.k.G . ",
"@ - 6 / @.B.XX).^.|.oXf.( k.v.i / n.^.Z., . - > 8 #.*X<XB.k.B.c.O.U.^..XJ.'.,XrX4X_ o . o @ 6 5.v.*X#X+XL.M.{.H.L.n.O.M.W.N.W . ",
": > 0 / @.:.^.].M.( 5.G u.c.c.8.N.N.^.^.q . @ - 6 k.*X@XM.k.Z.x.*.Z.^.#X_ L.].}.).F . . o o 7 +.v.^.6.u.L.6XuX6X6.{.&X,X,XoX*.  ",
"> > 6 L @.U c. Xk.S 8.U O.x.B.B.[.C.]. XV   @ - 9 @.{ M J @.6.R c.B.^.OX/ 6.*.m o.w o . . @ p _ #.x.%XwX9XyX9X+XL.=X>XL.B.C.D   ",
"> > 6 Y @.H U c.k.4.B.L.Y O.^.U.M.x.V.M.r . @ @ 7 @.x.n.R Y c O.^.W./.x.x.*X*X@X#Xm o . o o 8 x.n.+XrX4X>X].x._ R :.O.H O.Y u o ",
"- 6 6 K T z / v.#.y.V.].V.I / 6.L L z.3.q . o - > r.`.Z.O.+.O.S y.n.l.6.].yXqX9X4X] . . . o 7 w.L.x.>X,Xu.R z D U _ o.o.U c > . ",
"- < 6 K X._ c.U.9.y.Z.]. X_.W ( 8.O.B.Z.q o @ - 6 8.`.:.H 5.O.S _ 8.#.:.^.%X,X9X>X{ . . o o r l.n.U.;X<X5.A a u H S S H c z 6 . ",
"- - 0 S o.@.v.Z.k.2.^. XV./.( ` L.n.Z.H.@ o # @ 8 8.*X+X[.M.O.y.8.r.*.6.^.+X8XeX5XW . . o o , 3.c.^.#X].` U u u u z z a A s : . ",
"@ - 6 G 8.+.x.C.:._ B.>./ ) ` 5.@.n.[.|.e . - > u O.x.z.J.x.@.9.6.^.^.k.^.=X6XiX7XD . . o o > @.k.Z.XX X^.U 6 u 6 0 a a u : @ . ",
"@ < 0 m o.O.C.^.m J @._ O.3.B.Z.@.:.`.XXq . - > q +.U.%XJ.m _ w./ 3.Z.^.i.5.L.iXtX'   o o O - M h h C C j q - > @ o @ @ . @ o . ",
": > u c o.@.v.D m 3.k.2.T 2.v.N.B.^.^.` - o 6 0 u 5.U.>X<Xy.O.B.6.y.U.x._ { N.0XtX^ . o @ @ : o         . @ - o   . # . . X o . ",
"@ - 6 m @.@.) a z.n.2.T S U O.y.k.v.M.u @ @ > u s 8.B.*X).` k.n.:.8.l.M.[.5X4X3X7X! X $ @ @ - @ .     . . . @ .     > q . . . o ",
"> > - p 2._ S Y C./ J S a z Y H O._ c u @ o o 0 c :.B.*Xr._ M.:.@.B.M.L.#XqX3X7X3X! $ 5 o @ Z ( i.| =.e.| ~ C j 7 9 6 8 > o o @ "
};
