/* XPM */
static char *xpm_[] = {
/* columns rows colors chars-per-pixel */
"64 64 256 2 ",
"   c #020104",
".  c #03030C",
"X  c #06070C",
"o  c #0A060C",
"O  c #0B090C",
"+  c #14050C",
"@  c #040512",
"#  c #0A0414",
"$  c #030914",
"%  c #090A14",
"&  c #05051B",
"*  c #0B041C",
"=  c #050C1B",
"-  c #0B0B1D",
";  c #16041B",
":  c #06101E",
">  c #0A121D",
",  c #12101E",
"<  c #2B0718",
"1  c #0A0424",
"2  c #060926",
"3  c #0C0A23",
"4  c #0C052A",
"5  c #0A0A2B",
"6  c #140324",
"7  c #17072A",
"8  c #071223",
"9  c #091324",
"0  c #06142B",
"q  c #09172C",
"w  c #141527",
"e  c #090934",
"r  c #0A0C34",
"t  c #0C0C3C",
"y  c #160837",
"u  c #0C1533",
"i  c #061932",
"p  c #0A1B34",
"a  c #081338",
"s  c #0C1D3B",
"d  c #161739",
"f  c #290628",
"g  c #27083A",
"h  c #2E1033",
"j  c #0C233A",
"k  c #132633",
"l  c #262B3A",
"z  c #510D30",
"x  c #6A282C",
"c  c #0D0D42",
"v  c #0E0E4B",
"b  c #110C43",
"n  c #160B4A",
"m  c #0C1244",
"M  c #0B1A45",
"N  c #0B144B",
"B  c #171747",
"V  c #0E0E55",
"C  c #150B58",
"Z  c #0B1857",
"A  c #151757",
"S  c #260745",
"D  c #330745",
"F  c #231547",
"G  c #39144F",
"H  c #280856",
"J  c #3A0854",
"K  c #281858",
"L  c #35175A",
"P  c #092545",
"I  c #0A2447",
"U  c #0B2A4C",
"Y  c #142547",
"T  c #12354C",
"R  c #0A2D54",
"E  c #0B2B59",
"W  c #162759",
"Q  c #0D3455",
"!  c #0A315B",
"~  c #133657",
"^  c #292749",
"/  c #2D2A53",
"(  c #110E67",
")  c #0C1A63",
"_  c #141666",
"`  c #141A77",
"'  c #300F6C",
"]  c #381865",
"[  c #3A1977",
"{  c #0A2366",
"}  c #172968",
"|  c #14396E",
" . c #0A2877",
".. c #142774",
"X. c #0A3A78",
"o. c #312B6F",
"O. c #4C0A52",
"+. c #6F0F55",
"@. c #49294F",
"#. c #450B67",
"$. c #45166A",
"%. c #540A73",
"&. c #481876",
"*. c #57197A",
"=. c #661070",
"-. c #4D286D",
";. c #702C66",
":. c #144557",
">. c #174968",
",. c #194876",
"<. c #175676",
"1. c #205D69",
"2. c #2A5579",
"3. c #46526A",
"4. c #E56A3D",
"5. c #9A2D4A",
"6. c #8D116E",
"7. c #D02A6C",
"8. c #A54E59",
"9. c #E95F6B",
"0. c #FCB653",
"q. c #F7A66B",
"w. c #191886",
"e. c #141C90",
"r. c #30178B",
"t. c #152287",
"y. c #0A3C87",
"u. c #123187",
"i. c #142599",
"p. c #0E3A97",
"a. c #143799",
"s. c #2E2C8E",
"d. c #181EB2",
"f. c #3017AC",
"g. c #1727A7",
"h. c #0C3BA5",
"j. c #1438AE",
"k. c #1B2AB6",
"l. c #2E2BAA",
"z. c #2326BB",
"x. c #491B86",
"c. c #571787",
"v. c #4D1090",
"b. c #591897",
"n. c #730D8F",
"m. c #651A88",
"M. c #691895",
"N. c #761797",
"B. c #4F3089",
"V. c #5710A3",
"C. c #6917A4",
"Z. c #7116B2",
"A. c #5D28A0",
"S. c #0C4198",
"D. c #134B91",
"F. c #2E4E8B",
"G. c #136A96",
"H. c #124AAE",
"J. c #2B53AF",
"K. c #0E68B6",
"L. c #166BB0",
"P. c #575B9D",
"I. c #351AC8",
"U. c #391CD7",
"Y. c #1B31C6",
"T. c #2627CA",
"R. c #292BD7",
"E. c #3425D2",
"W. c #3F1FEA",
"Q. c #302FE7",
"!. c #382AE8",
"~. c #4919D6",
"^. c #7115CA",
"/. c #522ED4",
"(. c #4F16EA",
"). c #6E11F6",
"_. c #4A2EF1",
"`. c #6733F9",
"'. c #1351CE",
"]. c #1456DA",
"[. c #245FCE",
"{. c #0E76C6",
"}. c #156ED0",
"|. c #1752E7",
" X c #1B50F0",
".X c #2E55F1",
"XX c #1371E8",
"oX c #4F59F6",
"OX c #5066F4",
"+X c #6C61E8",
"@X c #6D6EF6",
"#X c #8E1393",
"$X c #B31590",
"%X c #92208F",
"&X c #8517A4",
"*X c #9114B0",
"=X c #AF17B1",
"-X c #8F28B2",
";X c #AB2DAE",
":X c #D21594",
">X c #EE1797",
",X c #ED2B8F",
"<X c #CD16B3",
"1X c #EC18B2",
"2X c #C03BBC",
"3X c #8C52A3",
"4X c #F37591",
"5X c #E051A9",
"6X c #F76CB6",
"7X c #8E18D2",
"8X c #AB16CA",
"9X c #9623DA",
"0X c #9210F8",
"qX c #B014F3",
"wX c #CF15D3",
"eX c #EB15CE",
"rX c #DA2ECB",
"tX c #F12ED4",
"yX c #CF12F5",
"uX c #E513F2",
"iX c #D728F8",
"pX c #E732ED",
"aX c #9859F8",
"sX c #8C74F6",
"dX c #F250CB",
"fX c #F673D4",
"gX c #EB4FEB",
"hX c #E056EA",
"jX c #2C85BB",
"kX c #53A6AE",
"lX c #1287D5",
"zX c #24A9D8",
"xX c #128FEA",
"cX c #12AEF3",
"vX c #7C83F3",
"bX c #13CDEF",
"nX c #14C7F7",
"mX c #14D6F9",
"MX c #30D9EB",
"NX c #14E8FA",
"BX c #0FF9F9",
"VX c #16F6FA",
"CX c #5DE4EA",
"ZX c #F8958F",
"AX c #FAA394",
"SX c #FC9CAE",
"DX c #F8D1B7",
"FX c #8E8BF2",
"GX c #AB90F3",
"HX c #B5A7EE",
"JX c #F490CC",
"KX c #E49CDD",
"LX c #C794ED",
"PX c #D2B5EB",
"IX c #F1CDDA",
"UX c #DFC6E0",
/* pixels */
"J *Xg S 6.1XeXeXwX8X*XZ.b.B.r.' * ; * ; * 1 2 5 5 5 a r r r r t m s r r r r e e t e t t y t t e w.U.~.(.(.).0XqXqXuXgXJXfX=X4 S ",
"J *XS g +.<XeXeXwX8X-XN.b.*.r.r.* * 1 1 4 5 5 5 5 5 r r r t t t B M r t t t t c t t t t t b y e w.U.(.(.).).0XqXyXyXpXgXpX#X4 g ",
"J *Xg S =.$X1XeX<X=X*XN.b.-.s.r.* * 4 7 4 3 5 5 r r a r t a c t B M r t t t t b c b t b b b b c w.U.U.(.).).0XqXqXyXuXuXuX=.4 g ",
"O.*Xg S =.:X1X1X<X=X&XM.c.$.r.f.1 4 4 e 3 5 5 5 0 r r r t t B c N Y y c m b b b b b b b b n n n w.I.I.(.).).).qXqXyXuXuXyXc.4 y ",
"O.*Xg D 6.:X1X1X<X=X%Xm.&.] o.f.4 4 4 4 5 5 5 r e r t s c b n v N W c c c v b v v v v n C v C V e.I.~.~.(.).).0XqXyXyXuXyXn.e y ",
"O.=.S z :X>X>X1X$X%Xm.*.-.' ~.f.4 4 y e 5 5 r r r t t c m m N N A ^ F n v N v v v V V V C V C C d.T.z.U.~.(.).0X0XqXyXuXyX=X#.4 ",
"g f f 7.7.>X>X:X$X%X=.$.r.V.f._ 4 e y e 5 r 5 r a c c c m N N B d * % d A V V V V V V V C V ( ( H w.z.E.U.(.).).0XqXyXyXpX2XO.  ",
"+ +   z 9.,X7.:X6.*.*.r.C ^ -.F & # e y 5 5 r t t m m N N A F w . . @ @ 3 F A _ V C ( ( ( ( K o.l.] F w.E.E.~.).0X0XqXrX3X7 o . ",
"    o # < ;.7.6.=.*.' y @.$.$.B.F.d   * 4 5 r r t c N B F d @ . $ @ $ @ . @ 5 K _ ( ( ( ( o.s.g.d.z.l./ A l./.~.(.0X3X] * 6 6 ; ",
"o o # < + O h +.#.d l ;.*.&.&.] o.B.3.t   * 5 r t B r d - . @ @ $ $ @ $ $ $ . $ d ( ( ..s.s.g.f.l.z.I.I.B./ K l.^.*.7 6 f 7 6 * ",
"; # ; ; < + o # , @.=.*.*.*.-.&.] ] -.F.,.%   3 5 - # o . @ @ @ $ @ $ $ $ . $ . & V s.s.i.g.k.k.T.T.T.I.I.I.&.B ^ * 6 7 7 6 y 7 ",
"* 7 d g f ; ; # z &.*.*.m.c.*.&.$.o.K K F.J.E $   . * @ @ @ $ @ @ @ @ $ $ @ $ $ * d r.e.g.g.z.k.T.E.T.E.E.I.I.r.1 r y y n H b 1 ",
"O o g ] ] g y - h $.*.m.m.m.c.-.$.] o.K W u.r.K   . . @ @ @ $ $ $ @ @ $ $ @ $ . & t ` i.l.g.T.T.T.R.U.!.U.U.I.r.C A _ ` ' d * 1 ",
"o o o w $.[ S 4 h =.N.N.N.M.c.*.-.[ K K o.o.h 7 . . o @ @ @ @ $ $ $ $ @ $ $ $ $ - 5 ` g.g.z.k.T.R.E.!.!.!.W.I.w.( e.f.[ u * 2 3 ",
"O O O   % G S & h =.N.N.N.M.m.&.&.] L K ~ ~ 6 ;   @ . @ @ @ @ $ $ @ $ $ $ $ $ $ - 5 ) i.g.k.z.Y.R.Q.!.!.W.W.~.r.` l.o.3 2 2 5 5 ",
"+ + O O o # 7 . D n.N.-XN.M.m.*.-.] K F o.T . *   .   . @ @ $ @ $ $ @ @ $ @ $ $ & 5 Z e.g.z.T.T.R.!.!.!.!.(.(.f.b y - 2 5 5 5 5 ",
"+ % + O o ; *   O.N.-X*X%XM.m.*.$.] K K / Q   @   .   X @ @ @ @ $ @ @ $ @ $ . . 2 2 N e.g.d.Y.Y.R.Q.!._._.(._.A.e e 1 2 2 5 5 5 ",
"+ + o O   ; -   =.=X*X*X&XM.*.*.$.] K F ~ ~   .   .   1 - @ @ @ @ @ $ @ $ $ . a Z e ) ` i.d.k.Y.R.Q.!.!._.`.`.A.4 b & 1 2 5 5 r ",
"% + o o ; f ;   %X;X=X*XN.m.c.&.L K F W ! 8         . @ * 1 * @ $ @ @ @ . 2 Z { m 2 i.i.e.i.k.Y.R.Q.Q.oX`.`.aXP.@ C C 7 & 2 5 5 ",
"O o ; f f < o   6.rX=X-X&Xm.*.$.L / W M &   d o.^ 3     . @ * * @ @ . @ s { N 5 @ . 2 e.Y.j.g.Y.Y.Q.Q._.oXFX3Xo.C 1 H r.H 4 & 3 ",
"< < z < < + z 6.O.;.;X;Xn.*.%.L ' n 2   . B o.k P / l @   . @ & 1 & 0 Z Z r $   @ 2 2 @ c g.Y.j.Y.R.R.OXvX>.` _.`.V.H S &.v.n y ",
"< z < < < 8.5XtXwXn.G N.-Xm.$.' t @   , ^ ^ p s i i Y / d     . @ 2 M N 2 . @ 2 & & e e 2 & ) Y.Y.|.OXJ.A w.!.`.aXaXaXC.y J %.H ",
"+ + < x q.ZX4XdXeXwX#XJ O.c.' 4   X d / s a s s p p i i Y Y -     @ 2 @ $ 2 2 2 2 2 2 2 c t & 2 e.H...Z g..XoX+XaXsXLXKX5X@.g 6 ",
"+ + x 4.0.q.ZX6XtXwX8X&X$.7 & @ w ^ l a s s p s p p i i i s M .     % M N a e e 2 e 2 4 2 e c e & e ` Y..XoXoXaXaXGXLXUXIXDX5.  ",
"+.O.z 4.0.0.DX6XtXwX8X*XM.$.n h ^ p u s s p p s p p p i i i s a &   E  .V N m a a m a e e 2 e e E h.]. X.XoX@X@XGXLXPXIXIXq.+.* ",
"n.=.f 4.0.AXAX6XdXyX8X-XM.c.H g y p d s s p p p p p i p i i s m a & X.h. .) Z N N M m m m a 2 2 } ].|. X.XoX@XsXGXLXPXIXDX4XJ 2 ",
"#X=.6 5.0.q.ZX6XtXyX8X7XN.b.L g u u s u p p p p p i p i i i M a a 2 S.].i. .) Z Z N N M N m e 2 } ].|. XoXoX@XsXGXHXUXIXDX;XH 2 ",
"N.n.6 5.9.q.6XdXuXwX8X*XC.v.' h d u s p p p p p p q p i i 0 s M a & D.XXh.p. .{ Z Z Z N N N m e { |.|. XoXOX@XFXGXHXPXIXSX;XC & ",
"#Xn.7 +.9.4X6XtXwXwX8XZ.N.c.H g q u u p p p p p i i i i 0 0 M M a @ K.xX].h.u. .{ Z Z Z N N m e ..].|. X.XOX@XFXFXHXPXUXKX-XC & ",
"*Xn.y O.,XtXtXuXuX8X8X&XC.x.' S F d u p p p p p i p i i q 9 i N a & G.cXXXH.p.t. .) { Z Z N N e ..].|.|.OXOX@XFXFXHXPXPXKX-X' & ",
"n.n.y +.>XeXeXeXwX8X*XZ.M.x.' g y F d q u p i i i i i 0 9 8 0 N a . G.cXXX'.h.y. .{ ) Z Z N m e ..].].|..XOXOXvXFXHXHXPXKX;Xo.^ ",
"S %.D 6.>X1XeXwX8X*X&XM.c.&.H n 6 @ r B u u i i i q 9 8 0 0 0 i 2 @ <.xXxX'.h.p. . .{ Z N N m 4 Y H.].|.XXOXOXvXFXFXGXLX3X3.l $ ",
"  O h 6.:X<X<X=X*X&Xn.m.c.c.B.L       @ t s i 0 0 8 8 0 8 2 = # j >.,.,.H.'.H.u. . .) Z N u 5 T G.L.[.]. X.XOXOX@XsX3XP.:.> X $ ",
"O O   f +.$X*X&X#Xn.M.M.*.$.L -.h       . $ u a 0 0 2 2 = @ = :.<.! E >.>.X. .u. .) Z N 7 M F.G.a.S.G.[.}. X.XoX+XP.:.q X X : > ",
"O   o     g =.=.c.n.m.&.$.$.] J F 3 X       . 9 u 2 $ @ . p :.! E Q E R ! >.,.| Z Z t t >.G.D.a.p.p.a.a.J.}.|..X_ k @ . : : : : ",
"O O o       y %.*.#.L #.#.$.#.L S 7 - % X       & @ . X k j P U E E ! ! ! R | ,.,.d ~ G.D.D.y.y.p.p.a.a.a.s.J.j.m   $ $ : : : 8 ",
"O O X O o   5 D g S #.&.&.&.#.J F y ; % w 9         X 9 8 i P R R ! R ! ! ! ! { >.<.F.X.X.S.S.y.S.p.a.h.i.i.e.e.m . $ $ : : : 8 ",
"O X X   X   3 7 7 J %.c.c.c.&.[ L B w 3 q Y X       $ & 0 s P U R R ! ! ! ! ! ! Q G.,.X.X.X.y.y.p.p.a.a.h.i.i.) t $ $ = : : 8 8 ",
"O O O X . X 5 4 y J v.c.c.c.&.[ L F d r p T @ .   X $ q i j P U R R ! R ! ! ! ! Q 2.X.X.X.S.X.S.p.p.a.a.i.i.i.( c . $ : : : 8 8 ",
"O O O O o . 7 4 y #.c.b.b.b.c.[ ' K B d Y U @ .     $ u i j P R R R ! ! ! ! ! ! | <.X.X.X.,.S.S.S.p.h.h.g.i.i.) t @ $ = : : 9 8 ",
"O o O O o . 5 5 S c.M.C.b.b.c.x.] K A B Y T & .     - s s P P U R R R R ! ! ! ! Q 2.,.X.,.y.y.S.S.p.h.h.h.i.e.Z t   $ $ : : 8 9 ",
"O o O X .   y 5 J C.Z.Z.C.b.x.&.[ o.K Y ~ T * .     w s j P P U U R R R ! ! R R ! 2.X.X.X.y.S.S.S.H.h.h.j.g.i.A v 8 . @ = : 8 9 ",
"O o o . ; y H d m.Z.Z.Z.C.A.b.x.[ } K B W ~ # .     w B s I I U U R R R R R ! R Q 2.X.X.X.y.X.S.S.S.H.j.j.j.g._ ` ..~ : . $ : 8 ",
"O + # 7 H J #.S m.9X*XZ.C.V.v.s.[ ' K } ,.Y @ @ w O , W I P P U P U U R R U U Q >.U ! ! X.X.,.S.S.S.S.h.j.H.J.A ) i.s.F.T $ $ : ",
"o 6 g J #.#.g g 4 G -X-XC.A.x.x.[ o.s.| s @ .   . w 9 , s W I U P U U U P U ~ Q 0 % $ Y | X.X.y.S.p.p.p.J.P.T ~ N V t.l.a.F.j > ",
"g g D O.D g =.*X*XH , -.Z.C.x.r.s.s.Y * @ @ . . @   % w - - Y Y P P P j U Q q .       . > T | | X.X.D.J.:.~ L.[.H.u.n ` l.l.D.>.",
"f h z f @.:XuXwX8XqXM.y d B.A.A.o.4 # @ @ . @ @ @ @ @ . - w % 9 j P P U j       . . .     X p | ,.D.,.T G.}.[.XXXXXX.Xs.C s.l.a.",
"  + < 8.ZXdXpXuXyXqX9X7X&.7 g y . # # @ . . @ @ $ @ $ $ . @ 3 9 $ 9 j $       . $ . $ @ . .   o j T 1.L.}.}.lXXXxXxXxXcXjXo.K A ",
"< D h 7.5XdXtXuXiXqX9X9X^.A.B $ . . @ . @ @ @ @ $ @ $ $ $ @ . $ w %         . @ $ $ $ $ $ @ .   9 G.}.L.{.xXxXcXcXcXcXnXzXP.k 2 ",
"g %.7 z >XtXgXpXiXyXqX9X^.^.r.5 . . . o @ @ % % & - $ $ = $ $ @ . @ .   $ @ $ $ @ $ = $ $ @ @   P K.K.}.lXxXcXcXnXmXmXnXzX,.Z Z ",
"D %.y D $XtXpXpXiXyXqX9X^.Z.x.r . . @ @ # @ & & - & - - = $ $ @ . . @ . $ @ $ $ $ = = = = $ $   M K.{.lXxXcXcXnXnXNXmXbXjX..E Z ",
"J c.S S $XpXpXpXpXiXqXqX9X^.x.r @ @ . # # * - - - 3 - & & - $ $ . o . $ $ $ $ $ = = = = = $ $ . M K.{.lXxXcXcXnXmXNXNXbXL. . .E ",
"O.v.S H #XeXgXgXhXiXqX9X^.Z.s.y . @ @ # - - 3 - 3 - - - - & $ @ @ o # @ $ $ $ = = = = = = = $ . s K.lXlXlXcXnXmXNXNXVXbXlXX. .{ ",
"#.n.S J $XtXfXgXiXiXiXqX9X^.v.y @ @ @ # * - , 6 - 3 3 - - = $ @ . . @ @ $ $ = = = = = = = = = . s K.K.lXxXcXnXmXNXVXVXbXjXX.u.{ ",
"%.Z.H J $XdXfXfXhXiXqXqX^.Z.x.n # @ * * 1 6 3 3 6 6 , - - - @ @ . . @ @ $ $ $ $ = = = = = = = . M K.K.lXlXcXbXmXNXVXBXNXlXa.p.E ",
"O.n.H O.,XSXJXfXhXiXyX9X7XZ.b.n * @ ; * 6 3 6 w 3 d 6 - * $ @ @ . .   . . . : $ $ $ $ = = : = @ M H.K.K.lXcXbXbXNXBXBXVXMXJ.u.U ",
"l @.D +.ZXAXSXfXgXyXqX8X7XZ.v.n # * * 6 7 7 7 y L >.:.k # @ X .         > l k u $ $ $ $ $ = $ $ v H.K.K.lXxXcXnXNXVXVXCXCX2.1.T ",
"O w @.;.8.AXSXfXpXyXqX7X^.' b 2 * * 6 7 6 7 K K Y p Y >.T %   .   . X l l $ . > d 9 $ . $ $ 3 r 2 v a.}.}.}.xXcXnXVXVXkX3.T > : ",
"O O X w L ;.5XhXyXyX7XV.H B [ n 6 f 6 * S L W s s s s u T >.j X   o d >   X $ $ $ 9 k 9 $ 3 5 t t } B ) H.xXlXxXcXzX1.:.q $ : 9 ",
"O O X   $ l $.N.9XZ.' S [ v.r.' 7 7 7 L K B s s s j s j p j :.:.q o o . $ $ $ $ $ $ = q s u P E N Z | } A } }.lXF.>.k $ $ : : 8 ",
"O O O O .   > b S n #.C.V.v.v.' 7 7 g F d s M s s j s j j p p j :.:.$ X $ $ $ $ $ $ : $ 8 s a a Z ) ) ..X.} A B > : X $ : > : 8 ",
"+ O O O O . o y y %.C.V.V.b.v.' 6 7 S d d s d s s s j s j p p k j :.$ X . $ $ $ $ $ : $ = a a 0 ) ` ` ` ` u...r $ X $ : > : 8 8 ",
"O O O O o o # e r.v.V.V.V.V.v.' 6 g g B s B s j s s s p p j k p k :.% X X $ $ $ $ $ $ : 2 i a 2 )  .t.` w.` ..Z $ $ $ $ : : > q ",
"O + O O o . # e V.V.V.Z.V.V.v.v.y 7 g d d s B j s s j j j p p p j :.$   $ $ $ $ $ $ : = = a i e _ t.t.t.w.` ..W # $ $ : : : 8 > "
};
