/* XPM */
static char *out[] = {
/* columns rows colors chars-per-pixel */
"64 64 154 2 ",
"   c #25015E",
".  c #1E0062",
"X  c #230364",
"o  c #2A0563",
"O  c #270866",
"+  c #2C0A65",
"@  c #25056B",
"#  c #29076C",
"$  c #27096B",
"%  c #2C0C6B",
"&  c #330663",
"*  c #310C66",
"=  c #320E6B",
"-  c #3A0E6A",
";  c #2F106D",
":  c #371165",
">  c #3B1366",
",  c #34126C",
"<  c #39146E",
"1  c #3F1A6E",
"2  c #270772",
"3  c #280772",
"4  c #260872",
"5  c #2D0B73",
"6  c #290878",
"7  c #310E71",
"8  c #2E1172",
"9  c #341373",
"0  c #391672",
"q  c #361876",
"w  c #3B1974",
"e  c #33127A",
"r  c #361878",
"t  c #3D1C79",
"y  c #3F2077",
"u  c #400D68",
"i  c #40156D",
"p  c #4A136D",
"a  c #421B6D",
"s  c #491A6F",
"d  c #531D6E",
"f  c #5C1E6E",
"g  c #451770",
"h  c #481670",
"j  c #431C75",
"k  c #4B1D75",
"l  c #451E79",
"z  c #4A1F7A",
"x  c #531C72",
"c  c #5B1E71",
"v  c #541F78",
"b  c #671E6F",
"n  c #691F6F",
"m  c #631D72",
"M  c #6A1E70",
"N  c #711E73",
"B  c #7D1F75",
"V  c #48216E",
"C  c #452175",
"Z  c #4C2175",
"A  c #4E2B77",
"S  c #45247C",
"D  c #4A227A",
"F  c #49287C",
"G  c #532276",
"H  c #5C2375",
"J  c #53237A",
"K  c #5B2479",
"L  c #57287C",
"P  c #5B287A",
"I  c #622474",
"U  c #6B2474",
"Y  c #682875",
"T  c #632679",
"R  c #6F267A",
"E  c #662878",
"W  c #722475",
"Q  c #7B2476",
"!  c #7C2579",
"~  c #80247B",
"^  c #361781",
"/  c #371881",
"(  c #3C1985",
")  c #3F2682",
"_  c #441F82",
"`  c #4E2382",
"'  c #45268D",
"]  c #4E2C8D",
"[  c #512382",
"{  c #4D3285",
"}  c #4E338B",
"|  c #543485",
" . c #563987",
".. c #593987",
"X. c #533589",
"o. c #5A318D",
"O. c #553A8B",
"+. c #5A3C8B",
"@. c #492890",
"#. c #563A93",
"$. c #593E94",
"%. c #613E8D",
"&. c #643E90",
"*. c #5D418E",
"=. c #5D4292",
"-. c #5E4299",
";. c #61428E",
":. c #6B428E",
">. c #78488F",
",. c #624492",
"<. c #6C4591",
"1. c #644996",
"2. c #6A4B95",
"3. c #614699",
"4. c #634B9C",
"5. c #764690",
"6. c #7A4691",
"7. c #744A94",
"8. c #7B4C95",
"9. c #724E9A",
"0. c #6B519C",
"q. c #7B529B",
"w. c #745A9E",
"e. c #755CA2",
"r. c #795FA2",
"t. c #7660A6",
"y. c #7C62A5",
"u. c #7C65AA",
"i. c #7F69AD",
"p. c #7F6AB0",
"a. c #854C8F",
"s. c #834A92",
"d. c #8B4B92",
"f. c #934A93",
"g. c #865196",
"h. c #8A5196",
"j. c #86519A",
"k. c #8E5198",
"l. c #8165A5",
"z. c #8962A5",
"x. c #8167A9",
"c. c #8867AA",
"v. c #826BAC",
"b. c #886FAB",
"n. c #8B71A9",
"m. c #816AB1",
"M. c #8A74B9",
"N. c #967CB0",
"B. c #9681BB",
"V. c #9A85BD",
"C. c #9481C0",
"Z. c #9A86C2",
"A. c #AD9CCD",
"S. c #B09ECF",
/* pixels */
"A.t.v.i.i.p.p.p.i.p.p.p.p.p.u.C.Z.u.p.p.p.m.x.m.m.x.m.u.i.i.i.B.Z.u.v.v.m.v.v.v.v.v.v.v.x.v.u.V.B.x.v.v.c.b.v.b.b.b.n.n.n.n.n.N.",
"t.. @ $ @ 2 3 3 3 3 2 4 3 2 @ ] #.2 6 6 3 6 6 6 6 # 3 3 @ $ @ ] #.. # # # # # @ # o # o @ o X +.|   + + % - , - > * * : : : i V ",
"i.$ 9 9 e e e e 7 e e e e e 6 #.&.6 e e 5 e e e e 9 7 e e 9 5 #.-.5 9 9 9 9 7 e 9 9 7 0 9 , % *...= 7 9 0 0 0 j j a a 1 1 a V A ",
"i.@ 8 e 7 e 9 e e e e 5 e e 6 #.3.5 e e e e e e e e e 7 9 e 5 O.-.3 e e 9 7 9 9 7 9 0 7 9 9 % ;.+.= 0 0 0 0 j j w w 1 1 1 a 1 A ",
"i.@ 8 e 9 e 7 e e 7 e e e e e #.-.6 e e e e e e e e e 9 e e 5 #.&.5 e e 9 e e 9 9 0 7 9 9 9 % ,.+.= 0 0 0 j 0 w w 1 q 1 1 1 1 A ",
"i.$ 8 9 9 e e e e e e e e e 6 #.-.5 e e e e e e e 7 e e e 9 3 #.&.5 e e e 7 9 9 9 9 9 9 9 7 % -.+.7 0 < 0 0 g 0 0 q 1 1 w j 1 A ",
"i.@ 9 8 e e e e e e e e e e e #.-.6 e e e e e 5 e 8 e 5 8 9 5 #.$.e e 0 e 9 9 7 9 9 7 0 9 0 = ,.+.7 0 0 0 0 9 - 0 0 < q w 1 0 F ",
"i.O 8 9 e e e e 7 e e e e ^ 6 #.-.6 e e e e e e e e e 9 e e 5 #.$.6 e e e e 9 9 9 7 9 9 7 0 = 3.+.= 0 0 0 0 9 9 0 0 q w q w 0 F ",
"i.$ 8 9 9 e e e e e e e e e 6 o.-.5 e e e e e e e e e e 8 e 4 #.3.6 e e e 7 e e e 7 9 9 9 9 = ,.+.= 9 0 9 9 , 9 0 0 q w w 1 q F ",
"i.$ 9 e 8 e e e e e e ^ ^ e 6 #.-.5 e e e 8 e e e 8 e 8 e e 5 #.&.6 e e e e 7 e 9 9 9 9 9 9 % ,.#.= 9 , 9 0 0 0 < q 0 q 0 q q F ",
"i.$ 9 8 e 8 e 8 e e e e e ^ e o.-.8 e e e 8 e 9 8 e e e 8 e 4 =.-.5 7 e e 9 9 8 9 9 7 9 9 7 % ,.+.= 9 9 9 , < 0 < < q q < q < F ",
"i.@ 8 e 8 9 e 8 e e e e e e 6 $.=.5 q 8 8 9 8 8 8 8 8 8 8 8 $ #.=.5 7 e 9 5 9 9 9 9 = 9 , 9 % =.#.= , 9 9 0 0 9 , q q < q q q F ",
"i.$ 8 8 9 8 8 8 9 e 9 e e e 7 o.=.8 8 8 8 9 8 8 e 8 8 9 8 8 ; O.=.3 9 7 9 8 8 9 5 , 9 , 9 9 = ,.+.= 9 9 0 9 , 0 , < 0 9 q w q F ",
"i.O 8 8 e 8 e 9 9 9 7 9 7 9 7 #.=.4 8 8 8 8 8 ; 8 8 8 8 8 8 $ =.-.$ 7 9 8 9 9 8 8 8 , 9 9 , = ,.+.= 9 9 9 9 < , 0 0 0 9 < 0 0 F ",
"i.. % 5 $ 4 % 3 3 $ 3 % % % @ X.O.. O $ $ $ $ $ $ $ ; % $ $ $ } +.X $ 5 $ 3 % % % % % % % = # +.O.o = = % = = = ; , ; 7 8 , < S ",
"B.{ O.O.O.#.O.#.O.O.O.O.O.O.] e.t.{ *.O.O.O.O.O.*.O.+.O.O.*.} 0.t.X.O.O.O.O.O.X.O.O.+.+.O.+.O.r.e.O.+.+.+.O.+.O.+.+.+.O.*.*.*.1.",
"Z.O.=.=.=.=.=.=.*.*.*.*.*.*.*.t.t. .*.*.*.*.*.*.=.=.=.=.=.=.=.t.u.=.*.*.=.=.=.*.=.*.*.*.,.;.*.v.y.,.,.,.,.,.*.,.=.,.,.,.,.-.,.0.",
"u.. O + % O O O O O O O O O . {  .. O O O O O O % $ $ $ $ . . { *.. $ ; $ $ O + % + ; ; + :   *.| o = = % % = % % % = = = = , y ",
"u.X ; ; ; ; ; ; + + ; + ; ; O  .*.O + ; ; ; ; ; ; 8 ; ; 8 ; $ O.=.$ ; ; ; ; ; 9 , < , , < , * =...% , , 0 < 0 , 9 < , < 0 q q S ",
"i.O ; ; ; ; ; ; ; + : ; + ; O  .*.O ; ; ; ; O ; ; ; ; ; ; 8 $ *.=.$ ; ; ; ; , 9 , , , , , , * ;.+.= 0 , , < 9 , 9 9 0 e 9 0 0 S ",
"i.O ; ; , , ; ; ; ; : : % ; O X.*.O ; + O + ; ; ; ; ; ; ; ; $ F =.$ ; ; ; ; , , , , , , , < ; =.+.+ < 9 , < q q 0 9 0 0 0 9 9 S ",
"b.O , , , , , q , , ; ; , ; O O.*.O ; ; ; ; + ; , ; ; ; ; ; ; *.=.. ; q , , , , < , , , , , % *.+.= , , 9 , , < 9 0 e 0 9 , , S ",
"i.+ 0 , , , , < , , , , , , +  .*.O ; ; ; : ; : , ; ; ; ; ; O *.=.O q , , , , , , , , , , , + ;...= , < , , 9 q 9 0 9 9 9 9 e S ",
"b.  , , , q , , , , , , ; ; % O.*.O ; ; ; ; ; ; , , ; , ; ; O *.*.; , ; , , , > , , , q < < + ;.+.+ , , , 9 , 9 9 , 9 , 9 9 9 F ",
"i.+ , , , < , q , , , , , , ; +.*.O ; ; ; , + ; : ; , ; ; , ;  .=.O ; ; , % , , , , , , ; , + ;...% , , , , 0 - 9 , 9 7 0 0 9 S ",
"b.  , < < , , , , , , , , , ;  .*.; ; , ; : : , ; , , : : ; O  .*.* , , , , , * ; , : , % : + *...= , , 0 0 = 9 9 0 9 9 9 9 e S ",
"b.% , , , , , < , , , , , , ;  .*.O , , , ; ; : ; , ; : + : +  .*.* , ; % , , ; ; , ; : , , O *.+.+ , 0 < 9 < 9 9 0 e 0 e 0 0 S ",
"i.O , , , , < < , q , , < < + +.*.O , , ; : , , : , : ; : : +  .*.O , : , , * , : , , ; , * + *...= < < < 0 9 0 9 0 0 9 0 e 0 S ",
"i.O , , , , , , , < < < , , %  .*.: , , , , , , , , , ; : ; +  .*.O : + O , + , ; , + , , : * ;...= < < 0 0 0 9 9 0 9 9 9 9 9 S ",
"b.O , , , , , , < , , , , , +  .*.% , , , , , : ; ; , > ; : O  .*.O O : : ; , , : , , * , , + ;.+.: < 0 9 0 0 0 0 9 0 0 0 0 0 S ",
"y.O , * , * * ; , % * O * + O | *.  * O O + * * : + + + + + O |  .  + + + + O O + + + + + + o +. .o , = - = = 7 - 7 7 = 7 = 7 l ",
"B.A *.*.*. .*. .*. .*. .*. .| w.y.{ *. . .*. . . . . . . . . .w.y.A  . . . . . . . . . . ...| r.e. .+.+.+.$.+.&.+.$.+.$.+.+.#.4.",
"V.+.,.&.;.$.;.,.,.;.*.&.;.$.+.r.x.*.*.;.;.*.*.*.*.*.*.*.;.*.*.y.b. .*.*.*.*.*.*.*.+.;.+.;.;.+.v.y.%.,.,.,.,.,.,.,.,.,.,.3.&.-.0.",
"x.X = = = = = = = % % + = = o  .*.  * + +   + o + + : + : O   L *.  O O + + + + * + + * * * o +.| o = - = , = = = = = = = 7 = t ",
"v.+ 7 0 0 0 9 - 7 9 , 0 , < = +.;.* , , : , , , : , > , : , * ..*.+ : , , : : > , , , - , , = ;.+.= < 0 0 < 0 < 0 < 0 0 q 9 9 F ",
"v.= 0 0 0 0 0 0 0 - 0 7 0 < = +.;.* < < , , , > , , , , , , * ..*.: : : , , , : , > * , : > % ;.+.= < < 0 < < , , 0 0 0 < 9 9 ` ",
"v.= 9 0 0 0 0 0 0 0 9 - 0 = - +.,.* 1 < < , < , , , , < , : + ..*.* : , , , , : , , > , > = = ;.+.- 0 < < 0 < 0 < < < 0 0 0 9 S ",
"v.= 0 0 0 0 0 0 9 0 0 0 0 , = ..;., < < < < < , , , , , , % * ..*.* , , : , ; : , , - , , , & ;.+.% = < < < < < 0 0 0 < 0 9 0 S ",
"c.% < 0 0 1 0 g 0 0 0 0 < < * +.;.* < < < < < , , , , = = , * ..*.+ , > , , : , , > - , , = * ,.+.= < < 0 < 0 < 0 q < q 0 < q F ",
"v.& < - , 1 0 0 0 0 g 0 1 0 > +.;.* , < < , < > , = = , = = * ..*.* , , : : , , , > , , > < = %.+.= 0 0 0 w w j < < < q 9 q e S ",
"x.* < < < < < < < 0 0 0 w 1 = ..;.+ , , , , : , , = = = , = % | ;.: > , : , > , , , < , < , = ,.+.- < 0 w 0 a w w j 0 0 w 0 0 S ",
"v.+ < < < , < , , 0 1 < 1 0 - ..*.* : = * ; , , = 9 = , , = & ..;.  ; > , , , > > < > > > < * ,.+.- 0 w w w 0 0 w w w 9 q q q S ",
"v.+ 1 < < < < < < < < < < 0 - ..;.+ , , , = = = 7 = = = = , % ..;.+ : : , : : , > > : 1 < < - <.<.h k z D t t t 0 q 0 r q 9 q y ",
"v.& > 1 w < < < < < < < < < = ..+.+ , = , > , 0 , ; , , , , % ..;.O , ; : ; , : , , > , < < - 9.8.v K G k C D D C j 0 0 9 q q ) ",
"v.o < < < < , < < < < < < < * +.=.# 7 , > i k g i < < < , - % +.*.O ; + , + O , , , > < < < > 8.s.m E c d G K G k k z l w e 0 S ",
"v.+ < < < < < < < < < , , < * ..=.% 9 g z J K H s k j s i < = ..*.O ; , ; ; ; ; , , < , , < * 7.8.K U U Y I E H G x [ [ t 0 e S ",
"l.  * * > * * , , - - * * * o | +.% < i v G c m m d x x p u & | *.    + O O O O ; O + % * = o :.5.x M M b b m m m c J g 7 7 5 t ",
"V...;.;.,.;.;.;.;.,.;.,.;.,.%.x.c.,.2.7.8.g.j.k.h.s.h.h.8.5.&.z.i.*.*.*.*.*.*.*.*.*.*.*.*.,.+.c.c.q.k.g.h.d.g.g.g.g.q.2.<.3.-.0.",
"B.L *...+.......+.+.+.+.+.+...l.l.%.5.8.s.a.d.f.f.f.f.f.d.d.&.z.l.o.+.%.+.+..... . .| | O.O.} r.e.&.6.s.>.a.s.d.d.s.5.;.,.3.$.4.",
"l.  * * + = - = - , - - , > = +.<.i k x I b N Q ~ B B B B U M s.6.p k v h < > * + O % $ $ $ . O.X.= x T I m M m H f s 1 0 t 9 ' ",
"x.+ > , 9 > > 9 < 0 < < < 1 - &.2.0 z v H T U W ~ ~ ~ Q Q Q N d.k.W R U U I H j q 9 8 ; % 5 % ,.,.h G I I I I H H k l S C C l F ",
"v.O , , , = = , , > < < < 0 < %.<.> 0 j Z K I U W ! ! Q Q Q N d.k.M R U U U E G j q 0 9 ; ; 9 9.7.J I I I I I H G Z Z D F D C  .",
"v.  < < , , = , , < < , < 0 * %.,.9 0 g h j x G E W Q W Q W N a.k.M R W W n Y d a j 0 , 0 0 k q.6.G H I I I T P H A Z k Z z l | ",
"b.* , < 9 , = , , , , , < , * +.1.= 9 9 w w h G P U U U W W M a.k.M U W W U U H d V l j l D v 8.>.c K T H H H G Z Z Z G J J v o.",
"c.+ 9 9 , , = , , , < , , , = &.1.9 e 9 e q 1 l L I T E Y Y b s.j.I Y U Y Y Y Y H G D C D D Z 9.>.d K K G H G G Z C A G D J [ o.",
"v.% , 9 9 9 , 9 9 ; , , 9 9 = +.1., q 9 9 < < j J H H E I b c 6.8.x H H T E H P G G D D A D j 9.5.k L J K G Z Z Z D Z G [ ` ` o.",
"x.# 9 0 0 0 0 9 9 , , ; 9 < ; +.,., 9 9 0 w j k k H K G T m x <.2.1 j Z H K v k C C A C C S q 2.;.w S y S S y y C z C D S _ _ ] ",
"v.% 9 9 9 9 9 9 q 0 < 9 q q , +.,.= 0 0 w D D J G k v H v v h <.1.< t j j l z z C C l l t t 9 1.*.; 0 q w y y y j t t y t t _ @.",
"v.o 9 0 9 q w q q 0 w 0 w w 9 *.,.9 w w j C S Z C l z z z z j ,.2.9 w r r w w t y w q q q q 8 -.#.9 r e r r r r r e r r ^ ( ( @.",
"v.$ 9 w r w 9 9 0 t w t t q , =.,.9 r w w l z t j w w w w w 0 ,.1.9 9 r q 9 q 0 q q q 9 q e 8 3.#.e r e e r e e e e e r e ( ( @.",
"v.5 w t t r e 0 t w w w w w 9 +.,.9 r r w t w l C l w w w w 0 =.,.9 9 r q 9 r w 9 9 9 9 e q e 3.=.e e e ^ e ^ ^ e ^ e e e ( / ' ",
"m.= r 0 r 0 0 0 q w r r w r 9 O.,.7 9 9 w 0 w t S w j w w 0 9 O.-.9 9 0 9 r r r q e q q q e 5 -.$.6 e r r ^ e e ^ e e 9 e / ^ ' ",
"r.X % % % $ % % % % = % 7 % $ X.+.@ 5 % % $ % , , 9 7 = % 5 @ X.$.@ % 5 $ 5 3 3 5 5 $ 5 % 4 4 #.} 4 5 4 4 . 4 4 4 4 3 3 5 6 6 ^ ",
"S.i.v.m.v.m.v.v.m.v.v.m.v.v.i.B.Z.v.v.v.m.v.m.v.v.v.m.v.v.m.v.V.V.i.m.v.m.m.m.m.m.m.v.v.v.m.u.Z.C.p.v.m.p.p.p.p.p.p.p.m.m.p.p.M."
};
